M48
; DRILL file {KiCad 8.0.1} date 2024-04-11T19:27:28-0600
; FORMAT={-:-/ absolute / metric / decimal}
; #@! TF.CreationDate,2024-04-11T19:27:28-06:00
; #@! TF.GenerationSoftware,Kicad,Pcbnew,8.0.1
; #@! TF.FileFunction,Plated,1,2,PTH
FMAT,2
METRIC
; #@! TA.AperFunction,Plated,PTH,ViaDrill
T1C0.300
; #@! TA.AperFunction,Plated,PTH,ComponentDrill
T2C0.300
; #@! TA.AperFunction,Plated,PTH,ViaDrill
T3C0.750
; #@! TA.AperFunction,Plated,PTH,ComponentDrill
T4C1.000
; #@! TA.AperFunction,Plated,PTH,ViaDrill
T5C1.500
%
G90
G05
T1
X99.9Y-84.4
X102.6Y-75.6
X104.2Y-75.5
X105.5Y-80.7
X107.6Y-79.3
X107.7Y-81.1
X115.2Y-70.0
T2
X117.44Y-71.927
X117.44Y-73.427
X117.94Y-72.677
X118.44Y-71.927
X118.44Y-73.427
T3
X120.8Y-74.2
X122.0Y-72.792
T4
X84.125Y-67.85
X84.125Y-70.39
X84.125Y-72.93
X84.125Y-75.47
X84.125Y-78.01
X84.125Y-80.55
X84.125Y-83.09
X84.125Y-85.63
X84.125Y-88.17
X84.125Y-90.71
X84.125Y-93.25
X84.125Y-95.79
X84.125Y-98.33
X84.125Y-100.87
X84.125Y-103.41
X84.125Y-105.95
X84.125Y-108.49
X84.125Y-111.03
X84.125Y-113.57
X84.125Y-116.11
X86.665Y-67.85
X86.665Y-70.39
X86.665Y-72.93
X86.665Y-75.47
X86.665Y-78.01
X86.665Y-80.55
X86.665Y-83.09
X86.665Y-85.63
X86.665Y-88.17
X86.665Y-90.71
X86.665Y-93.25
X86.665Y-95.79
X86.665Y-98.33
X86.665Y-100.87
X86.665Y-103.41
X86.665Y-105.95
X86.665Y-108.49
X86.665Y-111.03
X86.665Y-113.57
X86.665Y-116.11
X92.3Y-78.2
X94.8Y-78.2
X97.4Y-89.0
X97.4Y-95.9
X97.4Y-103.3
X97.4Y-109.9
X99.9Y-89.0
X99.9Y-95.9
X99.9Y-103.3
X99.9Y-109.9
X115.4Y-86.034
X120.8Y-86.1
X130.6Y-93.0
X130.6Y-95.5
T5
X121.2Y-70.0
M30
