%TF.GenerationSoftware,KiCad,Pcbnew,8.0.1*%
%TF.CreationDate,2024-04-11T19:27:32-06:00*%
%TF.ProjectId,ECE Altitude Project,45434520-416c-4746-9974-756465205072,rev?*%
%TF.SameCoordinates,Original*%
%TF.FileFunction,Drillmap*%
%TF.FilePolarity,Positive*%
%FSLAX45Y45*%
G04 Gerber Fmt 4.5, Leading zero omitted, Abs format (unit mm)*
G04 Created by KiCad (PCBNEW 8.0.1) date 2024-04-11 19:27:32*
%MOMM*%
%LPD*%
G01*
G04 APERTURE LIST*
%ADD10C,0.050000*%
%ADD11C,0.200000*%
%ADD12C,0.100000*%
%ADD13C,0.150000*%
G04 APERTURE END LIST*
D10*
X8140000Y-6585000D02*
X13710000Y-6585000D01*
X13710000Y-12265000D01*
X8140000Y-12265000D01*
X8140000Y-6585000D01*
D11*
D12*
X9975000Y-8425000D02*
X10005000Y-8455000D01*
X10005000Y-8425000D02*
X9975000Y-8455000D01*
X10245000Y-7545000D02*
X10275000Y-7575000D01*
X10275000Y-7545000D02*
X10245000Y-7575000D01*
X10405000Y-7535000D02*
X10435000Y-7565000D01*
X10435000Y-7535000D02*
X10405000Y-7565000D01*
X10535000Y-8055000D02*
X10565000Y-8085000D01*
X10565000Y-8055000D02*
X10535000Y-8085000D01*
X10745000Y-7915000D02*
X10775000Y-7945000D01*
X10775000Y-7915000D02*
X10745000Y-7945000D01*
X10755000Y-8095000D02*
X10785000Y-8125000D01*
X10785000Y-8095000D02*
X10755000Y-8125000D01*
X11505000Y-6985000D02*
X11535000Y-7015000D01*
X11535000Y-6985000D02*
X11505000Y-7015000D01*
X11759000Y-7192654D02*
G75*
G02*
X11729000Y-7192654I-15000J0D01*
G01*
X11729000Y-7192654D02*
G75*
G02*
X11759000Y-7192654I15000J0D01*
G01*
X11759000Y-7342654D02*
G75*
G02*
X11729000Y-7342654I-15000J0D01*
G01*
X11729000Y-7342654D02*
G75*
G02*
X11759000Y-7342654I15000J0D01*
G01*
X11809000Y-7267654D02*
G75*
G02*
X11779000Y-7267654I-15000J0D01*
G01*
X11779000Y-7267654D02*
G75*
G02*
X11809000Y-7267654I15000J0D01*
G01*
X11859000Y-7192654D02*
G75*
G02*
X11829000Y-7192654I-15000J0D01*
G01*
X11829000Y-7192654D02*
G75*
G02*
X11859000Y-7192654I15000J0D01*
G01*
X11859000Y-7342654D02*
G75*
G02*
X11829000Y-7342654I-15000J0D01*
G01*
X11829000Y-7342654D02*
G75*
G02*
X11859000Y-7342654I15000J0D01*
G01*
X12080000Y-7382500D02*
X12080000Y-7457500D01*
X12042500Y-7420000D02*
X12117500Y-7420000D01*
X12200000Y-7241654D02*
X12200000Y-7316654D01*
X12162500Y-7279154D02*
X12237500Y-7279154D01*
X8447856Y-6820356D02*
X8447856Y-6749644D01*
X8377144Y-6749644D01*
X8377144Y-6820356D01*
X8447856Y-6820356D01*
X8447856Y-7074356D02*
X8447856Y-7003644D01*
X8377144Y-7003644D01*
X8377144Y-7074356D01*
X8447856Y-7074356D01*
X8447856Y-7328356D02*
X8447856Y-7257644D01*
X8377144Y-7257644D01*
X8377144Y-7328356D01*
X8447856Y-7328356D01*
X8447856Y-7582356D02*
X8447856Y-7511644D01*
X8377144Y-7511644D01*
X8377144Y-7582356D01*
X8447856Y-7582356D01*
X8447856Y-7836356D02*
X8447856Y-7765644D01*
X8377144Y-7765644D01*
X8377144Y-7836356D01*
X8447856Y-7836356D01*
X8447856Y-8090356D02*
X8447856Y-8019644D01*
X8377144Y-8019644D01*
X8377144Y-8090356D01*
X8447856Y-8090356D01*
X8447856Y-8344356D02*
X8447856Y-8273644D01*
X8377144Y-8273644D01*
X8377144Y-8344356D01*
X8447856Y-8344356D01*
X8447856Y-8598356D02*
X8447856Y-8527644D01*
X8377144Y-8527644D01*
X8377144Y-8598356D01*
X8447856Y-8598356D01*
X8447856Y-8852356D02*
X8447856Y-8781644D01*
X8377144Y-8781644D01*
X8377144Y-8852356D01*
X8447856Y-8852356D01*
X8447856Y-9106356D02*
X8447856Y-9035644D01*
X8377144Y-9035644D01*
X8377144Y-9106356D01*
X8447856Y-9106356D01*
X8447856Y-9360356D02*
X8447856Y-9289644D01*
X8377144Y-9289644D01*
X8377144Y-9360356D01*
X8447856Y-9360356D01*
X8447856Y-9614356D02*
X8447856Y-9543644D01*
X8377144Y-9543644D01*
X8377144Y-9614356D01*
X8447856Y-9614356D01*
X8447856Y-9868356D02*
X8447856Y-9797644D01*
X8377144Y-9797644D01*
X8377144Y-9868356D01*
X8447856Y-9868356D01*
X8447856Y-10122356D02*
X8447856Y-10051644D01*
X8377144Y-10051644D01*
X8377144Y-10122356D01*
X8447856Y-10122356D01*
X8447856Y-10376356D02*
X8447856Y-10305644D01*
X8377144Y-10305644D01*
X8377144Y-10376356D01*
X8447856Y-10376356D01*
X8447856Y-10630356D02*
X8447856Y-10559644D01*
X8377144Y-10559644D01*
X8377144Y-10630356D01*
X8447856Y-10630356D01*
X8447856Y-10884356D02*
X8447856Y-10813644D01*
X8377144Y-10813644D01*
X8377144Y-10884356D01*
X8447856Y-10884356D01*
X8447856Y-11138356D02*
X8447856Y-11067644D01*
X8377144Y-11067644D01*
X8377144Y-11138356D01*
X8447856Y-11138356D01*
X8447856Y-11392356D02*
X8447856Y-11321644D01*
X8377144Y-11321644D01*
X8377144Y-11392356D01*
X8447856Y-11392356D01*
X8447856Y-11646356D02*
X8447856Y-11575644D01*
X8377144Y-11575644D01*
X8377144Y-11646356D01*
X8447856Y-11646356D01*
X8701856Y-6820356D02*
X8701856Y-6749644D01*
X8631144Y-6749644D01*
X8631144Y-6820356D01*
X8701856Y-6820356D01*
X8701856Y-7074356D02*
X8701856Y-7003644D01*
X8631144Y-7003644D01*
X8631144Y-7074356D01*
X8701856Y-7074356D01*
X8701856Y-7328356D02*
X8701856Y-7257644D01*
X8631144Y-7257644D01*
X8631144Y-7328356D01*
X8701856Y-7328356D01*
X8701856Y-7582356D02*
X8701856Y-7511644D01*
X8631144Y-7511644D01*
X8631144Y-7582356D01*
X8701856Y-7582356D01*
X8701856Y-7836356D02*
X8701856Y-7765644D01*
X8631144Y-7765644D01*
X8631144Y-7836356D01*
X8701856Y-7836356D01*
X8701856Y-8090356D02*
X8701856Y-8019644D01*
X8631144Y-8019644D01*
X8631144Y-8090356D01*
X8701856Y-8090356D01*
X8701856Y-8344356D02*
X8701856Y-8273644D01*
X8631144Y-8273644D01*
X8631144Y-8344356D01*
X8701856Y-8344356D01*
X8701856Y-8598356D02*
X8701856Y-8527644D01*
X8631144Y-8527644D01*
X8631144Y-8598356D01*
X8701856Y-8598356D01*
X8701856Y-8852356D02*
X8701856Y-8781644D01*
X8631144Y-8781644D01*
X8631144Y-8852356D01*
X8701856Y-8852356D01*
X8701856Y-9106356D02*
X8701856Y-9035644D01*
X8631144Y-9035644D01*
X8631144Y-9106356D01*
X8701856Y-9106356D01*
X8701856Y-9360356D02*
X8701856Y-9289644D01*
X8631144Y-9289644D01*
X8631144Y-9360356D01*
X8701856Y-9360356D01*
X8701856Y-9614356D02*
X8701856Y-9543644D01*
X8631144Y-9543644D01*
X8631144Y-9614356D01*
X8701856Y-9614356D01*
X8701856Y-9868356D02*
X8701856Y-9797644D01*
X8631144Y-9797644D01*
X8631144Y-9868356D01*
X8701856Y-9868356D01*
X8701856Y-10122356D02*
X8701856Y-10051644D01*
X8631144Y-10051644D01*
X8631144Y-10122356D01*
X8701856Y-10122356D01*
X8701856Y-10376356D02*
X8701856Y-10305644D01*
X8631144Y-10305644D01*
X8631144Y-10376356D01*
X8701856Y-10376356D01*
X8701856Y-10630356D02*
X8701856Y-10559644D01*
X8631144Y-10559644D01*
X8631144Y-10630356D01*
X8701856Y-10630356D01*
X8701856Y-10884356D02*
X8701856Y-10813644D01*
X8631144Y-10813644D01*
X8631144Y-10884356D01*
X8701856Y-10884356D01*
X8701856Y-11138356D02*
X8701856Y-11067644D01*
X8631144Y-11067644D01*
X8631144Y-11138356D01*
X8701856Y-11138356D01*
X8701856Y-11392356D02*
X8701856Y-11321644D01*
X8631144Y-11321644D01*
X8631144Y-11392356D01*
X8701856Y-11392356D01*
X8701856Y-11646356D02*
X8701856Y-11575644D01*
X8631144Y-11575644D01*
X8631144Y-11646356D01*
X8701856Y-11646356D01*
X9265356Y-7855356D02*
X9265356Y-7784644D01*
X9194644Y-7784644D01*
X9194644Y-7855356D01*
X9265356Y-7855356D01*
X9515356Y-7855356D02*
X9515356Y-7784644D01*
X9444644Y-7784644D01*
X9444644Y-7855356D01*
X9515356Y-7855356D01*
X9775356Y-8935356D02*
X9775356Y-8864644D01*
X9704644Y-8864644D01*
X9704644Y-8935356D01*
X9775356Y-8935356D01*
X9775356Y-9625356D02*
X9775356Y-9554644D01*
X9704644Y-9554644D01*
X9704644Y-9625356D01*
X9775356Y-9625356D01*
X9775356Y-10365356D02*
X9775356Y-10294644D01*
X9704644Y-10294644D01*
X9704644Y-10365356D01*
X9775356Y-10365356D01*
X9775356Y-11025356D02*
X9775356Y-10954644D01*
X9704644Y-10954644D01*
X9704644Y-11025356D01*
X9775356Y-11025356D01*
X10025356Y-8935356D02*
X10025356Y-8864644D01*
X9954644Y-8864644D01*
X9954644Y-8935356D01*
X10025356Y-8935356D01*
X10025356Y-9625356D02*
X10025356Y-9554644D01*
X9954644Y-9554644D01*
X9954644Y-9625356D01*
X10025356Y-9625356D01*
X10025356Y-10365356D02*
X10025356Y-10294644D01*
X9954644Y-10294644D01*
X9954644Y-10365356D01*
X10025356Y-10365356D01*
X10025356Y-11025356D02*
X10025356Y-10954644D01*
X9954644Y-10954644D01*
X9954644Y-11025356D01*
X10025356Y-11025356D01*
X11575356Y-8638760D02*
X11575356Y-8568049D01*
X11504644Y-8568049D01*
X11504644Y-8638760D01*
X11575356Y-8638760D01*
X12115356Y-8645356D02*
X12115356Y-8574644D01*
X12044644Y-8574644D01*
X12044644Y-8645356D01*
X12115356Y-8645356D01*
X13095356Y-9335356D02*
X13095356Y-9264644D01*
X13024644Y-9264644D01*
X13024644Y-9335356D01*
X13095356Y-9335356D01*
X13095356Y-9585356D02*
X13095356Y-9514644D01*
X13024644Y-9514644D01*
X13024644Y-9585356D01*
X13095356Y-9585356D01*
D13*
X12120000Y-7075000D02*
X12195000Y-7000000D01*
X12120000Y-6925000D01*
X12045000Y-7000000D01*
X12120000Y-7075000D01*
D11*
X8398277Y-12578984D02*
X8398277Y-12378984D01*
X8398277Y-12378984D02*
X8445896Y-12378984D01*
X8445896Y-12378984D02*
X8474467Y-12388508D01*
X8474467Y-12388508D02*
X8493515Y-12407555D01*
X8493515Y-12407555D02*
X8503039Y-12426603D01*
X8503039Y-12426603D02*
X8512563Y-12464698D01*
X8512563Y-12464698D02*
X8512563Y-12493269D01*
X8512563Y-12493269D02*
X8503039Y-12531365D01*
X8503039Y-12531365D02*
X8493515Y-12550412D01*
X8493515Y-12550412D02*
X8474467Y-12569460D01*
X8474467Y-12569460D02*
X8445896Y-12578984D01*
X8445896Y-12578984D02*
X8398277Y-12578984D01*
X8598277Y-12578984D02*
X8598277Y-12445650D01*
X8598277Y-12483746D02*
X8607801Y-12464698D01*
X8607801Y-12464698D02*
X8617324Y-12455174D01*
X8617324Y-12455174D02*
X8636372Y-12445650D01*
X8636372Y-12445650D02*
X8655420Y-12445650D01*
X8722086Y-12578984D02*
X8722086Y-12445650D01*
X8722086Y-12378984D02*
X8712563Y-12388508D01*
X8712563Y-12388508D02*
X8722086Y-12398031D01*
X8722086Y-12398031D02*
X8731610Y-12388508D01*
X8731610Y-12388508D02*
X8722086Y-12378984D01*
X8722086Y-12378984D02*
X8722086Y-12398031D01*
X8845896Y-12578984D02*
X8826848Y-12569460D01*
X8826848Y-12569460D02*
X8817324Y-12550412D01*
X8817324Y-12550412D02*
X8817324Y-12378984D01*
X8950658Y-12578984D02*
X8931610Y-12569460D01*
X8931610Y-12569460D02*
X8922086Y-12550412D01*
X8922086Y-12550412D02*
X8922086Y-12378984D01*
X9179229Y-12578984D02*
X9179229Y-12378984D01*
X9179229Y-12378984D02*
X9245896Y-12521841D01*
X9245896Y-12521841D02*
X9312563Y-12378984D01*
X9312563Y-12378984D02*
X9312563Y-12578984D01*
X9493515Y-12578984D02*
X9493515Y-12474222D01*
X9493515Y-12474222D02*
X9483991Y-12455174D01*
X9483991Y-12455174D02*
X9464944Y-12445650D01*
X9464944Y-12445650D02*
X9426848Y-12445650D01*
X9426848Y-12445650D02*
X9407801Y-12455174D01*
X9493515Y-12569460D02*
X9474467Y-12578984D01*
X9474467Y-12578984D02*
X9426848Y-12578984D01*
X9426848Y-12578984D02*
X9407801Y-12569460D01*
X9407801Y-12569460D02*
X9398277Y-12550412D01*
X9398277Y-12550412D02*
X9398277Y-12531365D01*
X9398277Y-12531365D02*
X9407801Y-12512317D01*
X9407801Y-12512317D02*
X9426848Y-12502793D01*
X9426848Y-12502793D02*
X9474467Y-12502793D01*
X9474467Y-12502793D02*
X9493515Y-12493269D01*
X9588753Y-12445650D02*
X9588753Y-12645650D01*
X9588753Y-12455174D02*
X9607801Y-12445650D01*
X9607801Y-12445650D02*
X9645896Y-12445650D01*
X9645896Y-12445650D02*
X9664944Y-12455174D01*
X9664944Y-12455174D02*
X9674467Y-12464698D01*
X9674467Y-12464698D02*
X9683991Y-12483746D01*
X9683991Y-12483746D02*
X9683991Y-12540888D01*
X9683991Y-12540888D02*
X9674467Y-12559936D01*
X9674467Y-12559936D02*
X9664944Y-12569460D01*
X9664944Y-12569460D02*
X9645896Y-12578984D01*
X9645896Y-12578984D02*
X9607801Y-12578984D01*
X9607801Y-12578984D02*
X9588753Y-12569460D01*
X9769705Y-12559936D02*
X9779229Y-12569460D01*
X9779229Y-12569460D02*
X9769705Y-12578984D01*
X9769705Y-12578984D02*
X9760182Y-12569460D01*
X9760182Y-12569460D02*
X9769705Y-12559936D01*
X9769705Y-12559936D02*
X9769705Y-12578984D01*
X9769705Y-12455174D02*
X9779229Y-12464698D01*
X9779229Y-12464698D02*
X9769705Y-12474222D01*
X9769705Y-12474222D02*
X9760182Y-12464698D01*
X9760182Y-12464698D02*
X9769705Y-12455174D01*
X9769705Y-12455174D02*
X9769705Y-12474222D01*
D12*
X8107500Y-12892500D02*
X8137500Y-12922500D01*
X8137500Y-12892500D02*
X8107500Y-12922500D01*
D11*
X8436372Y-12798984D02*
X8455420Y-12798984D01*
X8455420Y-12798984D02*
X8474467Y-12808508D01*
X8474467Y-12808508D02*
X8483991Y-12818031D01*
X8483991Y-12818031D02*
X8493515Y-12837079D01*
X8493515Y-12837079D02*
X8503039Y-12875174D01*
X8503039Y-12875174D02*
X8503039Y-12922793D01*
X8503039Y-12922793D02*
X8493515Y-12960888D01*
X8493515Y-12960888D02*
X8483991Y-12979936D01*
X8483991Y-12979936D02*
X8474467Y-12989460D01*
X8474467Y-12989460D02*
X8455420Y-12998984D01*
X8455420Y-12998984D02*
X8436372Y-12998984D01*
X8436372Y-12998984D02*
X8417324Y-12989460D01*
X8417324Y-12989460D02*
X8407801Y-12979936D01*
X8407801Y-12979936D02*
X8398277Y-12960888D01*
X8398277Y-12960888D02*
X8388753Y-12922793D01*
X8388753Y-12922793D02*
X8388753Y-12875174D01*
X8388753Y-12875174D02*
X8398277Y-12837079D01*
X8398277Y-12837079D02*
X8407801Y-12818031D01*
X8407801Y-12818031D02*
X8417324Y-12808508D01*
X8417324Y-12808508D02*
X8436372Y-12798984D01*
X8588753Y-12979936D02*
X8598277Y-12989460D01*
X8598277Y-12989460D02*
X8588753Y-12998984D01*
X8588753Y-12998984D02*
X8579229Y-12989460D01*
X8579229Y-12989460D02*
X8588753Y-12979936D01*
X8588753Y-12979936D02*
X8588753Y-12998984D01*
X8664944Y-12798984D02*
X8788753Y-12798984D01*
X8788753Y-12798984D02*
X8722086Y-12875174D01*
X8722086Y-12875174D02*
X8750658Y-12875174D01*
X8750658Y-12875174D02*
X8769705Y-12884698D01*
X8769705Y-12884698D02*
X8779229Y-12894222D01*
X8779229Y-12894222D02*
X8788753Y-12913269D01*
X8788753Y-12913269D02*
X8788753Y-12960888D01*
X8788753Y-12960888D02*
X8779229Y-12979936D01*
X8779229Y-12979936D02*
X8769705Y-12989460D01*
X8769705Y-12989460D02*
X8750658Y-12998984D01*
X8750658Y-12998984D02*
X8693515Y-12998984D01*
X8693515Y-12998984D02*
X8674467Y-12989460D01*
X8674467Y-12989460D02*
X8664944Y-12979936D01*
X8912563Y-12798984D02*
X8931610Y-12798984D01*
X8931610Y-12798984D02*
X8950658Y-12808508D01*
X8950658Y-12808508D02*
X8960182Y-12818031D01*
X8960182Y-12818031D02*
X8969705Y-12837079D01*
X8969705Y-12837079D02*
X8979229Y-12875174D01*
X8979229Y-12875174D02*
X8979229Y-12922793D01*
X8979229Y-12922793D02*
X8969705Y-12960888D01*
X8969705Y-12960888D02*
X8960182Y-12979936D01*
X8960182Y-12979936D02*
X8950658Y-12989460D01*
X8950658Y-12989460D02*
X8931610Y-12998984D01*
X8931610Y-12998984D02*
X8912563Y-12998984D01*
X8912563Y-12998984D02*
X8893515Y-12989460D01*
X8893515Y-12989460D02*
X8883991Y-12979936D01*
X8883991Y-12979936D02*
X8874467Y-12960888D01*
X8874467Y-12960888D02*
X8864944Y-12922793D01*
X8864944Y-12922793D02*
X8864944Y-12875174D01*
X8864944Y-12875174D02*
X8874467Y-12837079D01*
X8874467Y-12837079D02*
X8883991Y-12818031D01*
X8883991Y-12818031D02*
X8893515Y-12808508D01*
X8893515Y-12808508D02*
X8912563Y-12798984D01*
X9103039Y-12798984D02*
X9122086Y-12798984D01*
X9122086Y-12798984D02*
X9141134Y-12808508D01*
X9141134Y-12808508D02*
X9150658Y-12818031D01*
X9150658Y-12818031D02*
X9160182Y-12837079D01*
X9160182Y-12837079D02*
X9169705Y-12875174D01*
X9169705Y-12875174D02*
X9169705Y-12922793D01*
X9169705Y-12922793D02*
X9160182Y-12960888D01*
X9160182Y-12960888D02*
X9150658Y-12979936D01*
X9150658Y-12979936D02*
X9141134Y-12989460D01*
X9141134Y-12989460D02*
X9122086Y-12998984D01*
X9122086Y-12998984D02*
X9103039Y-12998984D01*
X9103039Y-12998984D02*
X9083991Y-12989460D01*
X9083991Y-12989460D02*
X9074467Y-12979936D01*
X9074467Y-12979936D02*
X9064944Y-12960888D01*
X9064944Y-12960888D02*
X9055420Y-12922793D01*
X9055420Y-12922793D02*
X9055420Y-12875174D01*
X9055420Y-12875174D02*
X9064944Y-12837079D01*
X9064944Y-12837079D02*
X9074467Y-12818031D01*
X9074467Y-12818031D02*
X9083991Y-12808508D01*
X9083991Y-12808508D02*
X9103039Y-12798984D01*
X9255420Y-12998984D02*
X9255420Y-12865650D01*
X9255420Y-12884698D02*
X9264944Y-12875174D01*
X9264944Y-12875174D02*
X9283991Y-12865650D01*
X9283991Y-12865650D02*
X9312563Y-12865650D01*
X9312563Y-12865650D02*
X9331610Y-12875174D01*
X9331610Y-12875174D02*
X9341134Y-12894222D01*
X9341134Y-12894222D02*
X9341134Y-12998984D01*
X9341134Y-12894222D02*
X9350658Y-12875174D01*
X9350658Y-12875174D02*
X9369705Y-12865650D01*
X9369705Y-12865650D02*
X9398277Y-12865650D01*
X9398277Y-12865650D02*
X9417325Y-12875174D01*
X9417325Y-12875174D02*
X9426848Y-12894222D01*
X9426848Y-12894222D02*
X9426848Y-12998984D01*
X9522086Y-12998984D02*
X9522086Y-12865650D01*
X9522086Y-12884698D02*
X9531610Y-12875174D01*
X9531610Y-12875174D02*
X9550658Y-12865650D01*
X9550658Y-12865650D02*
X9579229Y-12865650D01*
X9579229Y-12865650D02*
X9598277Y-12875174D01*
X9598277Y-12875174D02*
X9607801Y-12894222D01*
X9607801Y-12894222D02*
X9607801Y-12998984D01*
X9607801Y-12894222D02*
X9617325Y-12875174D01*
X9617325Y-12875174D02*
X9636372Y-12865650D01*
X9636372Y-12865650D02*
X9664944Y-12865650D01*
X9664944Y-12865650D02*
X9683991Y-12875174D01*
X9683991Y-12875174D02*
X9693515Y-12894222D01*
X9693515Y-12894222D02*
X9693515Y-12998984D01*
X10083991Y-12789460D02*
X9912563Y-13046603D01*
X10341134Y-12798984D02*
X10360182Y-12798984D01*
X10360182Y-12798984D02*
X10379229Y-12808508D01*
X10379229Y-12808508D02*
X10388753Y-12818031D01*
X10388753Y-12818031D02*
X10398277Y-12837079D01*
X10398277Y-12837079D02*
X10407801Y-12875174D01*
X10407801Y-12875174D02*
X10407801Y-12922793D01*
X10407801Y-12922793D02*
X10398277Y-12960888D01*
X10398277Y-12960888D02*
X10388753Y-12979936D01*
X10388753Y-12979936D02*
X10379229Y-12989460D01*
X10379229Y-12989460D02*
X10360182Y-12998984D01*
X10360182Y-12998984D02*
X10341134Y-12998984D01*
X10341134Y-12998984D02*
X10322087Y-12989460D01*
X10322087Y-12989460D02*
X10312563Y-12979936D01*
X10312563Y-12979936D02*
X10303039Y-12960888D01*
X10303039Y-12960888D02*
X10293515Y-12922793D01*
X10293515Y-12922793D02*
X10293515Y-12875174D01*
X10293515Y-12875174D02*
X10303039Y-12837079D01*
X10303039Y-12837079D02*
X10312563Y-12818031D01*
X10312563Y-12818031D02*
X10322087Y-12808508D01*
X10322087Y-12808508D02*
X10341134Y-12798984D01*
X10493515Y-12979936D02*
X10503039Y-12989460D01*
X10503039Y-12989460D02*
X10493515Y-12998984D01*
X10493515Y-12998984D02*
X10483991Y-12989460D01*
X10483991Y-12989460D02*
X10493515Y-12979936D01*
X10493515Y-12979936D02*
X10493515Y-12998984D01*
X10626848Y-12798984D02*
X10645896Y-12798984D01*
X10645896Y-12798984D02*
X10664944Y-12808508D01*
X10664944Y-12808508D02*
X10674468Y-12818031D01*
X10674468Y-12818031D02*
X10683991Y-12837079D01*
X10683991Y-12837079D02*
X10693515Y-12875174D01*
X10693515Y-12875174D02*
X10693515Y-12922793D01*
X10693515Y-12922793D02*
X10683991Y-12960888D01*
X10683991Y-12960888D02*
X10674468Y-12979936D01*
X10674468Y-12979936D02*
X10664944Y-12989460D01*
X10664944Y-12989460D02*
X10645896Y-12998984D01*
X10645896Y-12998984D02*
X10626848Y-12998984D01*
X10626848Y-12998984D02*
X10607801Y-12989460D01*
X10607801Y-12989460D02*
X10598277Y-12979936D01*
X10598277Y-12979936D02*
X10588753Y-12960888D01*
X10588753Y-12960888D02*
X10579229Y-12922793D01*
X10579229Y-12922793D02*
X10579229Y-12875174D01*
X10579229Y-12875174D02*
X10588753Y-12837079D01*
X10588753Y-12837079D02*
X10598277Y-12818031D01*
X10598277Y-12818031D02*
X10607801Y-12808508D01*
X10607801Y-12808508D02*
X10626848Y-12798984D01*
X10883991Y-12998984D02*
X10769706Y-12998984D01*
X10826848Y-12998984D02*
X10826848Y-12798984D01*
X10826848Y-12798984D02*
X10807801Y-12827555D01*
X10807801Y-12827555D02*
X10788753Y-12846603D01*
X10788753Y-12846603D02*
X10769706Y-12856127D01*
X11074468Y-12998984D02*
X10960182Y-12998984D01*
X11017325Y-12998984D02*
X11017325Y-12798984D01*
X11017325Y-12798984D02*
X10998277Y-12827555D01*
X10998277Y-12827555D02*
X10979229Y-12846603D01*
X10979229Y-12846603D02*
X10960182Y-12856127D01*
X11188753Y-12884698D02*
X11169706Y-12875174D01*
X11169706Y-12875174D02*
X11160182Y-12865650D01*
X11160182Y-12865650D02*
X11150658Y-12846603D01*
X11150658Y-12846603D02*
X11150658Y-12837079D01*
X11150658Y-12837079D02*
X11160182Y-12818031D01*
X11160182Y-12818031D02*
X11169706Y-12808508D01*
X11169706Y-12808508D02*
X11188753Y-12798984D01*
X11188753Y-12798984D02*
X11226848Y-12798984D01*
X11226848Y-12798984D02*
X11245896Y-12808508D01*
X11245896Y-12808508D02*
X11255420Y-12818031D01*
X11255420Y-12818031D02*
X11264944Y-12837079D01*
X11264944Y-12837079D02*
X11264944Y-12846603D01*
X11264944Y-12846603D02*
X11255420Y-12865650D01*
X11255420Y-12865650D02*
X11245896Y-12875174D01*
X11245896Y-12875174D02*
X11226848Y-12884698D01*
X11226848Y-12884698D02*
X11188753Y-12884698D01*
X11188753Y-12884698D02*
X11169706Y-12894222D01*
X11169706Y-12894222D02*
X11160182Y-12903746D01*
X11160182Y-12903746D02*
X11150658Y-12922793D01*
X11150658Y-12922793D02*
X11150658Y-12960888D01*
X11150658Y-12960888D02*
X11160182Y-12979936D01*
X11160182Y-12979936D02*
X11169706Y-12989460D01*
X11169706Y-12989460D02*
X11188753Y-12998984D01*
X11188753Y-12998984D02*
X11226848Y-12998984D01*
X11226848Y-12998984D02*
X11245896Y-12989460D01*
X11245896Y-12989460D02*
X11255420Y-12979936D01*
X11255420Y-12979936D02*
X11264944Y-12960888D01*
X11264944Y-12960888D02*
X11264944Y-12922793D01*
X11264944Y-12922793D02*
X11255420Y-12903746D01*
X11255420Y-12903746D02*
X11245896Y-12894222D01*
X11245896Y-12894222D02*
X11226848Y-12884698D01*
X11341134Y-12798984D02*
X11341134Y-12837079D01*
X11417325Y-12798984D02*
X11417325Y-12837079D01*
X11712563Y-13075174D02*
X11703039Y-13065650D01*
X11703039Y-13065650D02*
X11683991Y-13037079D01*
X11683991Y-13037079D02*
X11674468Y-13018031D01*
X11674468Y-13018031D02*
X11664944Y-12989460D01*
X11664944Y-12989460D02*
X11655420Y-12941841D01*
X11655420Y-12941841D02*
X11655420Y-12903746D01*
X11655420Y-12903746D02*
X11664944Y-12856127D01*
X11664944Y-12856127D02*
X11674468Y-12827555D01*
X11674468Y-12827555D02*
X11683991Y-12808508D01*
X11683991Y-12808508D02*
X11703039Y-12779936D01*
X11703039Y-12779936D02*
X11712563Y-12770412D01*
X11769706Y-12798984D02*
X11903039Y-12798984D01*
X11903039Y-12798984D02*
X11817325Y-12998984D01*
X12131610Y-12998984D02*
X12131610Y-12798984D01*
X12217325Y-12998984D02*
X12217325Y-12894222D01*
X12217325Y-12894222D02*
X12207801Y-12875174D01*
X12207801Y-12875174D02*
X12188753Y-12865650D01*
X12188753Y-12865650D02*
X12160182Y-12865650D01*
X12160182Y-12865650D02*
X12141134Y-12875174D01*
X12141134Y-12875174D02*
X12131610Y-12884698D01*
X12341134Y-12998984D02*
X12322087Y-12989460D01*
X12322087Y-12989460D02*
X12312563Y-12979936D01*
X12312563Y-12979936D02*
X12303039Y-12960888D01*
X12303039Y-12960888D02*
X12303039Y-12903746D01*
X12303039Y-12903746D02*
X12312563Y-12884698D01*
X12312563Y-12884698D02*
X12322087Y-12875174D01*
X12322087Y-12875174D02*
X12341134Y-12865650D01*
X12341134Y-12865650D02*
X12369706Y-12865650D01*
X12369706Y-12865650D02*
X12388753Y-12875174D01*
X12388753Y-12875174D02*
X12398277Y-12884698D01*
X12398277Y-12884698D02*
X12407801Y-12903746D01*
X12407801Y-12903746D02*
X12407801Y-12960888D01*
X12407801Y-12960888D02*
X12398277Y-12979936D01*
X12398277Y-12979936D02*
X12388753Y-12989460D01*
X12388753Y-12989460D02*
X12369706Y-12998984D01*
X12369706Y-12998984D02*
X12341134Y-12998984D01*
X12522087Y-12998984D02*
X12503039Y-12989460D01*
X12503039Y-12989460D02*
X12493515Y-12970412D01*
X12493515Y-12970412D02*
X12493515Y-12798984D01*
X12674468Y-12989460D02*
X12655420Y-12998984D01*
X12655420Y-12998984D02*
X12617325Y-12998984D01*
X12617325Y-12998984D02*
X12598277Y-12989460D01*
X12598277Y-12989460D02*
X12588753Y-12970412D01*
X12588753Y-12970412D02*
X12588753Y-12894222D01*
X12588753Y-12894222D02*
X12598277Y-12875174D01*
X12598277Y-12875174D02*
X12617325Y-12865650D01*
X12617325Y-12865650D02*
X12655420Y-12865650D01*
X12655420Y-12865650D02*
X12674468Y-12875174D01*
X12674468Y-12875174D02*
X12683991Y-12894222D01*
X12683991Y-12894222D02*
X12683991Y-12913269D01*
X12683991Y-12913269D02*
X12588753Y-12932317D01*
X12760182Y-12989460D02*
X12779230Y-12998984D01*
X12779230Y-12998984D02*
X12817325Y-12998984D01*
X12817325Y-12998984D02*
X12836372Y-12989460D01*
X12836372Y-12989460D02*
X12845896Y-12970412D01*
X12845896Y-12970412D02*
X12845896Y-12960888D01*
X12845896Y-12960888D02*
X12836372Y-12941841D01*
X12836372Y-12941841D02*
X12817325Y-12932317D01*
X12817325Y-12932317D02*
X12788753Y-12932317D01*
X12788753Y-12932317D02*
X12769706Y-12922793D01*
X12769706Y-12922793D02*
X12760182Y-12903746D01*
X12760182Y-12903746D02*
X12760182Y-12894222D01*
X12760182Y-12894222D02*
X12769706Y-12875174D01*
X12769706Y-12875174D02*
X12788753Y-12865650D01*
X12788753Y-12865650D02*
X12817325Y-12865650D01*
X12817325Y-12865650D02*
X12836372Y-12875174D01*
X12912563Y-13075174D02*
X12922087Y-13065650D01*
X12922087Y-13065650D02*
X12941134Y-13037079D01*
X12941134Y-13037079D02*
X12950658Y-13018031D01*
X12950658Y-13018031D02*
X12960182Y-12989460D01*
X12960182Y-12989460D02*
X12969706Y-12941841D01*
X12969706Y-12941841D02*
X12969706Y-12903746D01*
X12969706Y-12903746D02*
X12960182Y-12856127D01*
X12960182Y-12856127D02*
X12950658Y-12827555D01*
X12950658Y-12827555D02*
X12941134Y-12808508D01*
X12941134Y-12808508D02*
X12922087Y-12779936D01*
X12922087Y-12779936D02*
X12912563Y-12770412D01*
D12*
X8137500Y-13171500D02*
G75*
G02*
X8107500Y-13171500I-15000J0D01*
G01*
X8107500Y-13171500D02*
G75*
G02*
X8137500Y-13171500I15000J0D01*
G01*
D11*
X8436372Y-13062984D02*
X8455420Y-13062984D01*
X8455420Y-13062984D02*
X8474467Y-13072508D01*
X8474467Y-13072508D02*
X8483991Y-13082031D01*
X8483991Y-13082031D02*
X8493515Y-13101079D01*
X8493515Y-13101079D02*
X8503039Y-13139174D01*
X8503039Y-13139174D02*
X8503039Y-13186793D01*
X8503039Y-13186793D02*
X8493515Y-13224888D01*
X8493515Y-13224888D02*
X8483991Y-13243936D01*
X8483991Y-13243936D02*
X8474467Y-13253460D01*
X8474467Y-13253460D02*
X8455420Y-13262984D01*
X8455420Y-13262984D02*
X8436372Y-13262984D01*
X8436372Y-13262984D02*
X8417324Y-13253460D01*
X8417324Y-13253460D02*
X8407801Y-13243936D01*
X8407801Y-13243936D02*
X8398277Y-13224888D01*
X8398277Y-13224888D02*
X8388753Y-13186793D01*
X8388753Y-13186793D02*
X8388753Y-13139174D01*
X8388753Y-13139174D02*
X8398277Y-13101079D01*
X8398277Y-13101079D02*
X8407801Y-13082031D01*
X8407801Y-13082031D02*
X8417324Y-13072508D01*
X8417324Y-13072508D02*
X8436372Y-13062984D01*
X8588753Y-13243936D02*
X8598277Y-13253460D01*
X8598277Y-13253460D02*
X8588753Y-13262984D01*
X8588753Y-13262984D02*
X8579229Y-13253460D01*
X8579229Y-13253460D02*
X8588753Y-13243936D01*
X8588753Y-13243936D02*
X8588753Y-13262984D01*
X8664944Y-13062984D02*
X8788753Y-13062984D01*
X8788753Y-13062984D02*
X8722086Y-13139174D01*
X8722086Y-13139174D02*
X8750658Y-13139174D01*
X8750658Y-13139174D02*
X8769705Y-13148698D01*
X8769705Y-13148698D02*
X8779229Y-13158222D01*
X8779229Y-13158222D02*
X8788753Y-13177269D01*
X8788753Y-13177269D02*
X8788753Y-13224888D01*
X8788753Y-13224888D02*
X8779229Y-13243936D01*
X8779229Y-13243936D02*
X8769705Y-13253460D01*
X8769705Y-13253460D02*
X8750658Y-13262984D01*
X8750658Y-13262984D02*
X8693515Y-13262984D01*
X8693515Y-13262984D02*
X8674467Y-13253460D01*
X8674467Y-13253460D02*
X8664944Y-13243936D01*
X8912563Y-13062984D02*
X8931610Y-13062984D01*
X8931610Y-13062984D02*
X8950658Y-13072508D01*
X8950658Y-13072508D02*
X8960182Y-13082031D01*
X8960182Y-13082031D02*
X8969705Y-13101079D01*
X8969705Y-13101079D02*
X8979229Y-13139174D01*
X8979229Y-13139174D02*
X8979229Y-13186793D01*
X8979229Y-13186793D02*
X8969705Y-13224888D01*
X8969705Y-13224888D02*
X8960182Y-13243936D01*
X8960182Y-13243936D02*
X8950658Y-13253460D01*
X8950658Y-13253460D02*
X8931610Y-13262984D01*
X8931610Y-13262984D02*
X8912563Y-13262984D01*
X8912563Y-13262984D02*
X8893515Y-13253460D01*
X8893515Y-13253460D02*
X8883991Y-13243936D01*
X8883991Y-13243936D02*
X8874467Y-13224888D01*
X8874467Y-13224888D02*
X8864944Y-13186793D01*
X8864944Y-13186793D02*
X8864944Y-13139174D01*
X8864944Y-13139174D02*
X8874467Y-13101079D01*
X8874467Y-13101079D02*
X8883991Y-13082031D01*
X8883991Y-13082031D02*
X8893515Y-13072508D01*
X8893515Y-13072508D02*
X8912563Y-13062984D01*
X9103039Y-13062984D02*
X9122086Y-13062984D01*
X9122086Y-13062984D02*
X9141134Y-13072508D01*
X9141134Y-13072508D02*
X9150658Y-13082031D01*
X9150658Y-13082031D02*
X9160182Y-13101079D01*
X9160182Y-13101079D02*
X9169705Y-13139174D01*
X9169705Y-13139174D02*
X9169705Y-13186793D01*
X9169705Y-13186793D02*
X9160182Y-13224888D01*
X9160182Y-13224888D02*
X9150658Y-13243936D01*
X9150658Y-13243936D02*
X9141134Y-13253460D01*
X9141134Y-13253460D02*
X9122086Y-13262984D01*
X9122086Y-13262984D02*
X9103039Y-13262984D01*
X9103039Y-13262984D02*
X9083991Y-13253460D01*
X9083991Y-13253460D02*
X9074467Y-13243936D01*
X9074467Y-13243936D02*
X9064944Y-13224888D01*
X9064944Y-13224888D02*
X9055420Y-13186793D01*
X9055420Y-13186793D02*
X9055420Y-13139174D01*
X9055420Y-13139174D02*
X9064944Y-13101079D01*
X9064944Y-13101079D02*
X9074467Y-13082031D01*
X9074467Y-13082031D02*
X9083991Y-13072508D01*
X9083991Y-13072508D02*
X9103039Y-13062984D01*
X9255420Y-13262984D02*
X9255420Y-13129650D01*
X9255420Y-13148698D02*
X9264944Y-13139174D01*
X9264944Y-13139174D02*
X9283991Y-13129650D01*
X9283991Y-13129650D02*
X9312563Y-13129650D01*
X9312563Y-13129650D02*
X9331610Y-13139174D01*
X9331610Y-13139174D02*
X9341134Y-13158222D01*
X9341134Y-13158222D02*
X9341134Y-13262984D01*
X9341134Y-13158222D02*
X9350658Y-13139174D01*
X9350658Y-13139174D02*
X9369705Y-13129650D01*
X9369705Y-13129650D02*
X9398277Y-13129650D01*
X9398277Y-13129650D02*
X9417325Y-13139174D01*
X9417325Y-13139174D02*
X9426848Y-13158222D01*
X9426848Y-13158222D02*
X9426848Y-13262984D01*
X9522086Y-13262984D02*
X9522086Y-13129650D01*
X9522086Y-13148698D02*
X9531610Y-13139174D01*
X9531610Y-13139174D02*
X9550658Y-13129650D01*
X9550658Y-13129650D02*
X9579229Y-13129650D01*
X9579229Y-13129650D02*
X9598277Y-13139174D01*
X9598277Y-13139174D02*
X9607801Y-13158222D01*
X9607801Y-13158222D02*
X9607801Y-13262984D01*
X9607801Y-13158222D02*
X9617325Y-13139174D01*
X9617325Y-13139174D02*
X9636372Y-13129650D01*
X9636372Y-13129650D02*
X9664944Y-13129650D01*
X9664944Y-13129650D02*
X9683991Y-13139174D01*
X9683991Y-13139174D02*
X9693515Y-13158222D01*
X9693515Y-13158222D02*
X9693515Y-13262984D01*
X10083991Y-13053460D02*
X9912563Y-13310603D01*
X10341134Y-13062984D02*
X10360182Y-13062984D01*
X10360182Y-13062984D02*
X10379229Y-13072508D01*
X10379229Y-13072508D02*
X10388753Y-13082031D01*
X10388753Y-13082031D02*
X10398277Y-13101079D01*
X10398277Y-13101079D02*
X10407801Y-13139174D01*
X10407801Y-13139174D02*
X10407801Y-13186793D01*
X10407801Y-13186793D02*
X10398277Y-13224888D01*
X10398277Y-13224888D02*
X10388753Y-13243936D01*
X10388753Y-13243936D02*
X10379229Y-13253460D01*
X10379229Y-13253460D02*
X10360182Y-13262984D01*
X10360182Y-13262984D02*
X10341134Y-13262984D01*
X10341134Y-13262984D02*
X10322087Y-13253460D01*
X10322087Y-13253460D02*
X10312563Y-13243936D01*
X10312563Y-13243936D02*
X10303039Y-13224888D01*
X10303039Y-13224888D02*
X10293515Y-13186793D01*
X10293515Y-13186793D02*
X10293515Y-13139174D01*
X10293515Y-13139174D02*
X10303039Y-13101079D01*
X10303039Y-13101079D02*
X10312563Y-13082031D01*
X10312563Y-13082031D02*
X10322087Y-13072508D01*
X10322087Y-13072508D02*
X10341134Y-13062984D01*
X10493515Y-13243936D02*
X10503039Y-13253460D01*
X10503039Y-13253460D02*
X10493515Y-13262984D01*
X10493515Y-13262984D02*
X10483991Y-13253460D01*
X10483991Y-13253460D02*
X10493515Y-13243936D01*
X10493515Y-13243936D02*
X10493515Y-13262984D01*
X10626848Y-13062984D02*
X10645896Y-13062984D01*
X10645896Y-13062984D02*
X10664944Y-13072508D01*
X10664944Y-13072508D02*
X10674468Y-13082031D01*
X10674468Y-13082031D02*
X10683991Y-13101079D01*
X10683991Y-13101079D02*
X10693515Y-13139174D01*
X10693515Y-13139174D02*
X10693515Y-13186793D01*
X10693515Y-13186793D02*
X10683991Y-13224888D01*
X10683991Y-13224888D02*
X10674468Y-13243936D01*
X10674468Y-13243936D02*
X10664944Y-13253460D01*
X10664944Y-13253460D02*
X10645896Y-13262984D01*
X10645896Y-13262984D02*
X10626848Y-13262984D01*
X10626848Y-13262984D02*
X10607801Y-13253460D01*
X10607801Y-13253460D02*
X10598277Y-13243936D01*
X10598277Y-13243936D02*
X10588753Y-13224888D01*
X10588753Y-13224888D02*
X10579229Y-13186793D01*
X10579229Y-13186793D02*
X10579229Y-13139174D01*
X10579229Y-13139174D02*
X10588753Y-13101079D01*
X10588753Y-13101079D02*
X10598277Y-13082031D01*
X10598277Y-13082031D02*
X10607801Y-13072508D01*
X10607801Y-13072508D02*
X10626848Y-13062984D01*
X10883991Y-13262984D02*
X10769706Y-13262984D01*
X10826848Y-13262984D02*
X10826848Y-13062984D01*
X10826848Y-13062984D02*
X10807801Y-13091555D01*
X10807801Y-13091555D02*
X10788753Y-13110603D01*
X10788753Y-13110603D02*
X10769706Y-13120127D01*
X11074468Y-13262984D02*
X10960182Y-13262984D01*
X11017325Y-13262984D02*
X11017325Y-13062984D01*
X11017325Y-13062984D02*
X10998277Y-13091555D01*
X10998277Y-13091555D02*
X10979229Y-13110603D01*
X10979229Y-13110603D02*
X10960182Y-13120127D01*
X11188753Y-13148698D02*
X11169706Y-13139174D01*
X11169706Y-13139174D02*
X11160182Y-13129650D01*
X11160182Y-13129650D02*
X11150658Y-13110603D01*
X11150658Y-13110603D02*
X11150658Y-13101079D01*
X11150658Y-13101079D02*
X11160182Y-13082031D01*
X11160182Y-13082031D02*
X11169706Y-13072508D01*
X11169706Y-13072508D02*
X11188753Y-13062984D01*
X11188753Y-13062984D02*
X11226848Y-13062984D01*
X11226848Y-13062984D02*
X11245896Y-13072508D01*
X11245896Y-13072508D02*
X11255420Y-13082031D01*
X11255420Y-13082031D02*
X11264944Y-13101079D01*
X11264944Y-13101079D02*
X11264944Y-13110603D01*
X11264944Y-13110603D02*
X11255420Y-13129650D01*
X11255420Y-13129650D02*
X11245896Y-13139174D01*
X11245896Y-13139174D02*
X11226848Y-13148698D01*
X11226848Y-13148698D02*
X11188753Y-13148698D01*
X11188753Y-13148698D02*
X11169706Y-13158222D01*
X11169706Y-13158222D02*
X11160182Y-13167746D01*
X11160182Y-13167746D02*
X11150658Y-13186793D01*
X11150658Y-13186793D02*
X11150658Y-13224888D01*
X11150658Y-13224888D02*
X11160182Y-13243936D01*
X11160182Y-13243936D02*
X11169706Y-13253460D01*
X11169706Y-13253460D02*
X11188753Y-13262984D01*
X11188753Y-13262984D02*
X11226848Y-13262984D01*
X11226848Y-13262984D02*
X11245896Y-13253460D01*
X11245896Y-13253460D02*
X11255420Y-13243936D01*
X11255420Y-13243936D02*
X11264944Y-13224888D01*
X11264944Y-13224888D02*
X11264944Y-13186793D01*
X11264944Y-13186793D02*
X11255420Y-13167746D01*
X11255420Y-13167746D02*
X11245896Y-13158222D01*
X11245896Y-13158222D02*
X11226848Y-13148698D01*
X11341134Y-13062984D02*
X11341134Y-13101079D01*
X11417325Y-13062984D02*
X11417325Y-13101079D01*
X11712563Y-13339174D02*
X11703039Y-13329650D01*
X11703039Y-13329650D02*
X11683991Y-13301079D01*
X11683991Y-13301079D02*
X11674468Y-13282031D01*
X11674468Y-13282031D02*
X11664944Y-13253460D01*
X11664944Y-13253460D02*
X11655420Y-13205841D01*
X11655420Y-13205841D02*
X11655420Y-13167746D01*
X11655420Y-13167746D02*
X11664944Y-13120127D01*
X11664944Y-13120127D02*
X11674468Y-13091555D01*
X11674468Y-13091555D02*
X11683991Y-13072508D01*
X11683991Y-13072508D02*
X11703039Y-13043936D01*
X11703039Y-13043936D02*
X11712563Y-13034412D01*
X11883991Y-13062984D02*
X11788753Y-13062984D01*
X11788753Y-13062984D02*
X11779229Y-13158222D01*
X11779229Y-13158222D02*
X11788753Y-13148698D01*
X11788753Y-13148698D02*
X11807801Y-13139174D01*
X11807801Y-13139174D02*
X11855420Y-13139174D01*
X11855420Y-13139174D02*
X11874468Y-13148698D01*
X11874468Y-13148698D02*
X11883991Y-13158222D01*
X11883991Y-13158222D02*
X11893515Y-13177269D01*
X11893515Y-13177269D02*
X11893515Y-13224888D01*
X11893515Y-13224888D02*
X11883991Y-13243936D01*
X11883991Y-13243936D02*
X11874468Y-13253460D01*
X11874468Y-13253460D02*
X11855420Y-13262984D01*
X11855420Y-13262984D02*
X11807801Y-13262984D01*
X11807801Y-13262984D02*
X11788753Y-13253460D01*
X11788753Y-13253460D02*
X11779229Y-13243936D01*
X12131610Y-13262984D02*
X12131610Y-13062984D01*
X12217325Y-13262984D02*
X12217325Y-13158222D01*
X12217325Y-13158222D02*
X12207801Y-13139174D01*
X12207801Y-13139174D02*
X12188753Y-13129650D01*
X12188753Y-13129650D02*
X12160182Y-13129650D01*
X12160182Y-13129650D02*
X12141134Y-13139174D01*
X12141134Y-13139174D02*
X12131610Y-13148698D01*
X12341134Y-13262984D02*
X12322087Y-13253460D01*
X12322087Y-13253460D02*
X12312563Y-13243936D01*
X12312563Y-13243936D02*
X12303039Y-13224888D01*
X12303039Y-13224888D02*
X12303039Y-13167746D01*
X12303039Y-13167746D02*
X12312563Y-13148698D01*
X12312563Y-13148698D02*
X12322087Y-13139174D01*
X12322087Y-13139174D02*
X12341134Y-13129650D01*
X12341134Y-13129650D02*
X12369706Y-13129650D01*
X12369706Y-13129650D02*
X12388753Y-13139174D01*
X12388753Y-13139174D02*
X12398277Y-13148698D01*
X12398277Y-13148698D02*
X12407801Y-13167746D01*
X12407801Y-13167746D02*
X12407801Y-13224888D01*
X12407801Y-13224888D02*
X12398277Y-13243936D01*
X12398277Y-13243936D02*
X12388753Y-13253460D01*
X12388753Y-13253460D02*
X12369706Y-13262984D01*
X12369706Y-13262984D02*
X12341134Y-13262984D01*
X12522087Y-13262984D02*
X12503039Y-13253460D01*
X12503039Y-13253460D02*
X12493515Y-13234412D01*
X12493515Y-13234412D02*
X12493515Y-13062984D01*
X12674468Y-13253460D02*
X12655420Y-13262984D01*
X12655420Y-13262984D02*
X12617325Y-13262984D01*
X12617325Y-13262984D02*
X12598277Y-13253460D01*
X12598277Y-13253460D02*
X12588753Y-13234412D01*
X12588753Y-13234412D02*
X12588753Y-13158222D01*
X12588753Y-13158222D02*
X12598277Y-13139174D01*
X12598277Y-13139174D02*
X12617325Y-13129650D01*
X12617325Y-13129650D02*
X12655420Y-13129650D01*
X12655420Y-13129650D02*
X12674468Y-13139174D01*
X12674468Y-13139174D02*
X12683991Y-13158222D01*
X12683991Y-13158222D02*
X12683991Y-13177269D01*
X12683991Y-13177269D02*
X12588753Y-13196317D01*
X12760182Y-13253460D02*
X12779230Y-13262984D01*
X12779230Y-13262984D02*
X12817325Y-13262984D01*
X12817325Y-13262984D02*
X12836372Y-13253460D01*
X12836372Y-13253460D02*
X12845896Y-13234412D01*
X12845896Y-13234412D02*
X12845896Y-13224888D01*
X12845896Y-13224888D02*
X12836372Y-13205841D01*
X12836372Y-13205841D02*
X12817325Y-13196317D01*
X12817325Y-13196317D02*
X12788753Y-13196317D01*
X12788753Y-13196317D02*
X12769706Y-13186793D01*
X12769706Y-13186793D02*
X12760182Y-13167746D01*
X12760182Y-13167746D02*
X12760182Y-13158222D01*
X12760182Y-13158222D02*
X12769706Y-13139174D01*
X12769706Y-13139174D02*
X12788753Y-13129650D01*
X12788753Y-13129650D02*
X12817325Y-13129650D01*
X12817325Y-13129650D02*
X12836372Y-13139174D01*
X12912563Y-13339174D02*
X12922087Y-13329650D01*
X12922087Y-13329650D02*
X12941134Y-13301079D01*
X12941134Y-13301079D02*
X12950658Y-13282031D01*
X12950658Y-13282031D02*
X12960182Y-13253460D01*
X12960182Y-13253460D02*
X12969706Y-13205841D01*
X12969706Y-13205841D02*
X12969706Y-13167746D01*
X12969706Y-13167746D02*
X12960182Y-13120127D01*
X12960182Y-13120127D02*
X12950658Y-13091555D01*
X12950658Y-13091555D02*
X12941134Y-13072508D01*
X12941134Y-13072508D02*
X12922087Y-13043936D01*
X12922087Y-13043936D02*
X12912563Y-13034412D01*
D12*
X8100000Y-13398000D02*
X8100000Y-13473000D01*
X8062500Y-13435500D02*
X8137500Y-13435500D01*
D11*
X8436372Y-13326984D02*
X8455420Y-13326984D01*
X8455420Y-13326984D02*
X8474467Y-13336508D01*
X8474467Y-13336508D02*
X8483991Y-13346031D01*
X8483991Y-13346031D02*
X8493515Y-13365079D01*
X8493515Y-13365079D02*
X8503039Y-13403174D01*
X8503039Y-13403174D02*
X8503039Y-13450793D01*
X8503039Y-13450793D02*
X8493515Y-13488888D01*
X8493515Y-13488888D02*
X8483991Y-13507936D01*
X8483991Y-13507936D02*
X8474467Y-13517460D01*
X8474467Y-13517460D02*
X8455420Y-13526984D01*
X8455420Y-13526984D02*
X8436372Y-13526984D01*
X8436372Y-13526984D02*
X8417324Y-13517460D01*
X8417324Y-13517460D02*
X8407801Y-13507936D01*
X8407801Y-13507936D02*
X8398277Y-13488888D01*
X8398277Y-13488888D02*
X8388753Y-13450793D01*
X8388753Y-13450793D02*
X8388753Y-13403174D01*
X8388753Y-13403174D02*
X8398277Y-13365079D01*
X8398277Y-13365079D02*
X8407801Y-13346031D01*
X8407801Y-13346031D02*
X8417324Y-13336508D01*
X8417324Y-13336508D02*
X8436372Y-13326984D01*
X8588753Y-13507936D02*
X8598277Y-13517460D01*
X8598277Y-13517460D02*
X8588753Y-13526984D01*
X8588753Y-13526984D02*
X8579229Y-13517460D01*
X8579229Y-13517460D02*
X8588753Y-13507936D01*
X8588753Y-13507936D02*
X8588753Y-13526984D01*
X8664944Y-13326984D02*
X8798277Y-13326984D01*
X8798277Y-13326984D02*
X8712563Y-13526984D01*
X8969705Y-13326984D02*
X8874467Y-13326984D01*
X8874467Y-13326984D02*
X8864944Y-13422222D01*
X8864944Y-13422222D02*
X8874467Y-13412698D01*
X8874467Y-13412698D02*
X8893515Y-13403174D01*
X8893515Y-13403174D02*
X8941134Y-13403174D01*
X8941134Y-13403174D02*
X8960182Y-13412698D01*
X8960182Y-13412698D02*
X8969705Y-13422222D01*
X8969705Y-13422222D02*
X8979229Y-13441269D01*
X8979229Y-13441269D02*
X8979229Y-13488888D01*
X8979229Y-13488888D02*
X8969705Y-13507936D01*
X8969705Y-13507936D02*
X8960182Y-13517460D01*
X8960182Y-13517460D02*
X8941134Y-13526984D01*
X8941134Y-13526984D02*
X8893515Y-13526984D01*
X8893515Y-13526984D02*
X8874467Y-13517460D01*
X8874467Y-13517460D02*
X8864944Y-13507936D01*
X9103039Y-13326984D02*
X9122086Y-13326984D01*
X9122086Y-13326984D02*
X9141134Y-13336508D01*
X9141134Y-13336508D02*
X9150658Y-13346031D01*
X9150658Y-13346031D02*
X9160182Y-13365079D01*
X9160182Y-13365079D02*
X9169705Y-13403174D01*
X9169705Y-13403174D02*
X9169705Y-13450793D01*
X9169705Y-13450793D02*
X9160182Y-13488888D01*
X9160182Y-13488888D02*
X9150658Y-13507936D01*
X9150658Y-13507936D02*
X9141134Y-13517460D01*
X9141134Y-13517460D02*
X9122086Y-13526984D01*
X9122086Y-13526984D02*
X9103039Y-13526984D01*
X9103039Y-13526984D02*
X9083991Y-13517460D01*
X9083991Y-13517460D02*
X9074467Y-13507936D01*
X9074467Y-13507936D02*
X9064944Y-13488888D01*
X9064944Y-13488888D02*
X9055420Y-13450793D01*
X9055420Y-13450793D02*
X9055420Y-13403174D01*
X9055420Y-13403174D02*
X9064944Y-13365079D01*
X9064944Y-13365079D02*
X9074467Y-13346031D01*
X9074467Y-13346031D02*
X9083991Y-13336508D01*
X9083991Y-13336508D02*
X9103039Y-13326984D01*
X9255420Y-13526984D02*
X9255420Y-13393650D01*
X9255420Y-13412698D02*
X9264944Y-13403174D01*
X9264944Y-13403174D02*
X9283991Y-13393650D01*
X9283991Y-13393650D02*
X9312563Y-13393650D01*
X9312563Y-13393650D02*
X9331610Y-13403174D01*
X9331610Y-13403174D02*
X9341134Y-13422222D01*
X9341134Y-13422222D02*
X9341134Y-13526984D01*
X9341134Y-13422222D02*
X9350658Y-13403174D01*
X9350658Y-13403174D02*
X9369705Y-13393650D01*
X9369705Y-13393650D02*
X9398277Y-13393650D01*
X9398277Y-13393650D02*
X9417325Y-13403174D01*
X9417325Y-13403174D02*
X9426848Y-13422222D01*
X9426848Y-13422222D02*
X9426848Y-13526984D01*
X9522086Y-13526984D02*
X9522086Y-13393650D01*
X9522086Y-13412698D02*
X9531610Y-13403174D01*
X9531610Y-13403174D02*
X9550658Y-13393650D01*
X9550658Y-13393650D02*
X9579229Y-13393650D01*
X9579229Y-13393650D02*
X9598277Y-13403174D01*
X9598277Y-13403174D02*
X9607801Y-13422222D01*
X9607801Y-13422222D02*
X9607801Y-13526984D01*
X9607801Y-13422222D02*
X9617325Y-13403174D01*
X9617325Y-13403174D02*
X9636372Y-13393650D01*
X9636372Y-13393650D02*
X9664944Y-13393650D01*
X9664944Y-13393650D02*
X9683991Y-13403174D01*
X9683991Y-13403174D02*
X9693515Y-13422222D01*
X9693515Y-13422222D02*
X9693515Y-13526984D01*
X10083991Y-13317460D02*
X9912563Y-13574603D01*
X10341134Y-13326984D02*
X10360182Y-13326984D01*
X10360182Y-13326984D02*
X10379229Y-13336508D01*
X10379229Y-13336508D02*
X10388753Y-13346031D01*
X10388753Y-13346031D02*
X10398277Y-13365079D01*
X10398277Y-13365079D02*
X10407801Y-13403174D01*
X10407801Y-13403174D02*
X10407801Y-13450793D01*
X10407801Y-13450793D02*
X10398277Y-13488888D01*
X10398277Y-13488888D02*
X10388753Y-13507936D01*
X10388753Y-13507936D02*
X10379229Y-13517460D01*
X10379229Y-13517460D02*
X10360182Y-13526984D01*
X10360182Y-13526984D02*
X10341134Y-13526984D01*
X10341134Y-13526984D02*
X10322087Y-13517460D01*
X10322087Y-13517460D02*
X10312563Y-13507936D01*
X10312563Y-13507936D02*
X10303039Y-13488888D01*
X10303039Y-13488888D02*
X10293515Y-13450793D01*
X10293515Y-13450793D02*
X10293515Y-13403174D01*
X10293515Y-13403174D02*
X10303039Y-13365079D01*
X10303039Y-13365079D02*
X10312563Y-13346031D01*
X10312563Y-13346031D02*
X10322087Y-13336508D01*
X10322087Y-13336508D02*
X10341134Y-13326984D01*
X10493515Y-13507936D02*
X10503039Y-13517460D01*
X10503039Y-13517460D02*
X10493515Y-13526984D01*
X10493515Y-13526984D02*
X10483991Y-13517460D01*
X10483991Y-13517460D02*
X10493515Y-13507936D01*
X10493515Y-13507936D02*
X10493515Y-13526984D01*
X10626848Y-13326984D02*
X10645896Y-13326984D01*
X10645896Y-13326984D02*
X10664944Y-13336508D01*
X10664944Y-13336508D02*
X10674468Y-13346031D01*
X10674468Y-13346031D02*
X10683991Y-13365079D01*
X10683991Y-13365079D02*
X10693515Y-13403174D01*
X10693515Y-13403174D02*
X10693515Y-13450793D01*
X10693515Y-13450793D02*
X10683991Y-13488888D01*
X10683991Y-13488888D02*
X10674468Y-13507936D01*
X10674468Y-13507936D02*
X10664944Y-13517460D01*
X10664944Y-13517460D02*
X10645896Y-13526984D01*
X10645896Y-13526984D02*
X10626848Y-13526984D01*
X10626848Y-13526984D02*
X10607801Y-13517460D01*
X10607801Y-13517460D02*
X10598277Y-13507936D01*
X10598277Y-13507936D02*
X10588753Y-13488888D01*
X10588753Y-13488888D02*
X10579229Y-13450793D01*
X10579229Y-13450793D02*
X10579229Y-13403174D01*
X10579229Y-13403174D02*
X10588753Y-13365079D01*
X10588753Y-13365079D02*
X10598277Y-13346031D01*
X10598277Y-13346031D02*
X10607801Y-13336508D01*
X10607801Y-13336508D02*
X10626848Y-13326984D01*
X10769706Y-13346031D02*
X10779229Y-13336508D01*
X10779229Y-13336508D02*
X10798277Y-13326984D01*
X10798277Y-13326984D02*
X10845896Y-13326984D01*
X10845896Y-13326984D02*
X10864944Y-13336508D01*
X10864944Y-13336508D02*
X10874468Y-13346031D01*
X10874468Y-13346031D02*
X10883991Y-13365079D01*
X10883991Y-13365079D02*
X10883991Y-13384127D01*
X10883991Y-13384127D02*
X10874468Y-13412698D01*
X10874468Y-13412698D02*
X10760182Y-13526984D01*
X10760182Y-13526984D02*
X10883991Y-13526984D01*
X10979229Y-13526984D02*
X11017325Y-13526984D01*
X11017325Y-13526984D02*
X11036372Y-13517460D01*
X11036372Y-13517460D02*
X11045896Y-13507936D01*
X11045896Y-13507936D02*
X11064944Y-13479365D01*
X11064944Y-13479365D02*
X11074468Y-13441269D01*
X11074468Y-13441269D02*
X11074468Y-13365079D01*
X11074468Y-13365079D02*
X11064944Y-13346031D01*
X11064944Y-13346031D02*
X11055420Y-13336508D01*
X11055420Y-13336508D02*
X11036372Y-13326984D01*
X11036372Y-13326984D02*
X10998277Y-13326984D01*
X10998277Y-13326984D02*
X10979229Y-13336508D01*
X10979229Y-13336508D02*
X10969706Y-13346031D01*
X10969706Y-13346031D02*
X10960182Y-13365079D01*
X10960182Y-13365079D02*
X10960182Y-13412698D01*
X10960182Y-13412698D02*
X10969706Y-13431746D01*
X10969706Y-13431746D02*
X10979229Y-13441269D01*
X10979229Y-13441269D02*
X10998277Y-13450793D01*
X10998277Y-13450793D02*
X11036372Y-13450793D01*
X11036372Y-13450793D02*
X11055420Y-13441269D01*
X11055420Y-13441269D02*
X11064944Y-13431746D01*
X11064944Y-13431746D02*
X11074468Y-13412698D01*
X11255420Y-13326984D02*
X11160182Y-13326984D01*
X11160182Y-13326984D02*
X11150658Y-13422222D01*
X11150658Y-13422222D02*
X11160182Y-13412698D01*
X11160182Y-13412698D02*
X11179229Y-13403174D01*
X11179229Y-13403174D02*
X11226848Y-13403174D01*
X11226848Y-13403174D02*
X11245896Y-13412698D01*
X11245896Y-13412698D02*
X11255420Y-13422222D01*
X11255420Y-13422222D02*
X11264944Y-13441269D01*
X11264944Y-13441269D02*
X11264944Y-13488888D01*
X11264944Y-13488888D02*
X11255420Y-13507936D01*
X11255420Y-13507936D02*
X11245896Y-13517460D01*
X11245896Y-13517460D02*
X11226848Y-13526984D01*
X11226848Y-13526984D02*
X11179229Y-13526984D01*
X11179229Y-13526984D02*
X11160182Y-13517460D01*
X11160182Y-13517460D02*
X11150658Y-13507936D01*
X11341134Y-13326984D02*
X11341134Y-13365079D01*
X11417325Y-13326984D02*
X11417325Y-13365079D01*
X11712563Y-13603174D02*
X11703039Y-13593650D01*
X11703039Y-13593650D02*
X11683991Y-13565079D01*
X11683991Y-13565079D02*
X11674468Y-13546031D01*
X11674468Y-13546031D02*
X11664944Y-13517460D01*
X11664944Y-13517460D02*
X11655420Y-13469841D01*
X11655420Y-13469841D02*
X11655420Y-13431746D01*
X11655420Y-13431746D02*
X11664944Y-13384127D01*
X11664944Y-13384127D02*
X11674468Y-13355555D01*
X11674468Y-13355555D02*
X11683991Y-13336508D01*
X11683991Y-13336508D02*
X11703039Y-13307936D01*
X11703039Y-13307936D02*
X11712563Y-13298412D01*
X11779229Y-13346031D02*
X11788753Y-13336508D01*
X11788753Y-13336508D02*
X11807801Y-13326984D01*
X11807801Y-13326984D02*
X11855420Y-13326984D01*
X11855420Y-13326984D02*
X11874468Y-13336508D01*
X11874468Y-13336508D02*
X11883991Y-13346031D01*
X11883991Y-13346031D02*
X11893515Y-13365079D01*
X11893515Y-13365079D02*
X11893515Y-13384127D01*
X11893515Y-13384127D02*
X11883991Y-13412698D01*
X11883991Y-13412698D02*
X11769706Y-13526984D01*
X11769706Y-13526984D02*
X11893515Y-13526984D01*
X12131610Y-13526984D02*
X12131610Y-13326984D01*
X12217325Y-13526984D02*
X12217325Y-13422222D01*
X12217325Y-13422222D02*
X12207801Y-13403174D01*
X12207801Y-13403174D02*
X12188753Y-13393650D01*
X12188753Y-13393650D02*
X12160182Y-13393650D01*
X12160182Y-13393650D02*
X12141134Y-13403174D01*
X12141134Y-13403174D02*
X12131610Y-13412698D01*
X12341134Y-13526984D02*
X12322087Y-13517460D01*
X12322087Y-13517460D02*
X12312563Y-13507936D01*
X12312563Y-13507936D02*
X12303039Y-13488888D01*
X12303039Y-13488888D02*
X12303039Y-13431746D01*
X12303039Y-13431746D02*
X12312563Y-13412698D01*
X12312563Y-13412698D02*
X12322087Y-13403174D01*
X12322087Y-13403174D02*
X12341134Y-13393650D01*
X12341134Y-13393650D02*
X12369706Y-13393650D01*
X12369706Y-13393650D02*
X12388753Y-13403174D01*
X12388753Y-13403174D02*
X12398277Y-13412698D01*
X12398277Y-13412698D02*
X12407801Y-13431746D01*
X12407801Y-13431746D02*
X12407801Y-13488888D01*
X12407801Y-13488888D02*
X12398277Y-13507936D01*
X12398277Y-13507936D02*
X12388753Y-13517460D01*
X12388753Y-13517460D02*
X12369706Y-13526984D01*
X12369706Y-13526984D02*
X12341134Y-13526984D01*
X12522087Y-13526984D02*
X12503039Y-13517460D01*
X12503039Y-13517460D02*
X12493515Y-13498412D01*
X12493515Y-13498412D02*
X12493515Y-13326984D01*
X12674468Y-13517460D02*
X12655420Y-13526984D01*
X12655420Y-13526984D02*
X12617325Y-13526984D01*
X12617325Y-13526984D02*
X12598277Y-13517460D01*
X12598277Y-13517460D02*
X12588753Y-13498412D01*
X12588753Y-13498412D02*
X12588753Y-13422222D01*
X12588753Y-13422222D02*
X12598277Y-13403174D01*
X12598277Y-13403174D02*
X12617325Y-13393650D01*
X12617325Y-13393650D02*
X12655420Y-13393650D01*
X12655420Y-13393650D02*
X12674468Y-13403174D01*
X12674468Y-13403174D02*
X12683991Y-13422222D01*
X12683991Y-13422222D02*
X12683991Y-13441269D01*
X12683991Y-13441269D02*
X12588753Y-13460317D01*
X12760182Y-13517460D02*
X12779230Y-13526984D01*
X12779230Y-13526984D02*
X12817325Y-13526984D01*
X12817325Y-13526984D02*
X12836372Y-13517460D01*
X12836372Y-13517460D02*
X12845896Y-13498412D01*
X12845896Y-13498412D02*
X12845896Y-13488888D01*
X12845896Y-13488888D02*
X12836372Y-13469841D01*
X12836372Y-13469841D02*
X12817325Y-13460317D01*
X12817325Y-13460317D02*
X12788753Y-13460317D01*
X12788753Y-13460317D02*
X12769706Y-13450793D01*
X12769706Y-13450793D02*
X12760182Y-13431746D01*
X12760182Y-13431746D02*
X12760182Y-13422222D01*
X12760182Y-13422222D02*
X12769706Y-13403174D01*
X12769706Y-13403174D02*
X12788753Y-13393650D01*
X12788753Y-13393650D02*
X12817325Y-13393650D01*
X12817325Y-13393650D02*
X12836372Y-13403174D01*
X12912563Y-13603174D02*
X12922087Y-13593650D01*
X12922087Y-13593650D02*
X12941134Y-13565079D01*
X12941134Y-13565079D02*
X12950658Y-13546031D01*
X12950658Y-13546031D02*
X12960182Y-13517460D01*
X12960182Y-13517460D02*
X12969706Y-13469841D01*
X12969706Y-13469841D02*
X12969706Y-13431746D01*
X12969706Y-13431746D02*
X12960182Y-13384127D01*
X12960182Y-13384127D02*
X12950658Y-13355555D01*
X12950658Y-13355555D02*
X12941134Y-13336508D01*
X12941134Y-13336508D02*
X12922087Y-13307936D01*
X12922087Y-13307936D02*
X12912563Y-13298412D01*
D12*
X8122856Y-13734856D02*
X8122856Y-13664144D01*
X8052144Y-13664144D01*
X8052144Y-13734856D01*
X8122856Y-13734856D01*
D11*
X8503039Y-13790984D02*
X8388753Y-13790984D01*
X8445896Y-13790984D02*
X8445896Y-13590984D01*
X8445896Y-13590984D02*
X8426848Y-13619555D01*
X8426848Y-13619555D02*
X8407801Y-13638603D01*
X8407801Y-13638603D02*
X8388753Y-13648127D01*
X8588753Y-13771936D02*
X8598277Y-13781460D01*
X8598277Y-13781460D02*
X8588753Y-13790984D01*
X8588753Y-13790984D02*
X8579229Y-13781460D01*
X8579229Y-13781460D02*
X8588753Y-13771936D01*
X8588753Y-13771936D02*
X8588753Y-13790984D01*
X8722086Y-13590984D02*
X8741134Y-13590984D01*
X8741134Y-13590984D02*
X8760182Y-13600508D01*
X8760182Y-13600508D02*
X8769705Y-13610031D01*
X8769705Y-13610031D02*
X8779229Y-13629079D01*
X8779229Y-13629079D02*
X8788753Y-13667174D01*
X8788753Y-13667174D02*
X8788753Y-13714793D01*
X8788753Y-13714793D02*
X8779229Y-13752888D01*
X8779229Y-13752888D02*
X8769705Y-13771936D01*
X8769705Y-13771936D02*
X8760182Y-13781460D01*
X8760182Y-13781460D02*
X8741134Y-13790984D01*
X8741134Y-13790984D02*
X8722086Y-13790984D01*
X8722086Y-13790984D02*
X8703039Y-13781460D01*
X8703039Y-13781460D02*
X8693515Y-13771936D01*
X8693515Y-13771936D02*
X8683991Y-13752888D01*
X8683991Y-13752888D02*
X8674467Y-13714793D01*
X8674467Y-13714793D02*
X8674467Y-13667174D01*
X8674467Y-13667174D02*
X8683991Y-13629079D01*
X8683991Y-13629079D02*
X8693515Y-13610031D01*
X8693515Y-13610031D02*
X8703039Y-13600508D01*
X8703039Y-13600508D02*
X8722086Y-13590984D01*
X8912563Y-13590984D02*
X8931610Y-13590984D01*
X8931610Y-13590984D02*
X8950658Y-13600508D01*
X8950658Y-13600508D02*
X8960182Y-13610031D01*
X8960182Y-13610031D02*
X8969705Y-13629079D01*
X8969705Y-13629079D02*
X8979229Y-13667174D01*
X8979229Y-13667174D02*
X8979229Y-13714793D01*
X8979229Y-13714793D02*
X8969705Y-13752888D01*
X8969705Y-13752888D02*
X8960182Y-13771936D01*
X8960182Y-13771936D02*
X8950658Y-13781460D01*
X8950658Y-13781460D02*
X8931610Y-13790984D01*
X8931610Y-13790984D02*
X8912563Y-13790984D01*
X8912563Y-13790984D02*
X8893515Y-13781460D01*
X8893515Y-13781460D02*
X8883991Y-13771936D01*
X8883991Y-13771936D02*
X8874467Y-13752888D01*
X8874467Y-13752888D02*
X8864944Y-13714793D01*
X8864944Y-13714793D02*
X8864944Y-13667174D01*
X8864944Y-13667174D02*
X8874467Y-13629079D01*
X8874467Y-13629079D02*
X8883991Y-13610031D01*
X8883991Y-13610031D02*
X8893515Y-13600508D01*
X8893515Y-13600508D02*
X8912563Y-13590984D01*
X9103039Y-13590984D02*
X9122086Y-13590984D01*
X9122086Y-13590984D02*
X9141134Y-13600508D01*
X9141134Y-13600508D02*
X9150658Y-13610031D01*
X9150658Y-13610031D02*
X9160182Y-13629079D01*
X9160182Y-13629079D02*
X9169705Y-13667174D01*
X9169705Y-13667174D02*
X9169705Y-13714793D01*
X9169705Y-13714793D02*
X9160182Y-13752888D01*
X9160182Y-13752888D02*
X9150658Y-13771936D01*
X9150658Y-13771936D02*
X9141134Y-13781460D01*
X9141134Y-13781460D02*
X9122086Y-13790984D01*
X9122086Y-13790984D02*
X9103039Y-13790984D01*
X9103039Y-13790984D02*
X9083991Y-13781460D01*
X9083991Y-13781460D02*
X9074467Y-13771936D01*
X9074467Y-13771936D02*
X9064944Y-13752888D01*
X9064944Y-13752888D02*
X9055420Y-13714793D01*
X9055420Y-13714793D02*
X9055420Y-13667174D01*
X9055420Y-13667174D02*
X9064944Y-13629079D01*
X9064944Y-13629079D02*
X9074467Y-13610031D01*
X9074467Y-13610031D02*
X9083991Y-13600508D01*
X9083991Y-13600508D02*
X9103039Y-13590984D01*
X9255420Y-13790984D02*
X9255420Y-13657650D01*
X9255420Y-13676698D02*
X9264944Y-13667174D01*
X9264944Y-13667174D02*
X9283991Y-13657650D01*
X9283991Y-13657650D02*
X9312563Y-13657650D01*
X9312563Y-13657650D02*
X9331610Y-13667174D01*
X9331610Y-13667174D02*
X9341134Y-13686222D01*
X9341134Y-13686222D02*
X9341134Y-13790984D01*
X9341134Y-13686222D02*
X9350658Y-13667174D01*
X9350658Y-13667174D02*
X9369705Y-13657650D01*
X9369705Y-13657650D02*
X9398277Y-13657650D01*
X9398277Y-13657650D02*
X9417325Y-13667174D01*
X9417325Y-13667174D02*
X9426848Y-13686222D01*
X9426848Y-13686222D02*
X9426848Y-13790984D01*
X9522086Y-13790984D02*
X9522086Y-13657650D01*
X9522086Y-13676698D02*
X9531610Y-13667174D01*
X9531610Y-13667174D02*
X9550658Y-13657650D01*
X9550658Y-13657650D02*
X9579229Y-13657650D01*
X9579229Y-13657650D02*
X9598277Y-13667174D01*
X9598277Y-13667174D02*
X9607801Y-13686222D01*
X9607801Y-13686222D02*
X9607801Y-13790984D01*
X9607801Y-13686222D02*
X9617325Y-13667174D01*
X9617325Y-13667174D02*
X9636372Y-13657650D01*
X9636372Y-13657650D02*
X9664944Y-13657650D01*
X9664944Y-13657650D02*
X9683991Y-13667174D01*
X9683991Y-13667174D02*
X9693515Y-13686222D01*
X9693515Y-13686222D02*
X9693515Y-13790984D01*
X10083991Y-13581460D02*
X9912563Y-13838603D01*
X10341134Y-13590984D02*
X10360182Y-13590984D01*
X10360182Y-13590984D02*
X10379229Y-13600508D01*
X10379229Y-13600508D02*
X10388753Y-13610031D01*
X10388753Y-13610031D02*
X10398277Y-13629079D01*
X10398277Y-13629079D02*
X10407801Y-13667174D01*
X10407801Y-13667174D02*
X10407801Y-13714793D01*
X10407801Y-13714793D02*
X10398277Y-13752888D01*
X10398277Y-13752888D02*
X10388753Y-13771936D01*
X10388753Y-13771936D02*
X10379229Y-13781460D01*
X10379229Y-13781460D02*
X10360182Y-13790984D01*
X10360182Y-13790984D02*
X10341134Y-13790984D01*
X10341134Y-13790984D02*
X10322087Y-13781460D01*
X10322087Y-13781460D02*
X10312563Y-13771936D01*
X10312563Y-13771936D02*
X10303039Y-13752888D01*
X10303039Y-13752888D02*
X10293515Y-13714793D01*
X10293515Y-13714793D02*
X10293515Y-13667174D01*
X10293515Y-13667174D02*
X10303039Y-13629079D01*
X10303039Y-13629079D02*
X10312563Y-13610031D01*
X10312563Y-13610031D02*
X10322087Y-13600508D01*
X10322087Y-13600508D02*
X10341134Y-13590984D01*
X10493515Y-13771936D02*
X10503039Y-13781460D01*
X10503039Y-13781460D02*
X10493515Y-13790984D01*
X10493515Y-13790984D02*
X10483991Y-13781460D01*
X10483991Y-13781460D02*
X10493515Y-13771936D01*
X10493515Y-13771936D02*
X10493515Y-13790984D01*
X10626848Y-13590984D02*
X10645896Y-13590984D01*
X10645896Y-13590984D02*
X10664944Y-13600508D01*
X10664944Y-13600508D02*
X10674468Y-13610031D01*
X10674468Y-13610031D02*
X10683991Y-13629079D01*
X10683991Y-13629079D02*
X10693515Y-13667174D01*
X10693515Y-13667174D02*
X10693515Y-13714793D01*
X10693515Y-13714793D02*
X10683991Y-13752888D01*
X10683991Y-13752888D02*
X10674468Y-13771936D01*
X10674468Y-13771936D02*
X10664944Y-13781460D01*
X10664944Y-13781460D02*
X10645896Y-13790984D01*
X10645896Y-13790984D02*
X10626848Y-13790984D01*
X10626848Y-13790984D02*
X10607801Y-13781460D01*
X10607801Y-13781460D02*
X10598277Y-13771936D01*
X10598277Y-13771936D02*
X10588753Y-13752888D01*
X10588753Y-13752888D02*
X10579229Y-13714793D01*
X10579229Y-13714793D02*
X10579229Y-13667174D01*
X10579229Y-13667174D02*
X10588753Y-13629079D01*
X10588753Y-13629079D02*
X10598277Y-13610031D01*
X10598277Y-13610031D02*
X10607801Y-13600508D01*
X10607801Y-13600508D02*
X10626848Y-13590984D01*
X10760182Y-13590984D02*
X10883991Y-13590984D01*
X10883991Y-13590984D02*
X10817325Y-13667174D01*
X10817325Y-13667174D02*
X10845896Y-13667174D01*
X10845896Y-13667174D02*
X10864944Y-13676698D01*
X10864944Y-13676698D02*
X10874468Y-13686222D01*
X10874468Y-13686222D02*
X10883991Y-13705269D01*
X10883991Y-13705269D02*
X10883991Y-13752888D01*
X10883991Y-13752888D02*
X10874468Y-13771936D01*
X10874468Y-13771936D02*
X10864944Y-13781460D01*
X10864944Y-13781460D02*
X10845896Y-13790984D01*
X10845896Y-13790984D02*
X10788753Y-13790984D01*
X10788753Y-13790984D02*
X10769706Y-13781460D01*
X10769706Y-13781460D02*
X10760182Y-13771936D01*
X10979229Y-13790984D02*
X11017325Y-13790984D01*
X11017325Y-13790984D02*
X11036372Y-13781460D01*
X11036372Y-13781460D02*
X11045896Y-13771936D01*
X11045896Y-13771936D02*
X11064944Y-13743365D01*
X11064944Y-13743365D02*
X11074468Y-13705269D01*
X11074468Y-13705269D02*
X11074468Y-13629079D01*
X11074468Y-13629079D02*
X11064944Y-13610031D01*
X11064944Y-13610031D02*
X11055420Y-13600508D01*
X11055420Y-13600508D02*
X11036372Y-13590984D01*
X11036372Y-13590984D02*
X10998277Y-13590984D01*
X10998277Y-13590984D02*
X10979229Y-13600508D01*
X10979229Y-13600508D02*
X10969706Y-13610031D01*
X10969706Y-13610031D02*
X10960182Y-13629079D01*
X10960182Y-13629079D02*
X10960182Y-13676698D01*
X10960182Y-13676698D02*
X10969706Y-13695746D01*
X10969706Y-13695746D02*
X10979229Y-13705269D01*
X10979229Y-13705269D02*
X10998277Y-13714793D01*
X10998277Y-13714793D02*
X11036372Y-13714793D01*
X11036372Y-13714793D02*
X11055420Y-13705269D01*
X11055420Y-13705269D02*
X11064944Y-13695746D01*
X11064944Y-13695746D02*
X11074468Y-13676698D01*
X11245896Y-13657650D02*
X11245896Y-13790984D01*
X11198277Y-13581460D02*
X11150658Y-13724317D01*
X11150658Y-13724317D02*
X11274467Y-13724317D01*
X11341134Y-13590984D02*
X11341134Y-13629079D01*
X11417325Y-13590984D02*
X11417325Y-13629079D01*
X11712563Y-13867174D02*
X11703039Y-13857650D01*
X11703039Y-13857650D02*
X11683991Y-13829079D01*
X11683991Y-13829079D02*
X11674468Y-13810031D01*
X11674468Y-13810031D02*
X11664944Y-13781460D01*
X11664944Y-13781460D02*
X11655420Y-13733841D01*
X11655420Y-13733841D02*
X11655420Y-13695746D01*
X11655420Y-13695746D02*
X11664944Y-13648127D01*
X11664944Y-13648127D02*
X11674468Y-13619555D01*
X11674468Y-13619555D02*
X11683991Y-13600508D01*
X11683991Y-13600508D02*
X11703039Y-13571936D01*
X11703039Y-13571936D02*
X11712563Y-13562412D01*
X11883991Y-13590984D02*
X11788753Y-13590984D01*
X11788753Y-13590984D02*
X11779229Y-13686222D01*
X11779229Y-13686222D02*
X11788753Y-13676698D01*
X11788753Y-13676698D02*
X11807801Y-13667174D01*
X11807801Y-13667174D02*
X11855420Y-13667174D01*
X11855420Y-13667174D02*
X11874468Y-13676698D01*
X11874468Y-13676698D02*
X11883991Y-13686222D01*
X11883991Y-13686222D02*
X11893515Y-13705269D01*
X11893515Y-13705269D02*
X11893515Y-13752888D01*
X11893515Y-13752888D02*
X11883991Y-13771936D01*
X11883991Y-13771936D02*
X11874468Y-13781460D01*
X11874468Y-13781460D02*
X11855420Y-13790984D01*
X11855420Y-13790984D02*
X11807801Y-13790984D01*
X11807801Y-13790984D02*
X11788753Y-13781460D01*
X11788753Y-13781460D02*
X11779229Y-13771936D01*
X12064944Y-13657650D02*
X12064944Y-13790984D01*
X12017325Y-13581460D02*
X11969706Y-13724317D01*
X11969706Y-13724317D02*
X12093515Y-13724317D01*
X12322087Y-13790984D02*
X12322087Y-13590984D01*
X12407801Y-13790984D02*
X12407801Y-13686222D01*
X12407801Y-13686222D02*
X12398277Y-13667174D01*
X12398277Y-13667174D02*
X12379230Y-13657650D01*
X12379230Y-13657650D02*
X12350658Y-13657650D01*
X12350658Y-13657650D02*
X12331610Y-13667174D01*
X12331610Y-13667174D02*
X12322087Y-13676698D01*
X12531610Y-13790984D02*
X12512563Y-13781460D01*
X12512563Y-13781460D02*
X12503039Y-13771936D01*
X12503039Y-13771936D02*
X12493515Y-13752888D01*
X12493515Y-13752888D02*
X12493515Y-13695746D01*
X12493515Y-13695746D02*
X12503039Y-13676698D01*
X12503039Y-13676698D02*
X12512563Y-13667174D01*
X12512563Y-13667174D02*
X12531610Y-13657650D01*
X12531610Y-13657650D02*
X12560182Y-13657650D01*
X12560182Y-13657650D02*
X12579230Y-13667174D01*
X12579230Y-13667174D02*
X12588753Y-13676698D01*
X12588753Y-13676698D02*
X12598277Y-13695746D01*
X12598277Y-13695746D02*
X12598277Y-13752888D01*
X12598277Y-13752888D02*
X12588753Y-13771936D01*
X12588753Y-13771936D02*
X12579230Y-13781460D01*
X12579230Y-13781460D02*
X12560182Y-13790984D01*
X12560182Y-13790984D02*
X12531610Y-13790984D01*
X12712563Y-13790984D02*
X12693515Y-13781460D01*
X12693515Y-13781460D02*
X12683991Y-13762412D01*
X12683991Y-13762412D02*
X12683991Y-13590984D01*
X12864944Y-13781460D02*
X12845896Y-13790984D01*
X12845896Y-13790984D02*
X12807801Y-13790984D01*
X12807801Y-13790984D02*
X12788753Y-13781460D01*
X12788753Y-13781460D02*
X12779230Y-13762412D01*
X12779230Y-13762412D02*
X12779230Y-13686222D01*
X12779230Y-13686222D02*
X12788753Y-13667174D01*
X12788753Y-13667174D02*
X12807801Y-13657650D01*
X12807801Y-13657650D02*
X12845896Y-13657650D01*
X12845896Y-13657650D02*
X12864944Y-13667174D01*
X12864944Y-13667174D02*
X12874468Y-13686222D01*
X12874468Y-13686222D02*
X12874468Y-13705269D01*
X12874468Y-13705269D02*
X12779230Y-13724317D01*
X12950658Y-13781460D02*
X12969706Y-13790984D01*
X12969706Y-13790984D02*
X13007801Y-13790984D01*
X13007801Y-13790984D02*
X13026849Y-13781460D01*
X13026849Y-13781460D02*
X13036372Y-13762412D01*
X13036372Y-13762412D02*
X13036372Y-13752888D01*
X13036372Y-13752888D02*
X13026849Y-13733841D01*
X13026849Y-13733841D02*
X13007801Y-13724317D01*
X13007801Y-13724317D02*
X12979230Y-13724317D01*
X12979230Y-13724317D02*
X12960182Y-13714793D01*
X12960182Y-13714793D02*
X12950658Y-13695746D01*
X12950658Y-13695746D02*
X12950658Y-13686222D01*
X12950658Y-13686222D02*
X12960182Y-13667174D01*
X12960182Y-13667174D02*
X12979230Y-13657650D01*
X12979230Y-13657650D02*
X13007801Y-13657650D01*
X13007801Y-13657650D02*
X13026849Y-13667174D01*
X13103039Y-13867174D02*
X13112563Y-13857650D01*
X13112563Y-13857650D02*
X13131611Y-13829079D01*
X13131611Y-13829079D02*
X13141134Y-13810031D01*
X13141134Y-13810031D02*
X13150658Y-13781460D01*
X13150658Y-13781460D02*
X13160182Y-13733841D01*
X13160182Y-13733841D02*
X13160182Y-13695746D01*
X13160182Y-13695746D02*
X13150658Y-13648127D01*
X13150658Y-13648127D02*
X13141134Y-13619555D01*
X13141134Y-13619555D02*
X13131611Y-13600508D01*
X13131611Y-13600508D02*
X13112563Y-13571936D01*
X13112563Y-13571936D02*
X13103039Y-13562412D01*
D13*
X8062500Y-14038500D02*
X8137500Y-13963500D01*
X8062500Y-13888500D01*
X7987500Y-13963500D01*
X8062500Y-14038500D01*
D11*
X8503039Y-14054984D02*
X8388753Y-14054984D01*
X8445896Y-14054984D02*
X8445896Y-13854984D01*
X8445896Y-13854984D02*
X8426848Y-13883555D01*
X8426848Y-13883555D02*
X8407801Y-13902603D01*
X8407801Y-13902603D02*
X8388753Y-13912127D01*
X8588753Y-14035936D02*
X8598277Y-14045460D01*
X8598277Y-14045460D02*
X8588753Y-14054984D01*
X8588753Y-14054984D02*
X8579229Y-14045460D01*
X8579229Y-14045460D02*
X8588753Y-14035936D01*
X8588753Y-14035936D02*
X8588753Y-14054984D01*
X8779229Y-13854984D02*
X8683991Y-13854984D01*
X8683991Y-13854984D02*
X8674467Y-13950222D01*
X8674467Y-13950222D02*
X8683991Y-13940698D01*
X8683991Y-13940698D02*
X8703039Y-13931174D01*
X8703039Y-13931174D02*
X8750658Y-13931174D01*
X8750658Y-13931174D02*
X8769705Y-13940698D01*
X8769705Y-13940698D02*
X8779229Y-13950222D01*
X8779229Y-13950222D02*
X8788753Y-13969269D01*
X8788753Y-13969269D02*
X8788753Y-14016888D01*
X8788753Y-14016888D02*
X8779229Y-14035936D01*
X8779229Y-14035936D02*
X8769705Y-14045460D01*
X8769705Y-14045460D02*
X8750658Y-14054984D01*
X8750658Y-14054984D02*
X8703039Y-14054984D01*
X8703039Y-14054984D02*
X8683991Y-14045460D01*
X8683991Y-14045460D02*
X8674467Y-14035936D01*
X8912563Y-13854984D02*
X8931610Y-13854984D01*
X8931610Y-13854984D02*
X8950658Y-13864508D01*
X8950658Y-13864508D02*
X8960182Y-13874031D01*
X8960182Y-13874031D02*
X8969705Y-13893079D01*
X8969705Y-13893079D02*
X8979229Y-13931174D01*
X8979229Y-13931174D02*
X8979229Y-13978793D01*
X8979229Y-13978793D02*
X8969705Y-14016888D01*
X8969705Y-14016888D02*
X8960182Y-14035936D01*
X8960182Y-14035936D02*
X8950658Y-14045460D01*
X8950658Y-14045460D02*
X8931610Y-14054984D01*
X8931610Y-14054984D02*
X8912563Y-14054984D01*
X8912563Y-14054984D02*
X8893515Y-14045460D01*
X8893515Y-14045460D02*
X8883991Y-14035936D01*
X8883991Y-14035936D02*
X8874467Y-14016888D01*
X8874467Y-14016888D02*
X8864944Y-13978793D01*
X8864944Y-13978793D02*
X8864944Y-13931174D01*
X8864944Y-13931174D02*
X8874467Y-13893079D01*
X8874467Y-13893079D02*
X8883991Y-13874031D01*
X8883991Y-13874031D02*
X8893515Y-13864508D01*
X8893515Y-13864508D02*
X8912563Y-13854984D01*
X9103039Y-13854984D02*
X9122086Y-13854984D01*
X9122086Y-13854984D02*
X9141134Y-13864508D01*
X9141134Y-13864508D02*
X9150658Y-13874031D01*
X9150658Y-13874031D02*
X9160182Y-13893079D01*
X9160182Y-13893079D02*
X9169705Y-13931174D01*
X9169705Y-13931174D02*
X9169705Y-13978793D01*
X9169705Y-13978793D02*
X9160182Y-14016888D01*
X9160182Y-14016888D02*
X9150658Y-14035936D01*
X9150658Y-14035936D02*
X9141134Y-14045460D01*
X9141134Y-14045460D02*
X9122086Y-14054984D01*
X9122086Y-14054984D02*
X9103039Y-14054984D01*
X9103039Y-14054984D02*
X9083991Y-14045460D01*
X9083991Y-14045460D02*
X9074467Y-14035936D01*
X9074467Y-14035936D02*
X9064944Y-14016888D01*
X9064944Y-14016888D02*
X9055420Y-13978793D01*
X9055420Y-13978793D02*
X9055420Y-13931174D01*
X9055420Y-13931174D02*
X9064944Y-13893079D01*
X9064944Y-13893079D02*
X9074467Y-13874031D01*
X9074467Y-13874031D02*
X9083991Y-13864508D01*
X9083991Y-13864508D02*
X9103039Y-13854984D01*
X9255420Y-14054984D02*
X9255420Y-13921650D01*
X9255420Y-13940698D02*
X9264944Y-13931174D01*
X9264944Y-13931174D02*
X9283991Y-13921650D01*
X9283991Y-13921650D02*
X9312563Y-13921650D01*
X9312563Y-13921650D02*
X9331610Y-13931174D01*
X9331610Y-13931174D02*
X9341134Y-13950222D01*
X9341134Y-13950222D02*
X9341134Y-14054984D01*
X9341134Y-13950222D02*
X9350658Y-13931174D01*
X9350658Y-13931174D02*
X9369705Y-13921650D01*
X9369705Y-13921650D02*
X9398277Y-13921650D01*
X9398277Y-13921650D02*
X9417325Y-13931174D01*
X9417325Y-13931174D02*
X9426848Y-13950222D01*
X9426848Y-13950222D02*
X9426848Y-14054984D01*
X9522086Y-14054984D02*
X9522086Y-13921650D01*
X9522086Y-13940698D02*
X9531610Y-13931174D01*
X9531610Y-13931174D02*
X9550658Y-13921650D01*
X9550658Y-13921650D02*
X9579229Y-13921650D01*
X9579229Y-13921650D02*
X9598277Y-13931174D01*
X9598277Y-13931174D02*
X9607801Y-13950222D01*
X9607801Y-13950222D02*
X9607801Y-14054984D01*
X9607801Y-13950222D02*
X9617325Y-13931174D01*
X9617325Y-13931174D02*
X9636372Y-13921650D01*
X9636372Y-13921650D02*
X9664944Y-13921650D01*
X9664944Y-13921650D02*
X9683991Y-13931174D01*
X9683991Y-13931174D02*
X9693515Y-13950222D01*
X9693515Y-13950222D02*
X9693515Y-14054984D01*
X10083991Y-13845460D02*
X9912563Y-14102603D01*
X10341134Y-13854984D02*
X10360182Y-13854984D01*
X10360182Y-13854984D02*
X10379229Y-13864508D01*
X10379229Y-13864508D02*
X10388753Y-13874031D01*
X10388753Y-13874031D02*
X10398277Y-13893079D01*
X10398277Y-13893079D02*
X10407801Y-13931174D01*
X10407801Y-13931174D02*
X10407801Y-13978793D01*
X10407801Y-13978793D02*
X10398277Y-14016888D01*
X10398277Y-14016888D02*
X10388753Y-14035936D01*
X10388753Y-14035936D02*
X10379229Y-14045460D01*
X10379229Y-14045460D02*
X10360182Y-14054984D01*
X10360182Y-14054984D02*
X10341134Y-14054984D01*
X10341134Y-14054984D02*
X10322087Y-14045460D01*
X10322087Y-14045460D02*
X10312563Y-14035936D01*
X10312563Y-14035936D02*
X10303039Y-14016888D01*
X10303039Y-14016888D02*
X10293515Y-13978793D01*
X10293515Y-13978793D02*
X10293515Y-13931174D01*
X10293515Y-13931174D02*
X10303039Y-13893079D01*
X10303039Y-13893079D02*
X10312563Y-13874031D01*
X10312563Y-13874031D02*
X10322087Y-13864508D01*
X10322087Y-13864508D02*
X10341134Y-13854984D01*
X10493515Y-14035936D02*
X10503039Y-14045460D01*
X10503039Y-14045460D02*
X10493515Y-14054984D01*
X10493515Y-14054984D02*
X10483991Y-14045460D01*
X10483991Y-14045460D02*
X10493515Y-14035936D01*
X10493515Y-14035936D02*
X10493515Y-14054984D01*
X10626848Y-13854984D02*
X10645896Y-13854984D01*
X10645896Y-13854984D02*
X10664944Y-13864508D01*
X10664944Y-13864508D02*
X10674468Y-13874031D01*
X10674468Y-13874031D02*
X10683991Y-13893079D01*
X10683991Y-13893079D02*
X10693515Y-13931174D01*
X10693515Y-13931174D02*
X10693515Y-13978793D01*
X10693515Y-13978793D02*
X10683991Y-14016888D01*
X10683991Y-14016888D02*
X10674468Y-14035936D01*
X10674468Y-14035936D02*
X10664944Y-14045460D01*
X10664944Y-14045460D02*
X10645896Y-14054984D01*
X10645896Y-14054984D02*
X10626848Y-14054984D01*
X10626848Y-14054984D02*
X10607801Y-14045460D01*
X10607801Y-14045460D02*
X10598277Y-14035936D01*
X10598277Y-14035936D02*
X10588753Y-14016888D01*
X10588753Y-14016888D02*
X10579229Y-13978793D01*
X10579229Y-13978793D02*
X10579229Y-13931174D01*
X10579229Y-13931174D02*
X10588753Y-13893079D01*
X10588753Y-13893079D02*
X10598277Y-13874031D01*
X10598277Y-13874031D02*
X10607801Y-13864508D01*
X10607801Y-13864508D02*
X10626848Y-13854984D01*
X10874468Y-13854984D02*
X10779229Y-13854984D01*
X10779229Y-13854984D02*
X10769706Y-13950222D01*
X10769706Y-13950222D02*
X10779229Y-13940698D01*
X10779229Y-13940698D02*
X10798277Y-13931174D01*
X10798277Y-13931174D02*
X10845896Y-13931174D01*
X10845896Y-13931174D02*
X10864944Y-13940698D01*
X10864944Y-13940698D02*
X10874468Y-13950222D01*
X10874468Y-13950222D02*
X10883991Y-13969269D01*
X10883991Y-13969269D02*
X10883991Y-14016888D01*
X10883991Y-14016888D02*
X10874468Y-14035936D01*
X10874468Y-14035936D02*
X10864944Y-14045460D01*
X10864944Y-14045460D02*
X10845896Y-14054984D01*
X10845896Y-14054984D02*
X10798277Y-14054984D01*
X10798277Y-14054984D02*
X10779229Y-14045460D01*
X10779229Y-14045460D02*
X10769706Y-14035936D01*
X10979229Y-14054984D02*
X11017325Y-14054984D01*
X11017325Y-14054984D02*
X11036372Y-14045460D01*
X11036372Y-14045460D02*
X11045896Y-14035936D01*
X11045896Y-14035936D02*
X11064944Y-14007365D01*
X11064944Y-14007365D02*
X11074468Y-13969269D01*
X11074468Y-13969269D02*
X11074468Y-13893079D01*
X11074468Y-13893079D02*
X11064944Y-13874031D01*
X11064944Y-13874031D02*
X11055420Y-13864508D01*
X11055420Y-13864508D02*
X11036372Y-13854984D01*
X11036372Y-13854984D02*
X10998277Y-13854984D01*
X10998277Y-13854984D02*
X10979229Y-13864508D01*
X10979229Y-13864508D02*
X10969706Y-13874031D01*
X10969706Y-13874031D02*
X10960182Y-13893079D01*
X10960182Y-13893079D02*
X10960182Y-13940698D01*
X10960182Y-13940698D02*
X10969706Y-13959746D01*
X10969706Y-13959746D02*
X10979229Y-13969269D01*
X10979229Y-13969269D02*
X10998277Y-13978793D01*
X10998277Y-13978793D02*
X11036372Y-13978793D01*
X11036372Y-13978793D02*
X11055420Y-13969269D01*
X11055420Y-13969269D02*
X11064944Y-13959746D01*
X11064944Y-13959746D02*
X11074468Y-13940698D01*
X11264944Y-14054984D02*
X11150658Y-14054984D01*
X11207801Y-14054984D02*
X11207801Y-13854984D01*
X11207801Y-13854984D02*
X11188753Y-13883555D01*
X11188753Y-13883555D02*
X11169706Y-13902603D01*
X11169706Y-13902603D02*
X11150658Y-13912127D01*
X11341134Y-13854984D02*
X11341134Y-13893079D01*
X11417325Y-13854984D02*
X11417325Y-13893079D01*
X11712563Y-14131174D02*
X11703039Y-14121650D01*
X11703039Y-14121650D02*
X11683991Y-14093079D01*
X11683991Y-14093079D02*
X11674468Y-14074031D01*
X11674468Y-14074031D02*
X11664944Y-14045460D01*
X11664944Y-14045460D02*
X11655420Y-13997841D01*
X11655420Y-13997841D02*
X11655420Y-13959746D01*
X11655420Y-13959746D02*
X11664944Y-13912127D01*
X11664944Y-13912127D02*
X11674468Y-13883555D01*
X11674468Y-13883555D02*
X11683991Y-13864508D01*
X11683991Y-13864508D02*
X11703039Y-13835936D01*
X11703039Y-13835936D02*
X11712563Y-13826412D01*
X11893515Y-14054984D02*
X11779229Y-14054984D01*
X11836372Y-14054984D02*
X11836372Y-13854984D01*
X11836372Y-13854984D02*
X11817325Y-13883555D01*
X11817325Y-13883555D02*
X11798277Y-13902603D01*
X11798277Y-13902603D02*
X11779229Y-13912127D01*
X12131610Y-14054984D02*
X12131610Y-13854984D01*
X12217325Y-14054984D02*
X12217325Y-13950222D01*
X12217325Y-13950222D02*
X12207801Y-13931174D01*
X12207801Y-13931174D02*
X12188753Y-13921650D01*
X12188753Y-13921650D02*
X12160182Y-13921650D01*
X12160182Y-13921650D02*
X12141134Y-13931174D01*
X12141134Y-13931174D02*
X12131610Y-13940698D01*
X12341134Y-14054984D02*
X12322087Y-14045460D01*
X12322087Y-14045460D02*
X12312563Y-14035936D01*
X12312563Y-14035936D02*
X12303039Y-14016888D01*
X12303039Y-14016888D02*
X12303039Y-13959746D01*
X12303039Y-13959746D02*
X12312563Y-13940698D01*
X12312563Y-13940698D02*
X12322087Y-13931174D01*
X12322087Y-13931174D02*
X12341134Y-13921650D01*
X12341134Y-13921650D02*
X12369706Y-13921650D01*
X12369706Y-13921650D02*
X12388753Y-13931174D01*
X12388753Y-13931174D02*
X12398277Y-13940698D01*
X12398277Y-13940698D02*
X12407801Y-13959746D01*
X12407801Y-13959746D02*
X12407801Y-14016888D01*
X12407801Y-14016888D02*
X12398277Y-14035936D01*
X12398277Y-14035936D02*
X12388753Y-14045460D01*
X12388753Y-14045460D02*
X12369706Y-14054984D01*
X12369706Y-14054984D02*
X12341134Y-14054984D01*
X12522087Y-14054984D02*
X12503039Y-14045460D01*
X12503039Y-14045460D02*
X12493515Y-14026412D01*
X12493515Y-14026412D02*
X12493515Y-13854984D01*
X12674468Y-14045460D02*
X12655420Y-14054984D01*
X12655420Y-14054984D02*
X12617325Y-14054984D01*
X12617325Y-14054984D02*
X12598277Y-14045460D01*
X12598277Y-14045460D02*
X12588753Y-14026412D01*
X12588753Y-14026412D02*
X12588753Y-13950222D01*
X12588753Y-13950222D02*
X12598277Y-13931174D01*
X12598277Y-13931174D02*
X12617325Y-13921650D01*
X12617325Y-13921650D02*
X12655420Y-13921650D01*
X12655420Y-13921650D02*
X12674468Y-13931174D01*
X12674468Y-13931174D02*
X12683991Y-13950222D01*
X12683991Y-13950222D02*
X12683991Y-13969269D01*
X12683991Y-13969269D02*
X12588753Y-13988317D01*
X12750658Y-14131174D02*
X12760182Y-14121650D01*
X12760182Y-14121650D02*
X12779230Y-14093079D01*
X12779230Y-14093079D02*
X12788753Y-14074031D01*
X12788753Y-14074031D02*
X12798277Y-14045460D01*
X12798277Y-14045460D02*
X12807801Y-13997841D01*
X12807801Y-13997841D02*
X12807801Y-13959746D01*
X12807801Y-13959746D02*
X12798277Y-13912127D01*
X12798277Y-13912127D02*
X12788753Y-13883555D01*
X12788753Y-13883555D02*
X12779230Y-13864508D01*
X12779230Y-13864508D02*
X12760182Y-13835936D01*
X12760182Y-13835936D02*
X12750658Y-13826412D01*
M02*
