%TF.GenerationSoftware,KiCad,Pcbnew,8.0.1*%
%TF.CreationDate,2024-04-25T21:10:35-06:00*%
%TF.ProjectId,Small_PCB,536d616c-6c5f-4504-9342-2e6b69636164,rev?*%
%TF.SameCoordinates,Original*%
%TF.FileFunction,Drillmap*%
%TF.FilePolarity,Positive*%
%FSLAX45Y45*%
G04 Gerber Fmt 4.5, Leading zero omitted, Abs format (unit mm)*
G04 Created by KiCad (PCBNEW 8.0.1) date 2024-04-25 21:10:35*
%MOMM*%
%LPD*%
G01*
G04 APERTURE LIST*
%ADD10C,0.050000*%
%ADD11C,0.200000*%
%ADD12C,0.100000*%
G04 APERTURE END LIST*
D10*
X9000000Y-6650000D02*
X11700000Y-6650000D01*
X11700000Y-12500000D01*
X9000000Y-12500000D01*
X9000000Y-6650000D01*
D11*
D12*
X11235000Y-9168500D02*
X11265000Y-9198500D01*
X11265000Y-9168500D02*
X11235000Y-9198500D01*
X11385000Y-7268500D02*
X11415000Y-7298500D01*
X11415000Y-7268500D02*
X11385000Y-7298500D01*
X9300000Y-6896000D02*
G75*
G02*
X9200000Y-6896000I-50000J0D01*
G01*
X9200000Y-6896000D02*
G75*
G02*
X9300000Y-6896000I50000J0D01*
G01*
X9300000Y-7150000D02*
G75*
G02*
X9200000Y-7150000I-50000J0D01*
G01*
X9200000Y-7150000D02*
G75*
G02*
X9300000Y-7150000I50000J0D01*
G01*
X9300000Y-7404000D02*
G75*
G02*
X9200000Y-7404000I-50000J0D01*
G01*
X9200000Y-7404000D02*
G75*
G02*
X9300000Y-7404000I50000J0D01*
G01*
X9300000Y-7658000D02*
G75*
G02*
X9200000Y-7658000I-50000J0D01*
G01*
X9200000Y-7658000D02*
G75*
G02*
X9300000Y-7658000I50000J0D01*
G01*
X9300000Y-7912000D02*
G75*
G02*
X9200000Y-7912000I-50000J0D01*
G01*
X9200000Y-7912000D02*
G75*
G02*
X9300000Y-7912000I50000J0D01*
G01*
X9300000Y-8166000D02*
G75*
G02*
X9200000Y-8166000I-50000J0D01*
G01*
X9200000Y-8166000D02*
G75*
G02*
X9300000Y-8166000I50000J0D01*
G01*
X9300000Y-8420000D02*
G75*
G02*
X9200000Y-8420000I-50000J0D01*
G01*
X9200000Y-8420000D02*
G75*
G02*
X9300000Y-8420000I50000J0D01*
G01*
X9300000Y-8674000D02*
G75*
G02*
X9200000Y-8674000I-50000J0D01*
G01*
X9200000Y-8674000D02*
G75*
G02*
X9300000Y-8674000I50000J0D01*
G01*
X9300000Y-8928000D02*
G75*
G02*
X9200000Y-8928000I-50000J0D01*
G01*
X9200000Y-8928000D02*
G75*
G02*
X9300000Y-8928000I50000J0D01*
G01*
X9300000Y-9182000D02*
G75*
G02*
X9200000Y-9182000I-50000J0D01*
G01*
X9200000Y-9182000D02*
G75*
G02*
X9300000Y-9182000I50000J0D01*
G01*
X9300000Y-9436000D02*
G75*
G02*
X9200000Y-9436000I-50000J0D01*
G01*
X9200000Y-9436000D02*
G75*
G02*
X9300000Y-9436000I50000J0D01*
G01*
X9300000Y-9690000D02*
G75*
G02*
X9200000Y-9690000I-50000J0D01*
G01*
X9200000Y-9690000D02*
G75*
G02*
X9300000Y-9690000I50000J0D01*
G01*
X9300000Y-9944000D02*
G75*
G02*
X9200000Y-9944000I-50000J0D01*
G01*
X9200000Y-9944000D02*
G75*
G02*
X9300000Y-9944000I50000J0D01*
G01*
X9300000Y-10198000D02*
G75*
G02*
X9200000Y-10198000I-50000J0D01*
G01*
X9200000Y-10198000D02*
G75*
G02*
X9300000Y-10198000I50000J0D01*
G01*
X9300000Y-10452000D02*
G75*
G02*
X9200000Y-10452000I-50000J0D01*
G01*
X9200000Y-10452000D02*
G75*
G02*
X9300000Y-10452000I50000J0D01*
G01*
X9300000Y-10706000D02*
G75*
G02*
X9200000Y-10706000I-50000J0D01*
G01*
X9200000Y-10706000D02*
G75*
G02*
X9300000Y-10706000I50000J0D01*
G01*
X9300000Y-10960000D02*
G75*
G02*
X9200000Y-10960000I-50000J0D01*
G01*
X9200000Y-10960000D02*
G75*
G02*
X9300000Y-10960000I50000J0D01*
G01*
X9300000Y-11214000D02*
G75*
G02*
X9200000Y-11214000I-50000J0D01*
G01*
X9200000Y-11214000D02*
G75*
G02*
X9300000Y-11214000I50000J0D01*
G01*
X9300000Y-11468000D02*
G75*
G02*
X9200000Y-11468000I-50000J0D01*
G01*
X9200000Y-11468000D02*
G75*
G02*
X9300000Y-11468000I50000J0D01*
G01*
X9300000Y-11722000D02*
G75*
G02*
X9200000Y-11722000I-50000J0D01*
G01*
X9200000Y-11722000D02*
G75*
G02*
X9300000Y-11722000I50000J0D01*
G01*
X9554000Y-6896000D02*
G75*
G02*
X9454000Y-6896000I-50000J0D01*
G01*
X9454000Y-6896000D02*
G75*
G02*
X9554000Y-6896000I50000J0D01*
G01*
X9554000Y-7150000D02*
G75*
G02*
X9454000Y-7150000I-50000J0D01*
G01*
X9454000Y-7150000D02*
G75*
G02*
X9554000Y-7150000I50000J0D01*
G01*
X9554000Y-7404000D02*
G75*
G02*
X9454000Y-7404000I-50000J0D01*
G01*
X9454000Y-7404000D02*
G75*
G02*
X9554000Y-7404000I50000J0D01*
G01*
X9554000Y-7658000D02*
G75*
G02*
X9454000Y-7658000I-50000J0D01*
G01*
X9454000Y-7658000D02*
G75*
G02*
X9554000Y-7658000I50000J0D01*
G01*
X9554000Y-7912000D02*
G75*
G02*
X9454000Y-7912000I-50000J0D01*
G01*
X9454000Y-7912000D02*
G75*
G02*
X9554000Y-7912000I50000J0D01*
G01*
X9554000Y-8166000D02*
G75*
G02*
X9454000Y-8166000I-50000J0D01*
G01*
X9454000Y-8166000D02*
G75*
G02*
X9554000Y-8166000I50000J0D01*
G01*
X9554000Y-8420000D02*
G75*
G02*
X9454000Y-8420000I-50000J0D01*
G01*
X9454000Y-8420000D02*
G75*
G02*
X9554000Y-8420000I50000J0D01*
G01*
X9554000Y-8674000D02*
G75*
G02*
X9454000Y-8674000I-50000J0D01*
G01*
X9454000Y-8674000D02*
G75*
G02*
X9554000Y-8674000I50000J0D01*
G01*
X9554000Y-8928000D02*
G75*
G02*
X9454000Y-8928000I-50000J0D01*
G01*
X9454000Y-8928000D02*
G75*
G02*
X9554000Y-8928000I50000J0D01*
G01*
X9554000Y-9182000D02*
G75*
G02*
X9454000Y-9182000I-50000J0D01*
G01*
X9454000Y-9182000D02*
G75*
G02*
X9554000Y-9182000I50000J0D01*
G01*
X9554000Y-9436000D02*
G75*
G02*
X9454000Y-9436000I-50000J0D01*
G01*
X9454000Y-9436000D02*
G75*
G02*
X9554000Y-9436000I50000J0D01*
G01*
X9554000Y-9690000D02*
G75*
G02*
X9454000Y-9690000I-50000J0D01*
G01*
X9454000Y-9690000D02*
G75*
G02*
X9554000Y-9690000I50000J0D01*
G01*
X9554000Y-9944000D02*
G75*
G02*
X9454000Y-9944000I-50000J0D01*
G01*
X9454000Y-9944000D02*
G75*
G02*
X9554000Y-9944000I50000J0D01*
G01*
X9554000Y-10198000D02*
G75*
G02*
X9454000Y-10198000I-50000J0D01*
G01*
X9454000Y-10198000D02*
G75*
G02*
X9554000Y-10198000I50000J0D01*
G01*
X9554000Y-10452000D02*
G75*
G02*
X9454000Y-10452000I-50000J0D01*
G01*
X9454000Y-10452000D02*
G75*
G02*
X9554000Y-10452000I50000J0D01*
G01*
X9554000Y-10706000D02*
G75*
G02*
X9454000Y-10706000I-50000J0D01*
G01*
X9454000Y-10706000D02*
G75*
G02*
X9554000Y-10706000I50000J0D01*
G01*
X9554000Y-10960000D02*
G75*
G02*
X9454000Y-10960000I-50000J0D01*
G01*
X9454000Y-10960000D02*
G75*
G02*
X9554000Y-10960000I50000J0D01*
G01*
X9554000Y-11214000D02*
G75*
G02*
X9454000Y-11214000I-50000J0D01*
G01*
X9454000Y-11214000D02*
G75*
G02*
X9554000Y-11214000I50000J0D01*
G01*
X9554000Y-11468000D02*
G75*
G02*
X9454000Y-11468000I-50000J0D01*
G01*
X9454000Y-11468000D02*
G75*
G02*
X9554000Y-11468000I50000J0D01*
G01*
X9554000Y-11722000D02*
G75*
G02*
X9454000Y-11722000I-50000J0D01*
G01*
X9454000Y-11722000D02*
G75*
G02*
X9554000Y-11722000I50000J0D01*
G01*
X10400000Y-7033500D02*
G75*
G02*
X10300000Y-7033500I-50000J0D01*
G01*
X10300000Y-7033500D02*
G75*
G02*
X10400000Y-7033500I50000J0D01*
G01*
X10400000Y-7733500D02*
G75*
G02*
X10300000Y-7733500I-50000J0D01*
G01*
X10300000Y-7733500D02*
G75*
G02*
X10400000Y-7733500I50000J0D01*
G01*
X10400000Y-8633500D02*
G75*
G02*
X10300000Y-8633500I-50000J0D01*
G01*
X10300000Y-8633500D02*
G75*
G02*
X10400000Y-8633500I50000J0D01*
G01*
X10400000Y-9333500D02*
G75*
G02*
X10300000Y-9333500I-50000J0D01*
G01*
X10300000Y-9333500D02*
G75*
G02*
X10400000Y-9333500I50000J0D01*
G01*
X10400000Y-10083500D02*
G75*
G02*
X10300000Y-10083500I-50000J0D01*
G01*
X10300000Y-10083500D02*
G75*
G02*
X10400000Y-10083500I50000J0D01*
G01*
X10650000Y-7033500D02*
G75*
G02*
X10550000Y-7033500I-50000J0D01*
G01*
X10550000Y-7033500D02*
G75*
G02*
X10650000Y-7033500I50000J0D01*
G01*
X10650000Y-7733500D02*
G75*
G02*
X10550000Y-7733500I-50000J0D01*
G01*
X10550000Y-7733500D02*
G75*
G02*
X10650000Y-7733500I50000J0D01*
G01*
X10650000Y-8633500D02*
G75*
G02*
X10550000Y-8633500I-50000J0D01*
G01*
X10550000Y-8633500D02*
G75*
G02*
X10650000Y-8633500I50000J0D01*
G01*
X10650000Y-9333500D02*
G75*
G02*
X10550000Y-9333500I-50000J0D01*
G01*
X10550000Y-9333500D02*
G75*
G02*
X10650000Y-9333500I50000J0D01*
G01*
X10650000Y-10083500D02*
G75*
G02*
X10550000Y-10083500I-50000J0D01*
G01*
X10550000Y-10083500D02*
G75*
G02*
X10650000Y-10083500I50000J0D01*
G01*
D11*
X9258277Y-12813984D02*
X9258277Y-12613984D01*
X9258277Y-12613984D02*
X9305896Y-12613984D01*
X9305896Y-12613984D02*
X9334467Y-12623508D01*
X9334467Y-12623508D02*
X9353515Y-12642555D01*
X9353515Y-12642555D02*
X9363039Y-12661603D01*
X9363039Y-12661603D02*
X9372563Y-12699698D01*
X9372563Y-12699698D02*
X9372563Y-12728269D01*
X9372563Y-12728269D02*
X9363039Y-12766365D01*
X9363039Y-12766365D02*
X9353515Y-12785412D01*
X9353515Y-12785412D02*
X9334467Y-12804460D01*
X9334467Y-12804460D02*
X9305896Y-12813984D01*
X9305896Y-12813984D02*
X9258277Y-12813984D01*
X9458277Y-12813984D02*
X9458277Y-12680650D01*
X9458277Y-12718746D02*
X9467801Y-12699698D01*
X9467801Y-12699698D02*
X9477324Y-12690174D01*
X9477324Y-12690174D02*
X9496372Y-12680650D01*
X9496372Y-12680650D02*
X9515420Y-12680650D01*
X9582086Y-12813984D02*
X9582086Y-12680650D01*
X9582086Y-12613984D02*
X9572563Y-12623508D01*
X9572563Y-12623508D02*
X9582086Y-12633031D01*
X9582086Y-12633031D02*
X9591610Y-12623508D01*
X9591610Y-12623508D02*
X9582086Y-12613984D01*
X9582086Y-12613984D02*
X9582086Y-12633031D01*
X9705896Y-12813984D02*
X9686848Y-12804460D01*
X9686848Y-12804460D02*
X9677324Y-12785412D01*
X9677324Y-12785412D02*
X9677324Y-12613984D01*
X9810658Y-12813984D02*
X9791610Y-12804460D01*
X9791610Y-12804460D02*
X9782086Y-12785412D01*
X9782086Y-12785412D02*
X9782086Y-12613984D01*
X10039229Y-12813984D02*
X10039229Y-12613984D01*
X10039229Y-12613984D02*
X10105896Y-12756841D01*
X10105896Y-12756841D02*
X10172563Y-12613984D01*
X10172563Y-12613984D02*
X10172563Y-12813984D01*
X10353515Y-12813984D02*
X10353515Y-12709222D01*
X10353515Y-12709222D02*
X10343991Y-12690174D01*
X10343991Y-12690174D02*
X10324944Y-12680650D01*
X10324944Y-12680650D02*
X10286848Y-12680650D01*
X10286848Y-12680650D02*
X10267801Y-12690174D01*
X10353515Y-12804460D02*
X10334467Y-12813984D01*
X10334467Y-12813984D02*
X10286848Y-12813984D01*
X10286848Y-12813984D02*
X10267801Y-12804460D01*
X10267801Y-12804460D02*
X10258277Y-12785412D01*
X10258277Y-12785412D02*
X10258277Y-12766365D01*
X10258277Y-12766365D02*
X10267801Y-12747317D01*
X10267801Y-12747317D02*
X10286848Y-12737793D01*
X10286848Y-12737793D02*
X10334467Y-12737793D01*
X10334467Y-12737793D02*
X10353515Y-12728269D01*
X10448753Y-12680650D02*
X10448753Y-12880650D01*
X10448753Y-12690174D02*
X10467801Y-12680650D01*
X10467801Y-12680650D02*
X10505896Y-12680650D01*
X10505896Y-12680650D02*
X10524944Y-12690174D01*
X10524944Y-12690174D02*
X10534467Y-12699698D01*
X10534467Y-12699698D02*
X10543991Y-12718746D01*
X10543991Y-12718746D02*
X10543991Y-12775888D01*
X10543991Y-12775888D02*
X10534467Y-12794936D01*
X10534467Y-12794936D02*
X10524944Y-12804460D01*
X10524944Y-12804460D02*
X10505896Y-12813984D01*
X10505896Y-12813984D02*
X10467801Y-12813984D01*
X10467801Y-12813984D02*
X10448753Y-12804460D01*
X10629705Y-12794936D02*
X10639229Y-12804460D01*
X10639229Y-12804460D02*
X10629705Y-12813984D01*
X10629705Y-12813984D02*
X10620182Y-12804460D01*
X10620182Y-12804460D02*
X10629705Y-12794936D01*
X10629705Y-12794936D02*
X10629705Y-12813984D01*
X10629705Y-12690174D02*
X10639229Y-12699698D01*
X10639229Y-12699698D02*
X10629705Y-12709222D01*
X10629705Y-12709222D02*
X10620182Y-12699698D01*
X10620182Y-12699698D02*
X10629705Y-12690174D01*
X10629705Y-12690174D02*
X10629705Y-12709222D01*
D12*
X8967500Y-13127500D02*
X8997500Y-13157500D01*
X8997500Y-13127500D02*
X8967500Y-13157500D01*
D11*
X9296372Y-13033984D02*
X9315420Y-13033984D01*
X9315420Y-13033984D02*
X9334467Y-13043508D01*
X9334467Y-13043508D02*
X9343991Y-13053031D01*
X9343991Y-13053031D02*
X9353515Y-13072079D01*
X9353515Y-13072079D02*
X9363039Y-13110174D01*
X9363039Y-13110174D02*
X9363039Y-13157793D01*
X9363039Y-13157793D02*
X9353515Y-13195888D01*
X9353515Y-13195888D02*
X9343991Y-13214936D01*
X9343991Y-13214936D02*
X9334467Y-13224460D01*
X9334467Y-13224460D02*
X9315420Y-13233984D01*
X9315420Y-13233984D02*
X9296372Y-13233984D01*
X9296372Y-13233984D02*
X9277324Y-13224460D01*
X9277324Y-13224460D02*
X9267801Y-13214936D01*
X9267801Y-13214936D02*
X9258277Y-13195888D01*
X9258277Y-13195888D02*
X9248753Y-13157793D01*
X9248753Y-13157793D02*
X9248753Y-13110174D01*
X9248753Y-13110174D02*
X9258277Y-13072079D01*
X9258277Y-13072079D02*
X9267801Y-13053031D01*
X9267801Y-13053031D02*
X9277324Y-13043508D01*
X9277324Y-13043508D02*
X9296372Y-13033984D01*
X9448753Y-13214936D02*
X9458277Y-13224460D01*
X9458277Y-13224460D02*
X9448753Y-13233984D01*
X9448753Y-13233984D02*
X9439229Y-13224460D01*
X9439229Y-13224460D02*
X9448753Y-13214936D01*
X9448753Y-13214936D02*
X9448753Y-13233984D01*
X9524944Y-13033984D02*
X9648753Y-13033984D01*
X9648753Y-13033984D02*
X9582086Y-13110174D01*
X9582086Y-13110174D02*
X9610658Y-13110174D01*
X9610658Y-13110174D02*
X9629705Y-13119698D01*
X9629705Y-13119698D02*
X9639229Y-13129222D01*
X9639229Y-13129222D02*
X9648753Y-13148269D01*
X9648753Y-13148269D02*
X9648753Y-13195888D01*
X9648753Y-13195888D02*
X9639229Y-13214936D01*
X9639229Y-13214936D02*
X9629705Y-13224460D01*
X9629705Y-13224460D02*
X9610658Y-13233984D01*
X9610658Y-13233984D02*
X9553515Y-13233984D01*
X9553515Y-13233984D02*
X9534467Y-13224460D01*
X9534467Y-13224460D02*
X9524944Y-13214936D01*
X9772563Y-13033984D02*
X9791610Y-13033984D01*
X9791610Y-13033984D02*
X9810658Y-13043508D01*
X9810658Y-13043508D02*
X9820182Y-13053031D01*
X9820182Y-13053031D02*
X9829705Y-13072079D01*
X9829705Y-13072079D02*
X9839229Y-13110174D01*
X9839229Y-13110174D02*
X9839229Y-13157793D01*
X9839229Y-13157793D02*
X9829705Y-13195888D01*
X9829705Y-13195888D02*
X9820182Y-13214936D01*
X9820182Y-13214936D02*
X9810658Y-13224460D01*
X9810658Y-13224460D02*
X9791610Y-13233984D01*
X9791610Y-13233984D02*
X9772563Y-13233984D01*
X9772563Y-13233984D02*
X9753515Y-13224460D01*
X9753515Y-13224460D02*
X9743991Y-13214936D01*
X9743991Y-13214936D02*
X9734467Y-13195888D01*
X9734467Y-13195888D02*
X9724944Y-13157793D01*
X9724944Y-13157793D02*
X9724944Y-13110174D01*
X9724944Y-13110174D02*
X9734467Y-13072079D01*
X9734467Y-13072079D02*
X9743991Y-13053031D01*
X9743991Y-13053031D02*
X9753515Y-13043508D01*
X9753515Y-13043508D02*
X9772563Y-13033984D01*
X9963039Y-13033984D02*
X9982086Y-13033984D01*
X9982086Y-13033984D02*
X10001134Y-13043508D01*
X10001134Y-13043508D02*
X10010658Y-13053031D01*
X10010658Y-13053031D02*
X10020182Y-13072079D01*
X10020182Y-13072079D02*
X10029705Y-13110174D01*
X10029705Y-13110174D02*
X10029705Y-13157793D01*
X10029705Y-13157793D02*
X10020182Y-13195888D01*
X10020182Y-13195888D02*
X10010658Y-13214936D01*
X10010658Y-13214936D02*
X10001134Y-13224460D01*
X10001134Y-13224460D02*
X9982086Y-13233984D01*
X9982086Y-13233984D02*
X9963039Y-13233984D01*
X9963039Y-13233984D02*
X9943991Y-13224460D01*
X9943991Y-13224460D02*
X9934467Y-13214936D01*
X9934467Y-13214936D02*
X9924944Y-13195888D01*
X9924944Y-13195888D02*
X9915420Y-13157793D01*
X9915420Y-13157793D02*
X9915420Y-13110174D01*
X9915420Y-13110174D02*
X9924944Y-13072079D01*
X9924944Y-13072079D02*
X9934467Y-13053031D01*
X9934467Y-13053031D02*
X9943991Y-13043508D01*
X9943991Y-13043508D02*
X9963039Y-13033984D01*
X10115420Y-13233984D02*
X10115420Y-13100650D01*
X10115420Y-13119698D02*
X10124944Y-13110174D01*
X10124944Y-13110174D02*
X10143991Y-13100650D01*
X10143991Y-13100650D02*
X10172563Y-13100650D01*
X10172563Y-13100650D02*
X10191610Y-13110174D01*
X10191610Y-13110174D02*
X10201134Y-13129222D01*
X10201134Y-13129222D02*
X10201134Y-13233984D01*
X10201134Y-13129222D02*
X10210658Y-13110174D01*
X10210658Y-13110174D02*
X10229705Y-13100650D01*
X10229705Y-13100650D02*
X10258277Y-13100650D01*
X10258277Y-13100650D02*
X10277325Y-13110174D01*
X10277325Y-13110174D02*
X10286848Y-13129222D01*
X10286848Y-13129222D02*
X10286848Y-13233984D01*
X10382086Y-13233984D02*
X10382086Y-13100650D01*
X10382086Y-13119698D02*
X10391610Y-13110174D01*
X10391610Y-13110174D02*
X10410658Y-13100650D01*
X10410658Y-13100650D02*
X10439229Y-13100650D01*
X10439229Y-13100650D02*
X10458277Y-13110174D01*
X10458277Y-13110174D02*
X10467801Y-13129222D01*
X10467801Y-13129222D02*
X10467801Y-13233984D01*
X10467801Y-13129222D02*
X10477325Y-13110174D01*
X10477325Y-13110174D02*
X10496372Y-13100650D01*
X10496372Y-13100650D02*
X10524944Y-13100650D01*
X10524944Y-13100650D02*
X10543991Y-13110174D01*
X10543991Y-13110174D02*
X10553515Y-13129222D01*
X10553515Y-13129222D02*
X10553515Y-13233984D01*
X10943991Y-13024460D02*
X10772563Y-13281603D01*
X11201134Y-13033984D02*
X11220182Y-13033984D01*
X11220182Y-13033984D02*
X11239229Y-13043508D01*
X11239229Y-13043508D02*
X11248753Y-13053031D01*
X11248753Y-13053031D02*
X11258277Y-13072079D01*
X11258277Y-13072079D02*
X11267801Y-13110174D01*
X11267801Y-13110174D02*
X11267801Y-13157793D01*
X11267801Y-13157793D02*
X11258277Y-13195888D01*
X11258277Y-13195888D02*
X11248753Y-13214936D01*
X11248753Y-13214936D02*
X11239229Y-13224460D01*
X11239229Y-13224460D02*
X11220182Y-13233984D01*
X11220182Y-13233984D02*
X11201134Y-13233984D01*
X11201134Y-13233984D02*
X11182087Y-13224460D01*
X11182087Y-13224460D02*
X11172563Y-13214936D01*
X11172563Y-13214936D02*
X11163039Y-13195888D01*
X11163039Y-13195888D02*
X11153515Y-13157793D01*
X11153515Y-13157793D02*
X11153515Y-13110174D01*
X11153515Y-13110174D02*
X11163039Y-13072079D01*
X11163039Y-13072079D02*
X11172563Y-13053031D01*
X11172563Y-13053031D02*
X11182087Y-13043508D01*
X11182087Y-13043508D02*
X11201134Y-13033984D01*
X11353515Y-13214936D02*
X11363039Y-13224460D01*
X11363039Y-13224460D02*
X11353515Y-13233984D01*
X11353515Y-13233984D02*
X11343991Y-13224460D01*
X11343991Y-13224460D02*
X11353515Y-13214936D01*
X11353515Y-13214936D02*
X11353515Y-13233984D01*
X11486848Y-13033984D02*
X11505896Y-13033984D01*
X11505896Y-13033984D02*
X11524944Y-13043508D01*
X11524944Y-13043508D02*
X11534467Y-13053031D01*
X11534467Y-13053031D02*
X11543991Y-13072079D01*
X11543991Y-13072079D02*
X11553515Y-13110174D01*
X11553515Y-13110174D02*
X11553515Y-13157793D01*
X11553515Y-13157793D02*
X11543991Y-13195888D01*
X11543991Y-13195888D02*
X11534467Y-13214936D01*
X11534467Y-13214936D02*
X11524944Y-13224460D01*
X11524944Y-13224460D02*
X11505896Y-13233984D01*
X11505896Y-13233984D02*
X11486848Y-13233984D01*
X11486848Y-13233984D02*
X11467801Y-13224460D01*
X11467801Y-13224460D02*
X11458277Y-13214936D01*
X11458277Y-13214936D02*
X11448753Y-13195888D01*
X11448753Y-13195888D02*
X11439229Y-13157793D01*
X11439229Y-13157793D02*
X11439229Y-13110174D01*
X11439229Y-13110174D02*
X11448753Y-13072079D01*
X11448753Y-13072079D02*
X11458277Y-13053031D01*
X11458277Y-13053031D02*
X11467801Y-13043508D01*
X11467801Y-13043508D02*
X11486848Y-13033984D01*
X11743991Y-13233984D02*
X11629706Y-13233984D01*
X11686848Y-13233984D02*
X11686848Y-13033984D01*
X11686848Y-13033984D02*
X11667801Y-13062555D01*
X11667801Y-13062555D02*
X11648753Y-13081603D01*
X11648753Y-13081603D02*
X11629706Y-13091127D01*
X11934467Y-13233984D02*
X11820182Y-13233984D01*
X11877325Y-13233984D02*
X11877325Y-13033984D01*
X11877325Y-13033984D02*
X11858277Y-13062555D01*
X11858277Y-13062555D02*
X11839229Y-13081603D01*
X11839229Y-13081603D02*
X11820182Y-13091127D01*
X12048753Y-13119698D02*
X12029706Y-13110174D01*
X12029706Y-13110174D02*
X12020182Y-13100650D01*
X12020182Y-13100650D02*
X12010658Y-13081603D01*
X12010658Y-13081603D02*
X12010658Y-13072079D01*
X12010658Y-13072079D02*
X12020182Y-13053031D01*
X12020182Y-13053031D02*
X12029706Y-13043508D01*
X12029706Y-13043508D02*
X12048753Y-13033984D01*
X12048753Y-13033984D02*
X12086848Y-13033984D01*
X12086848Y-13033984D02*
X12105896Y-13043508D01*
X12105896Y-13043508D02*
X12115420Y-13053031D01*
X12115420Y-13053031D02*
X12124944Y-13072079D01*
X12124944Y-13072079D02*
X12124944Y-13081603D01*
X12124944Y-13081603D02*
X12115420Y-13100650D01*
X12115420Y-13100650D02*
X12105896Y-13110174D01*
X12105896Y-13110174D02*
X12086848Y-13119698D01*
X12086848Y-13119698D02*
X12048753Y-13119698D01*
X12048753Y-13119698D02*
X12029706Y-13129222D01*
X12029706Y-13129222D02*
X12020182Y-13138746D01*
X12020182Y-13138746D02*
X12010658Y-13157793D01*
X12010658Y-13157793D02*
X12010658Y-13195888D01*
X12010658Y-13195888D02*
X12020182Y-13214936D01*
X12020182Y-13214936D02*
X12029706Y-13224460D01*
X12029706Y-13224460D02*
X12048753Y-13233984D01*
X12048753Y-13233984D02*
X12086848Y-13233984D01*
X12086848Y-13233984D02*
X12105896Y-13224460D01*
X12105896Y-13224460D02*
X12115420Y-13214936D01*
X12115420Y-13214936D02*
X12124944Y-13195888D01*
X12124944Y-13195888D02*
X12124944Y-13157793D01*
X12124944Y-13157793D02*
X12115420Y-13138746D01*
X12115420Y-13138746D02*
X12105896Y-13129222D01*
X12105896Y-13129222D02*
X12086848Y-13119698D01*
X12201134Y-13033984D02*
X12201134Y-13072079D01*
X12277325Y-13033984D02*
X12277325Y-13072079D01*
X12572563Y-13310174D02*
X12563039Y-13300650D01*
X12563039Y-13300650D02*
X12543991Y-13272079D01*
X12543991Y-13272079D02*
X12534468Y-13253031D01*
X12534468Y-13253031D02*
X12524944Y-13224460D01*
X12524944Y-13224460D02*
X12515420Y-13176841D01*
X12515420Y-13176841D02*
X12515420Y-13138746D01*
X12515420Y-13138746D02*
X12524944Y-13091127D01*
X12524944Y-13091127D02*
X12534468Y-13062555D01*
X12534468Y-13062555D02*
X12543991Y-13043508D01*
X12543991Y-13043508D02*
X12563039Y-13014936D01*
X12563039Y-13014936D02*
X12572563Y-13005412D01*
X12639229Y-13053031D02*
X12648753Y-13043508D01*
X12648753Y-13043508D02*
X12667801Y-13033984D01*
X12667801Y-13033984D02*
X12715420Y-13033984D01*
X12715420Y-13033984D02*
X12734468Y-13043508D01*
X12734468Y-13043508D02*
X12743991Y-13053031D01*
X12743991Y-13053031D02*
X12753515Y-13072079D01*
X12753515Y-13072079D02*
X12753515Y-13091127D01*
X12753515Y-13091127D02*
X12743991Y-13119698D01*
X12743991Y-13119698D02*
X12629706Y-13233984D01*
X12629706Y-13233984D02*
X12753515Y-13233984D01*
X12991610Y-13233984D02*
X12991610Y-13033984D01*
X13077325Y-13233984D02*
X13077325Y-13129222D01*
X13077325Y-13129222D02*
X13067801Y-13110174D01*
X13067801Y-13110174D02*
X13048753Y-13100650D01*
X13048753Y-13100650D02*
X13020182Y-13100650D01*
X13020182Y-13100650D02*
X13001134Y-13110174D01*
X13001134Y-13110174D02*
X12991610Y-13119698D01*
X13201134Y-13233984D02*
X13182087Y-13224460D01*
X13182087Y-13224460D02*
X13172563Y-13214936D01*
X13172563Y-13214936D02*
X13163039Y-13195888D01*
X13163039Y-13195888D02*
X13163039Y-13138746D01*
X13163039Y-13138746D02*
X13172563Y-13119698D01*
X13172563Y-13119698D02*
X13182087Y-13110174D01*
X13182087Y-13110174D02*
X13201134Y-13100650D01*
X13201134Y-13100650D02*
X13229706Y-13100650D01*
X13229706Y-13100650D02*
X13248753Y-13110174D01*
X13248753Y-13110174D02*
X13258277Y-13119698D01*
X13258277Y-13119698D02*
X13267801Y-13138746D01*
X13267801Y-13138746D02*
X13267801Y-13195888D01*
X13267801Y-13195888D02*
X13258277Y-13214936D01*
X13258277Y-13214936D02*
X13248753Y-13224460D01*
X13248753Y-13224460D02*
X13229706Y-13233984D01*
X13229706Y-13233984D02*
X13201134Y-13233984D01*
X13382087Y-13233984D02*
X13363039Y-13224460D01*
X13363039Y-13224460D02*
X13353515Y-13205412D01*
X13353515Y-13205412D02*
X13353515Y-13033984D01*
X13534468Y-13224460D02*
X13515420Y-13233984D01*
X13515420Y-13233984D02*
X13477325Y-13233984D01*
X13477325Y-13233984D02*
X13458277Y-13224460D01*
X13458277Y-13224460D02*
X13448753Y-13205412D01*
X13448753Y-13205412D02*
X13448753Y-13129222D01*
X13448753Y-13129222D02*
X13458277Y-13110174D01*
X13458277Y-13110174D02*
X13477325Y-13100650D01*
X13477325Y-13100650D02*
X13515420Y-13100650D01*
X13515420Y-13100650D02*
X13534468Y-13110174D01*
X13534468Y-13110174D02*
X13543991Y-13129222D01*
X13543991Y-13129222D02*
X13543991Y-13148269D01*
X13543991Y-13148269D02*
X13448753Y-13167317D01*
X13620182Y-13224460D02*
X13639230Y-13233984D01*
X13639230Y-13233984D02*
X13677325Y-13233984D01*
X13677325Y-13233984D02*
X13696372Y-13224460D01*
X13696372Y-13224460D02*
X13705896Y-13205412D01*
X13705896Y-13205412D02*
X13705896Y-13195888D01*
X13705896Y-13195888D02*
X13696372Y-13176841D01*
X13696372Y-13176841D02*
X13677325Y-13167317D01*
X13677325Y-13167317D02*
X13648753Y-13167317D01*
X13648753Y-13167317D02*
X13629706Y-13157793D01*
X13629706Y-13157793D02*
X13620182Y-13138746D01*
X13620182Y-13138746D02*
X13620182Y-13129222D01*
X13620182Y-13129222D02*
X13629706Y-13110174D01*
X13629706Y-13110174D02*
X13648753Y-13100650D01*
X13648753Y-13100650D02*
X13677325Y-13100650D01*
X13677325Y-13100650D02*
X13696372Y-13110174D01*
X13772563Y-13310174D02*
X13782087Y-13300650D01*
X13782087Y-13300650D02*
X13801134Y-13272079D01*
X13801134Y-13272079D02*
X13810658Y-13253031D01*
X13810658Y-13253031D02*
X13820182Y-13224460D01*
X13820182Y-13224460D02*
X13829706Y-13176841D01*
X13829706Y-13176841D02*
X13829706Y-13138746D01*
X13829706Y-13138746D02*
X13820182Y-13091127D01*
X13820182Y-13091127D02*
X13810658Y-13062555D01*
X13810658Y-13062555D02*
X13801134Y-13043508D01*
X13801134Y-13043508D02*
X13782087Y-13014936D01*
X13782087Y-13014936D02*
X13772563Y-13005412D01*
D12*
X8997500Y-13406500D02*
G75*
G02*
X8897500Y-13406500I-50000J0D01*
G01*
X8897500Y-13406500D02*
G75*
G02*
X8997500Y-13406500I50000J0D01*
G01*
D11*
X9363039Y-13497984D02*
X9248753Y-13497984D01*
X9305896Y-13497984D02*
X9305896Y-13297984D01*
X9305896Y-13297984D02*
X9286848Y-13326555D01*
X9286848Y-13326555D02*
X9267801Y-13345603D01*
X9267801Y-13345603D02*
X9248753Y-13355127D01*
X9448753Y-13478936D02*
X9458277Y-13488460D01*
X9458277Y-13488460D02*
X9448753Y-13497984D01*
X9448753Y-13497984D02*
X9439229Y-13488460D01*
X9439229Y-13488460D02*
X9448753Y-13478936D01*
X9448753Y-13478936D02*
X9448753Y-13497984D01*
X9582086Y-13297984D02*
X9601134Y-13297984D01*
X9601134Y-13297984D02*
X9620182Y-13307508D01*
X9620182Y-13307508D02*
X9629705Y-13317031D01*
X9629705Y-13317031D02*
X9639229Y-13336079D01*
X9639229Y-13336079D02*
X9648753Y-13374174D01*
X9648753Y-13374174D02*
X9648753Y-13421793D01*
X9648753Y-13421793D02*
X9639229Y-13459888D01*
X9639229Y-13459888D02*
X9629705Y-13478936D01*
X9629705Y-13478936D02*
X9620182Y-13488460D01*
X9620182Y-13488460D02*
X9601134Y-13497984D01*
X9601134Y-13497984D02*
X9582086Y-13497984D01*
X9582086Y-13497984D02*
X9563039Y-13488460D01*
X9563039Y-13488460D02*
X9553515Y-13478936D01*
X9553515Y-13478936D02*
X9543991Y-13459888D01*
X9543991Y-13459888D02*
X9534467Y-13421793D01*
X9534467Y-13421793D02*
X9534467Y-13374174D01*
X9534467Y-13374174D02*
X9543991Y-13336079D01*
X9543991Y-13336079D02*
X9553515Y-13317031D01*
X9553515Y-13317031D02*
X9563039Y-13307508D01*
X9563039Y-13307508D02*
X9582086Y-13297984D01*
X9772563Y-13297984D02*
X9791610Y-13297984D01*
X9791610Y-13297984D02*
X9810658Y-13307508D01*
X9810658Y-13307508D02*
X9820182Y-13317031D01*
X9820182Y-13317031D02*
X9829705Y-13336079D01*
X9829705Y-13336079D02*
X9839229Y-13374174D01*
X9839229Y-13374174D02*
X9839229Y-13421793D01*
X9839229Y-13421793D02*
X9829705Y-13459888D01*
X9829705Y-13459888D02*
X9820182Y-13478936D01*
X9820182Y-13478936D02*
X9810658Y-13488460D01*
X9810658Y-13488460D02*
X9791610Y-13497984D01*
X9791610Y-13497984D02*
X9772563Y-13497984D01*
X9772563Y-13497984D02*
X9753515Y-13488460D01*
X9753515Y-13488460D02*
X9743991Y-13478936D01*
X9743991Y-13478936D02*
X9734467Y-13459888D01*
X9734467Y-13459888D02*
X9724944Y-13421793D01*
X9724944Y-13421793D02*
X9724944Y-13374174D01*
X9724944Y-13374174D02*
X9734467Y-13336079D01*
X9734467Y-13336079D02*
X9743991Y-13317031D01*
X9743991Y-13317031D02*
X9753515Y-13307508D01*
X9753515Y-13307508D02*
X9772563Y-13297984D01*
X9963039Y-13297984D02*
X9982086Y-13297984D01*
X9982086Y-13297984D02*
X10001134Y-13307508D01*
X10001134Y-13307508D02*
X10010658Y-13317031D01*
X10010658Y-13317031D02*
X10020182Y-13336079D01*
X10020182Y-13336079D02*
X10029705Y-13374174D01*
X10029705Y-13374174D02*
X10029705Y-13421793D01*
X10029705Y-13421793D02*
X10020182Y-13459888D01*
X10020182Y-13459888D02*
X10010658Y-13478936D01*
X10010658Y-13478936D02*
X10001134Y-13488460D01*
X10001134Y-13488460D02*
X9982086Y-13497984D01*
X9982086Y-13497984D02*
X9963039Y-13497984D01*
X9963039Y-13497984D02*
X9943991Y-13488460D01*
X9943991Y-13488460D02*
X9934467Y-13478936D01*
X9934467Y-13478936D02*
X9924944Y-13459888D01*
X9924944Y-13459888D02*
X9915420Y-13421793D01*
X9915420Y-13421793D02*
X9915420Y-13374174D01*
X9915420Y-13374174D02*
X9924944Y-13336079D01*
X9924944Y-13336079D02*
X9934467Y-13317031D01*
X9934467Y-13317031D02*
X9943991Y-13307508D01*
X9943991Y-13307508D02*
X9963039Y-13297984D01*
X10115420Y-13497984D02*
X10115420Y-13364650D01*
X10115420Y-13383698D02*
X10124944Y-13374174D01*
X10124944Y-13374174D02*
X10143991Y-13364650D01*
X10143991Y-13364650D02*
X10172563Y-13364650D01*
X10172563Y-13364650D02*
X10191610Y-13374174D01*
X10191610Y-13374174D02*
X10201134Y-13393222D01*
X10201134Y-13393222D02*
X10201134Y-13497984D01*
X10201134Y-13393222D02*
X10210658Y-13374174D01*
X10210658Y-13374174D02*
X10229705Y-13364650D01*
X10229705Y-13364650D02*
X10258277Y-13364650D01*
X10258277Y-13364650D02*
X10277325Y-13374174D01*
X10277325Y-13374174D02*
X10286848Y-13393222D01*
X10286848Y-13393222D02*
X10286848Y-13497984D01*
X10382086Y-13497984D02*
X10382086Y-13364650D01*
X10382086Y-13383698D02*
X10391610Y-13374174D01*
X10391610Y-13374174D02*
X10410658Y-13364650D01*
X10410658Y-13364650D02*
X10439229Y-13364650D01*
X10439229Y-13364650D02*
X10458277Y-13374174D01*
X10458277Y-13374174D02*
X10467801Y-13393222D01*
X10467801Y-13393222D02*
X10467801Y-13497984D01*
X10467801Y-13393222D02*
X10477325Y-13374174D01*
X10477325Y-13374174D02*
X10496372Y-13364650D01*
X10496372Y-13364650D02*
X10524944Y-13364650D01*
X10524944Y-13364650D02*
X10543991Y-13374174D01*
X10543991Y-13374174D02*
X10553515Y-13393222D01*
X10553515Y-13393222D02*
X10553515Y-13497984D01*
X10943991Y-13288460D02*
X10772563Y-13545603D01*
X11201134Y-13297984D02*
X11220182Y-13297984D01*
X11220182Y-13297984D02*
X11239229Y-13307508D01*
X11239229Y-13307508D02*
X11248753Y-13317031D01*
X11248753Y-13317031D02*
X11258277Y-13336079D01*
X11258277Y-13336079D02*
X11267801Y-13374174D01*
X11267801Y-13374174D02*
X11267801Y-13421793D01*
X11267801Y-13421793D02*
X11258277Y-13459888D01*
X11258277Y-13459888D02*
X11248753Y-13478936D01*
X11248753Y-13478936D02*
X11239229Y-13488460D01*
X11239229Y-13488460D02*
X11220182Y-13497984D01*
X11220182Y-13497984D02*
X11201134Y-13497984D01*
X11201134Y-13497984D02*
X11182087Y-13488460D01*
X11182087Y-13488460D02*
X11172563Y-13478936D01*
X11172563Y-13478936D02*
X11163039Y-13459888D01*
X11163039Y-13459888D02*
X11153515Y-13421793D01*
X11153515Y-13421793D02*
X11153515Y-13374174D01*
X11153515Y-13374174D02*
X11163039Y-13336079D01*
X11163039Y-13336079D02*
X11172563Y-13317031D01*
X11172563Y-13317031D02*
X11182087Y-13307508D01*
X11182087Y-13307508D02*
X11201134Y-13297984D01*
X11353515Y-13478936D02*
X11363039Y-13488460D01*
X11363039Y-13488460D02*
X11353515Y-13497984D01*
X11353515Y-13497984D02*
X11343991Y-13488460D01*
X11343991Y-13488460D02*
X11353515Y-13478936D01*
X11353515Y-13478936D02*
X11353515Y-13497984D01*
X11486848Y-13297984D02*
X11505896Y-13297984D01*
X11505896Y-13297984D02*
X11524944Y-13307508D01*
X11524944Y-13307508D02*
X11534467Y-13317031D01*
X11534467Y-13317031D02*
X11543991Y-13336079D01*
X11543991Y-13336079D02*
X11553515Y-13374174D01*
X11553515Y-13374174D02*
X11553515Y-13421793D01*
X11553515Y-13421793D02*
X11543991Y-13459888D01*
X11543991Y-13459888D02*
X11534467Y-13478936D01*
X11534467Y-13478936D02*
X11524944Y-13488460D01*
X11524944Y-13488460D02*
X11505896Y-13497984D01*
X11505896Y-13497984D02*
X11486848Y-13497984D01*
X11486848Y-13497984D02*
X11467801Y-13488460D01*
X11467801Y-13488460D02*
X11458277Y-13478936D01*
X11458277Y-13478936D02*
X11448753Y-13459888D01*
X11448753Y-13459888D02*
X11439229Y-13421793D01*
X11439229Y-13421793D02*
X11439229Y-13374174D01*
X11439229Y-13374174D02*
X11448753Y-13336079D01*
X11448753Y-13336079D02*
X11458277Y-13317031D01*
X11458277Y-13317031D02*
X11467801Y-13307508D01*
X11467801Y-13307508D02*
X11486848Y-13297984D01*
X11620182Y-13297984D02*
X11743991Y-13297984D01*
X11743991Y-13297984D02*
X11677325Y-13374174D01*
X11677325Y-13374174D02*
X11705896Y-13374174D01*
X11705896Y-13374174D02*
X11724944Y-13383698D01*
X11724944Y-13383698D02*
X11734467Y-13393222D01*
X11734467Y-13393222D02*
X11743991Y-13412269D01*
X11743991Y-13412269D02*
X11743991Y-13459888D01*
X11743991Y-13459888D02*
X11734467Y-13478936D01*
X11734467Y-13478936D02*
X11724944Y-13488460D01*
X11724944Y-13488460D02*
X11705896Y-13497984D01*
X11705896Y-13497984D02*
X11648753Y-13497984D01*
X11648753Y-13497984D02*
X11629706Y-13488460D01*
X11629706Y-13488460D02*
X11620182Y-13478936D01*
X11839229Y-13497984D02*
X11877325Y-13497984D01*
X11877325Y-13497984D02*
X11896372Y-13488460D01*
X11896372Y-13488460D02*
X11905896Y-13478936D01*
X11905896Y-13478936D02*
X11924944Y-13450365D01*
X11924944Y-13450365D02*
X11934467Y-13412269D01*
X11934467Y-13412269D02*
X11934467Y-13336079D01*
X11934467Y-13336079D02*
X11924944Y-13317031D01*
X11924944Y-13317031D02*
X11915420Y-13307508D01*
X11915420Y-13307508D02*
X11896372Y-13297984D01*
X11896372Y-13297984D02*
X11858277Y-13297984D01*
X11858277Y-13297984D02*
X11839229Y-13307508D01*
X11839229Y-13307508D02*
X11829706Y-13317031D01*
X11829706Y-13317031D02*
X11820182Y-13336079D01*
X11820182Y-13336079D02*
X11820182Y-13383698D01*
X11820182Y-13383698D02*
X11829706Y-13402746D01*
X11829706Y-13402746D02*
X11839229Y-13412269D01*
X11839229Y-13412269D02*
X11858277Y-13421793D01*
X11858277Y-13421793D02*
X11896372Y-13421793D01*
X11896372Y-13421793D02*
X11915420Y-13412269D01*
X11915420Y-13412269D02*
X11924944Y-13402746D01*
X11924944Y-13402746D02*
X11934467Y-13383698D01*
X12105896Y-13364650D02*
X12105896Y-13497984D01*
X12058277Y-13288460D02*
X12010658Y-13431317D01*
X12010658Y-13431317D02*
X12134467Y-13431317D01*
X12201134Y-13297984D02*
X12201134Y-13336079D01*
X12277325Y-13297984D02*
X12277325Y-13336079D01*
X12572563Y-13574174D02*
X12563039Y-13564650D01*
X12563039Y-13564650D02*
X12543991Y-13536079D01*
X12543991Y-13536079D02*
X12534468Y-13517031D01*
X12534468Y-13517031D02*
X12524944Y-13488460D01*
X12524944Y-13488460D02*
X12515420Y-13440841D01*
X12515420Y-13440841D02*
X12515420Y-13402746D01*
X12515420Y-13402746D02*
X12524944Y-13355127D01*
X12524944Y-13355127D02*
X12534468Y-13326555D01*
X12534468Y-13326555D02*
X12543991Y-13307508D01*
X12543991Y-13307508D02*
X12563039Y-13278936D01*
X12563039Y-13278936D02*
X12572563Y-13269412D01*
X12743991Y-13297984D02*
X12648753Y-13297984D01*
X12648753Y-13297984D02*
X12639229Y-13393222D01*
X12639229Y-13393222D02*
X12648753Y-13383698D01*
X12648753Y-13383698D02*
X12667801Y-13374174D01*
X12667801Y-13374174D02*
X12715420Y-13374174D01*
X12715420Y-13374174D02*
X12734468Y-13383698D01*
X12734468Y-13383698D02*
X12743991Y-13393222D01*
X12743991Y-13393222D02*
X12753515Y-13412269D01*
X12753515Y-13412269D02*
X12753515Y-13459888D01*
X12753515Y-13459888D02*
X12743991Y-13478936D01*
X12743991Y-13478936D02*
X12734468Y-13488460D01*
X12734468Y-13488460D02*
X12715420Y-13497984D01*
X12715420Y-13497984D02*
X12667801Y-13497984D01*
X12667801Y-13497984D02*
X12648753Y-13488460D01*
X12648753Y-13488460D02*
X12639229Y-13478936D01*
X12877325Y-13297984D02*
X12896372Y-13297984D01*
X12896372Y-13297984D02*
X12915420Y-13307508D01*
X12915420Y-13307508D02*
X12924944Y-13317031D01*
X12924944Y-13317031D02*
X12934468Y-13336079D01*
X12934468Y-13336079D02*
X12943991Y-13374174D01*
X12943991Y-13374174D02*
X12943991Y-13421793D01*
X12943991Y-13421793D02*
X12934468Y-13459888D01*
X12934468Y-13459888D02*
X12924944Y-13478936D01*
X12924944Y-13478936D02*
X12915420Y-13488460D01*
X12915420Y-13488460D02*
X12896372Y-13497984D01*
X12896372Y-13497984D02*
X12877325Y-13497984D01*
X12877325Y-13497984D02*
X12858277Y-13488460D01*
X12858277Y-13488460D02*
X12848753Y-13478936D01*
X12848753Y-13478936D02*
X12839229Y-13459888D01*
X12839229Y-13459888D02*
X12829706Y-13421793D01*
X12829706Y-13421793D02*
X12829706Y-13374174D01*
X12829706Y-13374174D02*
X12839229Y-13336079D01*
X12839229Y-13336079D02*
X12848753Y-13317031D01*
X12848753Y-13317031D02*
X12858277Y-13307508D01*
X12858277Y-13307508D02*
X12877325Y-13297984D01*
X13182087Y-13497984D02*
X13182087Y-13297984D01*
X13267801Y-13497984D02*
X13267801Y-13393222D01*
X13267801Y-13393222D02*
X13258277Y-13374174D01*
X13258277Y-13374174D02*
X13239230Y-13364650D01*
X13239230Y-13364650D02*
X13210658Y-13364650D01*
X13210658Y-13364650D02*
X13191610Y-13374174D01*
X13191610Y-13374174D02*
X13182087Y-13383698D01*
X13391610Y-13497984D02*
X13372563Y-13488460D01*
X13372563Y-13488460D02*
X13363039Y-13478936D01*
X13363039Y-13478936D02*
X13353515Y-13459888D01*
X13353515Y-13459888D02*
X13353515Y-13402746D01*
X13353515Y-13402746D02*
X13363039Y-13383698D01*
X13363039Y-13383698D02*
X13372563Y-13374174D01*
X13372563Y-13374174D02*
X13391610Y-13364650D01*
X13391610Y-13364650D02*
X13420182Y-13364650D01*
X13420182Y-13364650D02*
X13439230Y-13374174D01*
X13439230Y-13374174D02*
X13448753Y-13383698D01*
X13448753Y-13383698D02*
X13458277Y-13402746D01*
X13458277Y-13402746D02*
X13458277Y-13459888D01*
X13458277Y-13459888D02*
X13448753Y-13478936D01*
X13448753Y-13478936D02*
X13439230Y-13488460D01*
X13439230Y-13488460D02*
X13420182Y-13497984D01*
X13420182Y-13497984D02*
X13391610Y-13497984D01*
X13572563Y-13497984D02*
X13553515Y-13488460D01*
X13553515Y-13488460D02*
X13543991Y-13469412D01*
X13543991Y-13469412D02*
X13543991Y-13297984D01*
X13724944Y-13488460D02*
X13705896Y-13497984D01*
X13705896Y-13497984D02*
X13667801Y-13497984D01*
X13667801Y-13497984D02*
X13648753Y-13488460D01*
X13648753Y-13488460D02*
X13639230Y-13469412D01*
X13639230Y-13469412D02*
X13639230Y-13393222D01*
X13639230Y-13393222D02*
X13648753Y-13374174D01*
X13648753Y-13374174D02*
X13667801Y-13364650D01*
X13667801Y-13364650D02*
X13705896Y-13364650D01*
X13705896Y-13364650D02*
X13724944Y-13374174D01*
X13724944Y-13374174D02*
X13734468Y-13393222D01*
X13734468Y-13393222D02*
X13734468Y-13412269D01*
X13734468Y-13412269D02*
X13639230Y-13431317D01*
X13810658Y-13488460D02*
X13829706Y-13497984D01*
X13829706Y-13497984D02*
X13867801Y-13497984D01*
X13867801Y-13497984D02*
X13886849Y-13488460D01*
X13886849Y-13488460D02*
X13896372Y-13469412D01*
X13896372Y-13469412D02*
X13896372Y-13459888D01*
X13896372Y-13459888D02*
X13886849Y-13440841D01*
X13886849Y-13440841D02*
X13867801Y-13431317D01*
X13867801Y-13431317D02*
X13839230Y-13431317D01*
X13839230Y-13431317D02*
X13820182Y-13421793D01*
X13820182Y-13421793D02*
X13810658Y-13402746D01*
X13810658Y-13402746D02*
X13810658Y-13393222D01*
X13810658Y-13393222D02*
X13820182Y-13374174D01*
X13820182Y-13374174D02*
X13839230Y-13364650D01*
X13839230Y-13364650D02*
X13867801Y-13364650D01*
X13867801Y-13364650D02*
X13886849Y-13374174D01*
X13963039Y-13574174D02*
X13972563Y-13564650D01*
X13972563Y-13564650D02*
X13991611Y-13536079D01*
X13991611Y-13536079D02*
X14001134Y-13517031D01*
X14001134Y-13517031D02*
X14010658Y-13488460D01*
X14010658Y-13488460D02*
X14020182Y-13440841D01*
X14020182Y-13440841D02*
X14020182Y-13402746D01*
X14020182Y-13402746D02*
X14010658Y-13355127D01*
X14010658Y-13355127D02*
X14001134Y-13326555D01*
X14001134Y-13326555D02*
X13991611Y-13307508D01*
X13991611Y-13307508D02*
X13972563Y-13278936D01*
X13972563Y-13278936D02*
X13963039Y-13269412D01*
M02*
