M48
; DRILL file {KiCad 8.0.1} date 2024-04-25T21:10:16-0600
; FORMAT={-:-/ absolute / metric / decimal}
; #@! TF.CreationDate,2024-04-25T21:10:16-06:00
; #@! TF.GenerationSoftware,Kicad,Pcbnew,8.0.1
; #@! TF.FileFunction,Plated,1,2,PTH
FMAT,2
METRIC
; #@! TA.AperFunction,Plated,PTH,ViaDrill
T1C0.300
; #@! TA.AperFunction,Plated,PTH,ComponentDrill
T2C1.000
%
G90
G05
T1
X112.5Y-91.835
X114.0Y-72.835
T2
X92.5Y-68.96
X92.5Y-71.5
X92.5Y-74.04
X92.5Y-76.58
X92.5Y-79.12
X92.5Y-81.66
X92.5Y-84.2
X92.5Y-86.74
X92.5Y-89.28
X92.5Y-91.82
X92.5Y-94.36
X92.5Y-96.9
X92.5Y-99.44
X92.5Y-101.98
X92.5Y-104.52
X92.5Y-107.06
X92.5Y-109.6
X92.5Y-112.14
X92.5Y-114.68
X92.5Y-117.22
X95.04Y-68.96
X95.04Y-71.5
X95.04Y-74.04
X95.04Y-76.58
X95.04Y-79.12
X95.04Y-81.66
X95.04Y-84.2
X95.04Y-86.74
X95.04Y-89.28
X95.04Y-91.82
X95.04Y-94.36
X95.04Y-96.9
X95.04Y-99.44
X95.04Y-101.98
X95.04Y-104.52
X95.04Y-107.06
X95.04Y-109.6
X95.04Y-112.14
X95.04Y-114.68
X95.04Y-117.22
X103.5Y-70.335
X103.5Y-77.335
X103.5Y-86.335
X103.5Y-93.335
X103.5Y-100.835
X106.0Y-70.335
X106.0Y-77.335
X106.0Y-86.335
X106.0Y-93.335
X106.0Y-100.835
M30
