G04 #@! TF.GenerationSoftware,KiCad,Pcbnew,8.0.1*
G04 #@! TF.CreationDate,2024-04-25T21:09:41-06:00*
G04 #@! TF.ProjectId,Small_PCB,536d616c-6c5f-4504-9342-2e6b69636164,rev?*
G04 #@! TF.SameCoordinates,Original*
G04 #@! TF.FileFunction,Legend,Bot*
G04 #@! TF.FilePolarity,Positive*
%FSLAX46Y46*%
G04 Gerber Fmt 4.6, Leading zero omitted, Abs format (unit mm)*
G04 Created by KiCad (PCBNEW 8.0.1) date 2024-04-25 21:09:41*
%MOMM*%
%LPD*%
G01*
G04 APERTURE LIST*
G04 Aperture macros list*
%AMRoundRect*
0 Rectangle with rounded corners*
0 $1 Rounding radius*
0 $2 $3 $4 $5 $6 $7 $8 $9 X,Y pos of 4 corners*
0 Add a 4 corners polygon primitive as box body*
4,1,4,$2,$3,$4,$5,$6,$7,$8,$9,$2,$3,0*
0 Add four circle primitives for the rounded corners*
1,1,$1+$1,$2,$3*
1,1,$1+$1,$4,$5*
1,1,$1+$1,$6,$7*
1,1,$1+$1,$8,$9*
0 Add four rect primitives between the rounded corners*
20,1,$1+$1,$2,$3,$4,$5,0*
20,1,$1+$1,$4,$5,$6,$7,0*
20,1,$1+$1,$6,$7,$8,$9,0*
20,1,$1+$1,$8,$9,$2,$3,0*%
G04 Aperture macros list end*
%ADD10C,0.150000*%
%ADD11C,0.120000*%
%ADD12RoundRect,0.250000X-0.600000X-0.750000X0.600000X-0.750000X0.600000X0.750000X-0.600000X0.750000X0*%
%ADD13O,1.700000X2.000000*%
%ADD14R,1.700000X1.700000*%
%ADD15O,1.700000X1.700000*%
G04 APERTURE END LIST*
D10*
X94103333Y-65644819D02*
X94103333Y-66359104D01*
X94103333Y-66359104D02*
X94150952Y-66501961D01*
X94150952Y-66501961D02*
X94246190Y-66597200D01*
X94246190Y-66597200D02*
X94389047Y-66644819D01*
X94389047Y-66644819D02*
X94484285Y-66644819D01*
X93674761Y-65740057D02*
X93627142Y-65692438D01*
X93627142Y-65692438D02*
X93531904Y-65644819D01*
X93531904Y-65644819D02*
X93293809Y-65644819D01*
X93293809Y-65644819D02*
X93198571Y-65692438D01*
X93198571Y-65692438D02*
X93150952Y-65740057D01*
X93150952Y-65740057D02*
X93103333Y-65835295D01*
X93103333Y-65835295D02*
X93103333Y-65930533D01*
X93103333Y-65930533D02*
X93150952Y-66073390D01*
X93150952Y-66073390D02*
X93722380Y-66644819D01*
X93722380Y-66644819D02*
X93103333Y-66644819D01*
D11*
X91170000Y-67630000D02*
X92500000Y-67630000D01*
X91170000Y-68960000D02*
X91170000Y-67630000D01*
X91170000Y-70230000D02*
X93770000Y-70230000D01*
X91170000Y-118550000D02*
X91170000Y-70230000D01*
X91170000Y-118550000D02*
X96370000Y-118550000D01*
X93770000Y-67630000D02*
X96370000Y-67630000D01*
X93770000Y-70230000D02*
X93770000Y-67630000D01*
X96370000Y-118550000D02*
X96370000Y-67630000D01*
%LPC*%
D12*
X103500000Y-86335000D03*
D13*
X106000000Y-86335000D03*
D12*
X103500000Y-100835000D03*
D13*
X106000000Y-100835000D03*
D12*
X103500000Y-93335000D03*
D13*
X106000000Y-93335000D03*
D12*
X103500000Y-77335000D03*
D13*
X106000000Y-77335000D03*
D12*
X103500000Y-70335000D03*
D13*
X106000000Y-70335000D03*
D14*
X92500000Y-68960000D03*
D15*
X95040000Y-68960000D03*
X92500000Y-71500000D03*
X95040000Y-71500000D03*
X92500000Y-74040000D03*
X95040000Y-74040000D03*
X92500000Y-76580000D03*
X95040000Y-76580000D03*
X92500000Y-79120000D03*
X95040000Y-79120000D03*
X92500000Y-81660000D03*
X95040000Y-81660000D03*
X92500000Y-84200000D03*
X95040000Y-84200000D03*
X92500000Y-86740000D03*
X95040000Y-86740000D03*
X92500000Y-89280000D03*
X95040000Y-89280000D03*
X92500000Y-91820000D03*
X95040000Y-91820000D03*
X92500000Y-94360000D03*
X95040000Y-94360000D03*
X92500000Y-96900000D03*
X95040000Y-96900000D03*
X92500000Y-99440000D03*
X95040000Y-99440000D03*
X92500000Y-101980000D03*
X95040000Y-101980000D03*
X92500000Y-104520000D03*
X95040000Y-104520000D03*
X92500000Y-107060000D03*
X95040000Y-107060000D03*
X92500000Y-109600000D03*
X95040000Y-109600000D03*
X92500000Y-112140000D03*
X95040000Y-112140000D03*
X92500000Y-114680000D03*
X95040000Y-114680000D03*
X92500000Y-117220000D03*
X95040000Y-117220000D03*
%LPD*%
M02*
