%TF.GenerationSoftware,KiCad,Pcbnew,8.0.1*%
%TF.CreationDate,2024-04-11T19:27:32-06:00*%
%TF.ProjectId,ECE Altitude Project,45434520-416c-4746-9974-756465205072,rev?*%
%TF.SameCoordinates,Original*%
%TF.FileFunction,Drillmap*%
%TF.FilePolarity,Positive*%
%FSLAX45Y45*%
G04 Gerber Fmt 4.5, Leading zero omitted, Abs format (unit mm)*
G04 Created by KiCad (PCBNEW 8.0.1) date 2024-04-11 19:27:32*
%MOMM*%
%LPD*%
G01*
G04 APERTURE LIST*
%ADD10C,0.050000*%
%ADD11C,0.200000*%
%ADD12C,0.100000*%
G04 APERTURE END LIST*
D10*
X8140000Y-6585000D02*
X13710000Y-6585000D01*
X13710000Y-12265000D01*
X8140000Y-12265000D01*
X8140000Y-6585000D01*
D11*
D12*
X11180000Y-11752500D02*
X11280000Y-11852500D01*
X11280000Y-11752500D02*
X11180000Y-11852500D01*
X11620000Y-11752500D02*
X11720000Y-11852500D01*
X11720000Y-11752500D02*
X11620000Y-11852500D01*
D11*
X8398277Y-12578984D02*
X8398277Y-12378984D01*
X8398277Y-12378984D02*
X8445896Y-12378984D01*
X8445896Y-12378984D02*
X8474467Y-12388508D01*
X8474467Y-12388508D02*
X8493515Y-12407555D01*
X8493515Y-12407555D02*
X8503039Y-12426603D01*
X8503039Y-12426603D02*
X8512563Y-12464698D01*
X8512563Y-12464698D02*
X8512563Y-12493269D01*
X8512563Y-12493269D02*
X8503039Y-12531365D01*
X8503039Y-12531365D02*
X8493515Y-12550412D01*
X8493515Y-12550412D02*
X8474467Y-12569460D01*
X8474467Y-12569460D02*
X8445896Y-12578984D01*
X8445896Y-12578984D02*
X8398277Y-12578984D01*
X8598277Y-12578984D02*
X8598277Y-12445650D01*
X8598277Y-12483746D02*
X8607801Y-12464698D01*
X8607801Y-12464698D02*
X8617324Y-12455174D01*
X8617324Y-12455174D02*
X8636372Y-12445650D01*
X8636372Y-12445650D02*
X8655420Y-12445650D01*
X8722086Y-12578984D02*
X8722086Y-12445650D01*
X8722086Y-12378984D02*
X8712563Y-12388508D01*
X8712563Y-12388508D02*
X8722086Y-12398031D01*
X8722086Y-12398031D02*
X8731610Y-12388508D01*
X8731610Y-12388508D02*
X8722086Y-12378984D01*
X8722086Y-12378984D02*
X8722086Y-12398031D01*
X8845896Y-12578984D02*
X8826848Y-12569460D01*
X8826848Y-12569460D02*
X8817324Y-12550412D01*
X8817324Y-12550412D02*
X8817324Y-12378984D01*
X8950658Y-12578984D02*
X8931610Y-12569460D01*
X8931610Y-12569460D02*
X8922086Y-12550412D01*
X8922086Y-12550412D02*
X8922086Y-12378984D01*
X9179229Y-12578984D02*
X9179229Y-12378984D01*
X9179229Y-12378984D02*
X9245896Y-12521841D01*
X9245896Y-12521841D02*
X9312563Y-12378984D01*
X9312563Y-12378984D02*
X9312563Y-12578984D01*
X9493515Y-12578984D02*
X9493515Y-12474222D01*
X9493515Y-12474222D02*
X9483991Y-12455174D01*
X9483991Y-12455174D02*
X9464944Y-12445650D01*
X9464944Y-12445650D02*
X9426848Y-12445650D01*
X9426848Y-12445650D02*
X9407801Y-12455174D01*
X9493515Y-12569460D02*
X9474467Y-12578984D01*
X9474467Y-12578984D02*
X9426848Y-12578984D01*
X9426848Y-12578984D02*
X9407801Y-12569460D01*
X9407801Y-12569460D02*
X9398277Y-12550412D01*
X9398277Y-12550412D02*
X9398277Y-12531365D01*
X9398277Y-12531365D02*
X9407801Y-12512317D01*
X9407801Y-12512317D02*
X9426848Y-12502793D01*
X9426848Y-12502793D02*
X9474467Y-12502793D01*
X9474467Y-12502793D02*
X9493515Y-12493269D01*
X9588753Y-12445650D02*
X9588753Y-12645650D01*
X9588753Y-12455174D02*
X9607801Y-12445650D01*
X9607801Y-12445650D02*
X9645896Y-12445650D01*
X9645896Y-12445650D02*
X9664944Y-12455174D01*
X9664944Y-12455174D02*
X9674467Y-12464698D01*
X9674467Y-12464698D02*
X9683991Y-12483746D01*
X9683991Y-12483746D02*
X9683991Y-12540888D01*
X9683991Y-12540888D02*
X9674467Y-12559936D01*
X9674467Y-12559936D02*
X9664944Y-12569460D01*
X9664944Y-12569460D02*
X9645896Y-12578984D01*
X9645896Y-12578984D02*
X9607801Y-12578984D01*
X9607801Y-12578984D02*
X9588753Y-12569460D01*
X9769705Y-12559936D02*
X9779229Y-12569460D01*
X9779229Y-12569460D02*
X9769705Y-12578984D01*
X9769705Y-12578984D02*
X9760182Y-12569460D01*
X9760182Y-12569460D02*
X9769705Y-12559936D01*
X9769705Y-12559936D02*
X9769705Y-12578984D01*
X9769705Y-12455174D02*
X9779229Y-12464698D01*
X9779229Y-12464698D02*
X9769705Y-12474222D01*
X9769705Y-12474222D02*
X9760182Y-12464698D01*
X9760182Y-12464698D02*
X9769705Y-12455174D01*
X9769705Y-12455174D02*
X9769705Y-12474222D01*
D12*
X8037500Y-12857500D02*
X8137500Y-12957500D01*
X8137500Y-12857500D02*
X8037500Y-12957500D01*
D11*
X8503039Y-12998984D02*
X8388753Y-12998984D01*
X8445896Y-12998984D02*
X8445896Y-12798984D01*
X8445896Y-12798984D02*
X8426848Y-12827555D01*
X8426848Y-12827555D02*
X8407801Y-12846603D01*
X8407801Y-12846603D02*
X8388753Y-12856127D01*
X8588753Y-12979936D02*
X8598277Y-12989460D01*
X8598277Y-12989460D02*
X8588753Y-12998984D01*
X8588753Y-12998984D02*
X8579229Y-12989460D01*
X8579229Y-12989460D02*
X8588753Y-12979936D01*
X8588753Y-12979936D02*
X8588753Y-12998984D01*
X8722086Y-12798984D02*
X8741134Y-12798984D01*
X8741134Y-12798984D02*
X8760182Y-12808508D01*
X8760182Y-12808508D02*
X8769705Y-12818031D01*
X8769705Y-12818031D02*
X8779229Y-12837079D01*
X8779229Y-12837079D02*
X8788753Y-12875174D01*
X8788753Y-12875174D02*
X8788753Y-12922793D01*
X8788753Y-12922793D02*
X8779229Y-12960888D01*
X8779229Y-12960888D02*
X8769705Y-12979936D01*
X8769705Y-12979936D02*
X8760182Y-12989460D01*
X8760182Y-12989460D02*
X8741134Y-12998984D01*
X8741134Y-12998984D02*
X8722086Y-12998984D01*
X8722086Y-12998984D02*
X8703039Y-12989460D01*
X8703039Y-12989460D02*
X8693515Y-12979936D01*
X8693515Y-12979936D02*
X8683991Y-12960888D01*
X8683991Y-12960888D02*
X8674467Y-12922793D01*
X8674467Y-12922793D02*
X8674467Y-12875174D01*
X8674467Y-12875174D02*
X8683991Y-12837079D01*
X8683991Y-12837079D02*
X8693515Y-12818031D01*
X8693515Y-12818031D02*
X8703039Y-12808508D01*
X8703039Y-12808508D02*
X8722086Y-12798984D01*
X8912563Y-12798984D02*
X8931610Y-12798984D01*
X8931610Y-12798984D02*
X8950658Y-12808508D01*
X8950658Y-12808508D02*
X8960182Y-12818031D01*
X8960182Y-12818031D02*
X8969705Y-12837079D01*
X8969705Y-12837079D02*
X8979229Y-12875174D01*
X8979229Y-12875174D02*
X8979229Y-12922793D01*
X8979229Y-12922793D02*
X8969705Y-12960888D01*
X8969705Y-12960888D02*
X8960182Y-12979936D01*
X8960182Y-12979936D02*
X8950658Y-12989460D01*
X8950658Y-12989460D02*
X8931610Y-12998984D01*
X8931610Y-12998984D02*
X8912563Y-12998984D01*
X8912563Y-12998984D02*
X8893515Y-12989460D01*
X8893515Y-12989460D02*
X8883991Y-12979936D01*
X8883991Y-12979936D02*
X8874467Y-12960888D01*
X8874467Y-12960888D02*
X8864944Y-12922793D01*
X8864944Y-12922793D02*
X8864944Y-12875174D01*
X8864944Y-12875174D02*
X8874467Y-12837079D01*
X8874467Y-12837079D02*
X8883991Y-12818031D01*
X8883991Y-12818031D02*
X8893515Y-12808508D01*
X8893515Y-12808508D02*
X8912563Y-12798984D01*
X9103039Y-12798984D02*
X9122086Y-12798984D01*
X9122086Y-12798984D02*
X9141134Y-12808508D01*
X9141134Y-12808508D02*
X9150658Y-12818031D01*
X9150658Y-12818031D02*
X9160182Y-12837079D01*
X9160182Y-12837079D02*
X9169705Y-12875174D01*
X9169705Y-12875174D02*
X9169705Y-12922793D01*
X9169705Y-12922793D02*
X9160182Y-12960888D01*
X9160182Y-12960888D02*
X9150658Y-12979936D01*
X9150658Y-12979936D02*
X9141134Y-12989460D01*
X9141134Y-12989460D02*
X9122086Y-12998984D01*
X9122086Y-12998984D02*
X9103039Y-12998984D01*
X9103039Y-12998984D02*
X9083991Y-12989460D01*
X9083991Y-12989460D02*
X9074467Y-12979936D01*
X9074467Y-12979936D02*
X9064944Y-12960888D01*
X9064944Y-12960888D02*
X9055420Y-12922793D01*
X9055420Y-12922793D02*
X9055420Y-12875174D01*
X9055420Y-12875174D02*
X9064944Y-12837079D01*
X9064944Y-12837079D02*
X9074467Y-12818031D01*
X9074467Y-12818031D02*
X9083991Y-12808508D01*
X9083991Y-12808508D02*
X9103039Y-12798984D01*
X9255420Y-12998984D02*
X9255420Y-12865650D01*
X9255420Y-12884698D02*
X9264944Y-12875174D01*
X9264944Y-12875174D02*
X9283991Y-12865650D01*
X9283991Y-12865650D02*
X9312563Y-12865650D01*
X9312563Y-12865650D02*
X9331610Y-12875174D01*
X9331610Y-12875174D02*
X9341134Y-12894222D01*
X9341134Y-12894222D02*
X9341134Y-12998984D01*
X9341134Y-12894222D02*
X9350658Y-12875174D01*
X9350658Y-12875174D02*
X9369705Y-12865650D01*
X9369705Y-12865650D02*
X9398277Y-12865650D01*
X9398277Y-12865650D02*
X9417325Y-12875174D01*
X9417325Y-12875174D02*
X9426848Y-12894222D01*
X9426848Y-12894222D02*
X9426848Y-12998984D01*
X9522086Y-12998984D02*
X9522086Y-12865650D01*
X9522086Y-12884698D02*
X9531610Y-12875174D01*
X9531610Y-12875174D02*
X9550658Y-12865650D01*
X9550658Y-12865650D02*
X9579229Y-12865650D01*
X9579229Y-12865650D02*
X9598277Y-12875174D01*
X9598277Y-12875174D02*
X9607801Y-12894222D01*
X9607801Y-12894222D02*
X9607801Y-12998984D01*
X9607801Y-12894222D02*
X9617325Y-12875174D01*
X9617325Y-12875174D02*
X9636372Y-12865650D01*
X9636372Y-12865650D02*
X9664944Y-12865650D01*
X9664944Y-12865650D02*
X9683991Y-12875174D01*
X9683991Y-12875174D02*
X9693515Y-12894222D01*
X9693515Y-12894222D02*
X9693515Y-12998984D01*
X10083991Y-12789460D02*
X9912563Y-13046603D01*
X10341134Y-12798984D02*
X10360182Y-12798984D01*
X10360182Y-12798984D02*
X10379229Y-12808508D01*
X10379229Y-12808508D02*
X10388753Y-12818031D01*
X10388753Y-12818031D02*
X10398277Y-12837079D01*
X10398277Y-12837079D02*
X10407801Y-12875174D01*
X10407801Y-12875174D02*
X10407801Y-12922793D01*
X10407801Y-12922793D02*
X10398277Y-12960888D01*
X10398277Y-12960888D02*
X10388753Y-12979936D01*
X10388753Y-12979936D02*
X10379229Y-12989460D01*
X10379229Y-12989460D02*
X10360182Y-12998984D01*
X10360182Y-12998984D02*
X10341134Y-12998984D01*
X10341134Y-12998984D02*
X10322087Y-12989460D01*
X10322087Y-12989460D02*
X10312563Y-12979936D01*
X10312563Y-12979936D02*
X10303039Y-12960888D01*
X10303039Y-12960888D02*
X10293515Y-12922793D01*
X10293515Y-12922793D02*
X10293515Y-12875174D01*
X10293515Y-12875174D02*
X10303039Y-12837079D01*
X10303039Y-12837079D02*
X10312563Y-12818031D01*
X10312563Y-12818031D02*
X10322087Y-12808508D01*
X10322087Y-12808508D02*
X10341134Y-12798984D01*
X10493515Y-12979936D02*
X10503039Y-12989460D01*
X10503039Y-12989460D02*
X10493515Y-12998984D01*
X10493515Y-12998984D02*
X10483991Y-12989460D01*
X10483991Y-12989460D02*
X10493515Y-12979936D01*
X10493515Y-12979936D02*
X10493515Y-12998984D01*
X10626848Y-12798984D02*
X10645896Y-12798984D01*
X10645896Y-12798984D02*
X10664944Y-12808508D01*
X10664944Y-12808508D02*
X10674468Y-12818031D01*
X10674468Y-12818031D02*
X10683991Y-12837079D01*
X10683991Y-12837079D02*
X10693515Y-12875174D01*
X10693515Y-12875174D02*
X10693515Y-12922793D01*
X10693515Y-12922793D02*
X10683991Y-12960888D01*
X10683991Y-12960888D02*
X10674468Y-12979936D01*
X10674468Y-12979936D02*
X10664944Y-12989460D01*
X10664944Y-12989460D02*
X10645896Y-12998984D01*
X10645896Y-12998984D02*
X10626848Y-12998984D01*
X10626848Y-12998984D02*
X10607801Y-12989460D01*
X10607801Y-12989460D02*
X10598277Y-12979936D01*
X10598277Y-12979936D02*
X10588753Y-12960888D01*
X10588753Y-12960888D02*
X10579229Y-12922793D01*
X10579229Y-12922793D02*
X10579229Y-12875174D01*
X10579229Y-12875174D02*
X10588753Y-12837079D01*
X10588753Y-12837079D02*
X10598277Y-12818031D01*
X10598277Y-12818031D02*
X10607801Y-12808508D01*
X10607801Y-12808508D02*
X10626848Y-12798984D01*
X10760182Y-12798984D02*
X10883991Y-12798984D01*
X10883991Y-12798984D02*
X10817325Y-12875174D01*
X10817325Y-12875174D02*
X10845896Y-12875174D01*
X10845896Y-12875174D02*
X10864944Y-12884698D01*
X10864944Y-12884698D02*
X10874468Y-12894222D01*
X10874468Y-12894222D02*
X10883991Y-12913269D01*
X10883991Y-12913269D02*
X10883991Y-12960888D01*
X10883991Y-12960888D02*
X10874468Y-12979936D01*
X10874468Y-12979936D02*
X10864944Y-12989460D01*
X10864944Y-12989460D02*
X10845896Y-12998984D01*
X10845896Y-12998984D02*
X10788753Y-12998984D01*
X10788753Y-12998984D02*
X10769706Y-12989460D01*
X10769706Y-12989460D02*
X10760182Y-12979936D01*
X10979229Y-12998984D02*
X11017325Y-12998984D01*
X11017325Y-12998984D02*
X11036372Y-12989460D01*
X11036372Y-12989460D02*
X11045896Y-12979936D01*
X11045896Y-12979936D02*
X11064944Y-12951365D01*
X11064944Y-12951365D02*
X11074468Y-12913269D01*
X11074468Y-12913269D02*
X11074468Y-12837079D01*
X11074468Y-12837079D02*
X11064944Y-12818031D01*
X11064944Y-12818031D02*
X11055420Y-12808508D01*
X11055420Y-12808508D02*
X11036372Y-12798984D01*
X11036372Y-12798984D02*
X10998277Y-12798984D01*
X10998277Y-12798984D02*
X10979229Y-12808508D01*
X10979229Y-12808508D02*
X10969706Y-12818031D01*
X10969706Y-12818031D02*
X10960182Y-12837079D01*
X10960182Y-12837079D02*
X10960182Y-12884698D01*
X10960182Y-12884698D02*
X10969706Y-12903746D01*
X10969706Y-12903746D02*
X10979229Y-12913269D01*
X10979229Y-12913269D02*
X10998277Y-12922793D01*
X10998277Y-12922793D02*
X11036372Y-12922793D01*
X11036372Y-12922793D02*
X11055420Y-12913269D01*
X11055420Y-12913269D02*
X11064944Y-12903746D01*
X11064944Y-12903746D02*
X11074468Y-12884698D01*
X11245896Y-12865650D02*
X11245896Y-12998984D01*
X11198277Y-12789460D02*
X11150658Y-12932317D01*
X11150658Y-12932317D02*
X11274467Y-12932317D01*
X11341134Y-12798984D02*
X11341134Y-12837079D01*
X11417325Y-12798984D02*
X11417325Y-12837079D01*
X11712563Y-13075174D02*
X11703039Y-13065650D01*
X11703039Y-13065650D02*
X11683991Y-13037079D01*
X11683991Y-13037079D02*
X11674468Y-13018031D01*
X11674468Y-13018031D02*
X11664944Y-12989460D01*
X11664944Y-12989460D02*
X11655420Y-12941841D01*
X11655420Y-12941841D02*
X11655420Y-12903746D01*
X11655420Y-12903746D02*
X11664944Y-12856127D01*
X11664944Y-12856127D02*
X11674468Y-12827555D01*
X11674468Y-12827555D02*
X11683991Y-12808508D01*
X11683991Y-12808508D02*
X11703039Y-12779936D01*
X11703039Y-12779936D02*
X11712563Y-12770412D01*
X11779229Y-12818031D02*
X11788753Y-12808508D01*
X11788753Y-12808508D02*
X11807801Y-12798984D01*
X11807801Y-12798984D02*
X11855420Y-12798984D01*
X11855420Y-12798984D02*
X11874468Y-12808508D01*
X11874468Y-12808508D02*
X11883991Y-12818031D01*
X11883991Y-12818031D02*
X11893515Y-12837079D01*
X11893515Y-12837079D02*
X11893515Y-12856127D01*
X11893515Y-12856127D02*
X11883991Y-12884698D01*
X11883991Y-12884698D02*
X11769706Y-12998984D01*
X11769706Y-12998984D02*
X11893515Y-12998984D01*
X12131610Y-12998984D02*
X12131610Y-12798984D01*
X12217325Y-12998984D02*
X12217325Y-12894222D01*
X12217325Y-12894222D02*
X12207801Y-12875174D01*
X12207801Y-12875174D02*
X12188753Y-12865650D01*
X12188753Y-12865650D02*
X12160182Y-12865650D01*
X12160182Y-12865650D02*
X12141134Y-12875174D01*
X12141134Y-12875174D02*
X12131610Y-12884698D01*
X12341134Y-12998984D02*
X12322087Y-12989460D01*
X12322087Y-12989460D02*
X12312563Y-12979936D01*
X12312563Y-12979936D02*
X12303039Y-12960888D01*
X12303039Y-12960888D02*
X12303039Y-12903746D01*
X12303039Y-12903746D02*
X12312563Y-12884698D01*
X12312563Y-12884698D02*
X12322087Y-12875174D01*
X12322087Y-12875174D02*
X12341134Y-12865650D01*
X12341134Y-12865650D02*
X12369706Y-12865650D01*
X12369706Y-12865650D02*
X12388753Y-12875174D01*
X12388753Y-12875174D02*
X12398277Y-12884698D01*
X12398277Y-12884698D02*
X12407801Y-12903746D01*
X12407801Y-12903746D02*
X12407801Y-12960888D01*
X12407801Y-12960888D02*
X12398277Y-12979936D01*
X12398277Y-12979936D02*
X12388753Y-12989460D01*
X12388753Y-12989460D02*
X12369706Y-12998984D01*
X12369706Y-12998984D02*
X12341134Y-12998984D01*
X12522087Y-12998984D02*
X12503039Y-12989460D01*
X12503039Y-12989460D02*
X12493515Y-12970412D01*
X12493515Y-12970412D02*
X12493515Y-12798984D01*
X12674468Y-12989460D02*
X12655420Y-12998984D01*
X12655420Y-12998984D02*
X12617325Y-12998984D01*
X12617325Y-12998984D02*
X12598277Y-12989460D01*
X12598277Y-12989460D02*
X12588753Y-12970412D01*
X12588753Y-12970412D02*
X12588753Y-12894222D01*
X12588753Y-12894222D02*
X12598277Y-12875174D01*
X12598277Y-12875174D02*
X12617325Y-12865650D01*
X12617325Y-12865650D02*
X12655420Y-12865650D01*
X12655420Y-12865650D02*
X12674468Y-12875174D01*
X12674468Y-12875174D02*
X12683991Y-12894222D01*
X12683991Y-12894222D02*
X12683991Y-12913269D01*
X12683991Y-12913269D02*
X12588753Y-12932317D01*
X12760182Y-12989460D02*
X12779230Y-12998984D01*
X12779230Y-12998984D02*
X12817325Y-12998984D01*
X12817325Y-12998984D02*
X12836372Y-12989460D01*
X12836372Y-12989460D02*
X12845896Y-12970412D01*
X12845896Y-12970412D02*
X12845896Y-12960888D01*
X12845896Y-12960888D02*
X12836372Y-12941841D01*
X12836372Y-12941841D02*
X12817325Y-12932317D01*
X12817325Y-12932317D02*
X12788753Y-12932317D01*
X12788753Y-12932317D02*
X12769706Y-12922793D01*
X12769706Y-12922793D02*
X12760182Y-12903746D01*
X12760182Y-12903746D02*
X12760182Y-12894222D01*
X12760182Y-12894222D02*
X12769706Y-12875174D01*
X12769706Y-12875174D02*
X12788753Y-12865650D01*
X12788753Y-12865650D02*
X12817325Y-12865650D01*
X12817325Y-12865650D02*
X12836372Y-12875174D01*
X12912563Y-13075174D02*
X12922087Y-13065650D01*
X12922087Y-13065650D02*
X12941134Y-13037079D01*
X12941134Y-13037079D02*
X12950658Y-13018031D01*
X12950658Y-13018031D02*
X12960182Y-12989460D01*
X12960182Y-12989460D02*
X12969706Y-12941841D01*
X12969706Y-12941841D02*
X12969706Y-12903746D01*
X12969706Y-12903746D02*
X12960182Y-12856127D01*
X12960182Y-12856127D02*
X12950658Y-12827555D01*
X12950658Y-12827555D02*
X12941134Y-12808508D01*
X12941134Y-12808508D02*
X12922087Y-12779936D01*
X12922087Y-12779936D02*
X12912563Y-12770412D01*
X13274468Y-13075174D02*
X13264944Y-13065650D01*
X13264944Y-13065650D02*
X13245896Y-13037079D01*
X13245896Y-13037079D02*
X13236372Y-13018031D01*
X13236372Y-13018031D02*
X13226849Y-12989460D01*
X13226849Y-12989460D02*
X13217325Y-12941841D01*
X13217325Y-12941841D02*
X13217325Y-12903746D01*
X13217325Y-12903746D02*
X13226849Y-12856127D01*
X13226849Y-12856127D02*
X13236372Y-12827555D01*
X13236372Y-12827555D02*
X13245896Y-12808508D01*
X13245896Y-12808508D02*
X13264944Y-12779936D01*
X13264944Y-12779936D02*
X13274468Y-12770412D01*
X13350658Y-12865650D02*
X13350658Y-12998984D01*
X13350658Y-12884698D02*
X13360182Y-12875174D01*
X13360182Y-12875174D02*
X13379230Y-12865650D01*
X13379230Y-12865650D02*
X13407801Y-12865650D01*
X13407801Y-12865650D02*
X13426849Y-12875174D01*
X13426849Y-12875174D02*
X13436372Y-12894222D01*
X13436372Y-12894222D02*
X13436372Y-12998984D01*
X13560182Y-12998984D02*
X13541134Y-12989460D01*
X13541134Y-12989460D02*
X13531611Y-12979936D01*
X13531611Y-12979936D02*
X13522087Y-12960888D01*
X13522087Y-12960888D02*
X13522087Y-12903746D01*
X13522087Y-12903746D02*
X13531611Y-12884698D01*
X13531611Y-12884698D02*
X13541134Y-12875174D01*
X13541134Y-12875174D02*
X13560182Y-12865650D01*
X13560182Y-12865650D02*
X13588753Y-12865650D01*
X13588753Y-12865650D02*
X13607801Y-12875174D01*
X13607801Y-12875174D02*
X13617325Y-12884698D01*
X13617325Y-12884698D02*
X13626849Y-12903746D01*
X13626849Y-12903746D02*
X13626849Y-12960888D01*
X13626849Y-12960888D02*
X13617325Y-12979936D01*
X13617325Y-12979936D02*
X13607801Y-12989460D01*
X13607801Y-12989460D02*
X13588753Y-12998984D01*
X13588753Y-12998984D02*
X13560182Y-12998984D01*
X13683992Y-12865650D02*
X13760182Y-12865650D01*
X13712563Y-12798984D02*
X13712563Y-12970412D01*
X13712563Y-12970412D02*
X13722087Y-12989460D01*
X13722087Y-12989460D02*
X13741134Y-12998984D01*
X13741134Y-12998984D02*
X13760182Y-12998984D01*
X13979230Y-12865650D02*
X13979230Y-13065650D01*
X13979230Y-12875174D02*
X13998277Y-12865650D01*
X13998277Y-12865650D02*
X14036373Y-12865650D01*
X14036373Y-12865650D02*
X14055420Y-12875174D01*
X14055420Y-12875174D02*
X14064944Y-12884698D01*
X14064944Y-12884698D02*
X14074468Y-12903746D01*
X14074468Y-12903746D02*
X14074468Y-12960888D01*
X14074468Y-12960888D02*
X14064944Y-12979936D01*
X14064944Y-12979936D02*
X14055420Y-12989460D01*
X14055420Y-12989460D02*
X14036373Y-12998984D01*
X14036373Y-12998984D02*
X13998277Y-12998984D01*
X13998277Y-12998984D02*
X13979230Y-12989460D01*
X14188753Y-12998984D02*
X14169706Y-12989460D01*
X14169706Y-12989460D02*
X14160182Y-12970412D01*
X14160182Y-12970412D02*
X14160182Y-12798984D01*
X14350658Y-12998984D02*
X14350658Y-12894222D01*
X14350658Y-12894222D02*
X14341134Y-12875174D01*
X14341134Y-12875174D02*
X14322087Y-12865650D01*
X14322087Y-12865650D02*
X14283992Y-12865650D01*
X14283992Y-12865650D02*
X14264944Y-12875174D01*
X14350658Y-12989460D02*
X14331611Y-12998984D01*
X14331611Y-12998984D02*
X14283992Y-12998984D01*
X14283992Y-12998984D02*
X14264944Y-12989460D01*
X14264944Y-12989460D02*
X14255420Y-12970412D01*
X14255420Y-12970412D02*
X14255420Y-12951365D01*
X14255420Y-12951365D02*
X14264944Y-12932317D01*
X14264944Y-12932317D02*
X14283992Y-12922793D01*
X14283992Y-12922793D02*
X14331611Y-12922793D01*
X14331611Y-12922793D02*
X14350658Y-12913269D01*
X14417325Y-12865650D02*
X14493515Y-12865650D01*
X14445896Y-12798984D02*
X14445896Y-12970412D01*
X14445896Y-12970412D02*
X14455420Y-12989460D01*
X14455420Y-12989460D02*
X14474468Y-12998984D01*
X14474468Y-12998984D02*
X14493515Y-12998984D01*
X14636373Y-12989460D02*
X14617325Y-12998984D01*
X14617325Y-12998984D02*
X14579230Y-12998984D01*
X14579230Y-12998984D02*
X14560182Y-12989460D01*
X14560182Y-12989460D02*
X14550658Y-12970412D01*
X14550658Y-12970412D02*
X14550658Y-12894222D01*
X14550658Y-12894222D02*
X14560182Y-12875174D01*
X14560182Y-12875174D02*
X14579230Y-12865650D01*
X14579230Y-12865650D02*
X14617325Y-12865650D01*
X14617325Y-12865650D02*
X14636373Y-12875174D01*
X14636373Y-12875174D02*
X14645896Y-12894222D01*
X14645896Y-12894222D02*
X14645896Y-12913269D01*
X14645896Y-12913269D02*
X14550658Y-12932317D01*
X14817325Y-12998984D02*
X14817325Y-12798984D01*
X14817325Y-12989460D02*
X14798277Y-12998984D01*
X14798277Y-12998984D02*
X14760182Y-12998984D01*
X14760182Y-12998984D02*
X14741134Y-12989460D01*
X14741134Y-12989460D02*
X14731611Y-12979936D01*
X14731611Y-12979936D02*
X14722087Y-12960888D01*
X14722087Y-12960888D02*
X14722087Y-12903746D01*
X14722087Y-12903746D02*
X14731611Y-12884698D01*
X14731611Y-12884698D02*
X14741134Y-12875174D01*
X14741134Y-12875174D02*
X14760182Y-12865650D01*
X14760182Y-12865650D02*
X14798277Y-12865650D01*
X14798277Y-12865650D02*
X14817325Y-12875174D01*
X14893515Y-13075174D02*
X14903039Y-13065650D01*
X14903039Y-13065650D02*
X14922087Y-13037079D01*
X14922087Y-13037079D02*
X14931611Y-13018031D01*
X14931611Y-13018031D02*
X14941134Y-12989460D01*
X14941134Y-12989460D02*
X14950658Y-12941841D01*
X14950658Y-12941841D02*
X14950658Y-12903746D01*
X14950658Y-12903746D02*
X14941134Y-12856127D01*
X14941134Y-12856127D02*
X14931611Y-12827555D01*
X14931611Y-12827555D02*
X14922087Y-12808508D01*
X14922087Y-12808508D02*
X14903039Y-12779936D01*
X14903039Y-12779936D02*
X14893515Y-12770412D01*
M02*
