%TF.GenerationSoftware,KiCad,Pcbnew,8.0.1*%
%TF.CreationDate,2024-04-11T19:27:17-06:00*%
%TF.ProjectId,ECE Altitude Project,45434520-416c-4746-9974-756465205072,rev?*%
%TF.SameCoordinates,Original*%
%TF.FileFunction,Copper,L1,Top*%
%TF.FilePolarity,Positive*%
%FSLAX46Y46*%
G04 Gerber Fmt 4.6, Leading zero omitted, Abs format (unit mm)*
G04 Created by KiCad (PCBNEW 8.0.1) date 2024-04-11 19:27:17*
%MOMM*%
%LPD*%
G01*
G04 APERTURE LIST*
G04 Aperture macros list*
%AMRoundRect*
0 Rectangle with rounded corners*
0 $1 Rounding radius*
0 $2 $3 $4 $5 $6 $7 $8 $9 X,Y pos of 4 corners*
0 Add a 4 corners polygon primitive as box body*
4,1,4,$2,$3,$4,$5,$6,$7,$8,$9,$2,$3,0*
0 Add four circle primitives for the rounded corners*
1,1,$1+$1,$2,$3*
1,1,$1+$1,$4,$5*
1,1,$1+$1,$6,$7*
1,1,$1+$1,$8,$9*
0 Add four rect primitives between the rounded corners*
20,1,$1+$1,$2,$3,$4,$5,0*
20,1,$1+$1,$4,$5,$6,$7,0*
20,1,$1+$1,$6,$7,$8,$9,0*
20,1,$1+$1,$8,$9,$2,$3,0*%
G04 Aperture macros list end*
%TA.AperFunction,SMDPad,CuDef*%
%ADD10R,0.280000X0.280000*%
%TD*%
%TA.AperFunction,SMDPad,CuDef*%
%ADD11O,0.850000X0.280000*%
%TD*%
%TA.AperFunction,ComponentPad*%
%ADD12C,0.600000*%
%TD*%
%TA.AperFunction,SMDPad,CuDef*%
%ADD13R,0.680000X1.050000*%
%TD*%
%TA.AperFunction,SMDPad,CuDef*%
%ADD14R,0.260000X0.500000*%
%TD*%
%TA.AperFunction,SMDPad,CuDef*%
%ADD15R,0.280000X0.700000*%
%TD*%
%TA.AperFunction,SMDPad,CuDef*%
%ADD16R,1.650000X2.400000*%
%TD*%
%TA.AperFunction,ComponentPad*%
%ADD17R,2.000000X2.000000*%
%TD*%
%TA.AperFunction,SMDPad,CuDef*%
%ADD18RoundRect,0.087500X0.087500X-0.725000X0.087500X0.725000X-0.087500X0.725000X-0.087500X-0.725000X0*%
%TD*%
%TA.AperFunction,SMDPad,CuDef*%
%ADD19RoundRect,0.140000X-0.140000X-0.170000X0.140000X-0.170000X0.140000X0.170000X-0.140000X0.170000X0*%
%TD*%
%TA.AperFunction,SMDPad,CuDef*%
%ADD20RoundRect,0.100000X0.100000X-0.130000X0.100000X0.130000X-0.100000X0.130000X-0.100000X-0.130000X0*%
%TD*%
%TA.AperFunction,SMDPad,CuDef*%
%ADD21R,1.100000X3.700000*%
%TD*%
%TA.AperFunction,ComponentPad*%
%ADD22RoundRect,0.250000X-0.750000X0.600000X-0.750000X-0.600000X0.750000X-0.600000X0.750000X0.600000X0*%
%TD*%
%TA.AperFunction,ComponentPad*%
%ADD23O,2.000000X1.700000*%
%TD*%
%TA.AperFunction,SMDPad,CuDef*%
%ADD24RoundRect,0.100000X-0.130000X-0.100000X0.130000X-0.100000X0.130000X0.100000X-0.130000X0.100000X0*%
%TD*%
%TA.AperFunction,SMDPad,CuDef*%
%ADD25R,0.350000X0.500000*%
%TD*%
%TA.AperFunction,SMDPad,CuDef*%
%ADD26RoundRect,0.150000X-0.587500X-0.150000X0.587500X-0.150000X0.587500X0.150000X-0.587500X0.150000X0*%
%TD*%
%TA.AperFunction,ComponentPad*%
%ADD27RoundRect,0.250000X0.600000X0.750000X-0.600000X0.750000X-0.600000X-0.750000X0.600000X-0.750000X0*%
%TD*%
%TA.AperFunction,ComponentPad*%
%ADD28O,1.700000X2.000000*%
%TD*%
%TA.AperFunction,SMDPad,CuDef*%
%ADD29RoundRect,0.250000X-0.312500X-0.625000X0.312500X-0.625000X0.312500X0.625000X-0.312500X0.625000X0*%
%TD*%
%TA.AperFunction,SMDPad,CuDef*%
%ADD30RoundRect,0.243750X-0.456250X0.243750X-0.456250X-0.243750X0.456250X-0.243750X0.456250X0.243750X0*%
%TD*%
%TA.AperFunction,ComponentPad*%
%ADD31RoundRect,0.250000X-0.600000X-0.750000X0.600000X-0.750000X0.600000X0.750000X-0.600000X0.750000X0*%
%TD*%
%TA.AperFunction,SMDPad,CuDef*%
%ADD32RoundRect,0.140000X0.170000X-0.140000X0.170000X0.140000X-0.170000X0.140000X-0.170000X-0.140000X0*%
%TD*%
%TA.AperFunction,SMDPad,CuDef*%
%ADD33RoundRect,0.243750X0.243750X0.456250X-0.243750X0.456250X-0.243750X-0.456250X0.243750X-0.456250X0*%
%TD*%
%TA.AperFunction,SMDPad,CuDef*%
%ADD34RoundRect,0.140000X0.140000X0.170000X-0.140000X0.170000X-0.140000X-0.170000X0.140000X-0.170000X0*%
%TD*%
%TA.AperFunction,SMDPad,CuDef*%
%ADD35RoundRect,0.100000X0.130000X0.100000X-0.130000X0.100000X-0.130000X-0.100000X0.130000X-0.100000X0*%
%TD*%
%TA.AperFunction,SMDPad,CuDef*%
%ADD36RoundRect,0.100000X-0.100000X0.130000X-0.100000X-0.130000X0.100000X-0.130000X0.100000X0.130000X0*%
%TD*%
%TA.AperFunction,SMDPad,CuDef*%
%ADD37R,0.500000X2.000000*%
%TD*%
%TA.AperFunction,SMDPad,CuDef*%
%ADD38R,2.000000X1.700000*%
%TD*%
%TA.AperFunction,ComponentPad*%
%ADD39R,1.700000X1.700000*%
%TD*%
%TA.AperFunction,ComponentPad*%
%ADD40O,1.700000X1.700000*%
%TD*%
%TA.AperFunction,ViaPad*%
%ADD41C,2.000000*%
%TD*%
%TA.AperFunction,ViaPad*%
%ADD42C,0.600000*%
%TD*%
%TA.AperFunction,ViaPad*%
%ADD43C,1.000000*%
%TD*%
%TA.AperFunction,Conductor*%
%ADD44C,0.200000*%
%TD*%
%TA.AperFunction,Conductor*%
%ADD45C,0.400000*%
%TD*%
%TA.AperFunction,Conductor*%
%ADD46C,0.500000*%
%TD*%
%TA.AperFunction,Conductor*%
%ADD47C,0.750000*%
%TD*%
%TA.AperFunction,Conductor*%
%ADD48C,0.300000*%
%TD*%
%TA.AperFunction,Conductor*%
%ADD49C,1.000000*%
%TD*%
G04 APERTURE END LIST*
D10*
%TO.P,U2,1,VAUX*%
%TO.N,Net-(U2-VAUX)*%
X116180000Y-71676544D03*
D11*
X116465000Y-71676544D03*
D10*
%TO.P,U2,2,VOUT*%
%TO.N,5V*%
X116180000Y-72176544D03*
D11*
X116465000Y-72176544D03*
D10*
%TO.P,U2,3,L*%
%TO.N,Net-(U2-L)*%
X116180000Y-72676544D03*
D11*
X116465000Y-72676544D03*
D10*
%TO.P,U2,4,PGND*%
%TO.N,GND*%
X116180000Y-73176544D03*
D11*
X116465000Y-73176544D03*
D10*
%TO.P,U2,5,VIN*%
%TO.N,/BATT_IN_1*%
X116180000Y-73676544D03*
D11*
X116465000Y-73676544D03*
%TO.P,U2,6,EN*%
X119415000Y-73676544D03*
D10*
X119700000Y-73676544D03*
D11*
%TO.P,U2,7,UVLO*%
%TO.N,Net-(U2-UVLO)*%
X119415000Y-73176544D03*
D10*
X119700000Y-73176544D03*
D11*
%TO.P,U2,8,PS*%
%TO.N,/BATT_IN_1*%
X119415000Y-72676544D03*
D10*
X119700000Y-72676544D03*
D11*
%TO.P,U2,9,GND*%
%TO.N,GND*%
X119415000Y-72176544D03*
D10*
X119700000Y-72176544D03*
D11*
%TO.P,U2,10,FB*%
%TO.N,5V*%
X119415000Y-71676544D03*
D10*
X119700000Y-71676544D03*
D12*
%TO.P,U2,11,PAD*%
%TO.N,GND*%
X117440000Y-71926544D03*
X117440000Y-73426544D03*
D13*
X117490000Y-72041544D03*
X117490000Y-73311544D03*
D14*
X117690000Y-71046544D03*
D15*
X117690000Y-71126544D03*
X117690000Y-74226544D03*
D14*
X117690000Y-74306544D03*
D12*
X117940000Y-72676544D03*
D16*
X117940000Y-72676544D03*
D14*
X118190000Y-71046544D03*
D15*
X118190000Y-71126544D03*
X118190000Y-74226544D03*
D14*
X118190000Y-74306544D03*
D13*
X118390000Y-72041544D03*
X118390000Y-73311544D03*
D12*
X118440000Y-71926544D03*
X118440000Y-73426544D03*
%TD*%
D17*
%TO.P,J9,1,Pin_1*%
%TO.N,/BATT_IN_2*%
X120800000Y-86100000D03*
%TD*%
D18*
%TO.P,U3,1,V_{DD}*%
%TO.N,VDD*%
X111100000Y-102425000D03*
%TO.P,U3,2,V_{DD}*%
X111600000Y-102425000D03*
%TO.P,U3,3,STAT1*%
%TO.N,Net-(U3-STAT1)*%
X112100000Y-102425000D03*
%TO.P,U3,4,STAT2*%
%TO.N,Net-(U3-STAT2)*%
X112600000Y-102425000D03*
%TO.P,U3,5,V_{SS}*%
%TO.N,GND*%
X113100000Y-102425000D03*
%TO.P,U3,6,PROG*%
%TO.N,Net-(U3-PROG)*%
X113100000Y-98200000D03*
%TO.P,U3,7,~{PG}*%
%TO.N,Net-(U3-~{PG})*%
X112600000Y-98200000D03*
%TO.P,U3,8,THERM*%
%TO.N,Net-(U3-THERM)*%
X112100000Y-98200000D03*
%TO.P,U3,9,V_{BAT}*%
%TO.N,/BATT_IN_2*%
X111600000Y-98200000D03*
%TO.P,U3,10,V_{BAT}*%
X111100000Y-98200000D03*
%TD*%
D19*
%TO.P,C3,1*%
%TO.N,Net-(U2-VAUX)*%
X116220000Y-69876544D03*
%TO.P,C3,2*%
%TO.N,GND*%
X117180000Y-69876544D03*
%TD*%
D20*
%TO.P,R13,1*%
%TO.N,Net-(R12-Pad1)*%
X111000000Y-92825000D03*
%TO.P,R13,2*%
%TO.N,GND*%
X111000000Y-92185000D03*
%TD*%
D21*
%TO.P,L1,1,1*%
%TO.N,Net-(U2-L)*%
X112800000Y-70200000D03*
%TO.P,L1,2,2*%
%TO.N,/BATT_IN_1*%
X109800000Y-70200000D03*
%TD*%
D20*
%TO.P,R12,1*%
%TO.N,Net-(R12-Pad1)*%
X113500000Y-92745000D03*
%TO.P,R12,2*%
%TO.N,GND*%
X113500000Y-92105000D03*
%TD*%
D19*
%TO.P,C1,1*%
%TO.N,/BATT_IN_1*%
X115200000Y-77776544D03*
%TO.P,C1,2*%
%TO.N,Net-(U2-UVLO)*%
X116160000Y-77776544D03*
%TD*%
D22*
%TO.P,J7,1,Pin_1*%
%TO.N,GND*%
X130600000Y-93000000D03*
D23*
%TO.P,J7,2,Pin_2*%
%TO.N,/BATT_IN_2*%
X130600000Y-95500000D03*
%TD*%
D24*
%TO.P,R5,1*%
%TO.N,VCC*%
X103335000Y-85200000D03*
%TO.P,R5,2*%
%TO.N,/SDI{slash}SDA*%
X103975000Y-85200000D03*
%TD*%
D25*
%TO.P,U1,1,GND*%
%TO.N,GND*%
X100825000Y-73000000D03*
%TO.P,U1,2,CSB*%
%TO.N,unconnected-(U1-CSB-Pad2)*%
X101475000Y-73000000D03*
%TO.P,U1,3,SDI*%
%TO.N,/SDI_3V*%
X102125000Y-73000000D03*
%TO.P,U1,4,SCK*%
%TO.N,/SCK_3V*%
X102775000Y-73000000D03*
%TO.P,U1,5,SDO*%
%TO.N,unconnected-(U1-SDO-Pad5)*%
X102775000Y-74600000D03*
%TO.P,U1,6,VDDIO*%
%TO.N,3.3V*%
X102125000Y-74600000D03*
%TO.P,U1,7,GND*%
%TO.N,GND*%
X101475000Y-74600000D03*
%TO.P,U1,8,VDD*%
%TO.N,3.3V*%
X100825000Y-74600000D03*
%TD*%
D26*
%TO.P,Q1,1,G*%
%TO.N,3.3V*%
X105762500Y-76250000D03*
%TO.P,Q1,2,S*%
%TO.N,/SCK_3V*%
X105762500Y-78150000D03*
%TO.P,Q1,3,D*%
%TO.N,/SCK{slash}SCL*%
X107637500Y-77200000D03*
%TD*%
D27*
%TO.P,J8,1,Pin_1*%
%TO.N,/SEL1*%
X99900000Y-109900000D03*
D28*
%TO.P,J8,2,Pin_2*%
%TO.N,/SEL2*%
X97400000Y-109900000D03*
%TD*%
D17*
%TO.P,J10,1,Pin_1*%
%TO.N,/BATT_IN_1*%
X115400000Y-86034044D03*
%TD*%
D20*
%TO.P,R4,1*%
%TO.N,Net-(D2-K)*%
X110600000Y-106565000D03*
%TO.P,R4,2*%
%TO.N,Net-(U3-STAT1)*%
X110600000Y-105925000D03*
%TD*%
%TO.P,R8,1*%
%TO.N,3.3V*%
X105500000Y-73565000D03*
%TO.P,R8,2*%
%TO.N,/SDI_3V*%
X105500000Y-72925000D03*
%TD*%
D29*
%TO.P,R2,1*%
%TO.N,/BATT_IN_1*%
X114037500Y-80600000D03*
%TO.P,R2,2*%
%TO.N,Net-(U2-UVLO)*%
X116962500Y-80600000D03*
%TD*%
D26*
%TO.P,Q2,1,G*%
%TO.N,3.3V*%
X106762500Y-84250000D03*
%TO.P,Q2,2,S*%
%TO.N,/SDI_3V*%
X106762500Y-86150000D03*
%TO.P,Q2,3,D*%
%TO.N,/SDI{slash}SDA*%
X108637500Y-85200000D03*
%TD*%
D30*
%TO.P,D3,1,K*%
%TO.N,Net-(D3-K)*%
X115100000Y-108425000D03*
%TO.P,D3,2,A*%
%TO.N,VDD*%
X115100000Y-110300000D03*
%TD*%
D19*
%TO.P,C4,1*%
%TO.N,5V*%
X121120000Y-71676544D03*
%TO.P,C4,2*%
%TO.N,GND*%
X122080000Y-71676544D03*
%TD*%
D30*
%TO.P,D2,1,K*%
%TO.N,Net-(D2-K)*%
X110600000Y-108425000D03*
%TO.P,D2,2,A*%
%TO.N,VDD*%
X110600000Y-110300000D03*
%TD*%
D31*
%TO.P,J5,1,Pin_1*%
%TO.N,VCC*%
X97400000Y-103300000D03*
D28*
%TO.P,J5,2,Pin_2*%
%TO.N,GND*%
X99900000Y-103300000D03*
%TD*%
D32*
%TO.P,C6,1*%
%TO.N,/BATT_IN_2*%
X126200000Y-94780000D03*
%TO.P,C6,2*%
%TO.N,GND*%
X126200000Y-93820000D03*
%TD*%
D20*
%TO.P,R11,1*%
%TO.N,Net-(D4-K)*%
X119600000Y-106565000D03*
%TO.P,R11,2*%
%TO.N,Net-(U3-~{PG})*%
X119600000Y-105925000D03*
%TD*%
D24*
%TO.P,R7,1*%
%TO.N,3.3V*%
X106360000Y-82000000D03*
%TO.P,R7,2*%
%TO.N,/SCK_3V*%
X107000000Y-82000000D03*
%TD*%
D31*
%TO.P,J1,1,Pin_1*%
%TO.N,VCC*%
X97400000Y-95900000D03*
D28*
%TO.P,J1,2,Pin_2*%
%TO.N,GND*%
X99900000Y-95900000D03*
%TD*%
D30*
%TO.P,D4,1,K*%
%TO.N,Net-(D4-K)*%
X119600000Y-108425000D03*
%TO.P,D4,2,A*%
%TO.N,VDD*%
X119600000Y-110300000D03*
%TD*%
D20*
%TO.P,R10,1*%
%TO.N,Net-(U3-PROG)*%
X116300000Y-92745000D03*
%TO.P,R10,2*%
%TO.N,GND*%
X116300000Y-92105000D03*
%TD*%
D33*
%TO.P,D1,1,K*%
%TO.N,GND*%
X100000000Y-68500000D03*
%TO.P,D1,2,A*%
%TO.N,Net-(D1-A)*%
X98125000Y-68500000D03*
%TD*%
D24*
%TO.P,R3,1*%
%TO.N,3.3V*%
X94625000Y-68500000D03*
%TO.P,R3,2*%
%TO.N,Net-(D1-A)*%
X95265000Y-68500000D03*
%TD*%
D34*
%TO.P,C5,1*%
%TO.N,VDD*%
X107800000Y-111300000D03*
%TO.P,C5,2*%
%TO.N,GND*%
X106840000Y-111300000D03*
%TD*%
D35*
%TO.P,R6,1*%
%TO.N,VCC*%
X101600000Y-85100000D03*
%TO.P,R6,2*%
%TO.N,/SCK{slash}SCL*%
X100960000Y-85100000D03*
%TD*%
D36*
%TO.P,RT1,1*%
%TO.N,Net-(R12-Pad1)*%
X112755000Y-94605000D03*
%TO.P,RT1,2*%
%TO.N,Net-(U3-THERM)*%
X112755000Y-95245000D03*
%TD*%
D20*
%TO.P,R9,1*%
%TO.N,Net-(D3-K)*%
X115100000Y-106590000D03*
%TO.P,R9,2*%
%TO.N,Net-(U3-STAT2)*%
X115100000Y-105950000D03*
%TD*%
D19*
%TO.P,C2,1*%
%TO.N,/BATT_IN_1*%
X115740000Y-82900000D03*
%TO.P,C2,2*%
%TO.N,GND*%
X116700000Y-82900000D03*
%TD*%
D24*
%TO.P,R1,1*%
%TO.N,Net-(U2-UVLO)*%
X118580000Y-80600000D03*
%TO.P,R1,2*%
%TO.N,GND*%
X119220000Y-80600000D03*
%TD*%
D31*
%TO.P,J3,1,Pin_1*%
%TO.N,/TXD*%
X92300000Y-78200000D03*
D28*
%TO.P,J3,2,Pin_2*%
%TO.N,/RXD*%
X94800000Y-78200000D03*
%TD*%
D37*
%TO.P,J6,1,VBUS*%
%TO.N,VDD*%
X112900000Y-115325000D03*
%TO.P,J6,2,D-*%
%TO.N,unconnected-(J6-D--Pad2)*%
X113700000Y-115325000D03*
%TO.P,J6,3,D+*%
%TO.N,unconnected-(J6-D+-Pad3)*%
X114500000Y-115325000D03*
%TO.P,J6,4,ID*%
%TO.N,unconnected-(J6-ID-Pad4)*%
X115300000Y-115325000D03*
%TO.P,J6,5,GND*%
%TO.N,GND*%
X116100000Y-115325000D03*
D38*
%TO.P,J6,6,Shield*%
X110050000Y-115425000D03*
X110050000Y-120875000D03*
X118950000Y-115425000D03*
X118950000Y-120875000D03*
%TD*%
D31*
%TO.P,J4,1,Pin_1*%
%TO.N,/SDI{slash}SDA*%
X97400000Y-89000000D03*
D28*
%TO.P,J4,2,Pin_2*%
%TO.N,/SCK{slash}SCL*%
X99900000Y-89000000D03*
%TD*%
D39*
%TO.P,J2,1,Pin_1*%
%TO.N,3.3V*%
X84125000Y-67850000D03*
D40*
%TO.P,J2,2,Pin_2*%
%TO.N,5V*%
X86665000Y-67850000D03*
%TO.P,J2,3,Pin_3*%
%TO.N,/SDI{slash}SDA*%
X84125000Y-70390000D03*
%TO.P,J2,4,Pin_4*%
%TO.N,5V*%
X86665000Y-70390000D03*
%TO.P,J2,5,Pin_5*%
%TO.N,/SCK{slash}SCL*%
X84125000Y-72930000D03*
%TO.P,J2,6,Pin_6*%
%TO.N,GND*%
X86665000Y-72930000D03*
%TO.P,J2,7,Pin_7*%
%TO.N,unconnected-(J2-Pin_7-Pad7)*%
X84125000Y-75470000D03*
%TO.P,J2,8,Pin_8*%
%TO.N,/TXD*%
X86665000Y-75470000D03*
%TO.P,J2,9,Pin_9*%
%TO.N,unconnected-(J2-Pin_9-Pad9)*%
X84125000Y-78010000D03*
%TO.P,J2,10,Pin_10*%
%TO.N,/RXD*%
X86665000Y-78010000D03*
%TO.P,J2,11,Pin_11*%
%TO.N,unconnected-(J2-Pin_11-Pad11)*%
X84125000Y-80550000D03*
%TO.P,J2,12,Pin_12*%
%TO.N,unconnected-(J2-Pin_12-Pad12)*%
X86665000Y-80550000D03*
%TO.P,J2,13,Pin_13*%
%TO.N,unconnected-(J2-Pin_13-Pad13)*%
X84125000Y-83090000D03*
%TO.P,J2,14,Pin_14*%
%TO.N,unconnected-(J2-Pin_14-Pad14)*%
X86665000Y-83090000D03*
%TO.P,J2,15,Pin_15*%
%TO.N,unconnected-(J2-Pin_15-Pad15)*%
X84125000Y-85630000D03*
%TO.P,J2,16,Pin_16*%
%TO.N,/SEL1*%
X86665000Y-85630000D03*
%TO.P,J2,17,Pin_17*%
%TO.N,VCC*%
X84125000Y-88170000D03*
%TO.P,J2,18,Pin_18*%
%TO.N,/SEL2*%
X86665000Y-88170000D03*
%TO.P,J2,19,Pin_19*%
%TO.N,unconnected-(J2-Pin_19-Pad19)*%
X84125000Y-90710000D03*
%TO.P,J2,20,Pin_20*%
%TO.N,unconnected-(J2-Pin_20-Pad20)*%
X86665000Y-90710000D03*
%TO.P,J2,21,Pin_21*%
%TO.N,unconnected-(J2-Pin_21-Pad21)*%
X84125000Y-93250000D03*
%TO.P,J2,22,Pin_22*%
%TO.N,unconnected-(J2-Pin_22-Pad22)*%
X86665000Y-93250000D03*
%TO.P,J2,23,Pin_23*%
%TO.N,unconnected-(J2-Pin_23-Pad23)*%
X84125000Y-95790000D03*
%TO.P,J2,24,Pin_24*%
%TO.N,unconnected-(J2-Pin_24-Pad24)*%
X86665000Y-95790000D03*
%TO.P,J2,25,Pin_25*%
%TO.N,unconnected-(J2-Pin_25-Pad25)*%
X84125000Y-98330000D03*
%TO.P,J2,26,Pin_26*%
%TO.N,unconnected-(J2-Pin_26-Pad26)*%
X86665000Y-98330000D03*
%TO.P,J2,27,Pin_27*%
%TO.N,unconnected-(J2-Pin_27-Pad27)*%
X84125000Y-100870000D03*
%TO.P,J2,28,Pin_28*%
%TO.N,unconnected-(J2-Pin_28-Pad28)*%
X86665000Y-100870000D03*
%TO.P,J2,29,Pin_29*%
%TO.N,unconnected-(J2-Pin_29-Pad29)*%
X84125000Y-103410000D03*
%TO.P,J2,30,Pin_30*%
%TO.N,unconnected-(J2-Pin_30-Pad30)*%
X86665000Y-103410000D03*
%TO.P,J2,31,Pin_31*%
%TO.N,unconnected-(J2-Pin_31-Pad31)*%
X84125000Y-105950000D03*
%TO.P,J2,32,Pin_32*%
%TO.N,unconnected-(J2-Pin_32-Pad32)*%
X86665000Y-105950000D03*
%TO.P,J2,33,Pin_33*%
%TO.N,unconnected-(J2-Pin_33-Pad33)*%
X84125000Y-108490000D03*
%TO.P,J2,34,Pin_34*%
%TO.N,unconnected-(J2-Pin_34-Pad34)*%
X86665000Y-108490000D03*
%TO.P,J2,35,Pin_35*%
%TO.N,unconnected-(J2-Pin_35-Pad35)*%
X84125000Y-111030000D03*
%TO.P,J2,36,Pin_36*%
%TO.N,unconnected-(J2-Pin_36-Pad36)*%
X86665000Y-111030000D03*
%TO.P,J2,37,Pin_37*%
%TO.N,unconnected-(J2-Pin_37-Pad37)*%
X84125000Y-113570000D03*
%TO.P,J2,38,Pin_38*%
%TO.N,unconnected-(J2-Pin_38-Pad38)*%
X86665000Y-113570000D03*
%TO.P,J2,39,Pin_39*%
%TO.N,unconnected-(J2-Pin_39-Pad39)*%
X84125000Y-116110000D03*
%TO.P,J2,40,Pin_40*%
%TO.N,unconnected-(J2-Pin_40-Pad40)*%
X86665000Y-116110000D03*
%TD*%
D41*
%TO.N,5V*%
X121200000Y-70000000D03*
D42*
X115200000Y-70000000D03*
%TO.N,/SCK{slash}SCL*%
X107600000Y-79300000D03*
X99900000Y-84400000D03*
%TO.N,3.3V*%
X104200000Y-75500000D03*
X102600000Y-75600000D03*
%TO.N,/SCK_3V*%
X105500000Y-80700000D03*
X107700000Y-81100000D03*
D43*
%TO.N,/BATT_IN_1*%
X120800000Y-74200000D03*
X122000000Y-72791544D03*
%TD*%
D44*
%TO.N,Net-(U2-UVLO)*%
X117700000Y-77776544D02*
X117700000Y-77876544D01*
X119123456Y-77776544D02*
X117700000Y-77776544D01*
X121002107Y-73176544D02*
X121800000Y-73974437D01*
X118403456Y-80776544D02*
X118580000Y-80600000D01*
X117700000Y-77876544D02*
X118580000Y-78756544D01*
X117700000Y-77776544D02*
X116160000Y-77776544D01*
X119700000Y-73176544D02*
X121002107Y-73176544D01*
X118580000Y-78756544D02*
X118580000Y-80600000D01*
X121800000Y-75100000D02*
X119123456Y-77776544D01*
X116962500Y-80600000D02*
X118580000Y-80600000D01*
X121800000Y-73974437D02*
X121800000Y-75100000D01*
%TO.N,GND*%
X117355000Y-73176544D02*
X117490000Y-73311544D01*
X101475000Y-74225000D02*
X101475000Y-74600000D01*
X116465000Y-73176544D02*
X117355000Y-73176544D01*
X118525000Y-72176544D02*
X118390000Y-72041544D01*
X119415000Y-72176544D02*
X118525000Y-72176544D01*
X100825000Y-73575000D02*
X101475000Y-74225000D01*
X100825000Y-73000000D02*
X100825000Y-73575000D01*
D45*
X113100000Y-101000000D02*
X112700000Y-100600000D01*
X113100000Y-102425000D02*
X113100000Y-101000000D01*
D44*
%TO.N,Net-(U2-VAUX)*%
X116180000Y-71676544D02*
X116180000Y-69916544D01*
X116180000Y-69916544D02*
X116220000Y-69876544D01*
D46*
%TO.N,5V*%
X119700000Y-71676544D02*
X121200000Y-70176544D01*
D47*
X121120000Y-70080000D02*
X121200000Y-70000000D01*
D46*
X121200000Y-70176544D02*
X121200000Y-70000000D01*
D48*
X115200000Y-70000000D02*
X115200000Y-71469136D01*
D47*
X121120000Y-71676544D02*
X121120000Y-70080000D01*
D48*
X115907408Y-72176544D02*
X116180000Y-72176544D01*
X115200000Y-71469136D02*
X115907408Y-72176544D01*
%TO.N,VDD*%
X110600000Y-111825000D02*
X110600000Y-110300000D01*
D49*
X108500000Y-104200000D02*
X110600000Y-104200000D01*
X108100000Y-104600000D02*
X108500000Y-104200000D01*
D48*
X112900000Y-113700000D02*
X112900000Y-115325000D01*
X112900000Y-114125000D02*
X110600000Y-111825000D01*
D49*
X112500000Y-113700000D02*
X112500000Y-115600000D01*
X110600000Y-104200000D02*
X111100000Y-103700000D01*
X110600000Y-111900000D02*
X112000000Y-113300000D01*
D48*
X113975000Y-112625000D02*
X113800000Y-112800000D01*
D45*
X111625000Y-103175000D02*
X111100000Y-103700000D01*
X111600000Y-102425000D02*
X111625000Y-102450000D01*
D48*
X112900000Y-115325000D02*
X112900000Y-114125000D01*
D49*
X112900000Y-113300000D02*
X115100000Y-111100000D01*
X115100000Y-111100000D02*
X115100000Y-110300000D01*
X112000000Y-113300000D02*
X109800000Y-113300000D01*
X112000000Y-113300000D02*
X112900000Y-113300000D01*
X117275000Y-112625000D02*
X119600000Y-110300000D01*
D47*
X112900000Y-113300000D02*
X112500000Y-113700000D01*
D49*
X108100000Y-111600000D02*
X108100000Y-104600000D01*
X109800000Y-113300000D02*
X108100000Y-111600000D01*
X113975000Y-112625000D02*
X117275000Y-112625000D01*
D48*
X113800000Y-112800000D02*
X112900000Y-113700000D01*
D49*
X111100000Y-103700000D02*
X111100000Y-102425000D01*
D44*
X112900000Y-115325000D02*
X112900000Y-113300000D01*
D45*
X111625000Y-102450000D02*
X111625000Y-103175000D01*
D49*
X110600000Y-110300000D02*
X110600000Y-111900000D01*
D44*
%TO.N,Net-(D1-A)*%
X95265000Y-68500000D02*
X98125000Y-68500000D01*
%TO.N,Net-(D2-K)*%
X110600000Y-108425000D02*
X110600000Y-106565000D01*
%TO.N,Net-(D3-K)*%
X115100000Y-108425000D02*
X115100000Y-106590000D01*
%TO.N,Net-(D4-K)*%
X119600000Y-108425000D02*
X119600000Y-106565000D01*
D45*
%TO.N,VCC*%
X97400000Y-95900000D02*
X103335000Y-89965000D01*
X103335000Y-89965000D02*
X103335000Y-85200000D01*
X85515000Y-86780000D02*
X85515000Y-85153654D01*
X97400000Y-94738654D02*
X97400000Y-95900000D01*
X97400000Y-95900000D02*
X97400000Y-103300000D01*
X86188654Y-84480000D02*
X87141346Y-84480000D01*
X87141346Y-84480000D02*
X97400000Y-94738654D01*
D44*
X101600000Y-85100000D02*
X103235000Y-85100000D01*
X103235000Y-85100000D02*
X103335000Y-85200000D01*
D45*
X84125000Y-88170000D02*
X85515000Y-86780000D01*
X85515000Y-85153654D02*
X86188654Y-84480000D01*
D44*
%TO.N,/TXD*%
X92300000Y-78200000D02*
X89395000Y-78200000D01*
X89395000Y-78200000D02*
X86665000Y-75470000D01*
%TO.N,/SDI{slash}SDA*%
X103633456Y-84700000D02*
X103600000Y-84700000D01*
X97400000Y-85100000D02*
X97400000Y-89000000D01*
X102400000Y-83500000D02*
X99000000Y-83500000D01*
X103975000Y-85041544D02*
X103633456Y-84700000D01*
X103975000Y-85200000D02*
X108637500Y-85200000D01*
X99000000Y-83500000D02*
X97400000Y-85100000D01*
X103975000Y-85200000D02*
X103975000Y-85041544D01*
X103600000Y-84700000D02*
X102400000Y-83500000D01*
%TO.N,/SCK{slash}SCL*%
X99900000Y-86160000D02*
X100960000Y-85100000D01*
X100960000Y-85100000D02*
X100600000Y-85100000D01*
X107600000Y-79300000D02*
X107637500Y-79262500D01*
X107637500Y-79262500D02*
X107637500Y-77200000D01*
X100600000Y-85100000D02*
X99900000Y-84400000D01*
X99900000Y-89000000D02*
X99900000Y-86160000D01*
%TO.N,3.3V*%
X104200000Y-75500000D02*
X104950000Y-76250000D01*
X105762500Y-76250000D02*
X105762500Y-76771948D01*
X102125000Y-75125000D02*
X102600000Y-75600000D01*
X104950000Y-76250000D02*
X105762500Y-76250000D01*
X102125000Y-74600000D02*
X102125000Y-75125000D01*
X97700000Y-74600000D02*
X100825000Y-74600000D01*
X89800000Y-66700000D02*
X85275000Y-66700000D01*
X106800000Y-81400000D02*
X106360000Y-81840000D01*
X105500000Y-75987500D02*
X105762500Y-76250000D01*
X94625000Y-68500000D02*
X92825000Y-66700000D01*
X100850000Y-75150000D02*
X100825000Y-75125000D01*
X85275000Y-66700000D02*
X84125000Y-67850000D01*
X92825000Y-66700000D02*
X89800000Y-66700000D01*
X106762500Y-84250000D02*
X106762500Y-82602499D01*
X102025000Y-75150000D02*
X100850000Y-75150000D01*
X102125000Y-74600000D02*
X102125000Y-75050000D01*
X105762500Y-76771948D02*
X106800000Y-77809448D01*
X106800000Y-77809448D02*
X106800000Y-81400000D01*
X105500000Y-73565000D02*
X105500000Y-75987500D01*
X106762500Y-82602499D02*
X106360000Y-82199999D01*
X106360000Y-82199999D02*
X106360000Y-82000000D01*
X102125000Y-75050000D02*
X102025000Y-75150000D01*
X106360000Y-81840000D02*
X106360000Y-82000000D01*
X100825000Y-75125000D02*
X100825000Y-74600000D01*
X89800000Y-66700000D02*
X97700000Y-74600000D01*
D45*
%TO.N,/SEL1*%
X99800000Y-109800000D02*
X99800000Y-109100000D01*
X99900000Y-109900000D02*
X99800000Y-109800000D01*
X90700000Y-89665000D02*
X86665000Y-85630000D01*
X99800000Y-109100000D02*
X90700000Y-100000000D01*
X90700000Y-100000000D02*
X90700000Y-89665000D01*
%TO.N,/SEL2*%
X97300000Y-109900000D02*
X89100000Y-101700000D01*
X89100000Y-90605000D02*
X86665000Y-88170000D01*
X89100000Y-101700000D02*
X89100000Y-90605000D01*
X97400000Y-109900000D02*
X97300000Y-109900000D01*
D44*
%TO.N,/RXD*%
X88584327Y-79929327D02*
X86665000Y-78010000D01*
X94800000Y-78200000D02*
X93070673Y-79929327D01*
X93070673Y-79929327D02*
X88584327Y-79929327D01*
D46*
%TO.N,Net-(U2-L)*%
X112800000Y-70200000D02*
X115276544Y-72676544D01*
X115276544Y-72676544D02*
X116465000Y-72676544D01*
D44*
%TO.N,/SCK_3V*%
X105762500Y-78150000D02*
X103400000Y-75787500D01*
X107700000Y-81100000D02*
X107700000Y-81300000D01*
X105762500Y-78150000D02*
X105762500Y-80437500D01*
X103400000Y-75787500D02*
X103400000Y-73625000D01*
X105762500Y-80437500D02*
X105500000Y-80700000D01*
X103400000Y-73625000D02*
X102775000Y-73000000D01*
X107700000Y-81300000D02*
X107000000Y-82000000D01*
%TO.N,/SDI_3V*%
X109065552Y-86150000D02*
X106762500Y-86150000D01*
X102425000Y-72450000D02*
X102125000Y-72750000D01*
X105500000Y-72925000D02*
X105025000Y-72450000D01*
X110100000Y-85115552D02*
X109065552Y-86150000D01*
X105500000Y-72925000D02*
X108128052Y-72925000D01*
X105025000Y-72450000D02*
X102425000Y-72450000D01*
X110100000Y-74896948D02*
X110100000Y-85115552D01*
X108128052Y-72925000D02*
X110100000Y-74896948D01*
X102125000Y-72750000D02*
X102125000Y-73000000D01*
%TO.N,Net-(U3-STAT1)*%
X110600000Y-105925000D02*
X112100000Y-104425000D01*
X112100000Y-104425000D02*
X112100000Y-102425000D01*
%TO.N,Net-(U3-STAT2)*%
X115100000Y-105787932D02*
X112600000Y-103287932D01*
X112600000Y-103287932D02*
X112600000Y-102425000D01*
X115100000Y-105950000D02*
X115100000Y-105787932D01*
%TO.N,Net-(U3-PROG)*%
X113100000Y-98200000D02*
X116300000Y-95000000D01*
X116300000Y-95000000D02*
X116300000Y-92745000D01*
%TO.N,Net-(U3-~{PG})*%
X119600000Y-105925000D02*
X119400001Y-105925000D01*
X112600000Y-99124999D02*
X112600000Y-98200000D01*
X119400001Y-105925000D02*
X112600000Y-99124999D01*
%TO.N,Net-(R12-Pad1)*%
X112755000Y-93490000D02*
X113500000Y-92745000D01*
X112755000Y-94605000D02*
X112755000Y-94025000D01*
X111555000Y-92825000D02*
X111000000Y-92825000D01*
X112755000Y-94025000D02*
X112755000Y-93490000D01*
X112755000Y-94025000D02*
X111555000Y-92825000D01*
%TO.N,Net-(U3-THERM)*%
X112100000Y-97337068D02*
X112800000Y-96637068D01*
X112800000Y-95290000D02*
X112755000Y-95245000D01*
X112800000Y-96637068D02*
X112800000Y-95290000D01*
X112100000Y-98200000D02*
X112100000Y-97337068D01*
D49*
%TO.N,/BATT_IN_1*%
X115400000Y-82800000D02*
X114000000Y-81400000D01*
D46*
X120700000Y-74100000D02*
X120600000Y-74200000D01*
D47*
X115200000Y-74176544D02*
X116323456Y-74176544D01*
D44*
X122000000Y-72791544D02*
X121885000Y-72676544D01*
D49*
X118106544Y-76000000D02*
X116400000Y-76000000D01*
X115200000Y-77200000D02*
X115200000Y-77776544D01*
D45*
X115680000Y-74176544D02*
X116180000Y-73676544D01*
X120800000Y-74200000D02*
X120700000Y-74100000D01*
D47*
X116323456Y-74176544D02*
X116600000Y-73900000D01*
D49*
X119500000Y-74606544D02*
X119500000Y-74100000D01*
D46*
X119600000Y-74200000D02*
X119500000Y-74100000D01*
D47*
X120600000Y-74200000D02*
X119600000Y-74200000D01*
D49*
X115200000Y-74176544D02*
X114590000Y-73566544D01*
X114590000Y-73566544D02*
X111090000Y-73566544D01*
D45*
X116180000Y-73676544D02*
X116465000Y-73676544D01*
D49*
X115200000Y-77776544D02*
X115200000Y-74176544D01*
X115400000Y-86034044D02*
X115400000Y-82800000D01*
X114000000Y-78976544D02*
X115200000Y-77776544D01*
D46*
X121885000Y-72676544D02*
X119700000Y-72676544D01*
D49*
X109800000Y-72276544D02*
X109800000Y-70200000D01*
X116400000Y-76000000D02*
X115200000Y-77200000D01*
X119500000Y-74606544D02*
X118106544Y-76000000D01*
X111090000Y-73566544D02*
X109800000Y-72276544D01*
X114000000Y-81400000D02*
X114000000Y-78976544D01*
%TO.N,/BATT_IN_2*%
X130250000Y-95150000D02*
X122925000Y-95150000D01*
X107887500Y-89412500D02*
X105700000Y-91600000D01*
X109595000Y-98200000D02*
X108597500Y-97202500D01*
X120800000Y-89412500D02*
X107887500Y-89412500D01*
D44*
X111600000Y-98200000D02*
X111100000Y-98200000D01*
D49*
X105700000Y-91600000D02*
X105700000Y-95400000D01*
X120800000Y-93025000D02*
X120800000Y-89412500D01*
X130600000Y-95500000D02*
X130250000Y-95150000D01*
X107225000Y-96925000D02*
X108320000Y-96925000D01*
X105700000Y-95400000D02*
X107225000Y-96925000D01*
X122925000Y-95150000D02*
X120800000Y-93025000D01*
X108597500Y-97202500D02*
X108320000Y-96925000D01*
X120800000Y-89412500D02*
X120800000Y-86400000D01*
X109595000Y-98200000D02*
X111100000Y-98200000D01*
X120800000Y-86400000D02*
X120500000Y-86100000D01*
%TD*%
%TA.AperFunction,Conductor*%
%TO.N,5V*%
G36*
X120287725Y-69622111D02*
G01*
X121196215Y-69997437D01*
X121202553Y-70003764D01*
X121202562Y-70003784D01*
X121578482Y-70913713D01*
X121578473Y-70922667D01*
X121572793Y-70928698D01*
X120075892Y-71658050D01*
X120066953Y-71658593D01*
X120062494Y-71655805D01*
X119719945Y-71313256D01*
X119716518Y-71304983D01*
X119717112Y-71301304D01*
X120272161Y-69629241D01*
X120278020Y-69622470D01*
X120286951Y-69621824D01*
X120287725Y-69622111D01*
G37*
%TD.AperFunction*%
%TD*%
%TA.AperFunction,Conductor*%
%TO.N,5V*%
G36*
X122112419Y-70377923D02*
G01*
X122118746Y-70384261D01*
X122118737Y-70393215D01*
X122118455Y-70393843D01*
X121713014Y-71228000D01*
X121498750Y-71668830D01*
X121498201Y-71669959D01*
X121491502Y-71675901D01*
X121487678Y-71676544D01*
X120753205Y-71676544D01*
X120744932Y-71673117D01*
X120742205Y-71668830D01*
X120583862Y-71231888D01*
X120279926Y-70393185D01*
X120280329Y-70384243D01*
X120286437Y-70378398D01*
X121195514Y-70000862D01*
X121204464Y-70000854D01*
X122112419Y-70377923D01*
G37*
%TD.AperFunction*%
%TD*%
%TA.AperFunction,Conductor*%
%TO.N,GND*%
G36*
X113860465Y-101253248D02*
G01*
X113908986Y-101283220D01*
X116391690Y-103765925D01*
X118870441Y-106244676D01*
X118903926Y-106305999D01*
X118905700Y-106348539D01*
X118899501Y-106395636D01*
X118899500Y-106395641D01*
X118899500Y-106734363D01*
X118914953Y-106851753D01*
X118914957Y-106851765D01*
X118975461Y-106997836D01*
X118979526Y-107004876D01*
X118977783Y-107005882D01*
X118999069Y-107060932D01*
X118999500Y-107071257D01*
X118999500Y-107355461D01*
X118979815Y-107422500D01*
X118927011Y-107468255D01*
X118914504Y-107473167D01*
X118827077Y-107502137D01*
X118827066Y-107502142D01*
X118679000Y-107593471D01*
X118678996Y-107593474D01*
X118555974Y-107716496D01*
X118555971Y-107716500D01*
X118464642Y-107864566D01*
X118464637Y-107864577D01*
X118409913Y-108029723D01*
X118399500Y-108131644D01*
X118399500Y-108718355D01*
X118409913Y-108820276D01*
X118464637Y-108985422D01*
X118464642Y-108985433D01*
X118555971Y-109133499D01*
X118555974Y-109133503D01*
X118678996Y-109256525D01*
X118679000Y-109256528D01*
X118679703Y-109256962D01*
X118680083Y-109257385D01*
X118684664Y-109261007D01*
X118684045Y-109261789D01*
X118726428Y-109308910D01*
X118737649Y-109377872D01*
X118709806Y-109441954D01*
X118684544Y-109463842D01*
X118684664Y-109463993D01*
X118681315Y-109466640D01*
X118679703Y-109468038D01*
X118679000Y-109468471D01*
X118678996Y-109468474D01*
X118555974Y-109591496D01*
X118555971Y-109591500D01*
X118464642Y-109739566D01*
X118464637Y-109739577D01*
X118409913Y-109904723D01*
X118399500Y-110006644D01*
X118399500Y-110034217D01*
X118379815Y-110101256D01*
X118363181Y-110121898D01*
X116896899Y-111588181D01*
X116835576Y-111621666D01*
X116809218Y-111624500D01*
X116151257Y-111624500D01*
X116084218Y-111604815D01*
X116038463Y-111552011D01*
X116028519Y-111482853D01*
X116036694Y-111453052D01*
X116058462Y-111400500D01*
X116058463Y-111400499D01*
X116062049Y-111391841D01*
X116062049Y-111391840D01*
X116062051Y-111391836D01*
X116080009Y-111301555D01*
X116087199Y-111265409D01*
X116087199Y-111265407D01*
X116100500Y-111198542D01*
X116100500Y-111103391D01*
X116120185Y-111036352D01*
X116136819Y-111015710D01*
X116144026Y-111008503D01*
X116235362Y-110860425D01*
X116290087Y-110695275D01*
X116300500Y-110593348D01*
X116300500Y-110006652D01*
X116290087Y-109904725D01*
X116235362Y-109739575D01*
X116235358Y-109739569D01*
X116235357Y-109739566D01*
X116144028Y-109591500D01*
X116144025Y-109591496D01*
X116021004Y-109468475D01*
X116021003Y-109468474D01*
X116020301Y-109468041D01*
X116019921Y-109467618D01*
X116015336Y-109463993D01*
X116015955Y-109463209D01*
X115973575Y-109416098D01*
X115962349Y-109347136D01*
X115990188Y-109283052D01*
X116015455Y-109261157D01*
X116015336Y-109261007D01*
X116018687Y-109258356D01*
X116020299Y-109256959D01*
X116021003Y-109256526D01*
X116144026Y-109133503D01*
X116235362Y-108985425D01*
X116290087Y-108820275D01*
X116300500Y-108718348D01*
X116300500Y-108131652D01*
X116290087Y-108029725D01*
X116235362Y-107864575D01*
X116235358Y-107864569D01*
X116235357Y-107864566D01*
X116144028Y-107716500D01*
X116144025Y-107716496D01*
X116021003Y-107593474D01*
X116020999Y-107593471D01*
X115872933Y-107502142D01*
X115872927Y-107502139D01*
X115872925Y-107502138D01*
X115785496Y-107473167D01*
X115728051Y-107433394D01*
X115701228Y-107368878D01*
X115700500Y-107355461D01*
X115700500Y-107096257D01*
X115720185Y-107029218D01*
X115723924Y-107023900D01*
X115724532Y-107022845D01*
X115724536Y-107022841D01*
X115785044Y-106876762D01*
X115800500Y-106759361D01*
X115800499Y-106420640D01*
X115800499Y-106420638D01*
X115800499Y-106420636D01*
X115785045Y-106303244D01*
X115785044Y-106303242D01*
X115785044Y-106303238D01*
X115785042Y-106303233D01*
X115784738Y-106302096D01*
X115784737Y-106300906D01*
X115783984Y-106295179D01*
X115784737Y-106295079D01*
X115784737Y-106244919D01*
X115783983Y-106244820D01*
X115784737Y-106239092D01*
X115784737Y-106237905D01*
X115785040Y-106236771D01*
X115785044Y-106236762D01*
X115800500Y-106119361D01*
X115800499Y-105780640D01*
X115800499Y-105780636D01*
X115785046Y-105663246D01*
X115785044Y-105663241D01*
X115785044Y-105663238D01*
X115724536Y-105517159D01*
X115628282Y-105391718D01*
X115628280Y-105391717D01*
X115628280Y-105391716D01*
X115502841Y-105295464D01*
X115502838Y-105295462D01*
X115446973Y-105272322D01*
X115406745Y-105245442D01*
X113732001Y-103570698D01*
X113698516Y-103509375D01*
X113703500Y-103439683D01*
X113705121Y-103435564D01*
X113759878Y-103303368D01*
X113759879Y-103303366D01*
X113775000Y-103188511D01*
X113775000Y-102600000D01*
X113399500Y-102600000D01*
X113332461Y-102580315D01*
X113286706Y-102527511D01*
X113275500Y-102476000D01*
X113275500Y-102374000D01*
X113295185Y-102306961D01*
X113347989Y-102261206D01*
X113399500Y-102250000D01*
X113774999Y-102250000D01*
X113774999Y-101661486D01*
X113759881Y-101546640D01*
X113759877Y-101546628D01*
X113706745Y-101418354D01*
X113699276Y-101348885D01*
X113730551Y-101286406D01*
X113790640Y-101250754D01*
X113860465Y-101253248D01*
G37*
%TD.AperFunction*%
%TA.AperFunction,Conductor*%
G36*
X83001936Y-66370185D02*
G01*
X83047691Y-66422989D01*
X83057635Y-66492147D01*
X83028610Y-66555703D01*
X83009208Y-66573766D01*
X82917455Y-66642452D01*
X82917452Y-66642455D01*
X82831206Y-66757664D01*
X82831202Y-66757671D01*
X82780908Y-66892517D01*
X82774501Y-66952116D01*
X82774500Y-66952135D01*
X82774500Y-68747870D01*
X82774501Y-68747876D01*
X82780908Y-68807483D01*
X82831202Y-68942328D01*
X82831206Y-68942335D01*
X82917452Y-69057544D01*
X82917455Y-69057547D01*
X83032664Y-69143793D01*
X83032671Y-69143797D01*
X83164081Y-69192810D01*
X83220015Y-69234681D01*
X83244432Y-69300145D01*
X83229580Y-69368418D01*
X83208430Y-69396673D01*
X83086503Y-69518600D01*
X82950965Y-69712169D01*
X82950964Y-69712171D01*
X82851098Y-69926335D01*
X82851094Y-69926344D01*
X82789938Y-70154586D01*
X82789936Y-70154596D01*
X82769341Y-70389999D01*
X82769341Y-70390000D01*
X82789936Y-70625403D01*
X82789938Y-70625413D01*
X82851094Y-70853655D01*
X82851096Y-70853659D01*
X82851097Y-70853663D01*
X82917857Y-70996829D01*
X82950965Y-71067830D01*
X82950967Y-71067834D01*
X83050187Y-71209534D01*
X83086501Y-71261396D01*
X83086506Y-71261402D01*
X83253597Y-71428493D01*
X83253603Y-71428498D01*
X83439158Y-71558425D01*
X83482783Y-71613002D01*
X83489977Y-71682500D01*
X83458454Y-71744855D01*
X83439158Y-71761575D01*
X83253597Y-71891505D01*
X83086505Y-72058597D01*
X82950965Y-72252169D01*
X82950964Y-72252171D01*
X82851098Y-72466335D01*
X82851094Y-72466344D01*
X82789938Y-72694586D01*
X82789936Y-72694596D01*
X82769341Y-72929999D01*
X82769341Y-72930000D01*
X82789936Y-73165403D01*
X82789938Y-73165413D01*
X82851094Y-73393655D01*
X82851096Y-73393659D01*
X82851097Y-73393663D01*
X82934155Y-73571781D01*
X82950965Y-73607830D01*
X82950967Y-73607834D01*
X83029758Y-73720358D01*
X83086501Y-73801396D01*
X83086506Y-73801402D01*
X83253597Y-73968493D01*
X83253603Y-73968498D01*
X83439158Y-74098425D01*
X83482783Y-74153002D01*
X83489977Y-74222500D01*
X83458454Y-74284855D01*
X83439158Y-74301575D01*
X83253597Y-74431505D01*
X83086505Y-74598597D01*
X82950965Y-74792169D01*
X82950964Y-74792171D01*
X82851098Y-75006335D01*
X82851094Y-75006344D01*
X82789938Y-75234586D01*
X82789936Y-75234596D01*
X82769341Y-75469999D01*
X82769341Y-75470000D01*
X82789936Y-75705403D01*
X82789938Y-75705413D01*
X82851094Y-75933655D01*
X82851096Y-75933659D01*
X82851097Y-75933663D01*
X82880833Y-75997431D01*
X82950965Y-76147830D01*
X82950967Y-76147834D01*
X83059281Y-76302521D01*
X83086501Y-76341396D01*
X83086506Y-76341402D01*
X83253597Y-76508493D01*
X83253603Y-76508498D01*
X83439158Y-76638425D01*
X83482783Y-76693002D01*
X83489977Y-76762500D01*
X83458454Y-76824855D01*
X83439158Y-76841575D01*
X83253597Y-76971505D01*
X83086505Y-77138597D01*
X82950965Y-77332169D01*
X82950964Y-77332171D01*
X82851098Y-77546335D01*
X82851094Y-77546344D01*
X82789938Y-77774586D01*
X82789936Y-77774596D01*
X82769341Y-78009999D01*
X82769341Y-78010000D01*
X82789936Y-78245403D01*
X82789938Y-78245413D01*
X82851094Y-78473655D01*
X82851096Y-78473659D01*
X82851097Y-78473663D01*
X82903967Y-78587043D01*
X82950965Y-78687830D01*
X82950967Y-78687834D01*
X83043641Y-78820185D01*
X83086501Y-78881396D01*
X83086506Y-78881402D01*
X83253597Y-79048493D01*
X83253603Y-79048498D01*
X83439158Y-79178425D01*
X83482783Y-79233002D01*
X83489977Y-79302500D01*
X83458454Y-79364855D01*
X83439158Y-79381575D01*
X83253597Y-79511505D01*
X83086505Y-79678597D01*
X82950965Y-79872169D01*
X82950964Y-79872171D01*
X82851098Y-80086335D01*
X82851094Y-80086344D01*
X82789938Y-80314586D01*
X82789936Y-80314596D01*
X82769341Y-80549999D01*
X82769341Y-80550000D01*
X82789936Y-80785403D01*
X82789938Y-80785413D01*
X82851094Y-81013655D01*
X82851096Y-81013659D01*
X82851097Y-81013663D01*
X82904545Y-81128282D01*
X82950965Y-81227830D01*
X82950967Y-81227834D01*
X83059281Y-81382521D01*
X83086501Y-81421396D01*
X83086506Y-81421402D01*
X83253597Y-81588493D01*
X83253603Y-81588498D01*
X83439158Y-81718425D01*
X83482783Y-81773002D01*
X83489977Y-81842500D01*
X83458454Y-81904855D01*
X83439158Y-81921575D01*
X83253597Y-82051505D01*
X83086505Y-82218597D01*
X82950965Y-82412169D01*
X82950964Y-82412171D01*
X82851098Y-82626335D01*
X82851094Y-82626344D01*
X82789938Y-82854586D01*
X82789936Y-82854596D01*
X82769341Y-83089999D01*
X82769341Y-83090000D01*
X82789936Y-83325403D01*
X82789938Y-83325413D01*
X82851094Y-83553655D01*
X82851096Y-83553659D01*
X82851097Y-83553663D01*
X82864273Y-83581919D01*
X82950965Y-83767830D01*
X82950967Y-83767834D01*
X83001220Y-83839602D01*
X83086501Y-83961396D01*
X83086506Y-83961402D01*
X83253597Y-84128493D01*
X83253603Y-84128498D01*
X83439158Y-84258425D01*
X83482783Y-84313002D01*
X83489977Y-84382500D01*
X83458454Y-84444855D01*
X83439158Y-84461575D01*
X83253597Y-84591505D01*
X83086505Y-84758597D01*
X82950965Y-84952169D01*
X82950964Y-84952171D01*
X82851098Y-85166335D01*
X82851094Y-85166344D01*
X82789938Y-85394586D01*
X82789936Y-85394596D01*
X82769341Y-85629999D01*
X82769341Y-85630000D01*
X82789936Y-85865403D01*
X82789938Y-85865413D01*
X82851094Y-86093655D01*
X82851096Y-86093659D01*
X82851097Y-86093663D01*
X82923560Y-86249059D01*
X82950965Y-86307830D01*
X82950967Y-86307834D01*
X83086501Y-86501395D01*
X83086506Y-86501402D01*
X83253597Y-86668493D01*
X83253603Y-86668498D01*
X83439158Y-86798425D01*
X83482783Y-86853002D01*
X83489977Y-86922500D01*
X83458454Y-86984855D01*
X83439158Y-87001575D01*
X83253597Y-87131505D01*
X83086505Y-87298597D01*
X82950965Y-87492169D01*
X82950964Y-87492171D01*
X82851098Y-87706335D01*
X82851094Y-87706344D01*
X82789938Y-87934586D01*
X82789936Y-87934596D01*
X82769341Y-88169999D01*
X82769341Y-88170000D01*
X82789936Y-88405403D01*
X82789938Y-88405413D01*
X82851094Y-88633655D01*
X82851096Y-88633659D01*
X82851097Y-88633663D01*
X82916872Y-88774718D01*
X82950965Y-88847830D01*
X82950967Y-88847834D01*
X83059281Y-89002521D01*
X83086501Y-89041396D01*
X83086506Y-89041402D01*
X83253597Y-89208493D01*
X83253603Y-89208498D01*
X83439158Y-89338425D01*
X83482783Y-89393002D01*
X83489977Y-89462500D01*
X83458454Y-89524855D01*
X83439158Y-89541575D01*
X83253597Y-89671505D01*
X83086505Y-89838597D01*
X82950965Y-90032169D01*
X82950964Y-90032171D01*
X82851098Y-90246335D01*
X82851094Y-90246344D01*
X82789938Y-90474586D01*
X82789936Y-90474596D01*
X82769341Y-90709999D01*
X82769341Y-90710000D01*
X82789936Y-90945403D01*
X82789938Y-90945413D01*
X82851094Y-91173655D01*
X82851096Y-91173659D01*
X82851097Y-91173663D01*
X82950965Y-91387830D01*
X83086501Y-91581396D01*
X83086506Y-91581402D01*
X83253597Y-91748493D01*
X83253603Y-91748498D01*
X83439158Y-91878425D01*
X83482783Y-91933002D01*
X83489977Y-92002500D01*
X83458454Y-92064855D01*
X83439158Y-92081575D01*
X83253597Y-92211505D01*
X83086505Y-92378597D01*
X82950965Y-92572169D01*
X82950964Y-92572171D01*
X82851098Y-92786335D01*
X82851094Y-92786344D01*
X82789938Y-93014586D01*
X82789936Y-93014596D01*
X82769341Y-93249999D01*
X82769341Y-93250000D01*
X82789936Y-93485403D01*
X82789938Y-93485413D01*
X82851094Y-93713655D01*
X82851096Y-93713659D01*
X82851097Y-93713663D01*
X82892354Y-93802139D01*
X82950965Y-93927830D01*
X82950967Y-93927834D01*
X83003149Y-94002357D01*
X83086501Y-94121396D01*
X83086506Y-94121402D01*
X83253597Y-94288493D01*
X83253603Y-94288498D01*
X83439158Y-94418425D01*
X83482783Y-94473002D01*
X83489977Y-94542500D01*
X83458454Y-94604855D01*
X83439158Y-94621575D01*
X83253597Y-94751505D01*
X83086505Y-94918597D01*
X82950965Y-95112169D01*
X82950964Y-95112171D01*
X82851098Y-95326335D01*
X82851094Y-95326344D01*
X82789938Y-95554586D01*
X82789936Y-95554596D01*
X82769341Y-95789999D01*
X82769341Y-95790000D01*
X82789936Y-96025403D01*
X82789938Y-96025413D01*
X82851094Y-96253655D01*
X82851096Y-96253659D01*
X82851097Y-96253663D01*
X82909912Y-96379792D01*
X82950965Y-96467830D01*
X82950967Y-96467834D01*
X83018809Y-96564721D01*
X83086501Y-96661396D01*
X83086506Y-96661402D01*
X83253597Y-96828493D01*
X83253603Y-96828498D01*
X83439158Y-96958425D01*
X83482783Y-97013002D01*
X83489977Y-97082500D01*
X83458454Y-97144855D01*
X83439158Y-97161575D01*
X83253597Y-97291505D01*
X83086505Y-97458597D01*
X82950965Y-97652169D01*
X82950964Y-97652171D01*
X82851098Y-97866335D01*
X82851094Y-97866344D01*
X82789938Y-98094586D01*
X82789936Y-98094596D01*
X82769341Y-98329999D01*
X82769341Y-98330000D01*
X82789936Y-98565403D01*
X82789938Y-98565413D01*
X82851094Y-98793655D01*
X82851096Y-98793659D01*
X82851097Y-98793663D01*
X82931004Y-98965023D01*
X82950965Y-99007830D01*
X82950967Y-99007834D01*
X83006145Y-99086635D01*
X83086501Y-99201396D01*
X83086506Y-99201402D01*
X83253597Y-99368493D01*
X83253603Y-99368498D01*
X83439158Y-99498425D01*
X83482783Y-99553002D01*
X83489977Y-99622500D01*
X83458454Y-99684855D01*
X83439158Y-99701575D01*
X83253597Y-99831505D01*
X83086505Y-99998597D01*
X82950965Y-100192169D01*
X82950964Y-100192171D01*
X82851098Y-100406335D01*
X82851094Y-100406344D01*
X82789938Y-100634586D01*
X82789936Y-100634596D01*
X82769341Y-100869999D01*
X82769341Y-100870000D01*
X82789936Y-101105403D01*
X82789938Y-101105413D01*
X82851094Y-101333655D01*
X82851096Y-101333659D01*
X82851097Y-101333663D01*
X82931004Y-101505023D01*
X82950965Y-101547830D01*
X82950967Y-101547834D01*
X83030548Y-101661486D01*
X83086501Y-101741396D01*
X83086506Y-101741402D01*
X83253597Y-101908493D01*
X83253603Y-101908498D01*
X83439158Y-102038425D01*
X83482783Y-102093002D01*
X83489977Y-102162500D01*
X83458454Y-102224855D01*
X83439158Y-102241575D01*
X83253597Y-102371505D01*
X83086505Y-102538597D01*
X82950965Y-102732169D01*
X82950964Y-102732171D01*
X82851098Y-102946335D01*
X82851094Y-102946344D01*
X82789938Y-103174586D01*
X82789936Y-103174596D01*
X82769341Y-103409999D01*
X82769341Y-103410000D01*
X82789936Y-103645403D01*
X82789938Y-103645413D01*
X82851094Y-103873655D01*
X82851096Y-103873659D01*
X82851097Y-103873663D01*
X82931004Y-104045023D01*
X82950965Y-104087830D01*
X82950967Y-104087834D01*
X82996733Y-104153194D01*
X83086501Y-104281396D01*
X83086506Y-104281402D01*
X83253597Y-104448493D01*
X83253603Y-104448498D01*
X83439158Y-104578425D01*
X83482783Y-104633002D01*
X83489977Y-104702500D01*
X83458454Y-104764855D01*
X83439158Y-104781575D01*
X83253597Y-104911505D01*
X83086505Y-105078597D01*
X82950965Y-105272169D01*
X82950964Y-105272171D01*
X82851098Y-105486335D01*
X82851094Y-105486344D01*
X82789938Y-105714586D01*
X82789936Y-105714596D01*
X82769341Y-105949999D01*
X82769341Y-105950000D01*
X82789936Y-106185403D01*
X82789938Y-106185413D01*
X82851094Y-106413655D01*
X82851096Y-106413659D01*
X82851097Y-106413663D01*
X82855000Y-106422032D01*
X82950965Y-106627830D01*
X82950967Y-106627834D01*
X83025558Y-106734360D01*
X83086501Y-106821396D01*
X83086506Y-106821402D01*
X83253597Y-106988493D01*
X83253603Y-106988498D01*
X83439158Y-107118425D01*
X83482783Y-107173002D01*
X83489977Y-107242500D01*
X83458454Y-107304855D01*
X83439158Y-107321575D01*
X83253597Y-107451505D01*
X83086505Y-107618597D01*
X82950965Y-107812169D01*
X82950964Y-107812171D01*
X82851098Y-108026335D01*
X82851094Y-108026344D01*
X82789938Y-108254586D01*
X82789936Y-108254596D01*
X82769341Y-108489999D01*
X82769341Y-108490000D01*
X82789936Y-108725403D01*
X82789938Y-108725413D01*
X82851094Y-108953655D01*
X82851096Y-108953659D01*
X82851097Y-108953663D01*
X82919332Y-109099992D01*
X82950965Y-109167830D01*
X82950967Y-109167834D01*
X83013072Y-109256528D01*
X83086501Y-109361396D01*
X83086506Y-109361402D01*
X83253597Y-109528493D01*
X83253603Y-109528498D01*
X83439158Y-109658425D01*
X83482783Y-109713002D01*
X83489977Y-109782500D01*
X83458454Y-109844855D01*
X83439158Y-109861575D01*
X83253597Y-109991505D01*
X83086505Y-110158597D01*
X82950965Y-110352169D01*
X82950964Y-110352171D01*
X82851098Y-110566335D01*
X82851094Y-110566344D01*
X82789938Y-110794586D01*
X82789936Y-110794596D01*
X82769341Y-111029999D01*
X82769341Y-111030000D01*
X82789936Y-111265403D01*
X82789938Y-111265413D01*
X82851094Y-111493655D01*
X82851096Y-111493659D01*
X82851097Y-111493663D01*
X82931004Y-111665023D01*
X82950965Y-111707830D01*
X82950967Y-111707834D01*
X83014349Y-111798352D01*
X83086501Y-111901396D01*
X83086506Y-111901402D01*
X83253597Y-112068493D01*
X83253603Y-112068498D01*
X83439158Y-112198425D01*
X83482783Y-112253002D01*
X83489977Y-112322500D01*
X83458454Y-112384855D01*
X83439158Y-112401575D01*
X83253597Y-112531505D01*
X83086505Y-112698597D01*
X82950965Y-112892169D01*
X82950964Y-112892171D01*
X82851098Y-113106335D01*
X82851094Y-113106344D01*
X82789938Y-113334586D01*
X82789936Y-113334596D01*
X82769341Y-113569999D01*
X82769341Y-113570000D01*
X82789936Y-113805403D01*
X82789938Y-113805413D01*
X82851094Y-114033655D01*
X82851096Y-114033659D01*
X82851097Y-114033663D01*
X82896789Y-114131649D01*
X82950965Y-114247830D01*
X82950967Y-114247834D01*
X83059281Y-114402521D01*
X83086501Y-114441396D01*
X83086506Y-114441402D01*
X83253597Y-114608493D01*
X83253603Y-114608498D01*
X83439158Y-114738425D01*
X83482783Y-114793002D01*
X83489977Y-114862500D01*
X83458454Y-114924855D01*
X83439158Y-114941575D01*
X83253597Y-115071505D01*
X83086505Y-115238597D01*
X82950965Y-115432169D01*
X82950964Y-115432171D01*
X82851098Y-115646335D01*
X82851094Y-115646344D01*
X82789938Y-115874586D01*
X82789936Y-115874596D01*
X82769341Y-116109999D01*
X82769341Y-116110000D01*
X82789936Y-116345403D01*
X82789938Y-116345413D01*
X82851094Y-116573655D01*
X82851096Y-116573659D01*
X82851097Y-116573663D01*
X82878389Y-116632190D01*
X82950965Y-116787830D01*
X82950967Y-116787834D01*
X83059281Y-116942521D01*
X83086505Y-116981401D01*
X83253599Y-117148495D01*
X83350384Y-117216265D01*
X83447165Y-117284032D01*
X83447167Y-117284033D01*
X83447170Y-117284035D01*
X83661337Y-117383903D01*
X83889592Y-117445063D01*
X84077918Y-117461539D01*
X84124999Y-117465659D01*
X84125000Y-117465659D01*
X84125001Y-117465659D01*
X84164234Y-117462226D01*
X84360408Y-117445063D01*
X84588663Y-117383903D01*
X84802830Y-117284035D01*
X84996401Y-117148495D01*
X85163495Y-116981401D01*
X85293425Y-116795842D01*
X85348002Y-116752217D01*
X85417500Y-116745023D01*
X85479855Y-116776546D01*
X85496575Y-116795842D01*
X85626500Y-116981395D01*
X85626505Y-116981401D01*
X85793599Y-117148495D01*
X85890384Y-117216265D01*
X85987165Y-117284032D01*
X85987167Y-117284033D01*
X85987170Y-117284035D01*
X86201337Y-117383903D01*
X86429592Y-117445063D01*
X86617918Y-117461539D01*
X86664999Y-117465659D01*
X86665000Y-117465659D01*
X86665001Y-117465659D01*
X86704234Y-117462226D01*
X86900408Y-117445063D01*
X87128663Y-117383903D01*
X87342830Y-117284035D01*
X87536401Y-117148495D01*
X87703495Y-116981401D01*
X87839035Y-116787830D01*
X87938903Y-116573663D01*
X88000063Y-116345408D01*
X88020659Y-116110000D01*
X88000063Y-115874592D01*
X87946583Y-115675000D01*
X108550000Y-115675000D01*
X108550000Y-116322844D01*
X108556401Y-116382372D01*
X108556403Y-116382379D01*
X108606645Y-116517086D01*
X108606649Y-116517093D01*
X108692809Y-116632187D01*
X108692812Y-116632190D01*
X108807906Y-116718350D01*
X108807913Y-116718354D01*
X108942620Y-116768596D01*
X108942627Y-116768598D01*
X109002155Y-116774999D01*
X109002172Y-116775000D01*
X109800000Y-116775000D01*
X109800000Y-115675000D01*
X108550000Y-115675000D01*
X87946583Y-115675000D01*
X87938903Y-115646337D01*
X87839035Y-115432171D01*
X87833425Y-115424158D01*
X87703494Y-115238597D01*
X87536402Y-115071506D01*
X87536396Y-115071501D01*
X87350842Y-114941575D01*
X87307217Y-114886998D01*
X87300023Y-114817500D01*
X87331546Y-114755145D01*
X87350842Y-114738425D01*
X87373026Y-114722891D01*
X87536401Y-114608495D01*
X87703495Y-114441401D01*
X87839035Y-114247830D01*
X87938903Y-114033663D01*
X88000063Y-113805408D01*
X88020659Y-113570000D01*
X88000063Y-113334592D01*
X87938903Y-113106337D01*
X87839035Y-112892171D01*
X87833425Y-112884158D01*
X87703494Y-112698597D01*
X87536402Y-112531506D01*
X87536396Y-112531501D01*
X87350842Y-112401575D01*
X87307217Y-112346998D01*
X87300023Y-112277500D01*
X87331546Y-112215145D01*
X87350842Y-112198425D01*
X87444277Y-112133001D01*
X87536401Y-112068495D01*
X87703495Y-111901401D01*
X87839035Y-111707830D01*
X87912633Y-111550000D01*
X106061210Y-111550000D01*
X106062854Y-111570910D01*
X106107968Y-111726195D01*
X106190278Y-111865374D01*
X106190285Y-111865383D01*
X106304616Y-111979714D01*
X106304625Y-111979721D01*
X106443804Y-112062031D01*
X106590000Y-112104504D01*
X106590000Y-111550000D01*
X106061210Y-111550000D01*
X87912633Y-111550000D01*
X87938903Y-111493663D01*
X88000063Y-111265408D01*
X88020659Y-111030000D01*
X88000063Y-110794592D01*
X87946142Y-110593355D01*
X87938905Y-110566344D01*
X87938904Y-110566343D01*
X87938903Y-110566337D01*
X87839035Y-110352171D01*
X87833425Y-110344158D01*
X87703494Y-110158597D01*
X87536402Y-109991506D01*
X87536396Y-109991501D01*
X87350842Y-109861575D01*
X87307217Y-109806998D01*
X87300023Y-109737500D01*
X87331546Y-109675145D01*
X87350842Y-109658425D01*
X87428800Y-109603838D01*
X87536401Y-109528495D01*
X87703495Y-109361401D01*
X87839035Y-109167830D01*
X87938903Y-108953663D01*
X88000063Y-108725408D01*
X88020659Y-108490000D01*
X88000063Y-108254592D01*
X87938903Y-108026337D01*
X87839035Y-107812171D01*
X87833425Y-107804158D01*
X87703494Y-107618597D01*
X87536402Y-107451506D01*
X87536396Y-107451501D01*
X87350842Y-107321575D01*
X87307217Y-107266998D01*
X87300023Y-107197500D01*
X87331546Y-107135145D01*
X87350842Y-107118425D01*
X87432950Y-107060932D01*
X87536401Y-106988495D01*
X87703495Y-106821401D01*
X87839035Y-106627830D01*
X87938903Y-106413663D01*
X88000063Y-106185408D01*
X88020659Y-105950000D01*
X88019492Y-105936667D01*
X88016315Y-105900348D01*
X88000063Y-105714592D01*
X87938903Y-105486337D01*
X87839035Y-105272171D01*
X87833425Y-105264158D01*
X87703494Y-105078597D01*
X87536402Y-104911506D01*
X87536396Y-104911501D01*
X87350842Y-104781575D01*
X87307217Y-104726998D01*
X87300023Y-104657500D01*
X87331546Y-104595145D01*
X87350842Y-104578425D01*
X87457050Y-104504057D01*
X87536401Y-104448495D01*
X87703495Y-104281401D01*
X87839035Y-104087830D01*
X87938903Y-103873663D01*
X88000063Y-103645408D01*
X88020659Y-103410000D01*
X88000063Y-103174592D01*
X87938903Y-102946337D01*
X87839035Y-102732171D01*
X87833425Y-102724158D01*
X87703494Y-102538597D01*
X87536402Y-102371506D01*
X87536396Y-102371501D01*
X87350842Y-102241575D01*
X87307217Y-102186998D01*
X87300023Y-102117500D01*
X87331546Y-102055145D01*
X87350842Y-102038425D01*
X87475566Y-101951092D01*
X87536401Y-101908495D01*
X87703495Y-101741401D01*
X87839035Y-101547830D01*
X87938903Y-101333663D01*
X88000063Y-101105408D01*
X88020659Y-100870000D01*
X88000063Y-100634592D01*
X87938903Y-100406337D01*
X87839035Y-100192171D01*
X87833425Y-100184158D01*
X87703494Y-99998597D01*
X87536402Y-99831506D01*
X87536396Y-99831501D01*
X87350842Y-99701575D01*
X87307217Y-99646998D01*
X87300023Y-99577500D01*
X87331546Y-99515145D01*
X87350842Y-99498425D01*
X87436256Y-99438617D01*
X87536401Y-99368495D01*
X87703495Y-99201401D01*
X87839035Y-99007830D01*
X87938903Y-98793663D01*
X88000063Y-98565408D01*
X88020659Y-98330000D01*
X88000063Y-98094592D01*
X87938903Y-97866337D01*
X87839035Y-97652171D01*
X87833425Y-97644158D01*
X87703494Y-97458597D01*
X87536402Y-97291506D01*
X87536396Y-97291501D01*
X87350842Y-97161575D01*
X87307217Y-97106998D01*
X87300023Y-97037500D01*
X87331546Y-96975145D01*
X87350842Y-96958425D01*
X87425908Y-96905863D01*
X87536401Y-96828495D01*
X87703495Y-96661401D01*
X87839035Y-96467830D01*
X87938903Y-96253663D01*
X88000063Y-96025408D01*
X88020659Y-95790000D01*
X88000063Y-95554592D01*
X87938903Y-95326337D01*
X87839035Y-95112171D01*
X87836230Y-95108164D01*
X87703494Y-94918597D01*
X87536402Y-94751506D01*
X87536396Y-94751501D01*
X87350842Y-94621575D01*
X87307217Y-94566998D01*
X87300023Y-94497500D01*
X87331546Y-94435145D01*
X87350842Y-94418425D01*
X87455776Y-94344949D01*
X87536401Y-94288495D01*
X87703495Y-94121401D01*
X87839035Y-93927830D01*
X87938903Y-93713663D01*
X88000063Y-93485408D01*
X88020659Y-93250000D01*
X88000063Y-93014592D01*
X87948079Y-92820583D01*
X87938905Y-92786344D01*
X87938904Y-92786343D01*
X87938903Y-92786337D01*
X87839035Y-92572171D01*
X87833425Y-92564158D01*
X87703494Y-92378597D01*
X87536402Y-92211506D01*
X87536396Y-92211501D01*
X87350842Y-92081575D01*
X87307217Y-92026998D01*
X87300023Y-91957500D01*
X87331546Y-91895145D01*
X87350842Y-91878425D01*
X87436606Y-91818372D01*
X87536401Y-91748495D01*
X87703495Y-91581401D01*
X87839035Y-91387830D01*
X87938903Y-91173663D01*
X88000063Y-90945408D01*
X88013064Y-90796802D01*
X88038516Y-90731735D01*
X88095107Y-90690756D01*
X88164869Y-90686878D01*
X88224273Y-90719930D01*
X88363181Y-90858838D01*
X88396666Y-90920161D01*
X88399500Y-90946519D01*
X88399500Y-101631006D01*
X88399500Y-101768994D01*
X88399500Y-101768996D01*
X88399499Y-101768996D01*
X88426418Y-101904322D01*
X88426421Y-101904332D01*
X88479222Y-102031807D01*
X88555887Y-102146545D01*
X88555888Y-102146546D01*
X96013181Y-109603838D01*
X96046666Y-109665161D01*
X96049500Y-109691519D01*
X96049500Y-110156287D01*
X96082754Y-110366243D01*
X96145049Y-110557967D01*
X96148444Y-110568414D01*
X96244951Y-110757820D01*
X96369890Y-110929786D01*
X96520213Y-111080109D01*
X96692179Y-111205048D01*
X96692181Y-111205049D01*
X96692184Y-111205051D01*
X96881588Y-111301557D01*
X97083757Y-111367246D01*
X97293713Y-111400500D01*
X97293714Y-111400500D01*
X97506286Y-111400500D01*
X97506287Y-111400500D01*
X97716243Y-111367246D01*
X97918412Y-111301557D01*
X98107816Y-111205051D01*
X98205310Y-111134218D01*
X98279784Y-111080110D01*
X98279784Y-111080109D01*
X98279792Y-111080104D01*
X98418604Y-110941291D01*
X98479923Y-110907809D01*
X98549615Y-110912793D01*
X98605549Y-110954664D01*
X98611821Y-110963878D01*
X98615185Y-110969333D01*
X98615186Y-110969334D01*
X98707288Y-111118656D01*
X98831344Y-111242712D01*
X98980666Y-111334814D01*
X99147203Y-111389999D01*
X99249991Y-111400500D01*
X100550008Y-111400499D01*
X100652797Y-111389999D01*
X100819334Y-111334814D01*
X100968656Y-111242712D01*
X101092712Y-111118656D01*
X101135060Y-111049999D01*
X106061209Y-111049999D01*
X106061210Y-111050000D01*
X106590000Y-111050000D01*
X106590000Y-110495494D01*
X106589998Y-110495493D01*
X106443809Y-110537965D01*
X106443806Y-110537967D01*
X106304625Y-110620278D01*
X106304616Y-110620285D01*
X106190285Y-110734616D01*
X106190278Y-110734625D01*
X106107968Y-110873804D01*
X106107966Y-110873809D01*
X106062855Y-111029081D01*
X106062854Y-111029087D01*
X106061209Y-111049999D01*
X101135060Y-111049999D01*
X101184814Y-110969334D01*
X101239999Y-110802797D01*
X101250500Y-110700009D01*
X101250499Y-109099992D01*
X101239999Y-108997203D01*
X101184814Y-108830666D01*
X101092712Y-108681344D01*
X100968656Y-108557288D01*
X100840294Y-108478114D01*
X100819336Y-108465187D01*
X100819331Y-108465185D01*
X100802024Y-108459450D01*
X100652797Y-108410001D01*
X100652795Y-108410000D01*
X100550016Y-108399500D01*
X100550009Y-108399500D01*
X100141518Y-108399500D01*
X100074479Y-108379815D01*
X100053837Y-108363181D01*
X96702836Y-105012180D01*
X96669351Y-104950857D01*
X96674335Y-104881165D01*
X96716207Y-104825232D01*
X96781671Y-104800815D01*
X96790489Y-104800499D01*
X98050008Y-104800499D01*
X98152797Y-104789999D01*
X98319334Y-104734814D01*
X98468656Y-104642712D01*
X98592712Y-104518656D01*
X98684814Y-104369334D01*
X98684814Y-104369331D01*
X98688448Y-104363441D01*
X98740395Y-104316716D01*
X98809358Y-104305493D01*
X98873440Y-104333336D01*
X98881668Y-104340856D01*
X99020535Y-104479723D01*
X99020540Y-104479727D01*
X99192442Y-104604620D01*
X99381782Y-104701095D01*
X99583871Y-104766757D01*
X99650000Y-104777231D01*
X99650000Y-103733012D01*
X99707007Y-103765925D01*
X99834174Y-103800000D01*
X99965826Y-103800000D01*
X100092993Y-103765925D01*
X100150000Y-103733012D01*
X100150000Y-104777230D01*
X100216126Y-104766757D01*
X100216129Y-104766757D01*
X100418217Y-104701095D01*
X100607557Y-104604620D01*
X100779459Y-104479727D01*
X100779464Y-104479723D01*
X100929723Y-104329464D01*
X100929727Y-104329459D01*
X101054620Y-104157557D01*
X101151095Y-103968217D01*
X101216757Y-103766130D01*
X101216757Y-103766127D01*
X101250000Y-103556246D01*
X101250000Y-103550000D01*
X100333012Y-103550000D01*
X100365925Y-103492993D01*
X100400000Y-103365826D01*
X100400000Y-103234174D01*
X100365925Y-103107007D01*
X100333012Y-103050000D01*
X101250000Y-103050000D01*
X101250000Y-103043753D01*
X101216757Y-102833872D01*
X101216757Y-102833869D01*
X101151095Y-102631782D01*
X101054620Y-102442442D01*
X100929727Y-102270540D01*
X100929723Y-102270535D01*
X100779464Y-102120276D01*
X100779459Y-102120272D01*
X100607557Y-101995379D01*
X100418215Y-101898903D01*
X100216124Y-101833241D01*
X100150000Y-101822768D01*
X100150000Y-102866988D01*
X100092993Y-102834075D01*
X99965826Y-102800000D01*
X99834174Y-102800000D01*
X99707007Y-102834075D01*
X99650000Y-102866988D01*
X99650000Y-101822768D01*
X99649999Y-101822768D01*
X99583875Y-101833241D01*
X99381784Y-101898903D01*
X99192442Y-101995379D01*
X99020541Y-102120271D01*
X98881668Y-102259144D01*
X98820345Y-102292628D01*
X98750653Y-102287644D01*
X98694720Y-102245772D01*
X98688448Y-102236558D01*
X98657879Y-102186998D01*
X98592712Y-102081344D01*
X98468656Y-101957288D01*
X98319334Y-101865186D01*
X98185495Y-101820836D01*
X98128051Y-101781063D01*
X98101228Y-101716547D01*
X98100500Y-101703130D01*
X98100500Y-97496869D01*
X98120185Y-97429830D01*
X98172989Y-97384075D01*
X98185486Y-97379166D01*
X98319334Y-97334814D01*
X98468656Y-97242712D01*
X98592712Y-97118656D01*
X98684814Y-96969334D01*
X98684814Y-96969331D01*
X98688448Y-96963441D01*
X98740395Y-96916716D01*
X98809358Y-96905493D01*
X98873440Y-96933336D01*
X98881668Y-96940856D01*
X99020535Y-97079723D01*
X99020540Y-97079727D01*
X99192442Y-97204620D01*
X99381782Y-97301095D01*
X99583871Y-97366757D01*
X99650000Y-97377231D01*
X99650000Y-96333012D01*
X99707007Y-96365925D01*
X99834174Y-96400000D01*
X99965826Y-96400000D01*
X100092993Y-96365925D01*
X100150000Y-96333012D01*
X100150000Y-97377230D01*
X100216126Y-97366757D01*
X100216129Y-97366757D01*
X100418217Y-97301095D01*
X100607557Y-97204620D01*
X100779459Y-97079727D01*
X100779464Y-97079723D01*
X100929723Y-96929464D01*
X100929727Y-96929459D01*
X101054620Y-96757557D01*
X101151095Y-96568217D01*
X101216757Y-96366130D01*
X101216757Y-96366127D01*
X101250000Y-96156246D01*
X101250000Y-96150000D01*
X100333012Y-96150000D01*
X100365925Y-96092993D01*
X100400000Y-95965826D01*
X100400000Y-95834174D01*
X100365925Y-95707007D01*
X100333012Y-95650000D01*
X101250000Y-95650000D01*
X101250000Y-95643753D01*
X101227000Y-95498541D01*
X104699500Y-95498541D01*
X104704123Y-95521780D01*
X104704123Y-95521784D01*
X104724438Y-95623914D01*
X104737946Y-95691828D01*
X104737949Y-95691837D01*
X104813364Y-95873907D01*
X104813371Y-95873920D01*
X104922859Y-96037780D01*
X104922860Y-96037781D01*
X104922861Y-96037782D01*
X105062218Y-96177139D01*
X105062219Y-96177139D01*
X105069286Y-96184206D01*
X105069285Y-96184206D01*
X105069289Y-96184209D01*
X106587215Y-97702137D01*
X106587219Y-97702140D01*
X106751079Y-97811628D01*
X106751085Y-97811631D01*
X106751086Y-97811632D01*
X106933165Y-97887052D01*
X107094389Y-97919121D01*
X107126457Y-97925499D01*
X107126458Y-97925500D01*
X107126459Y-97925500D01*
X107126460Y-97925500D01*
X107323541Y-97925500D01*
X107854216Y-97925500D01*
X107921255Y-97945185D01*
X107941897Y-97961819D01*
X107964037Y-97983959D01*
X107964059Y-97983979D01*
X108814735Y-98834655D01*
X108814764Y-98834686D01*
X108957214Y-98977136D01*
X108957218Y-98977139D01*
X109121079Y-99086628D01*
X109121092Y-99086635D01*
X109249833Y-99139961D01*
X109292744Y-99157735D01*
X109303164Y-99162051D01*
X109399812Y-99181275D01*
X109448135Y-99190887D01*
X109496458Y-99200500D01*
X109496459Y-99200500D01*
X109496460Y-99200500D01*
X109693540Y-99200500D01*
X110421591Y-99200500D01*
X110488630Y-99220185D01*
X110519965Y-99249012D01*
X110593133Y-99344367D01*
X110715963Y-99438617D01*
X110715962Y-99438617D01*
X110794189Y-99471019D01*
X110859001Y-99497865D01*
X110973960Y-99513000D01*
X110973967Y-99513000D01*
X111226033Y-99513000D01*
X111226040Y-99513000D01*
X111333821Y-99498810D01*
X111366179Y-99498810D01*
X111473960Y-99513000D01*
X111473967Y-99513000D01*
X111726033Y-99513000D01*
X111726040Y-99513000D01*
X111833821Y-99498810D01*
X111866179Y-99498810D01*
X111973960Y-99513000D01*
X112087403Y-99513000D01*
X112154442Y-99532685D01*
X112175084Y-99549319D01*
X112238349Y-99612584D01*
X112238355Y-99612589D01*
X113604278Y-100978512D01*
X113637763Y-101039835D01*
X113632779Y-101109527D01*
X113590907Y-101165460D01*
X113525443Y-101189877D01*
X113469145Y-101180754D01*
X113340868Y-101127621D01*
X113275000Y-101118948D01*
X113275000Y-101158199D01*
X113255315Y-101225238D01*
X113202511Y-101270993D01*
X113133353Y-101280937D01*
X113075514Y-101256575D01*
X112977589Y-101181435D01*
X112978953Y-101179656D01*
X112938781Y-101137520D01*
X112936783Y-101129284D01*
X112924999Y-101118950D01*
X112868092Y-101126441D01*
X112835724Y-101126440D01*
X112726050Y-101112001D01*
X112726045Y-101112000D01*
X112726040Y-101112000D01*
X112473960Y-101112000D01*
X112473952Y-101112000D01*
X112366186Y-101126189D01*
X112333814Y-101126189D01*
X112226047Y-101112000D01*
X112226040Y-101112000D01*
X111973960Y-101112000D01*
X111973952Y-101112000D01*
X111866186Y-101126189D01*
X111833814Y-101126189D01*
X111726047Y-101112000D01*
X111726040Y-101112000D01*
X111473960Y-101112000D01*
X111473952Y-101112000D01*
X111366186Y-101126189D01*
X111333814Y-101126189D01*
X111226047Y-101112000D01*
X111226040Y-101112000D01*
X110973960Y-101112000D01*
X110973952Y-101112000D01*
X110871774Y-101125453D01*
X110859001Y-101127135D01*
X110859000Y-101127135D01*
X110858997Y-101127136D01*
X110715963Y-101186382D01*
X110593133Y-101280633D01*
X110498882Y-101403463D01*
X110439636Y-101546497D01*
X110439635Y-101546502D01*
X110426337Y-101647504D01*
X110398070Y-101711401D01*
X110391079Y-101718999D01*
X110322863Y-101787214D01*
X110322860Y-101787218D01*
X110213371Y-101951079D01*
X110213364Y-101951092D01*
X110137950Y-102133160D01*
X110137947Y-102133170D01*
X110099500Y-102326456D01*
X110099500Y-103075500D01*
X110079815Y-103142539D01*
X110027011Y-103188294D01*
X109975500Y-103199500D01*
X108401456Y-103199500D01*
X108208171Y-103237947D01*
X108208163Y-103237949D01*
X108170725Y-103253457D01*
X108170724Y-103253457D01*
X108026092Y-103313364D01*
X108026079Y-103313371D01*
X107884215Y-103408163D01*
X107862218Y-103422860D01*
X107862212Y-103422865D01*
X107519154Y-103765925D01*
X107462220Y-103822859D01*
X107462218Y-103822861D01*
X107411424Y-103873655D01*
X107322859Y-103962219D01*
X107213371Y-104126080D01*
X107213364Y-104126093D01*
X107194236Y-104172275D01*
X107181594Y-104202797D01*
X107141936Y-104298540D01*
X107139056Y-104305493D01*
X107137947Y-104308171D01*
X107099500Y-104501454D01*
X107099500Y-110426402D01*
X107090000Y-110458755D01*
X107090000Y-110801645D01*
X107072734Y-110864763D01*
X107067507Y-110873600D01*
X107067504Y-110873608D01*
X107022357Y-111029002D01*
X107022356Y-111029008D01*
X107019500Y-111065302D01*
X107019500Y-111534697D01*
X107022356Y-111570991D01*
X107022357Y-111570997D01*
X107067503Y-111726389D01*
X107067505Y-111726393D01*
X107067506Y-111726395D01*
X107072732Y-111735233D01*
X107090000Y-111798352D01*
X107090000Y-112104504D01*
X107123198Y-112094860D01*
X107193068Y-112095059D01*
X107251738Y-112133001D01*
X107260896Y-112145045D01*
X107322860Y-112237782D01*
X107466537Y-112381459D01*
X107466559Y-112381479D01*
X108969234Y-113884154D01*
X109002719Y-113945477D01*
X108997735Y-114015169D01*
X108955863Y-114071102D01*
X108924887Y-114088017D01*
X108807911Y-114131646D01*
X108807906Y-114131649D01*
X108692812Y-114217809D01*
X108692809Y-114217812D01*
X108606649Y-114332906D01*
X108606645Y-114332913D01*
X108556403Y-114467620D01*
X108556401Y-114467627D01*
X108550000Y-114527155D01*
X108550000Y-115175000D01*
X110176000Y-115175000D01*
X110243039Y-115194685D01*
X110288794Y-115247489D01*
X110300000Y-115299000D01*
X110300000Y-116775000D01*
X111097828Y-116775000D01*
X111097844Y-116774999D01*
X111157372Y-116768598D01*
X111157379Y-116768596D01*
X111292086Y-116718354D01*
X111292093Y-116718350D01*
X111407187Y-116632190D01*
X111407190Y-116632187D01*
X111493350Y-116517093D01*
X111493354Y-116517086D01*
X111543596Y-116382379D01*
X111543598Y-116382372D01*
X111547332Y-116347649D01*
X111574070Y-116283098D01*
X111631463Y-116243250D01*
X111701288Y-116240757D01*
X111758302Y-116273224D01*
X111862217Y-116377139D01*
X111945046Y-116432483D01*
X112026086Y-116486632D01*
X112026092Y-116486634D01*
X112026093Y-116486635D01*
X112168164Y-116545482D01*
X112219978Y-116585732D01*
X112292452Y-116682544D01*
X112292455Y-116682547D01*
X112407664Y-116768793D01*
X112407671Y-116768797D01*
X112452618Y-116785561D01*
X112542517Y-116819091D01*
X112602127Y-116825500D01*
X113197872Y-116825499D01*
X113257483Y-116819091D01*
X113257485Y-116819090D01*
X113257487Y-116819090D01*
X113265031Y-116817308D01*
X113265377Y-116818775D01*
X113326342Y-116814408D01*
X113341378Y-116818822D01*
X113342511Y-116819089D01*
X113342517Y-116819091D01*
X113402127Y-116825500D01*
X113997872Y-116825499D01*
X114057483Y-116819091D01*
X114057485Y-116819090D01*
X114057487Y-116819090D01*
X114065031Y-116817308D01*
X114065377Y-116818775D01*
X114126342Y-116814408D01*
X114141378Y-116818822D01*
X114142511Y-116819089D01*
X114142517Y-116819091D01*
X114202127Y-116825500D01*
X114797872Y-116825499D01*
X114857483Y-116819091D01*
X114857485Y-116819090D01*
X114857487Y-116819090D01*
X114865031Y-116817308D01*
X114865377Y-116818775D01*
X114926342Y-116814408D01*
X114941378Y-116818822D01*
X114942511Y-116819089D01*
X114942517Y-116819091D01*
X115002127Y-116825500D01*
X115597872Y-116825499D01*
X115657483Y-116819091D01*
X115657489Y-116819088D01*
X115665025Y-116817308D01*
X115665321Y-116818561D01*
X115727063Y-116814142D01*
X115740655Y-116818132D01*
X115742627Y-116818598D01*
X115802155Y-116824999D01*
X115802172Y-116825000D01*
X115850000Y-116825000D01*
X115850000Y-116787694D01*
X115869685Y-116720655D01*
X115899690Y-116688426D01*
X115907546Y-116682546D01*
X115993796Y-116567331D01*
X116044091Y-116432483D01*
X116050500Y-116372873D01*
X116050499Y-115575000D01*
X116350000Y-115575000D01*
X116350000Y-116825000D01*
X116397828Y-116825000D01*
X116397844Y-116824999D01*
X116457372Y-116818598D01*
X116457379Y-116818596D01*
X116592086Y-116768354D01*
X116592093Y-116768350D01*
X116707187Y-116682190D01*
X116707190Y-116682187D01*
X116793350Y-116567093D01*
X116793354Y-116567086D01*
X116843596Y-116432379D01*
X116843598Y-116432372D01*
X116849999Y-116372844D01*
X116850000Y-116372827D01*
X116850000Y-115675000D01*
X117450000Y-115675000D01*
X117450000Y-116322844D01*
X117456401Y-116382372D01*
X117456403Y-116382379D01*
X117506645Y-116517086D01*
X117506649Y-116517093D01*
X117592809Y-116632187D01*
X117592812Y-116632190D01*
X117707906Y-116718350D01*
X117707913Y-116718354D01*
X117842620Y-116768596D01*
X117842627Y-116768598D01*
X117902155Y-116774999D01*
X117902172Y-116775000D01*
X118700000Y-116775000D01*
X118700000Y-115675000D01*
X119200000Y-115675000D01*
X119200000Y-116775000D01*
X119997828Y-116775000D01*
X119997844Y-116774999D01*
X120057372Y-116768598D01*
X120057379Y-116768596D01*
X120192086Y-116718354D01*
X120192093Y-116718350D01*
X120307187Y-116632190D01*
X120307190Y-116632187D01*
X120393350Y-116517093D01*
X120393354Y-116517086D01*
X120443596Y-116382379D01*
X120443598Y-116382372D01*
X120449999Y-116322844D01*
X120450000Y-116322827D01*
X120450000Y-115675000D01*
X119200000Y-115675000D01*
X118700000Y-115675000D01*
X117450000Y-115675000D01*
X116850000Y-115675000D01*
X116850000Y-115575000D01*
X116350000Y-115575000D01*
X116050499Y-115575000D01*
X116050499Y-115198998D01*
X116057546Y-115175000D01*
X117450000Y-115175000D01*
X118700000Y-115175000D01*
X118700000Y-114075000D01*
X119200000Y-114075000D01*
X119200000Y-115175000D01*
X120450000Y-115175000D01*
X120450000Y-114527172D01*
X120449999Y-114527155D01*
X120443598Y-114467627D01*
X120443596Y-114467620D01*
X120393354Y-114332913D01*
X120393350Y-114332906D01*
X120307190Y-114217812D01*
X120307187Y-114217809D01*
X120192093Y-114131649D01*
X120192086Y-114131645D01*
X120057379Y-114081403D01*
X120057372Y-114081401D01*
X119997844Y-114075000D01*
X119200000Y-114075000D01*
X118700000Y-114075000D01*
X117902155Y-114075000D01*
X117842627Y-114081401D01*
X117842620Y-114081403D01*
X117707913Y-114131645D01*
X117707906Y-114131649D01*
X117592812Y-114217809D01*
X117592809Y-114217812D01*
X117506649Y-114332906D01*
X117506645Y-114332913D01*
X117456403Y-114467620D01*
X117456401Y-114467627D01*
X117450000Y-114527155D01*
X117450000Y-115175000D01*
X116057546Y-115175000D01*
X116070184Y-115131961D01*
X116122987Y-115086206D01*
X116174499Y-115075000D01*
X116850000Y-115075000D01*
X116850000Y-114277172D01*
X116849999Y-114277155D01*
X116843598Y-114217627D01*
X116843596Y-114217620D01*
X116793354Y-114082913D01*
X116793350Y-114082906D01*
X116707190Y-113967812D01*
X116707187Y-113967809D01*
X116592093Y-113881649D01*
X116592086Y-113881645D01*
X116549286Y-113865682D01*
X116493352Y-113823811D01*
X116468935Y-113758346D01*
X116483787Y-113690073D01*
X116533192Y-113640668D01*
X116592619Y-113625500D01*
X117373543Y-113625500D01*
X117454115Y-113609472D01*
X117494402Y-113601459D01*
X117566836Y-113587051D01*
X117620165Y-113564961D01*
X117748914Y-113511632D01*
X117912782Y-113402139D01*
X118052139Y-113262782D01*
X118052139Y-113262780D01*
X118062347Y-113252573D01*
X118062348Y-113252570D01*
X119990602Y-111324319D01*
X120051925Y-111290834D01*
X120078283Y-111288000D01*
X120105843Y-111288000D01*
X120105848Y-111288000D01*
X120207775Y-111277587D01*
X120372925Y-111222862D01*
X120521003Y-111131526D01*
X120644026Y-111008503D01*
X120735362Y-110860425D01*
X120790087Y-110695275D01*
X120800500Y-110593348D01*
X120800500Y-110006652D01*
X120790087Y-109904725D01*
X120735362Y-109739575D01*
X120735358Y-109739569D01*
X120735357Y-109739566D01*
X120644028Y-109591500D01*
X120644025Y-109591496D01*
X120521004Y-109468475D01*
X120521003Y-109468474D01*
X120520301Y-109468041D01*
X120519921Y-109467618D01*
X120515336Y-109463993D01*
X120515955Y-109463209D01*
X120473575Y-109416098D01*
X120462349Y-109347136D01*
X120490188Y-109283052D01*
X120515455Y-109261157D01*
X120515336Y-109261007D01*
X120518687Y-109258356D01*
X120520299Y-109256959D01*
X120521003Y-109256526D01*
X120644026Y-109133503D01*
X120735362Y-108985425D01*
X120790087Y-108820275D01*
X120800500Y-108718348D01*
X120800500Y-108131652D01*
X120790087Y-108029725D01*
X120735362Y-107864575D01*
X120735358Y-107864569D01*
X120735357Y-107864566D01*
X120644028Y-107716500D01*
X120644025Y-107716496D01*
X120521003Y-107593474D01*
X120520999Y-107593471D01*
X120372933Y-107502142D01*
X120372927Y-107502139D01*
X120372925Y-107502138D01*
X120285496Y-107473167D01*
X120228051Y-107433394D01*
X120201228Y-107368878D01*
X120200500Y-107355461D01*
X120200500Y-107071257D01*
X120220185Y-107004218D01*
X120223924Y-106998900D01*
X120224532Y-106997845D01*
X120224536Y-106997841D01*
X120285044Y-106851762D01*
X120300500Y-106734361D01*
X120300499Y-106395640D01*
X120300499Y-106395638D01*
X120300499Y-106395636D01*
X120285045Y-106278244D01*
X120285044Y-106278242D01*
X120285044Y-106278238D01*
X120285042Y-106278233D01*
X120284738Y-106277096D01*
X120284737Y-106275906D01*
X120283984Y-106270179D01*
X120284737Y-106270079D01*
X120284737Y-106219919D01*
X120283983Y-106219820D01*
X120284737Y-106214092D01*
X120284737Y-106212905D01*
X120285040Y-106211771D01*
X120285044Y-106211762D01*
X120300500Y-106094361D01*
X120300499Y-105755640D01*
X120300499Y-105755638D01*
X120300499Y-105755636D01*
X120285046Y-105638246D01*
X120285044Y-105638239D01*
X120285044Y-105638238D01*
X120224536Y-105492159D01*
X120128282Y-105366718D01*
X120002841Y-105270464D01*
X119984541Y-105262884D01*
X119856762Y-105209956D01*
X119856760Y-105209955D01*
X119739370Y-105194501D01*
X119739367Y-105194500D01*
X119739361Y-105194500D01*
X119739354Y-105194500D01*
X119570099Y-105194500D01*
X119503060Y-105174815D01*
X119482418Y-105158181D01*
X113710565Y-99386328D01*
X113677080Y-99325005D01*
X113682064Y-99255313D01*
X113699876Y-99223154D01*
X113701117Y-99221537D01*
X113760365Y-99078499D01*
X113775500Y-98963540D01*
X113775500Y-98425096D01*
X113795185Y-98358057D01*
X113811814Y-98337420D01*
X116658506Y-95490727D01*
X116658511Y-95490724D01*
X116668714Y-95480520D01*
X116668716Y-95480520D01*
X116780520Y-95368716D01*
X116859577Y-95231784D01*
X116892701Y-95108164D01*
X116900500Y-95079058D01*
X116900500Y-94920943D01*
X116900500Y-93251257D01*
X116920185Y-93184218D01*
X116923924Y-93178900D01*
X116924532Y-93177845D01*
X116924536Y-93177841D01*
X116985044Y-93031762D01*
X117000500Y-92914361D01*
X117000499Y-92575640D01*
X117000499Y-92575638D01*
X117000499Y-92575636D01*
X116985046Y-92458249D01*
X116985044Y-92458244D01*
X116985044Y-92458238D01*
X116985041Y-92458231D01*
X116984477Y-92456125D01*
X116984477Y-92453924D01*
X116983984Y-92450179D01*
X116984477Y-92450114D01*
X116984477Y-92399817D01*
X116983495Y-92399688D01*
X116984477Y-92392229D01*
X116984477Y-92391923D01*
X116984556Y-92391627D01*
X116995961Y-92305000D01*
X116980193Y-92305000D01*
X116913154Y-92285315D01*
X116881817Y-92256487D01*
X116828282Y-92186718D01*
X116750943Y-92127374D01*
X116709743Y-92070948D01*
X116705588Y-92001202D01*
X116739801Y-91940281D01*
X116801518Y-91907529D01*
X116826432Y-91905000D01*
X116995959Y-91905000D01*
X116995960Y-91904998D01*
X116984557Y-91818372D01*
X116984555Y-91818366D01*
X116924100Y-91672414D01*
X116827924Y-91547075D01*
X116702586Y-91450899D01*
X116556631Y-91390444D01*
X116500000Y-91382987D01*
X116500000Y-91890500D01*
X116480315Y-91957539D01*
X116427511Y-92003294D01*
X116376000Y-92014500D01*
X116224000Y-92014500D01*
X116156961Y-91994815D01*
X116111206Y-91942011D01*
X116100000Y-91890500D01*
X116100000Y-91382987D01*
X116043368Y-91390444D01*
X115897413Y-91450899D01*
X115772075Y-91547075D01*
X115675899Y-91672413D01*
X115615445Y-91818365D01*
X115615444Y-91818369D01*
X115604038Y-91905000D01*
X115773568Y-91905000D01*
X115840607Y-91924685D01*
X115886362Y-91977489D01*
X115896306Y-92046647D01*
X115867281Y-92110203D01*
X115849058Y-92127372D01*
X115771718Y-92186718D01*
X115725231Y-92247302D01*
X115718183Y-92256487D01*
X115661755Y-92297689D01*
X115619807Y-92305000D01*
X115604041Y-92305000D01*
X115604039Y-92305001D01*
X115615442Y-92391628D01*
X115615525Y-92391935D01*
X115615525Y-92392251D01*
X115616504Y-92399689D01*
X115615525Y-92399817D01*
X115615526Y-92450116D01*
X115616017Y-92450181D01*
X115615526Y-92453903D01*
X115615527Y-92456106D01*
X115614956Y-92458235D01*
X115599500Y-92575638D01*
X115599500Y-92914363D01*
X115614953Y-93031753D01*
X115614957Y-93031765D01*
X115675461Y-93177836D01*
X115679526Y-93184876D01*
X115677783Y-93185882D01*
X115699069Y-93240932D01*
X115699500Y-93251257D01*
X115699500Y-94699902D01*
X115679815Y-94766941D01*
X115663181Y-94787583D01*
X113605426Y-96845337D01*
X113544103Y-96878822D01*
X113474411Y-96873838D01*
X113418478Y-96831966D01*
X113394061Y-96766502D01*
X113397970Y-96725566D01*
X113400500Y-96716125D01*
X113400500Y-95651894D01*
X113409939Y-95604441D01*
X113414681Y-95592993D01*
X113440044Y-95531762D01*
X113455500Y-95414361D01*
X113455499Y-95075640D01*
X113455499Y-95075638D01*
X113455499Y-95075636D01*
X113440045Y-94958244D01*
X113440044Y-94958242D01*
X113440044Y-94958238D01*
X113440042Y-94958233D01*
X113439738Y-94957096D01*
X113439737Y-94955906D01*
X113438984Y-94950179D01*
X113439737Y-94950079D01*
X113439737Y-94899919D01*
X113438983Y-94899820D01*
X113439737Y-94894092D01*
X113439737Y-94892905D01*
X113440040Y-94891771D01*
X113440044Y-94891762D01*
X113455500Y-94774361D01*
X113455499Y-94435640D01*
X113455499Y-94435638D01*
X113455499Y-94435636D01*
X113440046Y-94318246D01*
X113440044Y-94318239D01*
X113440044Y-94318238D01*
X113379536Y-94172159D01*
X113379534Y-94172156D01*
X113375472Y-94165119D01*
X113377213Y-94164113D01*
X113355930Y-94109057D01*
X113355500Y-94098742D01*
X113355500Y-93790096D01*
X113375185Y-93723057D01*
X113391815Y-93702419D01*
X113585845Y-93508388D01*
X113647166Y-93474905D01*
X113657341Y-93473132D01*
X113678373Y-93470363D01*
X113756762Y-93460044D01*
X113902841Y-93399536D01*
X114028282Y-93303282D01*
X114124536Y-93177841D01*
X114185044Y-93031762D01*
X114200500Y-92914361D01*
X114200499Y-92575640D01*
X114200499Y-92575638D01*
X114200499Y-92575636D01*
X114185046Y-92458249D01*
X114185044Y-92458244D01*
X114185044Y-92458238D01*
X114185041Y-92458231D01*
X114184477Y-92456125D01*
X114184477Y-92453924D01*
X114183984Y-92450179D01*
X114184477Y-92450114D01*
X114184477Y-92399817D01*
X114183495Y-92399688D01*
X114184477Y-92392229D01*
X114184477Y-92391923D01*
X114184556Y-92391627D01*
X114195961Y-92305000D01*
X114180193Y-92305000D01*
X114113154Y-92285315D01*
X114081817Y-92256487D01*
X114028282Y-92186718D01*
X113950943Y-92127374D01*
X113909743Y-92070948D01*
X113905588Y-92001202D01*
X113939801Y-91940281D01*
X114001518Y-91907529D01*
X114026432Y-91905000D01*
X114195959Y-91905000D01*
X114195960Y-91904998D01*
X114184557Y-91818372D01*
X114184555Y-91818366D01*
X114124100Y-91672414D01*
X114027924Y-91547075D01*
X113902586Y-91450899D01*
X113756631Y-91390444D01*
X113700000Y-91382987D01*
X113700000Y-91890500D01*
X113680315Y-91957539D01*
X113627511Y-92003294D01*
X113576000Y-92014500D01*
X113424000Y-92014500D01*
X113356961Y-91994815D01*
X113311206Y-91942011D01*
X113300000Y-91890500D01*
X113300000Y-91382987D01*
X113243368Y-91390444D01*
X113097413Y-91450899D01*
X112972075Y-91547075D01*
X112875899Y-91672413D01*
X112815445Y-91818365D01*
X112815444Y-91818369D01*
X112804038Y-91905000D01*
X112973568Y-91905000D01*
X113040607Y-91924685D01*
X113086362Y-91977489D01*
X113096306Y-92046647D01*
X113067281Y-92110203D01*
X113049058Y-92127372D01*
X112971718Y-92186718D01*
X112925231Y-92247302D01*
X112918183Y-92256487D01*
X112861755Y-92297689D01*
X112819807Y-92305000D01*
X112804041Y-92305000D01*
X112804039Y-92305001D01*
X112815442Y-92391628D01*
X112815525Y-92391935D01*
X112815525Y-92392251D01*
X112816504Y-92399689D01*
X112815525Y-92399817D01*
X112815526Y-92450118D01*
X112816017Y-92450183D01*
X112815526Y-92453905D01*
X112815527Y-92456106D01*
X112814956Y-92458234D01*
X112801866Y-92557661D01*
X112773599Y-92621557D01*
X112766608Y-92629155D01*
X112575180Y-92820583D01*
X112513857Y-92854068D01*
X112444165Y-92849084D01*
X112399818Y-92820583D01*
X112042590Y-92463355D01*
X112042588Y-92463352D01*
X111923717Y-92344481D01*
X111923712Y-92344477D01*
X111825801Y-92287949D01*
X111825800Y-92287948D01*
X111786790Y-92265425D01*
X111786789Y-92265424D01*
X111775549Y-92262412D01*
X111650009Y-92228773D01*
X111590352Y-92192410D01*
X111559823Y-92129563D01*
X111568118Y-92060187D01*
X111612603Y-92006309D01*
X111679155Y-91985035D01*
X111682106Y-91985000D01*
X111695959Y-91985000D01*
X111695960Y-91984998D01*
X111684557Y-91898372D01*
X111684555Y-91898366D01*
X111624100Y-91752414D01*
X111527924Y-91627075D01*
X111402586Y-91530899D01*
X111256631Y-91470444D01*
X111200000Y-91462987D01*
X111200000Y-91970500D01*
X111180315Y-92037539D01*
X111127511Y-92083294D01*
X111076000Y-92094500D01*
X110924000Y-92094500D01*
X110856961Y-92074815D01*
X110811206Y-92022011D01*
X110800000Y-91970500D01*
X110800000Y-91462987D01*
X110743368Y-91470444D01*
X110597413Y-91530899D01*
X110472075Y-91627075D01*
X110375899Y-91752413D01*
X110315445Y-91898365D01*
X110315444Y-91898369D01*
X110304038Y-91985000D01*
X110473568Y-91985000D01*
X110540607Y-92004685D01*
X110586362Y-92057489D01*
X110596306Y-92126647D01*
X110567281Y-92190203D01*
X110549058Y-92207372D01*
X110471718Y-92266718D01*
X110442344Y-92305000D01*
X110418183Y-92336487D01*
X110361755Y-92377689D01*
X110319807Y-92385000D01*
X110304041Y-92385000D01*
X110304039Y-92385001D01*
X110315442Y-92471628D01*
X110315525Y-92471935D01*
X110315525Y-92472251D01*
X110316504Y-92479689D01*
X110315525Y-92479817D01*
X110315526Y-92530116D01*
X110316017Y-92530181D01*
X110315526Y-92533903D01*
X110315527Y-92536106D01*
X110314956Y-92538235D01*
X110299500Y-92655638D01*
X110299500Y-92994363D01*
X110314953Y-93111753D01*
X110314956Y-93111762D01*
X110345657Y-93185882D01*
X110375464Y-93257841D01*
X110471718Y-93383282D01*
X110597159Y-93479536D01*
X110743238Y-93540044D01*
X110860639Y-93555500D01*
X111139360Y-93555499D01*
X111139363Y-93555499D01*
X111256753Y-93540046D01*
X111256756Y-93540044D01*
X111256762Y-93540044D01*
X111296214Y-93523701D01*
X111365681Y-93516233D01*
X111428161Y-93547507D01*
X111431347Y-93550582D01*
X112049166Y-94168401D01*
X112082651Y-94229724D01*
X112077667Y-94299416D01*
X112076047Y-94303532D01*
X112069957Y-94318234D01*
X112069955Y-94318239D01*
X112054500Y-94435638D01*
X112054500Y-94774363D01*
X112069955Y-94891763D01*
X112070263Y-94892912D01*
X112070263Y-94894101D01*
X112071016Y-94899821D01*
X112070263Y-94899920D01*
X112070265Y-94950081D01*
X112071017Y-94950180D01*
X112070265Y-94955884D01*
X112070266Y-94957079D01*
X112069956Y-94958234D01*
X112054500Y-95075638D01*
X112054500Y-95414363D01*
X112069953Y-95531753D01*
X112069957Y-95531765D01*
X112130461Y-95677836D01*
X112130464Y-95677842D01*
X112173875Y-95734415D01*
X112199070Y-95799584D01*
X112199500Y-95809902D01*
X112199500Y-96336970D01*
X112179815Y-96404009D01*
X112163181Y-96424651D01*
X111737151Y-96850681D01*
X111675828Y-96884166D01*
X111649470Y-96887000D01*
X111473952Y-96887000D01*
X111366186Y-96901189D01*
X111333814Y-96901189D01*
X111226047Y-96887000D01*
X111226040Y-96887000D01*
X110973960Y-96887000D01*
X110973952Y-96887000D01*
X110871774Y-96900453D01*
X110859001Y-96902135D01*
X110859000Y-96902135D01*
X110858997Y-96902136D01*
X110715963Y-96961382D01*
X110593133Y-97055633D01*
X110544774Y-97118657D01*
X110519967Y-97150986D01*
X110463539Y-97192189D01*
X110421591Y-97199500D01*
X110060782Y-97199500D01*
X109993743Y-97179815D01*
X109973101Y-97163181D01*
X109378979Y-96569059D01*
X109378970Y-96569049D01*
X109340025Y-96530104D01*
X109097140Y-96287220D01*
X109097139Y-96287218D01*
X108957782Y-96147861D01*
X108957781Y-96147860D01*
X108957780Y-96147859D01*
X108793920Y-96038371D01*
X108793907Y-96038364D01*
X108642135Y-95975499D01*
X108642134Y-95975499D01*
X108611836Y-95962949D01*
X108611828Y-95962947D01*
X108515188Y-95943724D01*
X108418544Y-95924500D01*
X108418541Y-95924500D01*
X107690783Y-95924500D01*
X107623744Y-95904815D01*
X107603102Y-95888181D01*
X106736819Y-95021898D01*
X106703334Y-94960575D01*
X106700500Y-94934217D01*
X106700500Y-92065782D01*
X106720185Y-91998743D01*
X106736819Y-91978101D01*
X108265601Y-90449319D01*
X108326924Y-90415834D01*
X108353282Y-90413000D01*
X119675500Y-90413000D01*
X119742539Y-90432685D01*
X119788294Y-90485489D01*
X119799500Y-90537000D01*
X119799500Y-93123544D01*
X119824654Y-93250000D01*
X119837947Y-93316829D01*
X119837949Y-93316837D01*
X119913364Y-93498907D01*
X119913371Y-93498920D01*
X120022860Y-93662781D01*
X120022863Y-93662785D01*
X120166537Y-93806459D01*
X120166559Y-93806479D01*
X122144735Y-95784655D01*
X122144764Y-95784686D01*
X122287217Y-95927139D01*
X122451080Y-96036628D01*
X122451086Y-96036632D01*
X122549732Y-96077492D01*
X122633164Y-96112051D01*
X122729812Y-96131275D01*
X122778135Y-96140887D01*
X122826458Y-96150500D01*
X122826459Y-96150500D01*
X122826460Y-96150500D01*
X123023540Y-96150500D01*
X129190382Y-96150500D01*
X129257421Y-96170185D01*
X129291099Y-96204591D01*
X129292085Y-96203875D01*
X129419890Y-96379786D01*
X129570213Y-96530109D01*
X129742179Y-96655048D01*
X129742181Y-96655049D01*
X129742184Y-96655051D01*
X129931588Y-96751557D01*
X130133757Y-96817246D01*
X130343713Y-96850500D01*
X130343714Y-96850500D01*
X130856286Y-96850500D01*
X130856287Y-96850500D01*
X131066243Y-96817246D01*
X131268412Y-96751557D01*
X131457816Y-96655051D01*
X131576175Y-96569059D01*
X131629786Y-96530109D01*
X131629788Y-96530106D01*
X131629792Y-96530104D01*
X131780104Y-96379792D01*
X131780106Y-96379788D01*
X131780109Y-96379786D01*
X131905048Y-96207820D01*
X131905047Y-96207820D01*
X131905051Y-96207816D01*
X132001557Y-96018412D01*
X132067246Y-95816243D01*
X132100500Y-95606287D01*
X132100500Y-95393713D01*
X132067246Y-95183757D01*
X132001557Y-94981588D01*
X131905051Y-94792184D01*
X131905049Y-94792181D01*
X131905048Y-94792179D01*
X131780109Y-94620213D01*
X131640931Y-94481035D01*
X131607446Y-94419712D01*
X131612430Y-94350020D01*
X131654302Y-94294087D01*
X131663516Y-94287815D01*
X131818343Y-94192317D01*
X131942315Y-94068345D01*
X132034356Y-93919124D01*
X132034358Y-93919119D01*
X132089505Y-93752697D01*
X132089506Y-93752690D01*
X132099999Y-93649986D01*
X132100000Y-93649973D01*
X132100000Y-93250000D01*
X131033012Y-93250000D01*
X131065925Y-93192993D01*
X131100000Y-93065826D01*
X131100000Y-92934174D01*
X131065925Y-92807007D01*
X131033012Y-92750000D01*
X132099999Y-92750000D01*
X132099999Y-92350028D01*
X132099998Y-92350013D01*
X132089505Y-92247302D01*
X132034358Y-92080880D01*
X132034356Y-92080875D01*
X131942315Y-91931654D01*
X131818345Y-91807684D01*
X131669124Y-91715643D01*
X131669119Y-91715641D01*
X131502697Y-91660494D01*
X131502690Y-91660493D01*
X131399986Y-91650000D01*
X130850000Y-91650000D01*
X130850000Y-92566988D01*
X130792993Y-92534075D01*
X130665826Y-92500000D01*
X130534174Y-92500000D01*
X130407007Y-92534075D01*
X130350000Y-92566988D01*
X130350000Y-91650000D01*
X129800028Y-91650000D01*
X129800012Y-91650001D01*
X129697302Y-91660494D01*
X129530880Y-91715641D01*
X129530875Y-91715643D01*
X129381654Y-91807684D01*
X129257684Y-91931654D01*
X129165643Y-92080875D01*
X129165641Y-92080880D01*
X129110494Y-92247302D01*
X129110493Y-92247309D01*
X129100000Y-92350013D01*
X129100000Y-92750000D01*
X130166988Y-92750000D01*
X130134075Y-92807007D01*
X130100000Y-92934174D01*
X130100000Y-93065826D01*
X130134075Y-93192993D01*
X130166988Y-93250000D01*
X129100001Y-93250000D01*
X129100001Y-93649986D01*
X129110494Y-93752697D01*
X129165641Y-93919119D01*
X129165646Y-93919130D01*
X129191104Y-93960403D01*
X129209545Y-94027795D01*
X129188623Y-94094459D01*
X129134981Y-94139229D01*
X129085566Y-94149500D01*
X127126155Y-94149500D01*
X127059116Y-94129815D01*
X127026995Y-94099953D01*
X127004505Y-94070000D01*
X126698352Y-94070000D01*
X126635233Y-94052732D01*
X126626395Y-94047506D01*
X126626393Y-94047505D01*
X126626389Y-94047503D01*
X126470997Y-94002357D01*
X126470991Y-94002356D01*
X126434697Y-93999500D01*
X126434690Y-93999500D01*
X125965310Y-93999500D01*
X125965302Y-93999500D01*
X125929008Y-94002356D01*
X125929002Y-94002357D01*
X125773610Y-94047503D01*
X125773605Y-94047506D01*
X125764766Y-94052732D01*
X125701648Y-94070000D01*
X125395495Y-94070000D01*
X125373005Y-94099953D01*
X125317012Y-94141744D01*
X125273845Y-94149500D01*
X123390782Y-94149500D01*
X123323743Y-94129815D01*
X123303101Y-94113181D01*
X122759920Y-93570000D01*
X125395496Y-93570000D01*
X125950000Y-93570000D01*
X125950000Y-93041210D01*
X125949999Y-93041209D01*
X126450000Y-93041209D01*
X126450000Y-93570000D01*
X127004504Y-93570000D01*
X126962031Y-93423804D01*
X126879721Y-93284625D01*
X126879714Y-93284616D01*
X126765383Y-93170285D01*
X126765374Y-93170278D01*
X126626195Y-93087968D01*
X126626190Y-93087966D01*
X126470918Y-93042855D01*
X126470912Y-93042854D01*
X126450000Y-93041209D01*
X125949999Y-93041209D01*
X125929087Y-93042854D01*
X125929081Y-93042855D01*
X125773809Y-93087966D01*
X125773804Y-93087968D01*
X125634625Y-93170278D01*
X125634616Y-93170285D01*
X125520285Y-93284616D01*
X125520278Y-93284625D01*
X125437968Y-93423804D01*
X125395496Y-93570000D01*
X122759920Y-93570000D01*
X121836819Y-92646899D01*
X121803334Y-92585576D01*
X121800500Y-92559218D01*
X121800500Y-87716976D01*
X121820185Y-87649937D01*
X121872989Y-87604182D01*
X121900135Y-87596736D01*
X121899932Y-87595876D01*
X121907479Y-87594092D01*
X121907481Y-87594091D01*
X121907483Y-87594091D01*
X122042331Y-87543796D01*
X122157546Y-87457546D01*
X122243796Y-87342331D01*
X122294091Y-87207483D01*
X122300500Y-87147873D01*
X122300499Y-85052128D01*
X122294091Y-84992517D01*
X122291724Y-84986172D01*
X122243797Y-84857671D01*
X122243793Y-84857664D01*
X122157547Y-84742455D01*
X122157544Y-84742452D01*
X122042335Y-84656206D01*
X122042328Y-84656202D01*
X121907482Y-84605908D01*
X121907483Y-84605908D01*
X121847883Y-84599501D01*
X121847881Y-84599500D01*
X121847873Y-84599500D01*
X121847864Y-84599500D01*
X119752129Y-84599500D01*
X119752123Y-84599501D01*
X119692516Y-84605908D01*
X119557671Y-84656202D01*
X119557664Y-84656206D01*
X119442455Y-84742452D01*
X119442452Y-84742455D01*
X119356206Y-84857664D01*
X119356202Y-84857671D01*
X119305908Y-84992517D01*
X119299501Y-85052116D01*
X119299501Y-85052123D01*
X119299500Y-85052135D01*
X119299500Y-87147870D01*
X119299501Y-87147876D01*
X119305908Y-87207483D01*
X119356202Y-87342328D01*
X119356206Y-87342335D01*
X119442452Y-87457544D01*
X119442455Y-87457547D01*
X119557664Y-87543793D01*
X119557671Y-87543797D01*
X119692517Y-87594091D01*
X119700062Y-87595874D01*
X119699523Y-87598151D01*
X119753287Y-87620408D01*
X119793147Y-87677793D01*
X119799500Y-87716975D01*
X119799500Y-88288000D01*
X119779815Y-88355039D01*
X119727011Y-88400794D01*
X119675500Y-88412000D01*
X107788955Y-88412000D01*
X107692312Y-88431224D01*
X107595667Y-88450447D01*
X107595661Y-88450449D01*
X107542334Y-88472537D01*
X107542334Y-88472538D01*
X107522700Y-88480671D01*
X107413589Y-88525866D01*
X107413579Y-88525871D01*
X107249719Y-88635359D01*
X107180040Y-88705038D01*
X107110361Y-88774718D01*
X107110358Y-88774721D01*
X105062221Y-90822858D01*
X105062218Y-90822861D01*
X105026241Y-90858838D01*
X104922859Y-90962219D01*
X104813371Y-91126080D01*
X104813364Y-91126093D01*
X104772076Y-91225774D01*
X104772076Y-91225775D01*
X104737949Y-91308163D01*
X104737947Y-91308171D01*
X104722102Y-91387830D01*
X104699500Y-91501455D01*
X104699500Y-95498541D01*
X101227000Y-95498541D01*
X101216757Y-95433872D01*
X101216757Y-95433869D01*
X101151095Y-95231782D01*
X101054620Y-95042442D01*
X100929727Y-94870540D01*
X100929723Y-94870535D01*
X100779464Y-94720276D01*
X100779459Y-94720272D01*
X100607557Y-94595379D01*
X100418217Y-94498904D01*
X100216129Y-94433242D01*
X100146826Y-94422265D01*
X100083691Y-94392335D01*
X100046761Y-94333023D01*
X100047759Y-94263160D01*
X100078542Y-94212113D01*
X103879113Y-90411543D01*
X103885786Y-90401557D01*
X103885788Y-90401555D01*
X103955771Y-90296817D01*
X103955771Y-90296816D01*
X103955775Y-90296811D01*
X104000167Y-90189639D01*
X104008580Y-90169329D01*
X104013140Y-90146403D01*
X104020074Y-90111546D01*
X104020074Y-90111543D01*
X104035500Y-90033993D01*
X104035500Y-86023575D01*
X104055185Y-85956536D01*
X104107989Y-85910781D01*
X104143317Y-85900636D01*
X104144358Y-85900499D01*
X104144360Y-85900499D01*
X104261762Y-85885044D01*
X104407841Y-85824536D01*
X104407845Y-85824532D01*
X104414876Y-85820474D01*
X104415882Y-85822216D01*
X104470932Y-85800931D01*
X104481257Y-85800500D01*
X105400888Y-85800500D01*
X105467927Y-85820185D01*
X105513682Y-85872989D01*
X105524086Y-85931847D01*
X105524596Y-85931868D01*
X105524504Y-85934210D01*
X105524506Y-85934222D01*
X105524501Y-85934282D01*
X105524500Y-85934313D01*
X105524500Y-86365701D01*
X105527401Y-86402567D01*
X105527402Y-86402573D01*
X105573254Y-86560393D01*
X105573255Y-86560396D01*
X105656917Y-86701862D01*
X105656923Y-86701870D01*
X105773129Y-86818076D01*
X105773133Y-86818079D01*
X105773135Y-86818081D01*
X105914602Y-86901744D01*
X105956224Y-86913836D01*
X106072426Y-86947597D01*
X106072429Y-86947597D01*
X106072431Y-86947598D01*
X106109306Y-86950500D01*
X106109314Y-86950500D01*
X107415686Y-86950500D01*
X107415694Y-86950500D01*
X107452569Y-86947598D01*
X107452571Y-86947597D01*
X107452573Y-86947597D01*
X107494191Y-86935505D01*
X107610398Y-86901744D01*
X107751865Y-86818081D01*
X107783126Y-86786820D01*
X107844448Y-86753334D01*
X107870808Y-86750500D01*
X108978883Y-86750500D01*
X108978899Y-86750501D01*
X108986495Y-86750501D01*
X109144606Y-86750501D01*
X109144609Y-86750501D01*
X109297337Y-86709577D01*
X109362723Y-86671826D01*
X109434268Y-86630520D01*
X109546072Y-86518716D01*
X109546072Y-86518714D01*
X109556276Y-86508511D01*
X109556280Y-86508506D01*
X110458506Y-85606280D01*
X110458511Y-85606276D01*
X110468714Y-85596072D01*
X110468716Y-85596072D01*
X110580520Y-85484268D01*
X110659577Y-85347336D01*
X110695474Y-85213368D01*
X110700500Y-85194610D01*
X110700500Y-85036495D01*
X110700500Y-74986008D01*
X110700501Y-74985995D01*
X110700501Y-74817892D01*
X110700501Y-74817891D01*
X110664731Y-74684398D01*
X110666394Y-74614552D01*
X110705556Y-74556689D01*
X110769784Y-74529184D01*
X110808695Y-74530689D01*
X110876942Y-74544265D01*
X110991456Y-74567044D01*
X110991459Y-74567044D01*
X111188540Y-74567044D01*
X114075500Y-74567044D01*
X114142539Y-74586729D01*
X114188294Y-74639533D01*
X114199500Y-74691044D01*
X114199500Y-77310761D01*
X114179815Y-77377800D01*
X114163181Y-77398442D01*
X113362220Y-78199403D01*
X113362218Y-78199405D01*
X113316220Y-78245403D01*
X113222859Y-78338763D01*
X113113371Y-78502624D01*
X113113364Y-78502637D01*
X113078403Y-78587044D01*
X113078403Y-78587045D01*
X113039689Y-78680509D01*
X113039683Y-78680523D01*
X113037949Y-78684706D01*
X112999500Y-78878000D01*
X112999500Y-79758437D01*
X112993206Y-79797441D01*
X112985001Y-79822201D01*
X112974500Y-79924983D01*
X112974500Y-81275001D01*
X112974501Y-81275018D01*
X112985000Y-81377796D01*
X112993206Y-81402557D01*
X112999500Y-81441562D01*
X112999500Y-81498541D01*
X112999856Y-81500333D01*
X113003665Y-81519478D01*
X113003665Y-81519480D01*
X113037947Y-81691828D01*
X113037949Y-81691836D01*
X113053681Y-81729816D01*
X113053681Y-81729817D01*
X113113364Y-81873907D01*
X113113371Y-81873920D01*
X113222860Y-82037781D01*
X113222863Y-82037785D01*
X113366537Y-82181459D01*
X113366559Y-82181479D01*
X114363181Y-83178101D01*
X114396666Y-83239424D01*
X114399500Y-83265782D01*
X114399500Y-84417067D01*
X114379815Y-84484106D01*
X114327011Y-84529861D01*
X114299865Y-84537310D01*
X114300068Y-84538168D01*
X114292520Y-84539951D01*
X114157671Y-84590246D01*
X114157664Y-84590250D01*
X114042455Y-84676496D01*
X114042452Y-84676499D01*
X113956206Y-84791708D01*
X113956202Y-84791715D01*
X113905908Y-84926561D01*
X113899501Y-84986160D01*
X113899501Y-84986167D01*
X113899500Y-84986179D01*
X113899500Y-87081914D01*
X113899501Y-87081920D01*
X113905908Y-87141527D01*
X113956202Y-87276372D01*
X113956206Y-87276379D01*
X114042452Y-87391588D01*
X114042455Y-87391591D01*
X114157664Y-87477837D01*
X114157671Y-87477841D01*
X114292517Y-87528135D01*
X114292516Y-87528135D01*
X114299444Y-87528879D01*
X114352127Y-87534544D01*
X116447872Y-87534543D01*
X116507483Y-87528135D01*
X116642331Y-87477840D01*
X116757546Y-87391590D01*
X116843796Y-87276375D01*
X116894091Y-87141527D01*
X116900500Y-87081917D01*
X116900499Y-84986172D01*
X116894091Y-84926561D01*
X116872329Y-84868215D01*
X116843797Y-84791715D01*
X116843793Y-84791708D01*
X116757547Y-84676499D01*
X116757544Y-84676496D01*
X116642335Y-84590250D01*
X116642328Y-84590246D01*
X116507482Y-84539952D01*
X116499938Y-84538170D01*
X116500474Y-84535897D01*
X116446688Y-84513615D01*
X116406843Y-84456221D01*
X116400500Y-84417068D01*
X116400500Y-83803629D01*
X116420185Y-83736590D01*
X116450000Y-83704519D01*
X116450000Y-83398352D01*
X116467267Y-83335233D01*
X116472494Y-83326395D01*
X116472780Y-83325413D01*
X116517642Y-83170997D01*
X116517643Y-83170991D01*
X116519295Y-83150000D01*
X116950000Y-83150000D01*
X116950000Y-83704503D01*
X117096195Y-83662031D01*
X117235374Y-83579721D01*
X117235383Y-83579714D01*
X117349714Y-83465383D01*
X117349721Y-83465374D01*
X117432031Y-83326195D01*
X117432033Y-83326190D01*
X117477144Y-83170918D01*
X117477145Y-83170912D01*
X117478790Y-83150000D01*
X116950000Y-83150000D01*
X116519295Y-83150000D01*
X116520500Y-83134690D01*
X116520500Y-82774000D01*
X116540185Y-82706961D01*
X116592989Y-82661206D01*
X116644500Y-82650000D01*
X117478790Y-82650000D01*
X117477145Y-82629089D01*
X117432031Y-82473804D01*
X117349721Y-82334625D01*
X117349714Y-82334616D01*
X117235383Y-82220285D01*
X117235374Y-82220278D01*
X117211621Y-82206231D01*
X117163938Y-82155162D01*
X117151434Y-82086420D01*
X117178079Y-82021831D01*
X117235415Y-81981901D01*
X117274741Y-81975499D01*
X117325008Y-81975499D01*
X117325016Y-81975498D01*
X117325019Y-81975498D01*
X117381302Y-81969748D01*
X117427797Y-81964999D01*
X117594334Y-81909814D01*
X117743656Y-81817712D01*
X117867712Y-81693656D01*
X117959814Y-81544334D01*
X118004103Y-81410678D01*
X118043874Y-81353235D01*
X118108390Y-81326412D01*
X118163735Y-81334331D01*
X118163820Y-81334017D01*
X118166436Y-81334718D01*
X118169259Y-81335122D01*
X118171668Y-81336120D01*
X118171670Y-81336120D01*
X118171671Y-81336121D01*
X118324399Y-81377045D01*
X118324402Y-81377045D01*
X118482510Y-81377045D01*
X118482513Y-81377045D01*
X118635241Y-81336121D01*
X118668165Y-81317112D01*
X118730165Y-81300499D01*
X118749362Y-81300499D01*
X118783840Y-81295960D01*
X118866762Y-81285044D01*
X118866771Y-81285040D01*
X118868879Y-81284476D01*
X118871076Y-81284476D01*
X118874821Y-81283983D01*
X118874886Y-81284476D01*
X118925183Y-81284476D01*
X118925312Y-81283495D01*
X118932763Y-81284476D01*
X118933072Y-81284476D01*
X118933370Y-81284555D01*
X119020000Y-81295961D01*
X119020000Y-81280192D01*
X119039685Y-81213153D01*
X119068511Y-81181818D01*
X119138282Y-81128282D01*
X119197625Y-81050943D01*
X119254052Y-81009742D01*
X119323798Y-81005587D01*
X119384718Y-81039799D01*
X119417471Y-81101516D01*
X119420000Y-81126431D01*
X119420000Y-81295959D01*
X119420001Y-81295960D01*
X119506627Y-81284557D01*
X119506633Y-81284555D01*
X119652585Y-81224100D01*
X119777924Y-81127924D01*
X119874100Y-81002586D01*
X119934555Y-80856631D01*
X119942012Y-80800000D01*
X119434500Y-80800000D01*
X119367461Y-80780315D01*
X119321706Y-80727511D01*
X119310500Y-80676001D01*
X119310499Y-80524001D01*
X119330183Y-80456961D01*
X119382987Y-80411206D01*
X119434499Y-80400000D01*
X119942010Y-80400000D01*
X119942011Y-80399998D01*
X119934557Y-80343372D01*
X119934555Y-80343366D01*
X119874100Y-80197414D01*
X119777924Y-80072075D01*
X119652586Y-79975899D01*
X119506631Y-79915444D01*
X119419999Y-79904037D01*
X119386258Y-79933628D01*
X119322876Y-79963030D01*
X119253659Y-79953497D01*
X119200585Y-79908057D01*
X119180502Y-79841136D01*
X119180500Y-79840399D01*
X119180500Y-78845603D01*
X119180501Y-78845590D01*
X119180501Y-78677489D01*
X119180501Y-78677487D01*
X119139577Y-78524759D01*
X119139575Y-78524756D01*
X119138957Y-78522448D01*
X119140620Y-78452598D01*
X119179782Y-78394735D01*
X119226633Y-78370581D01*
X119355241Y-78336121D01*
X119405360Y-78307183D01*
X119492172Y-78257064D01*
X119603976Y-78145260D01*
X119603976Y-78145258D01*
X119614184Y-78135051D01*
X119614186Y-78135048D01*
X122158506Y-75590728D01*
X122158511Y-75590724D01*
X122168714Y-75580520D01*
X122168716Y-75580520D01*
X122280520Y-75468716D01*
X122345143Y-75356785D01*
X122359577Y-75331785D01*
X122400501Y-75179057D01*
X122400501Y-75020943D01*
X122400501Y-75013348D01*
X122400500Y-75013330D01*
X122400500Y-73895379D01*
X122397640Y-73884708D01*
X122397639Y-73884704D01*
X122388810Y-73851753D01*
X122382973Y-73829968D01*
X122384636Y-73760120D01*
X122423798Y-73702257D01*
X122444291Y-73688520D01*
X122558538Y-73627454D01*
X122710883Y-73502427D01*
X122835910Y-73350082D01*
X122905536Y-73219821D01*
X122928811Y-73176277D01*
X122928811Y-73176276D01*
X122928814Y-73176271D01*
X122986024Y-72987676D01*
X123005341Y-72791544D01*
X122986024Y-72595412D01*
X122928814Y-72406817D01*
X122928811Y-72406813D01*
X122928811Y-72406810D01*
X122835913Y-72233011D01*
X122835912Y-72233009D01*
X122835910Y-72233006D01*
X122831361Y-72227463D01*
X122804047Y-72163156D01*
X122811761Y-72110784D01*
X122809855Y-72110231D01*
X122857145Y-71947454D01*
X122858790Y-71926544D01*
X122535174Y-71926544D01*
X122476722Y-71911902D01*
X122415331Y-71879088D01*
X122384730Y-71862731D01*
X122378233Y-71860760D01*
X122196132Y-71805520D01*
X122196131Y-71805519D01*
X122196125Y-71805518D01*
X122180785Y-71804007D01*
X122115999Y-71777844D01*
X122075642Y-71720808D01*
X122072528Y-71651008D01*
X122081416Y-71626406D01*
X122144637Y-71496336D01*
X122191648Y-71444648D01*
X122256161Y-71426544D01*
X122858790Y-71426544D01*
X122857145Y-71405633D01*
X122812031Y-71250348D01*
X122729721Y-71111169D01*
X122729714Y-71111160D01*
X122615383Y-70996829D01*
X122615374Y-70996822D01*
X122536674Y-70950279D01*
X122488990Y-70899209D01*
X122476487Y-70830468D01*
X122488267Y-70789348D01*
X122518609Y-70726922D01*
X122521860Y-70721191D01*
X122521730Y-70721121D01*
X122524169Y-70716611D01*
X122524173Y-70716607D01*
X122528280Y-70707240D01*
X122530298Y-70702873D01*
X122573097Y-70614821D01*
X122579596Y-70600916D01*
X122579878Y-70600288D01*
X122579880Y-70600284D01*
X122579880Y-70600283D01*
X122603822Y-70535565D01*
X122606563Y-70528776D01*
X122624063Y-70488881D01*
X122685108Y-70247821D01*
X122694227Y-70137769D01*
X122705643Y-70000005D01*
X122705643Y-69999994D01*
X122685109Y-69752187D01*
X122685107Y-69752175D01*
X122624063Y-69511118D01*
X122524173Y-69283393D01*
X122388166Y-69075217D01*
X122344958Y-69028281D01*
X122219744Y-68892262D01*
X122023509Y-68739526D01*
X122023507Y-68739525D01*
X122023506Y-68739524D01*
X121804811Y-68621172D01*
X121804802Y-68621169D01*
X121569616Y-68540429D01*
X121324335Y-68499500D01*
X121075665Y-68499500D01*
X120830383Y-68540429D01*
X120595197Y-68621169D01*
X120595188Y-68621172D01*
X120376493Y-68739524D01*
X120180257Y-68892261D01*
X120011833Y-69075217D01*
X119875824Y-69283396D01*
X119806573Y-69441270D01*
X119803950Y-69446868D01*
X119792404Y-69469982D01*
X119789310Y-69479303D01*
X119785184Y-69490036D01*
X119775937Y-69511116D01*
X119767993Y-69542486D01*
X119765473Y-69551108D01*
X119300737Y-70951110D01*
X119260934Y-71008534D01*
X119196404Y-71035323D01*
X119183052Y-71036044D01*
X119066915Y-71036044D01*
X119060853Y-71036641D01*
X119060731Y-71035407D01*
X118999894Y-71030507D01*
X118910666Y-70997226D01*
X118854732Y-70955355D01*
X118830316Y-70889890D01*
X118830000Y-70881045D01*
X118830000Y-70728716D01*
X118829999Y-70728699D01*
X118823598Y-70669171D01*
X118823596Y-70669164D01*
X118773354Y-70534457D01*
X118773350Y-70534450D01*
X118687190Y-70419356D01*
X118687187Y-70419353D01*
X118572093Y-70333193D01*
X118572086Y-70333189D01*
X118437379Y-70282947D01*
X118437372Y-70282945D01*
X118377844Y-70276544D01*
X118330000Y-70276544D01*
X118330000Y-71142544D01*
X118310315Y-71209583D01*
X118257511Y-71255338D01*
X118206000Y-71266544D01*
X118174000Y-71266544D01*
X118116740Y-71249730D01*
X118440000Y-71572991D01*
X118453181Y-71586172D01*
X118486666Y-71647495D01*
X118489500Y-71673853D01*
X118489500Y-71739632D01*
X118499267Y-71788734D01*
X118469837Y-71776544D01*
X118410163Y-71776544D01*
X118355032Y-71799380D01*
X118312836Y-71841576D01*
X118290000Y-71896707D01*
X118290000Y-71956381D01*
X118312836Y-72011512D01*
X118355032Y-72053708D01*
X118410163Y-72076544D01*
X118469837Y-72076544D01*
X118524968Y-72053708D01*
X118567164Y-72011512D01*
X118573413Y-71996424D01*
X118632487Y-72084834D01*
X118632493Y-72084842D01*
X118636514Y-72088863D01*
X118669999Y-72150186D01*
X118665015Y-72219878D01*
X118636514Y-72264225D01*
X118632493Y-72268245D01*
X118632487Y-72268253D01*
X118562396Y-72373151D01*
X118562394Y-72373155D01*
X118514115Y-72489712D01*
X118514112Y-72489724D01*
X118489500Y-72613455D01*
X118489500Y-72739632D01*
X118514112Y-72863363D01*
X118514115Y-72863375D01*
X118520626Y-72879094D01*
X118528093Y-72948564D01*
X118520626Y-72973994D01*
X118514115Y-72989712D01*
X118514112Y-72989724D01*
X118489500Y-73113455D01*
X118489500Y-73239632D01*
X118499267Y-73288734D01*
X118469837Y-73276544D01*
X118410163Y-73276544D01*
X118355032Y-73299380D01*
X118312836Y-73341576D01*
X118290000Y-73396707D01*
X118290000Y-73456381D01*
X118312836Y-73511512D01*
X118355032Y-73553708D01*
X118410163Y-73576544D01*
X118469837Y-73576544D01*
X118499267Y-73564353D01*
X118489500Y-73613455D01*
X118489500Y-73679235D01*
X118469815Y-73746274D01*
X118453181Y-73766916D01*
X118108366Y-74111730D01*
X118047043Y-74145215D01*
X117977351Y-74140231D01*
X117943890Y-74118726D01*
X117934185Y-74118726D01*
X117885670Y-74145216D01*
X117815978Y-74140230D01*
X117771633Y-74111730D01*
X117502551Y-73842648D01*
X117469066Y-73781325D01*
X117468615Y-73779158D01*
X117461640Y-73744091D01*
X117441855Y-73644626D01*
X117413654Y-73576544D01*
X117469837Y-73576544D01*
X117506050Y-73561544D01*
X117928555Y-73561544D01*
X117940000Y-73572989D01*
X117951445Y-73561544D01*
X117928555Y-73561544D01*
X117506050Y-73561544D01*
X117524968Y-73553708D01*
X117567164Y-73511512D01*
X117590000Y-73456381D01*
X117590000Y-73396707D01*
X117567164Y-73341576D01*
X117524968Y-73299380D01*
X117469837Y-73276544D01*
X117410163Y-73276544D01*
X117355032Y-73299380D01*
X117312836Y-73341576D01*
X117306586Y-73356664D01*
X117247512Y-73268253D01*
X117247513Y-73268253D01*
X117247509Y-73268249D01*
X117243488Y-73264228D01*
X117210001Y-73202909D01*
X117214982Y-73133217D01*
X117243488Y-73088859D01*
X117247509Y-73084839D01*
X117282791Y-73032034D01*
X117317603Y-72979936D01*
X117317605Y-72979932D01*
X117365884Y-72863375D01*
X117365886Y-72863371D01*
X117390500Y-72739628D01*
X117390500Y-72706381D01*
X117790000Y-72706381D01*
X117812836Y-72761512D01*
X117855032Y-72803708D01*
X117910163Y-72826544D01*
X117969837Y-72826544D01*
X118024968Y-72803708D01*
X118067164Y-72761512D01*
X118090000Y-72706381D01*
X118090000Y-72646707D01*
X118067164Y-72591576D01*
X118024968Y-72549380D01*
X117969837Y-72526544D01*
X117910163Y-72526544D01*
X117855032Y-72549380D01*
X117812836Y-72591576D01*
X117790000Y-72646707D01*
X117790000Y-72706381D01*
X117390500Y-72706381D01*
X117390500Y-72613460D01*
X117390500Y-72613457D01*
X117390499Y-72613455D01*
X117386147Y-72591576D01*
X117365886Y-72489717D01*
X117359374Y-72473998D01*
X117351905Y-72404531D01*
X117359373Y-72379092D01*
X117365886Y-72363371D01*
X117390500Y-72239628D01*
X117390500Y-72113460D01*
X117390500Y-72113457D01*
X117390499Y-72113455D01*
X117385506Y-72088352D01*
X117380732Y-72064353D01*
X117410163Y-72076544D01*
X117469837Y-72076544D01*
X117524968Y-72053708D01*
X117567164Y-72011512D01*
X117590000Y-71956381D01*
X117590000Y-71896707D01*
X117567164Y-71841576D01*
X117524968Y-71799380D01*
X117506050Y-71791544D01*
X117928554Y-71791544D01*
X117951445Y-71791544D01*
X117940000Y-71780097D01*
X117928554Y-71791544D01*
X117506050Y-71791544D01*
X117469837Y-71776544D01*
X117410163Y-71776544D01*
X117380732Y-71788734D01*
X117390500Y-71739628D01*
X117390500Y-71673853D01*
X117410185Y-71606814D01*
X117426819Y-71586172D01*
X117440000Y-71572991D01*
X117771633Y-71241357D01*
X117832956Y-71207872D01*
X117902647Y-71212856D01*
X117936111Y-71234362D01*
X117945814Y-71234362D01*
X117953719Y-71230044D01*
X117969394Y-71216463D01*
X117981880Y-71214667D01*
X117994325Y-71207872D01*
X118017578Y-71209534D01*
X118038552Y-71206519D01*
X118050274Y-71211872D01*
X118064017Y-71212855D01*
X118092477Y-71231146D01*
X118093913Y-71231801D01*
X118061206Y-71194055D01*
X118050000Y-71142544D01*
X118050000Y-70276544D01*
X118037060Y-70263604D01*
X118014089Y-70256859D01*
X117968334Y-70204055D01*
X117957510Y-70142815D01*
X117958790Y-70126544D01*
X117124500Y-70126544D01*
X117057461Y-70106859D01*
X117011706Y-70054055D01*
X117000500Y-70002544D01*
X117000500Y-69641861D01*
X117000499Y-69641846D01*
X116999988Y-69635357D01*
X116999295Y-69626544D01*
X117430000Y-69626544D01*
X117958790Y-69626544D01*
X117957145Y-69605633D01*
X117912031Y-69450348D01*
X117829721Y-69311169D01*
X117829714Y-69311160D01*
X117715383Y-69196829D01*
X117715374Y-69196822D01*
X117576193Y-69114511D01*
X117576190Y-69114509D01*
X117430001Y-69072037D01*
X117430000Y-69072038D01*
X117430000Y-69626544D01*
X116999295Y-69626544D01*
X116997643Y-69605551D01*
X116970207Y-69511118D01*
X116952495Y-69450152D01*
X116952492Y-69450144D01*
X116947266Y-69441307D01*
X116930000Y-69378189D01*
X116930000Y-69072038D01*
X116929998Y-69072037D01*
X116783809Y-69114509D01*
X116783806Y-69114511D01*
X116763608Y-69126456D01*
X116695884Y-69143636D01*
X116637370Y-69126454D01*
X116616397Y-69114051D01*
X116616390Y-69114048D01*
X116460997Y-69068901D01*
X116460991Y-69068900D01*
X116424697Y-69066044D01*
X116424690Y-69066044D01*
X116015310Y-69066044D01*
X116015302Y-69066044D01*
X115979008Y-69068900D01*
X115979002Y-69068901D01*
X115823609Y-69114048D01*
X115823606Y-69114049D01*
X115684318Y-69196423D01*
X115684308Y-69196431D01*
X115646843Y-69233895D01*
X115585519Y-69267379D01*
X115518209Y-69263254D01*
X115379254Y-69214631D01*
X115379249Y-69214630D01*
X115200004Y-69194435D01*
X115199996Y-69194435D01*
X115020750Y-69214630D01*
X115020745Y-69214631D01*
X114850476Y-69274211D01*
X114697737Y-69370184D01*
X114570184Y-69497737D01*
X114474211Y-69650476D01*
X114414631Y-69820745D01*
X114414630Y-69820750D01*
X114394435Y-69999996D01*
X114394435Y-70000003D01*
X114414630Y-70179249D01*
X114414631Y-70179254D01*
X114474211Y-70349524D01*
X114530493Y-70439094D01*
X114549500Y-70505067D01*
X114549500Y-70588770D01*
X114529815Y-70655809D01*
X114477011Y-70701564D01*
X114407853Y-70711508D01*
X114344297Y-70682483D01*
X114337819Y-70676451D01*
X113886818Y-70225450D01*
X113853333Y-70164127D01*
X113850499Y-70137769D01*
X113850499Y-68302129D01*
X113850498Y-68302123D01*
X113850497Y-68302116D01*
X113844091Y-68242517D01*
X113793796Y-68107669D01*
X113793795Y-68107668D01*
X113793793Y-68107664D01*
X113707547Y-67992455D01*
X113707544Y-67992452D01*
X113592335Y-67906206D01*
X113592328Y-67906202D01*
X113457482Y-67855908D01*
X113457483Y-67855908D01*
X113397883Y-67849501D01*
X113397881Y-67849500D01*
X113397873Y-67849500D01*
X113397864Y-67849500D01*
X112202129Y-67849500D01*
X112202123Y-67849501D01*
X112142516Y-67855908D01*
X112007671Y-67906202D01*
X112007664Y-67906206D01*
X111892455Y-67992452D01*
X111892452Y-67992455D01*
X111806206Y-68107664D01*
X111806202Y-68107671D01*
X111755908Y-68242517D01*
X111755104Y-68250000D01*
X111749501Y-68302123D01*
X111749500Y-68302135D01*
X111749500Y-72097870D01*
X111749501Y-72097876D01*
X111755908Y-72157483D01*
X111806202Y-72292328D01*
X111806203Y-72292329D01*
X111806204Y-72292331D01*
X111830285Y-72324499D01*
X111862650Y-72367733D01*
X111887067Y-72433197D01*
X111872216Y-72501470D01*
X111822811Y-72550876D01*
X111763383Y-72566044D01*
X111555783Y-72566044D01*
X111488744Y-72546359D01*
X111468102Y-72529725D01*
X110886818Y-71948441D01*
X110853333Y-71887118D01*
X110850499Y-71860760D01*
X110850499Y-68302129D01*
X110850498Y-68302123D01*
X110850497Y-68302116D01*
X110844091Y-68242517D01*
X110793796Y-68107669D01*
X110793795Y-68107668D01*
X110793793Y-68107664D01*
X110707547Y-67992455D01*
X110707544Y-67992452D01*
X110592335Y-67906206D01*
X110592328Y-67906202D01*
X110457482Y-67855908D01*
X110457483Y-67855908D01*
X110397883Y-67849501D01*
X110397881Y-67849500D01*
X110397873Y-67849500D01*
X110397864Y-67849500D01*
X109202129Y-67849500D01*
X109202123Y-67849501D01*
X109142516Y-67855908D01*
X109007671Y-67906202D01*
X109007664Y-67906206D01*
X108892455Y-67992452D01*
X108892452Y-67992455D01*
X108806206Y-68107664D01*
X108806202Y-68107671D01*
X108755908Y-68242517D01*
X108755104Y-68250000D01*
X108749501Y-68302123D01*
X108749500Y-68302135D01*
X108749500Y-72097870D01*
X108749501Y-72097876D01*
X108755908Y-72157483D01*
X108791682Y-72253395D01*
X108799500Y-72296728D01*
X108799500Y-72375089D01*
X108812152Y-72438694D01*
X108805925Y-72508286D01*
X108763062Y-72563463D01*
X108697172Y-72586707D01*
X108629175Y-72570639D01*
X108602854Y-72550566D01*
X108496769Y-72444481D01*
X108496768Y-72444480D01*
X108409956Y-72394360D01*
X108409956Y-72394359D01*
X108409952Y-72394358D01*
X108359837Y-72365423D01*
X108207109Y-72324499D01*
X108048995Y-72324499D01*
X108041399Y-72324499D01*
X108041383Y-72324500D01*
X106015354Y-72324500D01*
X105948315Y-72304815D01*
X105939881Y-72298886D01*
X105902841Y-72270464D01*
X105902838Y-72270463D01*
X105902836Y-72270461D01*
X105756765Y-72209957D01*
X105756763Y-72209956D01*
X105756762Y-72209956D01*
X105729479Y-72206364D01*
X105657338Y-72196866D01*
X105593441Y-72168599D01*
X105585843Y-72161608D01*
X105512590Y-72088355D01*
X105512588Y-72088352D01*
X105393717Y-71969481D01*
X105393709Y-71969475D01*
X105287798Y-71908328D01*
X105287797Y-71908327D01*
X105287797Y-71908328D01*
X105256785Y-71890423D01*
X105244451Y-71887118D01*
X105104057Y-71849499D01*
X104945943Y-71849499D01*
X104938347Y-71849499D01*
X104938331Y-71849500D01*
X102345943Y-71849500D01*
X102193213Y-71890423D01*
X102162203Y-71908328D01*
X102162202Y-71908328D01*
X102056287Y-71969477D01*
X102056282Y-71969481D01*
X101972056Y-72053708D01*
X101944480Y-72081284D01*
X101944478Y-72081286D01*
X101875578Y-72150186D01*
X101810603Y-72215161D01*
X101749280Y-72248645D01*
X101709672Y-72250768D01*
X101697873Y-72249500D01*
X101697863Y-72249500D01*
X101252129Y-72249500D01*
X101252123Y-72249501D01*
X101192515Y-72255909D01*
X101184971Y-72257692D01*
X101184675Y-72256439D01*
X101122926Y-72260855D01*
X101109357Y-72256870D01*
X101107372Y-72256401D01*
X101047844Y-72250000D01*
X101000000Y-72250000D01*
X101000000Y-72287305D01*
X100980315Y-72354344D01*
X100950315Y-72386569D01*
X100942453Y-72392454D01*
X100942452Y-72392455D01*
X100873266Y-72484876D01*
X100817332Y-72526747D01*
X100747641Y-72531731D01*
X100686318Y-72498245D01*
X100652834Y-72436922D01*
X100650000Y-72410565D01*
X100650000Y-72250000D01*
X100602155Y-72250000D01*
X100542627Y-72256401D01*
X100542620Y-72256403D01*
X100407913Y-72306645D01*
X100407906Y-72306649D01*
X100292812Y-72392809D01*
X100292809Y-72392812D01*
X100206649Y-72507906D01*
X100206645Y-72507913D01*
X100156403Y-72642620D01*
X100156401Y-72642627D01*
X100150000Y-72702155D01*
X100150000Y-72825000D01*
X100675501Y-72825000D01*
X100742540Y-72844685D01*
X100788295Y-72897489D01*
X100799500Y-72948997D01*
X100799501Y-73050500D01*
X100799501Y-73051000D01*
X100779816Y-73118039D01*
X100727012Y-73163794D01*
X100675501Y-73175000D01*
X100150000Y-73175000D01*
X100150000Y-73297844D01*
X100156401Y-73357372D01*
X100156403Y-73357379D01*
X100206645Y-73492086D01*
X100206649Y-73492093D01*
X100292809Y-73607187D01*
X100292812Y-73607190D01*
X100415011Y-73698669D01*
X100413365Y-73700866D01*
X100452782Y-73740276D01*
X100467640Y-73808547D01*
X100443229Y-73874014D01*
X100413765Y-73899548D01*
X100414769Y-73900889D01*
X100316080Y-73974767D01*
X100250615Y-73999184D01*
X100241769Y-73999500D01*
X98000097Y-73999500D01*
X97933058Y-73979815D01*
X97912416Y-73963181D01*
X91461416Y-67512181D01*
X91427931Y-67450858D01*
X91432915Y-67381166D01*
X91474787Y-67325233D01*
X91540251Y-67300816D01*
X91549097Y-67300500D01*
X92524903Y-67300500D01*
X92591942Y-67320185D01*
X92612584Y-67336819D01*
X93861609Y-68585844D01*
X93895094Y-68647167D01*
X93896867Y-68657341D01*
X93909954Y-68756753D01*
X93909956Y-68756762D01*
X93966081Y-68892261D01*
X93970464Y-68902841D01*
X94066718Y-69028282D01*
X94192159Y-69124536D01*
X94338238Y-69185044D01*
X94455639Y-69200500D01*
X94794360Y-69200499D01*
X94794363Y-69200499D01*
X94911755Y-69185045D01*
X94911755Y-69185044D01*
X94911762Y-69185044D01*
X94911767Y-69185041D01*
X94912900Y-69184739D01*
X94914085Y-69184738D01*
X94919821Y-69183984D01*
X94919920Y-69184738D01*
X94970080Y-69184737D01*
X94970180Y-69183983D01*
X94975907Y-69184737D01*
X94977091Y-69184737D01*
X94978234Y-69185043D01*
X94978236Y-69185043D01*
X94978238Y-69185044D01*
X95095639Y-69200500D01*
X95434360Y-69200499D01*
X95434363Y-69200499D01*
X95551753Y-69185046D01*
X95551757Y-69185044D01*
X95551762Y-69185044D01*
X95697841Y-69124536D01*
X95697845Y-69124532D01*
X95704876Y-69120474D01*
X95705882Y-69122216D01*
X95760932Y-69100931D01*
X95771257Y-69100500D01*
X97055461Y-69100500D01*
X97122500Y-69120185D01*
X97168255Y-69172989D01*
X97173167Y-69185496D01*
X97202137Y-69272922D01*
X97202142Y-69272933D01*
X97293471Y-69420999D01*
X97293474Y-69421003D01*
X97416496Y-69544025D01*
X97416500Y-69544028D01*
X97564566Y-69635357D01*
X97564569Y-69635358D01*
X97564575Y-69635362D01*
X97729725Y-69690087D01*
X97831652Y-69700500D01*
X97831657Y-69700500D01*
X98418343Y-69700500D01*
X98418348Y-69700500D01*
X98520275Y-69690087D01*
X98685425Y-69635362D01*
X98833503Y-69544026D01*
X98956526Y-69421003D01*
X98957255Y-69419821D01*
X98957966Y-69419181D01*
X98961007Y-69415336D01*
X98961663Y-69415855D01*
X99009201Y-69373097D01*
X99078164Y-69361873D01*
X99142246Y-69389715D01*
X99164261Y-69415123D01*
X99164388Y-69415023D01*
X99166613Y-69417838D01*
X99168333Y-69419822D01*
X99168865Y-69420685D01*
X99168869Y-69420690D01*
X99291808Y-69543629D01*
X99439785Y-69634903D01*
X99439790Y-69634905D01*
X99604826Y-69689592D01*
X99706684Y-69699999D01*
X99706697Y-69700000D01*
X99750000Y-69700000D01*
X99750000Y-68750000D01*
X100250000Y-68750000D01*
X100250000Y-69700000D01*
X100293303Y-69700000D01*
X100293315Y-69699999D01*
X100395173Y-69689592D01*
X100560209Y-69634905D01*
X100560214Y-69634903D01*
X100708191Y-69543629D01*
X100831129Y-69420691D01*
X100922403Y-69272714D01*
X100922405Y-69272709D01*
X100977092Y-69107673D01*
X100987499Y-69005815D01*
X100987500Y-69005802D01*
X100987500Y-68750000D01*
X100250000Y-68750000D01*
X99750000Y-68750000D01*
X99750000Y-67300000D01*
X100250000Y-67300000D01*
X100250000Y-68250000D01*
X100987500Y-68250000D01*
X100987500Y-67994197D01*
X100987499Y-67994184D01*
X100977092Y-67892326D01*
X100922405Y-67727290D01*
X100922403Y-67727285D01*
X100831129Y-67579308D01*
X100708191Y-67456370D01*
X100560214Y-67365096D01*
X100560209Y-67365094D01*
X100395173Y-67310407D01*
X100293315Y-67300000D01*
X100250000Y-67300000D01*
X99750000Y-67300000D01*
X99706684Y-67300000D01*
X99604826Y-67310407D01*
X99439790Y-67365094D01*
X99439785Y-67365096D01*
X99291808Y-67456370D01*
X99168869Y-67579309D01*
X99168864Y-67579315D01*
X99168329Y-67580184D01*
X99167806Y-67580654D01*
X99164388Y-67584977D01*
X99163649Y-67584392D01*
X99116379Y-67626906D01*
X99047416Y-67638125D01*
X98983335Y-67610278D01*
X98961086Y-67584601D01*
X98961007Y-67584664D01*
X98959611Y-67582898D01*
X98957258Y-67580183D01*
X98956528Y-67578999D01*
X98833503Y-67455974D01*
X98833499Y-67455971D01*
X98685433Y-67364642D01*
X98685427Y-67364639D01*
X98685425Y-67364638D01*
X98685422Y-67364637D01*
X98520276Y-67309913D01*
X98418355Y-67299500D01*
X98418348Y-67299500D01*
X97831652Y-67299500D01*
X97831644Y-67299500D01*
X97729723Y-67309913D01*
X97564577Y-67364637D01*
X97564566Y-67364642D01*
X97416500Y-67455971D01*
X97416496Y-67455974D01*
X97293474Y-67578996D01*
X97293471Y-67579000D01*
X97202142Y-67727066D01*
X97202137Y-67727077D01*
X97173167Y-67814504D01*
X97133394Y-67871949D01*
X97068878Y-67898772D01*
X97055461Y-67899500D01*
X95771257Y-67899500D01*
X95704218Y-67879815D01*
X95698900Y-67876075D01*
X95697836Y-67875461D01*
X95551765Y-67814957D01*
X95551760Y-67814955D01*
X95434361Y-67799500D01*
X95095636Y-67799500D01*
X94978234Y-67814955D01*
X94977083Y-67815264D01*
X94975891Y-67815264D01*
X94970179Y-67816016D01*
X94970080Y-67815264D01*
X94919918Y-67815264D01*
X94919819Y-67816017D01*
X94914107Y-67815264D01*
X94912917Y-67815265D01*
X94911766Y-67814956D01*
X94812338Y-67801866D01*
X94748441Y-67773599D01*
X94740843Y-67766608D01*
X93536416Y-66562181D01*
X93502931Y-66500858D01*
X93507915Y-66431166D01*
X93549787Y-66375233D01*
X93615251Y-66350816D01*
X93624097Y-66350500D01*
X136475500Y-66350500D01*
X136542539Y-66370185D01*
X136588294Y-66422989D01*
X136599500Y-66474500D01*
X136599500Y-122025500D01*
X136579815Y-122092539D01*
X136527011Y-122138294D01*
X136475500Y-122149500D01*
X120502740Y-122149500D01*
X120435701Y-122129815D01*
X120389946Y-122077011D01*
X120380002Y-122007853D01*
X120390743Y-121975581D01*
X120390254Y-121975399D01*
X120443596Y-121832379D01*
X120443598Y-121832372D01*
X120449999Y-121772844D01*
X120450000Y-121772827D01*
X120450000Y-121125000D01*
X117450000Y-121125000D01*
X117450000Y-121772844D01*
X117456401Y-121832372D01*
X117456403Y-121832379D01*
X117509746Y-121975399D01*
X117508242Y-121975959D01*
X117520944Y-122034341D01*
X117496530Y-122099806D01*
X117440599Y-122141680D01*
X117397260Y-122149500D01*
X111602740Y-122149500D01*
X111535701Y-122129815D01*
X111489946Y-122077011D01*
X111480002Y-122007853D01*
X111490743Y-121975581D01*
X111490254Y-121975399D01*
X111543596Y-121832379D01*
X111543598Y-121832372D01*
X111549999Y-121772844D01*
X111550000Y-121772827D01*
X111550000Y-121125000D01*
X108550000Y-121125000D01*
X108550000Y-121772844D01*
X108556401Y-121832372D01*
X108556403Y-121832379D01*
X108609746Y-121975399D01*
X108608242Y-121975959D01*
X108620944Y-122034341D01*
X108596530Y-122099806D01*
X108540599Y-122141680D01*
X108497260Y-122149500D01*
X82024500Y-122149500D01*
X81957461Y-122129815D01*
X81911706Y-122077011D01*
X81900500Y-122025500D01*
X81900500Y-120625000D01*
X108550000Y-120625000D01*
X109800000Y-120625000D01*
X109800000Y-119525000D01*
X110300000Y-119525000D01*
X110300000Y-120625000D01*
X111550000Y-120625000D01*
X117450000Y-120625000D01*
X118700000Y-120625000D01*
X118700000Y-119525000D01*
X119200000Y-119525000D01*
X119200000Y-120625000D01*
X120450000Y-120625000D01*
X120450000Y-119977172D01*
X120449999Y-119977155D01*
X120443598Y-119917627D01*
X120443596Y-119917620D01*
X120393354Y-119782913D01*
X120393350Y-119782906D01*
X120307190Y-119667812D01*
X120307187Y-119667809D01*
X120192093Y-119581649D01*
X120192086Y-119581645D01*
X120057379Y-119531403D01*
X120057372Y-119531401D01*
X119997844Y-119525000D01*
X119200000Y-119525000D01*
X118700000Y-119525000D01*
X117902155Y-119525000D01*
X117842627Y-119531401D01*
X117842620Y-119531403D01*
X117707913Y-119581645D01*
X117707906Y-119581649D01*
X117592812Y-119667809D01*
X117592809Y-119667812D01*
X117506649Y-119782906D01*
X117506645Y-119782913D01*
X117456403Y-119917620D01*
X117456401Y-119917627D01*
X117450000Y-119977155D01*
X117450000Y-120625000D01*
X111550000Y-120625000D01*
X111550000Y-119977172D01*
X111549999Y-119977155D01*
X111543598Y-119917627D01*
X111543596Y-119917620D01*
X111493354Y-119782913D01*
X111493350Y-119782906D01*
X111407190Y-119667812D01*
X111407187Y-119667809D01*
X111292093Y-119581649D01*
X111292086Y-119581645D01*
X111157379Y-119531403D01*
X111157372Y-119531401D01*
X111097844Y-119525000D01*
X110300000Y-119525000D01*
X109800000Y-119525000D01*
X109002155Y-119525000D01*
X108942627Y-119531401D01*
X108942620Y-119531403D01*
X108807913Y-119581645D01*
X108807906Y-119581649D01*
X108692812Y-119667809D01*
X108692809Y-119667812D01*
X108606649Y-119782906D01*
X108606645Y-119782913D01*
X108556403Y-119917620D01*
X108556401Y-119917627D01*
X108550000Y-119977155D01*
X108550000Y-120625000D01*
X81900500Y-120625000D01*
X81900500Y-118098920D01*
X111549499Y-118098920D01*
X111578340Y-118243907D01*
X111578343Y-118243917D01*
X111634912Y-118380488D01*
X111634919Y-118380501D01*
X111717048Y-118503415D01*
X111717051Y-118503419D01*
X111821580Y-118607948D01*
X111821584Y-118607951D01*
X111944498Y-118690080D01*
X111944511Y-118690087D01*
X112081082Y-118746656D01*
X112081087Y-118746658D01*
X112081091Y-118746658D01*
X112081092Y-118746659D01*
X112226079Y-118775500D01*
X112226082Y-118775500D01*
X112373920Y-118775500D01*
X112471462Y-118756096D01*
X112518913Y-118746658D01*
X112655495Y-118690084D01*
X112778416Y-118607951D01*
X112882951Y-118503416D01*
X112965084Y-118380495D01*
X113021658Y-118243913D01*
X113050500Y-118098920D01*
X115949499Y-118098920D01*
X115978340Y-118243907D01*
X115978343Y-118243917D01*
X116034912Y-118380488D01*
X116034919Y-118380501D01*
X116117048Y-118503415D01*
X116117051Y-118503419D01*
X116221580Y-118607948D01*
X116221584Y-118607951D01*
X116344498Y-118690080D01*
X116344511Y-118690087D01*
X116481082Y-118746656D01*
X116481087Y-118746658D01*
X116481091Y-118746658D01*
X116481092Y-118746659D01*
X116626079Y-118775500D01*
X116626082Y-118775500D01*
X116773920Y-118775500D01*
X116871462Y-118756096D01*
X116918913Y-118746658D01*
X117055495Y-118690084D01*
X117178416Y-118607951D01*
X117282951Y-118503416D01*
X117365084Y-118380495D01*
X117421658Y-118243913D01*
X117450500Y-118098918D01*
X117450500Y-117951082D01*
X117450500Y-117951079D01*
X117421659Y-117806092D01*
X117421658Y-117806091D01*
X117421658Y-117806087D01*
X117421656Y-117806082D01*
X117365087Y-117669511D01*
X117365080Y-117669498D01*
X117282951Y-117546584D01*
X117282948Y-117546580D01*
X117178419Y-117442051D01*
X117178415Y-117442048D01*
X117055501Y-117359919D01*
X117055488Y-117359912D01*
X116918917Y-117303343D01*
X116918907Y-117303340D01*
X116773920Y-117274500D01*
X116773918Y-117274500D01*
X116626082Y-117274500D01*
X116626080Y-117274500D01*
X116481092Y-117303340D01*
X116481082Y-117303343D01*
X116344511Y-117359912D01*
X116344498Y-117359919D01*
X116221584Y-117442048D01*
X116221580Y-117442051D01*
X116117051Y-117546580D01*
X116117048Y-117546584D01*
X116034919Y-117669498D01*
X116034912Y-117669511D01*
X115978343Y-117806082D01*
X115978340Y-117806092D01*
X115949500Y-117951079D01*
X115949500Y-117951082D01*
X115949500Y-118098918D01*
X115949500Y-118098920D01*
X115949499Y-118098920D01*
X113050500Y-118098920D01*
X113050500Y-118098918D01*
X113050500Y-117951082D01*
X113050500Y-117951079D01*
X113021659Y-117806092D01*
X113021658Y-117806091D01*
X113021658Y-117806087D01*
X113021656Y-117806082D01*
X112965087Y-117669511D01*
X112965080Y-117669498D01*
X112882951Y-117546584D01*
X112882948Y-117546580D01*
X112778419Y-117442051D01*
X112778415Y-117442048D01*
X112655501Y-117359919D01*
X112655488Y-117359912D01*
X112518917Y-117303343D01*
X112518907Y-117303340D01*
X112373920Y-117274500D01*
X112373918Y-117274500D01*
X112226082Y-117274500D01*
X112226080Y-117274500D01*
X112081092Y-117303340D01*
X112081082Y-117303343D01*
X111944511Y-117359912D01*
X111944498Y-117359919D01*
X111821584Y-117442048D01*
X111821580Y-117442051D01*
X111717051Y-117546580D01*
X111717048Y-117546584D01*
X111634919Y-117669498D01*
X111634912Y-117669511D01*
X111578343Y-117806082D01*
X111578340Y-117806092D01*
X111549500Y-117951079D01*
X111549500Y-117951082D01*
X111549500Y-118098918D01*
X111549500Y-118098920D01*
X111549499Y-118098920D01*
X81900500Y-118098920D01*
X81900500Y-66474500D01*
X81920185Y-66407461D01*
X81972989Y-66361706D01*
X82024500Y-66350500D01*
X82934897Y-66350500D01*
X83001936Y-66370185D01*
G37*
%TD.AperFunction*%
%TA.AperFunction,Conductor*%
G36*
X89566942Y-67320185D02*
G01*
X89587584Y-67336819D01*
X97215139Y-74964374D01*
X97215149Y-74964385D01*
X97219479Y-74968715D01*
X97219480Y-74968716D01*
X97331284Y-75080520D01*
X97331286Y-75080521D01*
X97331290Y-75080524D01*
X97388178Y-75113368D01*
X97388183Y-75113370D01*
X97468209Y-75159574D01*
X97468210Y-75159574D01*
X97468215Y-75159577D01*
X97620943Y-75200500D01*
X97779057Y-75200500D01*
X100128398Y-75200500D01*
X100195437Y-75220185D01*
X100241192Y-75272989D01*
X100248170Y-75292399D01*
X100265422Y-75356781D01*
X100265423Y-75356785D01*
X100294358Y-75406900D01*
X100294359Y-75406904D01*
X100294360Y-75406904D01*
X100344480Y-75493716D01*
X100369480Y-75518716D01*
X100481284Y-75630520D01*
X100481286Y-75630521D01*
X100481290Y-75630524D01*
X100598401Y-75698137D01*
X100618216Y-75709577D01*
X100701098Y-75731785D01*
X100770942Y-75750500D01*
X100770943Y-75750500D01*
X101716588Y-75750500D01*
X101783627Y-75770185D01*
X101829382Y-75822989D01*
X101833624Y-75833531D01*
X101835749Y-75839603D01*
X101874210Y-75949521D01*
X101874211Y-75949522D01*
X101970184Y-76102262D01*
X102097738Y-76229816D01*
X102250478Y-76325789D01*
X102420739Y-76385366D01*
X102420745Y-76385368D01*
X102420750Y-76385369D01*
X102599996Y-76405565D01*
X102600000Y-76405565D01*
X102600004Y-76405565D01*
X102779249Y-76385369D01*
X102779251Y-76385368D01*
X102779255Y-76385368D01*
X102779258Y-76385366D01*
X102779262Y-76385366D01*
X102864388Y-76355578D01*
X102949522Y-76325789D01*
X102951474Y-76324562D01*
X102952915Y-76324154D01*
X102955795Y-76322768D01*
X102956037Y-76323272D01*
X103018702Y-76305556D01*
X103085540Y-76325915D01*
X103105133Y-76341868D01*
X103866819Y-77103555D01*
X104505554Y-77742290D01*
X104539039Y-77803613D01*
X104536950Y-77864563D01*
X104527403Y-77897424D01*
X104527401Y-77897436D01*
X104524500Y-77934298D01*
X104524500Y-78365701D01*
X104527401Y-78402567D01*
X104527402Y-78402573D01*
X104573254Y-78560393D01*
X104573255Y-78560396D01*
X104573256Y-78560398D01*
X104578175Y-78568716D01*
X104656917Y-78701862D01*
X104656923Y-78701870D01*
X104773129Y-78818076D01*
X104773133Y-78818079D01*
X104773135Y-78818081D01*
X104914602Y-78901744D01*
X104964314Y-78916187D01*
X105072595Y-78947646D01*
X105131481Y-78985252D01*
X105160687Y-79048725D01*
X105162000Y-79066722D01*
X105162000Y-79898439D01*
X105142315Y-79965478D01*
X105103972Y-80003433D01*
X104997737Y-80070184D01*
X104870184Y-80197737D01*
X104774211Y-80350476D01*
X104714631Y-80520745D01*
X104714630Y-80520750D01*
X104694435Y-80699996D01*
X104694435Y-80700003D01*
X104714630Y-80879249D01*
X104714631Y-80879254D01*
X104774211Y-81049523D01*
X104823699Y-81128282D01*
X104870184Y-81202262D01*
X104997738Y-81329816D01*
X105083938Y-81383979D01*
X105143734Y-81421552D01*
X105150478Y-81425789D01*
X105218306Y-81449523D01*
X105320745Y-81485368D01*
X105320750Y-81485369D01*
X105499996Y-81505565D01*
X105500000Y-81505565D01*
X105546431Y-81500333D01*
X105615250Y-81512387D01*
X105666631Y-81559735D01*
X105684256Y-81627345D01*
X105674875Y-81671005D01*
X105644957Y-81743234D01*
X105644955Y-81743239D01*
X105629500Y-81860638D01*
X105629500Y-82139363D01*
X105644953Y-82256753D01*
X105644956Y-82256762D01*
X105705464Y-82402841D01*
X105801718Y-82528282D01*
X105927159Y-82624536D01*
X105927162Y-82624537D01*
X105932283Y-82627494D01*
X105957967Y-82647202D01*
X105998349Y-82687584D01*
X105998355Y-82687589D01*
X106125681Y-82814915D01*
X106159166Y-82876238D01*
X106162000Y-82902596D01*
X106162000Y-83333277D01*
X106142315Y-83400316D01*
X106089511Y-83446071D01*
X106072596Y-83452353D01*
X105914604Y-83498254D01*
X105914603Y-83498255D01*
X105773137Y-83581917D01*
X105773129Y-83581923D01*
X105656923Y-83698129D01*
X105656917Y-83698137D01*
X105573255Y-83839603D01*
X105573254Y-83839606D01*
X105527402Y-83997426D01*
X105527401Y-83997432D01*
X105524500Y-84034298D01*
X105524500Y-84465686D01*
X105524501Y-84465717D01*
X105524506Y-84465778D01*
X105524503Y-84465787D01*
X105524596Y-84468132D01*
X105524006Y-84468155D01*
X105510138Y-84534155D01*
X105461084Y-84583909D01*
X105400888Y-84599500D01*
X104481257Y-84599500D01*
X104414218Y-84579815D01*
X104408900Y-84576075D01*
X104407838Y-84575462D01*
X104345807Y-84549768D01*
X104305579Y-84522888D01*
X104121046Y-84338355D01*
X104121044Y-84338352D01*
X104002174Y-84219482D01*
X104002172Y-84219480D01*
X103937144Y-84181936D01*
X103911468Y-84162233D01*
X102887590Y-83138355D01*
X102887588Y-83138352D01*
X102768717Y-83019481D01*
X102768716Y-83019480D01*
X102681904Y-82969360D01*
X102681904Y-82969359D01*
X102681900Y-82969358D01*
X102631785Y-82940423D01*
X102479057Y-82899499D01*
X102320943Y-82899499D01*
X102313347Y-82899499D01*
X102313331Y-82899500D01*
X99086670Y-82899500D01*
X99086654Y-82899499D01*
X99079058Y-82899499D01*
X98920943Y-82899499D01*
X98844579Y-82919961D01*
X98768214Y-82940423D01*
X98768209Y-82940426D01*
X98631290Y-83019475D01*
X98631282Y-83019481D01*
X96919481Y-84731282D01*
X96919479Y-84731285D01*
X96874279Y-84809576D01*
X96874277Y-84809578D01*
X96840425Y-84868209D01*
X96840424Y-84868210D01*
X96840423Y-84868215D01*
X96799499Y-85020943D01*
X96799499Y-85020945D01*
X96799499Y-85189046D01*
X96799500Y-85189059D01*
X96799500Y-87382465D01*
X96779815Y-87449504D01*
X96727011Y-87495259D01*
X96688102Y-87505823D01*
X96647202Y-87510001D01*
X96647200Y-87510001D01*
X96480668Y-87565185D01*
X96480663Y-87565187D01*
X96331342Y-87657289D01*
X96207289Y-87781342D01*
X96115187Y-87930663D01*
X96115185Y-87930668D01*
X96110325Y-87945334D01*
X96060001Y-88097203D01*
X96060001Y-88097204D01*
X96060000Y-88097204D01*
X96049500Y-88199983D01*
X96049500Y-89800001D01*
X96049501Y-89800018D01*
X96060000Y-89902796D01*
X96060001Y-89902799D01*
X96115185Y-90069331D01*
X96115187Y-90069336D01*
X96141218Y-90111539D01*
X96207288Y-90218656D01*
X96331344Y-90342712D01*
X96480666Y-90434814D01*
X96647203Y-90489999D01*
X96749991Y-90500500D01*
X98050008Y-90500499D01*
X98152797Y-90489999D01*
X98319334Y-90434814D01*
X98468656Y-90342712D01*
X98592712Y-90218656D01*
X98684814Y-90069334D01*
X98684814Y-90069331D01*
X98688178Y-90063879D01*
X98740126Y-90017154D01*
X98809088Y-90005931D01*
X98873170Y-90033774D01*
X98881398Y-90041294D01*
X99020213Y-90180109D01*
X99192179Y-90305048D01*
X99192181Y-90305049D01*
X99192184Y-90305051D01*
X99381588Y-90401557D01*
X99583757Y-90467246D01*
X99793713Y-90500500D01*
X99793714Y-90500500D01*
X100006286Y-90500500D01*
X100006287Y-90500500D01*
X100216243Y-90467246D01*
X100418412Y-90401557D01*
X100607816Y-90305051D01*
X100629789Y-90289086D01*
X100779786Y-90180109D01*
X100779788Y-90180106D01*
X100779792Y-90180104D01*
X100930104Y-90029792D01*
X100930106Y-90029788D01*
X100930109Y-90029786D01*
X101055048Y-89857820D01*
X101055047Y-89857820D01*
X101055051Y-89857816D01*
X101151557Y-89668412D01*
X101217246Y-89466243D01*
X101250500Y-89256287D01*
X101250500Y-88743713D01*
X101217246Y-88533757D01*
X101151557Y-88331588D01*
X101055051Y-88142184D01*
X101055049Y-88142181D01*
X101055048Y-88142179D01*
X100930109Y-87970213D01*
X100779786Y-87819890D01*
X100607815Y-87694948D01*
X100607814Y-87694947D01*
X100568205Y-87674765D01*
X100517409Y-87626791D01*
X100500500Y-87564281D01*
X100500500Y-86460096D01*
X100520185Y-86393057D01*
X100536815Y-86372419D01*
X101075845Y-85833388D01*
X101137166Y-85799905D01*
X101147341Y-85798132D01*
X101246755Y-85785045D01*
X101246755Y-85785044D01*
X101246762Y-85785044D01*
X101246767Y-85785041D01*
X101247900Y-85784739D01*
X101249085Y-85784738D01*
X101254821Y-85783984D01*
X101254920Y-85784738D01*
X101305080Y-85784737D01*
X101305180Y-85783983D01*
X101310907Y-85784737D01*
X101312091Y-85784737D01*
X101313234Y-85785043D01*
X101313236Y-85785043D01*
X101313238Y-85785044D01*
X101430639Y-85800500D01*
X101769360Y-85800499D01*
X101769363Y-85800499D01*
X101886753Y-85785046D01*
X101886757Y-85785044D01*
X101886762Y-85785044D01*
X102032841Y-85724536D01*
X102032845Y-85724532D01*
X102039876Y-85720474D01*
X102040882Y-85722216D01*
X102095932Y-85700931D01*
X102106257Y-85700500D01*
X102510500Y-85700500D01*
X102577539Y-85720185D01*
X102623294Y-85772989D01*
X102634500Y-85824500D01*
X102634500Y-89623480D01*
X102614815Y-89690519D01*
X102598181Y-89711161D01*
X98068353Y-94240988D01*
X98007030Y-94274473D01*
X97937338Y-94269489D01*
X97892991Y-94240988D01*
X87739965Y-84087962D01*
X87706480Y-84026639D01*
X87711464Y-83956947D01*
X87726066Y-83929165D01*
X87839035Y-83767830D01*
X87938903Y-83553663D01*
X88000063Y-83325408D01*
X88020659Y-83090000D01*
X88000063Y-82854592D01*
X87939963Y-82630293D01*
X87938905Y-82626344D01*
X87938904Y-82626343D01*
X87938903Y-82626337D01*
X87839035Y-82412171D01*
X87833425Y-82404158D01*
X87703494Y-82218597D01*
X87536402Y-82051506D01*
X87536396Y-82051501D01*
X87350842Y-81921575D01*
X87307217Y-81866998D01*
X87300023Y-81797500D01*
X87331546Y-81735145D01*
X87350842Y-81718425D01*
X87388826Y-81691828D01*
X87536401Y-81588495D01*
X87703495Y-81421401D01*
X87839035Y-81227830D01*
X87938903Y-81013663D01*
X88000063Y-80785408D01*
X88020659Y-80550000D01*
X88018046Y-80520142D01*
X88031811Y-80451645D01*
X88080425Y-80401461D01*
X88148453Y-80385526D01*
X88208052Y-80406682D01*
X88208572Y-80405783D01*
X88213445Y-80408596D01*
X88214297Y-80408899D01*
X88215423Y-80409738D01*
X88215609Y-80409845D01*
X88215611Y-80409847D01*
X88264286Y-80437949D01*
X88264285Y-80437949D01*
X88264288Y-80437950D01*
X88352536Y-80488901D01*
X88352537Y-80488901D01*
X88352542Y-80488904D01*
X88505269Y-80529827D01*
X88505270Y-80529827D01*
X92984004Y-80529827D01*
X92984020Y-80529828D01*
X92991616Y-80529828D01*
X93149727Y-80529828D01*
X93149730Y-80529828D01*
X93302458Y-80488904D01*
X93390714Y-80437949D01*
X93439389Y-80409847D01*
X93551193Y-80298043D01*
X93551193Y-80298041D01*
X93561397Y-80287838D01*
X93561400Y-80287833D01*
X94202264Y-79646970D01*
X94263585Y-79613487D01*
X94328260Y-79616721D01*
X94483757Y-79667246D01*
X94693713Y-79700500D01*
X94693714Y-79700500D01*
X94906286Y-79700500D01*
X94906287Y-79700500D01*
X95116243Y-79667246D01*
X95318412Y-79601557D01*
X95507816Y-79505051D01*
X95543330Y-79479249D01*
X95679786Y-79380109D01*
X95679788Y-79380106D01*
X95679792Y-79380104D01*
X95830104Y-79229792D01*
X95830106Y-79229788D01*
X95830109Y-79229786D01*
X95955048Y-79057820D01*
X95955047Y-79057820D01*
X95955051Y-79057816D01*
X96051557Y-78868412D01*
X96117246Y-78666243D01*
X96150500Y-78456287D01*
X96150500Y-77943713D01*
X96117246Y-77733757D01*
X96051557Y-77531588D01*
X95955051Y-77342184D01*
X95955049Y-77342181D01*
X95955048Y-77342179D01*
X95830109Y-77170213D01*
X95679786Y-77019890D01*
X95507820Y-76894951D01*
X95318414Y-76798444D01*
X95318413Y-76798443D01*
X95318412Y-76798443D01*
X95116243Y-76732754D01*
X95116241Y-76732753D01*
X95116240Y-76732753D01*
X94954957Y-76707208D01*
X94906287Y-76699500D01*
X94693713Y-76699500D01*
X94645042Y-76707208D01*
X94483760Y-76732753D01*
X94281585Y-76798444D01*
X94092179Y-76894951D01*
X93920215Y-77019889D01*
X93781398Y-77158706D01*
X93720075Y-77192190D01*
X93650383Y-77187206D01*
X93594450Y-77145334D01*
X93588178Y-77136120D01*
X93492712Y-76981344D01*
X93368657Y-76857289D01*
X93368656Y-76857288D01*
X93258925Y-76789606D01*
X93219336Y-76765187D01*
X93219331Y-76765185D01*
X93211228Y-76762500D01*
X93052797Y-76710001D01*
X93052795Y-76710000D01*
X92950010Y-76699500D01*
X91649998Y-76699500D01*
X91649981Y-76699501D01*
X91547203Y-76710000D01*
X91547200Y-76710001D01*
X91380668Y-76765185D01*
X91380663Y-76765187D01*
X91231342Y-76857289D01*
X91107289Y-76981342D01*
X91015187Y-77130663D01*
X91015185Y-77130668D01*
X91012558Y-77138597D01*
X90960001Y-77297203D01*
X90960001Y-77297204D01*
X90960000Y-77297204D01*
X90949500Y-77399983D01*
X90949500Y-77475500D01*
X90929815Y-77542539D01*
X90877011Y-77588294D01*
X90825500Y-77599500D01*
X89695097Y-77599500D01*
X89628058Y-77579815D01*
X89607416Y-77563181D01*
X87997766Y-75953531D01*
X87964281Y-75892208D01*
X87965672Y-75833757D01*
X87968557Y-75822989D01*
X88000063Y-75705408D01*
X88020659Y-75470000D01*
X88000063Y-75234592D01*
X87938903Y-75006337D01*
X87839035Y-74792171D01*
X87833425Y-74784158D01*
X87703494Y-74598597D01*
X87536402Y-74431506D01*
X87536401Y-74431505D01*
X87350405Y-74301269D01*
X87306781Y-74246692D01*
X87299588Y-74177193D01*
X87331110Y-74114839D01*
X87350405Y-74098119D01*
X87536082Y-73968105D01*
X87703105Y-73801082D01*
X87838600Y-73607578D01*
X87938429Y-73393492D01*
X87938432Y-73393486D01*
X87995636Y-73180000D01*
X87098012Y-73180000D01*
X87130925Y-73122993D01*
X87165000Y-72995826D01*
X87165000Y-72864174D01*
X87130925Y-72737007D01*
X87098012Y-72680000D01*
X87995636Y-72680000D01*
X87995635Y-72679999D01*
X87938432Y-72466513D01*
X87938429Y-72466507D01*
X87838600Y-72252422D01*
X87838599Y-72252420D01*
X87703113Y-72058926D01*
X87703108Y-72058920D01*
X87536078Y-71891890D01*
X87350405Y-71761879D01*
X87306780Y-71707302D01*
X87299588Y-71637804D01*
X87331110Y-71575449D01*
X87350406Y-71558730D01*
X87350842Y-71558425D01*
X87536401Y-71428495D01*
X87703495Y-71261401D01*
X87839035Y-71067830D01*
X87938903Y-70853663D01*
X88000063Y-70625408D01*
X88020659Y-70390000D01*
X88000063Y-70154592D01*
X87938903Y-69926337D01*
X87839035Y-69712171D01*
X87833425Y-69704158D01*
X87703494Y-69518597D01*
X87536402Y-69351506D01*
X87536396Y-69351501D01*
X87350842Y-69221575D01*
X87307217Y-69166998D01*
X87300023Y-69097500D01*
X87331546Y-69035145D01*
X87350842Y-69018425D01*
X87373026Y-69002891D01*
X87536401Y-68888495D01*
X87703495Y-68721401D01*
X87839035Y-68527830D01*
X87938903Y-68313663D01*
X88000063Y-68085408D01*
X88020659Y-67850000D01*
X88018797Y-67828723D01*
X88009923Y-67727290D01*
X88000063Y-67614592D01*
X87957728Y-67456593D01*
X87959391Y-67386743D01*
X87998554Y-67328881D01*
X88062782Y-67301377D01*
X88077503Y-67300500D01*
X89499903Y-67300500D01*
X89566942Y-67320185D01*
G37*
%TD.AperFunction*%
%TD*%
M02*
