%TF.GenerationSoftware,KiCad,Pcbnew,8.0.1*%
%TF.CreationDate,2024-04-11T19:27:17-06:00*%
%TF.ProjectId,ECE Altitude Project,45434520-416c-4746-9974-756465205072,rev?*%
%TF.SameCoordinates,Original*%
%TF.FileFunction,Copper,L2,Bot*%
%TF.FilePolarity,Positive*%
%FSLAX46Y46*%
G04 Gerber Fmt 4.6, Leading zero omitted, Abs format (unit mm)*
G04 Created by KiCad (PCBNEW 8.0.1) date 2024-04-11 19:27:17*
%MOMM*%
%LPD*%
G01*
G04 APERTURE LIST*
G04 Aperture macros list*
%AMRoundRect*
0 Rectangle with rounded corners*
0 $1 Rounding radius*
0 $2 $3 $4 $5 $6 $7 $8 $9 X,Y pos of 4 corners*
0 Add a 4 corners polygon primitive as box body*
4,1,4,$2,$3,$4,$5,$6,$7,$8,$9,$2,$3,0*
0 Add four circle primitives for the rounded corners*
1,1,$1+$1,$2,$3*
1,1,$1+$1,$4,$5*
1,1,$1+$1,$6,$7*
1,1,$1+$1,$8,$9*
0 Add four rect primitives between the rounded corners*
20,1,$1+$1,$2,$3,$4,$5,0*
20,1,$1+$1,$4,$5,$6,$7,0*
20,1,$1+$1,$6,$7,$8,$9,0*
20,1,$1+$1,$8,$9,$2,$3,0*%
G04 Aperture macros list end*
%TA.AperFunction,ComponentPad*%
%ADD10C,0.600000*%
%TD*%
%TA.AperFunction,SMDPad,CuDef*%
%ADD11R,2.300000X2.800000*%
%TD*%
%TA.AperFunction,ComponentPad*%
%ADD12R,2.000000X2.000000*%
%TD*%
%TA.AperFunction,ComponentPad*%
%ADD13RoundRect,0.250000X-0.750000X0.600000X-0.750000X-0.600000X0.750000X-0.600000X0.750000X0.600000X0*%
%TD*%
%TA.AperFunction,ComponentPad*%
%ADD14O,2.000000X1.700000*%
%TD*%
%TA.AperFunction,ComponentPad*%
%ADD15RoundRect,0.250000X0.600000X0.750000X-0.600000X0.750000X-0.600000X-0.750000X0.600000X-0.750000X0*%
%TD*%
%TA.AperFunction,ComponentPad*%
%ADD16O,1.700000X2.000000*%
%TD*%
%TA.AperFunction,ComponentPad*%
%ADD17RoundRect,0.250000X-0.600000X-0.750000X0.600000X-0.750000X0.600000X0.750000X-0.600000X0.750000X0*%
%TD*%
%TA.AperFunction,ComponentPad*%
%ADD18R,1.700000X1.700000*%
%TD*%
%TA.AperFunction,ComponentPad*%
%ADD19O,1.700000X1.700000*%
%TD*%
%TA.AperFunction,ViaPad*%
%ADD20C,2.000000*%
%TD*%
%TA.AperFunction,ViaPad*%
%ADD21C,0.600000*%
%TD*%
%TA.AperFunction,ViaPad*%
%ADD22C,1.000000*%
%TD*%
%TA.AperFunction,Conductor*%
%ADD23C,1.500000*%
%TD*%
%TA.AperFunction,Conductor*%
%ADD24C,0.200000*%
%TD*%
%TA.AperFunction,Conductor*%
%ADD25C,0.750000*%
%TD*%
G04 APERTURE END LIST*
D10*
%TO.P,U2,11,PAD*%
%TO.N,GND*%
X117440000Y-71926544D03*
X117440000Y-73426544D03*
X117940000Y-72676544D03*
D11*
X117940000Y-72676544D03*
D10*
X118440000Y-71926544D03*
X118440000Y-73426544D03*
%TD*%
D12*
%TO.P,J9,1,Pin_1*%
%TO.N,/BATT_IN_2*%
X120800000Y-86100000D03*
%TD*%
D13*
%TO.P,J7,1,Pin_1*%
%TO.N,GND*%
X130600000Y-93000000D03*
D14*
%TO.P,J7,2,Pin_2*%
%TO.N,/BATT_IN_2*%
X130600000Y-95500000D03*
%TD*%
D15*
%TO.P,J8,1,Pin_1*%
%TO.N,/SEL1*%
X99900000Y-109900000D03*
D16*
%TO.P,J8,2,Pin_2*%
%TO.N,/SEL2*%
X97400000Y-109900000D03*
%TD*%
D12*
%TO.P,J10,1,Pin_1*%
%TO.N,/BATT_IN_1*%
X115400000Y-86034044D03*
%TD*%
D17*
%TO.P,J5,1,Pin_1*%
%TO.N,VCC*%
X97400000Y-103300000D03*
D16*
%TO.P,J5,2,Pin_2*%
%TO.N,GND*%
X99900000Y-103300000D03*
%TD*%
D17*
%TO.P,J1,1,Pin_1*%
%TO.N,VCC*%
X97400000Y-95900000D03*
D16*
%TO.P,J1,2,Pin_2*%
%TO.N,GND*%
X99900000Y-95900000D03*
%TD*%
D17*
%TO.P,J3,1,Pin_1*%
%TO.N,/TXD*%
X92300000Y-78200000D03*
D16*
%TO.P,J3,2,Pin_2*%
%TO.N,/RXD*%
X94800000Y-78200000D03*
%TD*%
D17*
%TO.P,J4,1,Pin_1*%
%TO.N,/SDI{slash}SDA*%
X97400000Y-89000000D03*
D16*
%TO.P,J4,2,Pin_2*%
%TO.N,/SCK{slash}SCL*%
X99900000Y-89000000D03*
%TD*%
D18*
%TO.P,J2,1,Pin_1*%
%TO.N,3.3V*%
X84125000Y-67850000D03*
D19*
%TO.P,J2,2,Pin_2*%
%TO.N,5V*%
X86665000Y-67850000D03*
%TO.P,J2,3,Pin_3*%
%TO.N,/SDI{slash}SDA*%
X84125000Y-70390000D03*
%TO.P,J2,4,Pin_4*%
%TO.N,5V*%
X86665000Y-70390000D03*
%TO.P,J2,5,Pin_5*%
%TO.N,/SCK{slash}SCL*%
X84125000Y-72930000D03*
%TO.P,J2,6,Pin_6*%
%TO.N,GND*%
X86665000Y-72930000D03*
%TO.P,J2,7,Pin_7*%
%TO.N,unconnected-(J2-Pin_7-Pad7)*%
X84125000Y-75470000D03*
%TO.P,J2,8,Pin_8*%
%TO.N,/TXD*%
X86665000Y-75470000D03*
%TO.P,J2,9,Pin_9*%
%TO.N,unconnected-(J2-Pin_9-Pad9)*%
X84125000Y-78010000D03*
%TO.P,J2,10,Pin_10*%
%TO.N,/RXD*%
X86665000Y-78010000D03*
%TO.P,J2,11,Pin_11*%
%TO.N,unconnected-(J2-Pin_11-Pad11)*%
X84125000Y-80550000D03*
%TO.P,J2,12,Pin_12*%
%TO.N,unconnected-(J2-Pin_12-Pad12)*%
X86665000Y-80550000D03*
%TO.P,J2,13,Pin_13*%
%TO.N,unconnected-(J2-Pin_13-Pad13)*%
X84125000Y-83090000D03*
%TO.P,J2,14,Pin_14*%
%TO.N,unconnected-(J2-Pin_14-Pad14)*%
X86665000Y-83090000D03*
%TO.P,J2,15,Pin_15*%
%TO.N,unconnected-(J2-Pin_15-Pad15)*%
X84125000Y-85630000D03*
%TO.P,J2,16,Pin_16*%
%TO.N,/SEL1*%
X86665000Y-85630000D03*
%TO.P,J2,17,Pin_17*%
%TO.N,VCC*%
X84125000Y-88170000D03*
%TO.P,J2,18,Pin_18*%
%TO.N,/SEL2*%
X86665000Y-88170000D03*
%TO.P,J2,19,Pin_19*%
%TO.N,unconnected-(J2-Pin_19-Pad19)*%
X84125000Y-90710000D03*
%TO.P,J2,20,Pin_20*%
%TO.N,unconnected-(J2-Pin_20-Pad20)*%
X86665000Y-90710000D03*
%TO.P,J2,21,Pin_21*%
%TO.N,unconnected-(J2-Pin_21-Pad21)*%
X84125000Y-93250000D03*
%TO.P,J2,22,Pin_22*%
%TO.N,unconnected-(J2-Pin_22-Pad22)*%
X86665000Y-93250000D03*
%TO.P,J2,23,Pin_23*%
%TO.N,unconnected-(J2-Pin_23-Pad23)*%
X84125000Y-95790000D03*
%TO.P,J2,24,Pin_24*%
%TO.N,unconnected-(J2-Pin_24-Pad24)*%
X86665000Y-95790000D03*
%TO.P,J2,25,Pin_25*%
%TO.N,unconnected-(J2-Pin_25-Pad25)*%
X84125000Y-98330000D03*
%TO.P,J2,26,Pin_26*%
%TO.N,unconnected-(J2-Pin_26-Pad26)*%
X86665000Y-98330000D03*
%TO.P,J2,27,Pin_27*%
%TO.N,unconnected-(J2-Pin_27-Pad27)*%
X84125000Y-100870000D03*
%TO.P,J2,28,Pin_28*%
%TO.N,unconnected-(J2-Pin_28-Pad28)*%
X86665000Y-100870000D03*
%TO.P,J2,29,Pin_29*%
%TO.N,unconnected-(J2-Pin_29-Pad29)*%
X84125000Y-103410000D03*
%TO.P,J2,30,Pin_30*%
%TO.N,unconnected-(J2-Pin_30-Pad30)*%
X86665000Y-103410000D03*
%TO.P,J2,31,Pin_31*%
%TO.N,unconnected-(J2-Pin_31-Pad31)*%
X84125000Y-105950000D03*
%TO.P,J2,32,Pin_32*%
%TO.N,unconnected-(J2-Pin_32-Pad32)*%
X86665000Y-105950000D03*
%TO.P,J2,33,Pin_33*%
%TO.N,unconnected-(J2-Pin_33-Pad33)*%
X84125000Y-108490000D03*
%TO.P,J2,34,Pin_34*%
%TO.N,unconnected-(J2-Pin_34-Pad34)*%
X86665000Y-108490000D03*
%TO.P,J2,35,Pin_35*%
%TO.N,unconnected-(J2-Pin_35-Pad35)*%
X84125000Y-111030000D03*
%TO.P,J2,36,Pin_36*%
%TO.N,unconnected-(J2-Pin_36-Pad36)*%
X86665000Y-111030000D03*
%TO.P,J2,37,Pin_37*%
%TO.N,unconnected-(J2-Pin_37-Pad37)*%
X84125000Y-113570000D03*
%TO.P,J2,38,Pin_38*%
%TO.N,unconnected-(J2-Pin_38-Pad38)*%
X86665000Y-113570000D03*
%TO.P,J2,39,Pin_39*%
%TO.N,unconnected-(J2-Pin_39-Pad39)*%
X84125000Y-116110000D03*
%TO.P,J2,40,Pin_40*%
%TO.N,unconnected-(J2-Pin_40-Pad40)*%
X86665000Y-116110000D03*
%TD*%
D20*
%TO.N,5V*%
X121200000Y-70000000D03*
D21*
X115200000Y-70000000D03*
%TO.N,/SCK{slash}SCL*%
X107600000Y-79300000D03*
X99900000Y-84400000D03*
%TO.N,3.3V*%
X104200000Y-75500000D03*
X102600000Y-75600000D03*
%TO.N,/SCK_3V*%
X105500000Y-80700000D03*
X107700000Y-81100000D03*
D22*
%TO.N,/BATT_IN_1*%
X120800000Y-74200000D03*
X122000000Y-72791544D03*
%TD*%
D23*
%TO.N,5V*%
X88425000Y-70390000D02*
X88815000Y-70000000D01*
X88815000Y-70000000D02*
X86665000Y-67850000D01*
X86665000Y-70390000D02*
X88425000Y-70390000D01*
X115200000Y-70000000D02*
X88815000Y-70000000D01*
X121200000Y-70000000D02*
X115200000Y-70000000D01*
D24*
%TO.N,/SDI{slash}SDA*%
X84601346Y-74080000D02*
X85515000Y-74993654D01*
X82975000Y-71540000D02*
X82975000Y-73406346D01*
X85515000Y-74993654D02*
X85515000Y-78486346D01*
X87560000Y-79160000D02*
X97400000Y-89000000D01*
X86188654Y-79160000D02*
X87560000Y-79160000D01*
X83648654Y-74080000D02*
X84601346Y-74080000D01*
X84125000Y-70390000D02*
X82975000Y-71540000D01*
X85515000Y-78486346D02*
X86188654Y-79160000D01*
X82975000Y-73406346D02*
X83648654Y-74080000D01*
%TO.N,/SCK{slash}SCL*%
X90156346Y-71780000D02*
X85275000Y-71780000D01*
X105000000Y-79300000D02*
X99900000Y-84400000D01*
X99900000Y-81523654D02*
X90156346Y-71780000D01*
X85275000Y-71780000D02*
X84125000Y-72930000D01*
X107600000Y-79300000D02*
X105000000Y-79300000D01*
X99900000Y-84400000D02*
X99900000Y-81523654D01*
%TO.N,3.3V*%
X104200000Y-75500000D02*
X104100000Y-75600000D01*
X104100000Y-75600000D02*
X102600000Y-75600000D01*
%TO.N,/SCK_3V*%
X105900000Y-81100000D02*
X107700000Y-81100000D01*
X105500000Y-80700000D02*
X105900000Y-81100000D01*
D25*
%TO.N,/BATT_IN_1*%
X122000000Y-72791544D02*
X122000000Y-73000000D01*
X122000000Y-73000000D02*
X120800000Y-74200000D01*
%TD*%
%TA.AperFunction,Conductor*%
%TO.N,GND*%
G36*
X83001936Y-66370185D02*
G01*
X83047691Y-66422989D01*
X83057635Y-66492147D01*
X83028610Y-66555703D01*
X83009208Y-66573766D01*
X82917455Y-66642452D01*
X82917452Y-66642455D01*
X82831206Y-66757664D01*
X82831202Y-66757671D01*
X82780908Y-66892517D01*
X82774501Y-66952116D01*
X82774500Y-66952135D01*
X82774500Y-68747870D01*
X82774501Y-68747876D01*
X82780908Y-68807483D01*
X82831202Y-68942328D01*
X82831206Y-68942335D01*
X82917452Y-69057544D01*
X82917455Y-69057547D01*
X83032664Y-69143793D01*
X83032671Y-69143797D01*
X83164081Y-69192810D01*
X83220015Y-69234681D01*
X83244432Y-69300145D01*
X83229580Y-69368418D01*
X83208430Y-69396673D01*
X83086503Y-69518600D01*
X82950965Y-69712169D01*
X82950964Y-69712171D01*
X82851098Y-69926335D01*
X82851094Y-69926344D01*
X82789938Y-70154586D01*
X82789936Y-70154596D01*
X82769341Y-70389999D01*
X82769341Y-70390000D01*
X82789936Y-70625403D01*
X82789938Y-70625413D01*
X82824327Y-70753756D01*
X82822664Y-70823606D01*
X82792233Y-70873530D01*
X82606286Y-71059478D01*
X82494481Y-71171282D01*
X82494479Y-71171284D01*
X82474538Y-71205823D01*
X82466110Y-71220423D01*
X82415423Y-71308215D01*
X82374499Y-71460943D01*
X82374499Y-71460945D01*
X82374499Y-71629046D01*
X82374500Y-71629059D01*
X82374500Y-73319676D01*
X82374499Y-73319694D01*
X82374499Y-73485402D01*
X82407303Y-73607830D01*
X82415423Y-73638131D01*
X82417349Y-73641467D01*
X82417591Y-73641885D01*
X82417596Y-73641904D01*
X82417600Y-73641902D01*
X82494475Y-73775055D01*
X82494481Y-73775063D01*
X82613349Y-73893931D01*
X82613355Y-73893936D01*
X83114579Y-74395160D01*
X83148064Y-74456483D01*
X83143080Y-74526175D01*
X83114582Y-74570519D01*
X83086506Y-74598596D01*
X82950965Y-74792169D01*
X82950964Y-74792171D01*
X82851098Y-75006335D01*
X82851094Y-75006344D01*
X82789938Y-75234586D01*
X82789936Y-75234596D01*
X82769341Y-75469999D01*
X82769341Y-75470000D01*
X82789936Y-75705403D01*
X82789938Y-75705413D01*
X82851094Y-75933655D01*
X82851096Y-75933659D01*
X82851097Y-75933663D01*
X82929716Y-76102262D01*
X82950965Y-76147830D01*
X82950967Y-76147834D01*
X83086501Y-76341395D01*
X83086506Y-76341402D01*
X83253597Y-76508493D01*
X83253603Y-76508498D01*
X83439158Y-76638425D01*
X83482783Y-76693002D01*
X83489977Y-76762500D01*
X83458454Y-76824855D01*
X83439158Y-76841575D01*
X83253597Y-76971505D01*
X83086505Y-77138597D01*
X82950965Y-77332169D01*
X82950964Y-77332171D01*
X82851098Y-77546335D01*
X82851094Y-77546344D01*
X82789938Y-77774586D01*
X82789936Y-77774596D01*
X82769341Y-78009999D01*
X82769341Y-78010000D01*
X82789936Y-78245403D01*
X82789938Y-78245413D01*
X82851094Y-78473655D01*
X82851096Y-78473659D01*
X82851097Y-78473663D01*
X82950965Y-78687830D01*
X82950967Y-78687834D01*
X83086501Y-78881395D01*
X83086506Y-78881402D01*
X83253597Y-79048493D01*
X83253603Y-79048498D01*
X83439158Y-79178425D01*
X83482783Y-79233002D01*
X83489977Y-79302500D01*
X83458454Y-79364855D01*
X83439158Y-79381575D01*
X83253597Y-79511505D01*
X83086505Y-79678597D01*
X82950965Y-79872169D01*
X82950964Y-79872171D01*
X82851098Y-80086335D01*
X82851094Y-80086344D01*
X82789938Y-80314586D01*
X82789936Y-80314596D01*
X82769341Y-80549999D01*
X82769341Y-80550000D01*
X82789936Y-80785403D01*
X82789938Y-80785413D01*
X82851094Y-81013655D01*
X82851096Y-81013659D01*
X82851097Y-81013663D01*
X82867819Y-81049523D01*
X82950965Y-81227830D01*
X82950967Y-81227834D01*
X83022376Y-81329816D01*
X83086501Y-81421396D01*
X83086506Y-81421402D01*
X83253597Y-81588493D01*
X83253603Y-81588498D01*
X83439158Y-81718425D01*
X83482783Y-81773002D01*
X83489977Y-81842500D01*
X83458454Y-81904855D01*
X83439158Y-81921575D01*
X83253597Y-82051505D01*
X83086505Y-82218597D01*
X82950965Y-82412169D01*
X82950964Y-82412171D01*
X82851098Y-82626335D01*
X82851094Y-82626344D01*
X82789938Y-82854586D01*
X82789936Y-82854596D01*
X82769341Y-83089999D01*
X82769341Y-83090000D01*
X82789936Y-83325403D01*
X82789938Y-83325413D01*
X82851094Y-83553655D01*
X82851096Y-83553659D01*
X82851097Y-83553663D01*
X82855000Y-83562032D01*
X82950965Y-83767830D01*
X82950967Y-83767834D01*
X83039938Y-83894896D01*
X83086501Y-83961396D01*
X83086506Y-83961402D01*
X83253597Y-84128493D01*
X83253603Y-84128498D01*
X83439158Y-84258425D01*
X83482783Y-84313002D01*
X83489977Y-84382500D01*
X83458454Y-84444855D01*
X83439158Y-84461575D01*
X83253597Y-84591505D01*
X83086505Y-84758597D01*
X82950965Y-84952169D01*
X82950964Y-84952171D01*
X82851098Y-85166335D01*
X82851094Y-85166344D01*
X82789938Y-85394586D01*
X82789936Y-85394596D01*
X82769341Y-85629999D01*
X82769341Y-85630000D01*
X82789936Y-85865403D01*
X82789938Y-85865413D01*
X82851094Y-86093655D01*
X82851096Y-86093659D01*
X82851097Y-86093663D01*
X82855000Y-86102032D01*
X82950965Y-86307830D01*
X82950967Y-86307834D01*
X83059281Y-86462521D01*
X83086501Y-86501396D01*
X83086506Y-86501402D01*
X83253597Y-86668493D01*
X83253603Y-86668498D01*
X83439158Y-86798425D01*
X83482783Y-86853002D01*
X83489977Y-86922500D01*
X83458454Y-86984855D01*
X83439158Y-87001575D01*
X83253597Y-87131505D01*
X83086505Y-87298597D01*
X82950965Y-87492169D01*
X82950964Y-87492171D01*
X82851098Y-87706335D01*
X82851094Y-87706344D01*
X82789938Y-87934586D01*
X82789936Y-87934596D01*
X82769341Y-88169999D01*
X82769341Y-88170000D01*
X82789936Y-88405403D01*
X82789938Y-88405413D01*
X82851094Y-88633655D01*
X82851096Y-88633659D01*
X82851097Y-88633663D01*
X82931004Y-88805023D01*
X82950965Y-88847830D01*
X82950967Y-88847834D01*
X83059281Y-89002521D01*
X83086501Y-89041396D01*
X83086506Y-89041402D01*
X83253597Y-89208493D01*
X83253603Y-89208498D01*
X83439158Y-89338425D01*
X83482783Y-89393002D01*
X83489977Y-89462500D01*
X83458454Y-89524855D01*
X83439158Y-89541575D01*
X83253597Y-89671505D01*
X83086505Y-89838597D01*
X82950965Y-90032169D01*
X82950964Y-90032171D01*
X82851098Y-90246335D01*
X82851094Y-90246344D01*
X82789938Y-90474586D01*
X82789936Y-90474596D01*
X82769341Y-90709999D01*
X82769341Y-90710000D01*
X82789936Y-90945403D01*
X82789938Y-90945413D01*
X82851094Y-91173655D01*
X82851096Y-91173659D01*
X82851097Y-91173663D01*
X82855000Y-91182032D01*
X82950965Y-91387830D01*
X82950967Y-91387834D01*
X83059281Y-91542521D01*
X83086501Y-91581396D01*
X83086506Y-91581402D01*
X83253597Y-91748493D01*
X83253603Y-91748498D01*
X83439158Y-91878425D01*
X83482783Y-91933002D01*
X83489977Y-92002500D01*
X83458454Y-92064855D01*
X83439158Y-92081575D01*
X83253597Y-92211505D01*
X83086505Y-92378597D01*
X82950965Y-92572169D01*
X82950964Y-92572171D01*
X82851098Y-92786335D01*
X82851094Y-92786344D01*
X82789938Y-93014586D01*
X82789936Y-93014596D01*
X82769341Y-93249999D01*
X82769341Y-93250000D01*
X82789936Y-93485403D01*
X82789938Y-93485413D01*
X82851094Y-93713655D01*
X82851096Y-93713659D01*
X82851097Y-93713663D01*
X82855000Y-93722032D01*
X82950965Y-93927830D01*
X82950967Y-93927834D01*
X83049355Y-94068345D01*
X83086501Y-94121396D01*
X83086506Y-94121402D01*
X83253597Y-94288493D01*
X83253603Y-94288498D01*
X83439158Y-94418425D01*
X83482783Y-94473002D01*
X83489977Y-94542500D01*
X83458454Y-94604855D01*
X83439158Y-94621575D01*
X83253597Y-94751505D01*
X83086505Y-94918597D01*
X82950965Y-95112169D01*
X82950964Y-95112171D01*
X82851098Y-95326335D01*
X82851094Y-95326344D01*
X82789938Y-95554586D01*
X82789936Y-95554596D01*
X82769341Y-95789999D01*
X82769341Y-95790000D01*
X82789936Y-96025403D01*
X82789938Y-96025413D01*
X82851094Y-96253655D01*
X82851096Y-96253659D01*
X82851097Y-96253663D01*
X82909912Y-96379792D01*
X82950965Y-96467830D01*
X82950967Y-96467834D01*
X82994573Y-96530109D01*
X83086501Y-96661396D01*
X83086506Y-96661402D01*
X83253597Y-96828493D01*
X83253603Y-96828498D01*
X83439158Y-96958425D01*
X83482783Y-97013002D01*
X83489977Y-97082500D01*
X83458454Y-97144855D01*
X83439158Y-97161575D01*
X83253597Y-97291505D01*
X83086505Y-97458597D01*
X82950965Y-97652169D01*
X82950964Y-97652171D01*
X82851098Y-97866335D01*
X82851094Y-97866344D01*
X82789938Y-98094586D01*
X82789936Y-98094596D01*
X82769341Y-98329999D01*
X82769341Y-98330000D01*
X82789936Y-98565403D01*
X82789938Y-98565413D01*
X82851094Y-98793655D01*
X82851096Y-98793659D01*
X82851097Y-98793663D01*
X82855000Y-98802032D01*
X82950965Y-99007830D01*
X82950967Y-99007834D01*
X83059281Y-99162521D01*
X83086501Y-99201396D01*
X83086506Y-99201402D01*
X83253597Y-99368493D01*
X83253603Y-99368498D01*
X83439158Y-99498425D01*
X83482783Y-99553002D01*
X83489977Y-99622500D01*
X83458454Y-99684855D01*
X83439158Y-99701575D01*
X83253597Y-99831505D01*
X83086505Y-99998597D01*
X82950965Y-100192169D01*
X82950964Y-100192171D01*
X82851098Y-100406335D01*
X82851094Y-100406344D01*
X82789938Y-100634586D01*
X82789936Y-100634596D01*
X82769341Y-100869999D01*
X82769341Y-100870000D01*
X82789936Y-101105403D01*
X82789938Y-101105413D01*
X82851094Y-101333655D01*
X82851096Y-101333659D01*
X82851097Y-101333663D01*
X82855000Y-101342032D01*
X82950965Y-101547830D01*
X82950967Y-101547834D01*
X83059281Y-101702521D01*
X83086501Y-101741396D01*
X83086506Y-101741402D01*
X83253597Y-101908493D01*
X83253603Y-101908498D01*
X83439158Y-102038425D01*
X83482783Y-102093002D01*
X83489977Y-102162500D01*
X83458454Y-102224855D01*
X83439158Y-102241575D01*
X83253597Y-102371505D01*
X83086505Y-102538597D01*
X82950965Y-102732169D01*
X82950964Y-102732171D01*
X82851098Y-102946335D01*
X82851094Y-102946344D01*
X82789938Y-103174586D01*
X82789936Y-103174596D01*
X82769341Y-103409999D01*
X82769341Y-103410000D01*
X82789936Y-103645403D01*
X82789938Y-103645413D01*
X82851094Y-103873655D01*
X82851096Y-103873659D01*
X82851097Y-103873663D01*
X82931004Y-104045023D01*
X82950965Y-104087830D01*
X82950967Y-104087834D01*
X82999788Y-104157557D01*
X83086501Y-104281396D01*
X83086506Y-104281402D01*
X83253597Y-104448493D01*
X83253603Y-104448498D01*
X83439158Y-104578425D01*
X83482783Y-104633002D01*
X83489977Y-104702500D01*
X83458454Y-104764855D01*
X83439158Y-104781575D01*
X83253597Y-104911505D01*
X83086505Y-105078597D01*
X82950965Y-105272169D01*
X82950964Y-105272171D01*
X82851098Y-105486335D01*
X82851094Y-105486344D01*
X82789938Y-105714586D01*
X82789936Y-105714596D01*
X82769341Y-105949999D01*
X82769341Y-105950000D01*
X82789936Y-106185403D01*
X82789938Y-106185413D01*
X82851094Y-106413655D01*
X82851096Y-106413659D01*
X82851097Y-106413663D01*
X82855000Y-106422032D01*
X82950965Y-106627830D01*
X82950967Y-106627834D01*
X83059281Y-106782521D01*
X83086501Y-106821396D01*
X83086506Y-106821402D01*
X83253597Y-106988493D01*
X83253603Y-106988498D01*
X83439158Y-107118425D01*
X83482783Y-107173002D01*
X83489977Y-107242500D01*
X83458454Y-107304855D01*
X83439158Y-107321575D01*
X83253597Y-107451505D01*
X83086505Y-107618597D01*
X82950965Y-107812169D01*
X82950964Y-107812171D01*
X82851098Y-108026335D01*
X82851094Y-108026344D01*
X82789938Y-108254586D01*
X82789936Y-108254596D01*
X82769341Y-108489999D01*
X82769341Y-108490000D01*
X82789936Y-108725403D01*
X82789938Y-108725413D01*
X82851094Y-108953655D01*
X82851096Y-108953659D01*
X82851097Y-108953663D01*
X82919332Y-109099992D01*
X82950965Y-109167830D01*
X82950967Y-109167834D01*
X83059281Y-109322521D01*
X83086501Y-109361396D01*
X83086506Y-109361402D01*
X83253597Y-109528493D01*
X83253603Y-109528498D01*
X83439158Y-109658425D01*
X83482783Y-109713002D01*
X83489977Y-109782500D01*
X83458454Y-109844855D01*
X83439158Y-109861575D01*
X83253597Y-109991505D01*
X83086505Y-110158597D01*
X82950965Y-110352169D01*
X82950964Y-110352171D01*
X82851098Y-110566335D01*
X82851094Y-110566344D01*
X82789938Y-110794586D01*
X82789936Y-110794596D01*
X82769341Y-111029999D01*
X82769341Y-111030000D01*
X82789936Y-111265403D01*
X82789938Y-111265413D01*
X82851094Y-111493655D01*
X82851096Y-111493659D01*
X82851097Y-111493663D01*
X82855000Y-111502032D01*
X82950965Y-111707830D01*
X82950967Y-111707834D01*
X83059281Y-111862521D01*
X83086501Y-111901396D01*
X83086506Y-111901402D01*
X83253597Y-112068493D01*
X83253603Y-112068498D01*
X83439158Y-112198425D01*
X83482783Y-112253002D01*
X83489977Y-112322500D01*
X83458454Y-112384855D01*
X83439158Y-112401575D01*
X83253597Y-112531505D01*
X83086505Y-112698597D01*
X82950965Y-112892169D01*
X82950964Y-112892171D01*
X82851098Y-113106335D01*
X82851094Y-113106344D01*
X82789938Y-113334586D01*
X82789936Y-113334596D01*
X82769341Y-113569999D01*
X82769341Y-113570000D01*
X82789936Y-113805403D01*
X82789938Y-113805413D01*
X82851094Y-114033655D01*
X82851096Y-114033659D01*
X82851097Y-114033663D01*
X82855000Y-114042032D01*
X82950965Y-114247830D01*
X82950967Y-114247834D01*
X83059281Y-114402521D01*
X83086501Y-114441396D01*
X83086506Y-114441402D01*
X83253597Y-114608493D01*
X83253603Y-114608498D01*
X83439158Y-114738425D01*
X83482783Y-114793002D01*
X83489977Y-114862500D01*
X83458454Y-114924855D01*
X83439158Y-114941575D01*
X83253597Y-115071505D01*
X83086505Y-115238597D01*
X82950965Y-115432169D01*
X82950964Y-115432171D01*
X82851098Y-115646335D01*
X82851094Y-115646344D01*
X82789938Y-115874586D01*
X82789936Y-115874596D01*
X82769341Y-116109999D01*
X82769341Y-116110000D01*
X82789936Y-116345403D01*
X82789938Y-116345413D01*
X82851094Y-116573655D01*
X82851096Y-116573659D01*
X82851097Y-116573663D01*
X82855000Y-116582032D01*
X82950965Y-116787830D01*
X82950967Y-116787834D01*
X83059281Y-116942521D01*
X83086505Y-116981401D01*
X83253599Y-117148495D01*
X83350384Y-117216265D01*
X83447165Y-117284032D01*
X83447167Y-117284033D01*
X83447170Y-117284035D01*
X83661337Y-117383903D01*
X83889592Y-117445063D01*
X84077918Y-117461539D01*
X84124999Y-117465659D01*
X84125000Y-117465659D01*
X84125001Y-117465659D01*
X84164234Y-117462226D01*
X84360408Y-117445063D01*
X84588663Y-117383903D01*
X84802830Y-117284035D01*
X84996401Y-117148495D01*
X85163495Y-116981401D01*
X85293425Y-116795842D01*
X85348002Y-116752217D01*
X85417500Y-116745023D01*
X85479855Y-116776546D01*
X85496575Y-116795842D01*
X85626500Y-116981395D01*
X85626505Y-116981401D01*
X85793599Y-117148495D01*
X85890384Y-117216265D01*
X85987165Y-117284032D01*
X85987167Y-117284033D01*
X85987170Y-117284035D01*
X86201337Y-117383903D01*
X86429592Y-117445063D01*
X86617918Y-117461539D01*
X86664999Y-117465659D01*
X86665000Y-117465659D01*
X86665001Y-117465659D01*
X86704234Y-117462226D01*
X86900408Y-117445063D01*
X87128663Y-117383903D01*
X87342830Y-117284035D01*
X87536401Y-117148495D01*
X87703495Y-116981401D01*
X87839035Y-116787830D01*
X87938903Y-116573663D01*
X88000063Y-116345408D01*
X88020659Y-116110000D01*
X88000063Y-115874592D01*
X87938903Y-115646337D01*
X87839035Y-115432171D01*
X87833425Y-115424158D01*
X87703494Y-115238597D01*
X87536402Y-115071506D01*
X87536396Y-115071501D01*
X87350842Y-114941575D01*
X87307217Y-114886998D01*
X87300023Y-114817500D01*
X87331546Y-114755145D01*
X87350842Y-114738425D01*
X87373026Y-114722891D01*
X87536401Y-114608495D01*
X87703495Y-114441401D01*
X87839035Y-114247830D01*
X87938903Y-114033663D01*
X88000063Y-113805408D01*
X88020659Y-113570000D01*
X88000063Y-113334592D01*
X87938903Y-113106337D01*
X87839035Y-112892171D01*
X87833425Y-112884158D01*
X87703494Y-112698597D01*
X87536402Y-112531506D01*
X87536396Y-112531501D01*
X87350842Y-112401575D01*
X87307217Y-112346998D01*
X87300023Y-112277500D01*
X87331546Y-112215145D01*
X87350842Y-112198425D01*
X87373026Y-112182891D01*
X87536401Y-112068495D01*
X87703495Y-111901401D01*
X87839035Y-111707830D01*
X87938903Y-111493663D01*
X88000063Y-111265408D01*
X88020659Y-111030000D01*
X88000063Y-110794592D01*
X87938903Y-110566337D01*
X87839035Y-110352171D01*
X87833425Y-110344158D01*
X87703494Y-110158597D01*
X87701184Y-110156287D01*
X96049500Y-110156287D01*
X96082754Y-110366243D01*
X96145049Y-110557967D01*
X96148444Y-110568414D01*
X96244951Y-110757820D01*
X96369890Y-110929786D01*
X96520213Y-111080109D01*
X96692179Y-111205048D01*
X96692181Y-111205049D01*
X96692184Y-111205051D01*
X96881588Y-111301557D01*
X97083757Y-111367246D01*
X97293713Y-111400500D01*
X97293714Y-111400500D01*
X97506286Y-111400500D01*
X97506287Y-111400500D01*
X97716243Y-111367246D01*
X97918412Y-111301557D01*
X98107816Y-111205051D01*
X98279792Y-111080104D01*
X98418604Y-110941291D01*
X98479923Y-110907809D01*
X98549615Y-110912793D01*
X98605549Y-110954664D01*
X98611821Y-110963878D01*
X98615185Y-110969333D01*
X98615186Y-110969334D01*
X98707288Y-111118656D01*
X98831344Y-111242712D01*
X98980666Y-111334814D01*
X99147203Y-111389999D01*
X99249991Y-111400500D01*
X100550008Y-111400499D01*
X100652797Y-111389999D01*
X100819334Y-111334814D01*
X100968656Y-111242712D01*
X101092712Y-111118656D01*
X101184814Y-110969334D01*
X101239999Y-110802797D01*
X101250500Y-110700009D01*
X101250499Y-109099992D01*
X101239999Y-108997203D01*
X101184814Y-108830666D01*
X101092712Y-108681344D01*
X100968656Y-108557288D01*
X100819334Y-108465186D01*
X100652797Y-108410001D01*
X100652795Y-108410000D01*
X100550010Y-108399500D01*
X99249998Y-108399500D01*
X99249981Y-108399501D01*
X99147203Y-108410000D01*
X99147200Y-108410001D01*
X98980668Y-108465185D01*
X98980663Y-108465187D01*
X98831342Y-108557289D01*
X98707289Y-108681342D01*
X98611821Y-108836121D01*
X98559873Y-108882845D01*
X98490910Y-108894068D01*
X98426828Y-108866224D01*
X98418601Y-108858705D01*
X98279786Y-108719890D01*
X98107820Y-108594951D01*
X97918414Y-108498444D01*
X97918413Y-108498443D01*
X97918412Y-108498443D01*
X97716243Y-108432754D01*
X97716241Y-108432753D01*
X97716240Y-108432753D01*
X97554957Y-108407208D01*
X97506287Y-108399500D01*
X97293713Y-108399500D01*
X97245042Y-108407208D01*
X97083760Y-108432753D01*
X96881585Y-108498444D01*
X96692179Y-108594951D01*
X96520213Y-108719890D01*
X96369890Y-108870213D01*
X96244951Y-109042179D01*
X96148444Y-109231585D01*
X96082753Y-109433760D01*
X96067749Y-109528493D01*
X96049500Y-109643713D01*
X96049500Y-110156287D01*
X87701184Y-110156287D01*
X87536402Y-109991506D01*
X87536396Y-109991501D01*
X87350842Y-109861575D01*
X87307217Y-109806998D01*
X87300023Y-109737500D01*
X87331546Y-109675145D01*
X87350842Y-109658425D01*
X87373026Y-109642891D01*
X87536401Y-109528495D01*
X87703495Y-109361401D01*
X87839035Y-109167830D01*
X87938903Y-108953663D01*
X88000063Y-108725408D01*
X88020659Y-108490000D01*
X88000063Y-108254592D01*
X87938903Y-108026337D01*
X87839035Y-107812171D01*
X87833425Y-107804158D01*
X87703494Y-107618597D01*
X87536402Y-107451506D01*
X87536396Y-107451501D01*
X87350842Y-107321575D01*
X87307217Y-107266998D01*
X87300023Y-107197500D01*
X87331546Y-107135145D01*
X87350842Y-107118425D01*
X87373026Y-107102891D01*
X87536401Y-106988495D01*
X87703495Y-106821401D01*
X87839035Y-106627830D01*
X87938903Y-106413663D01*
X88000063Y-106185408D01*
X88020659Y-105950000D01*
X88000063Y-105714592D01*
X87938903Y-105486337D01*
X87839035Y-105272171D01*
X87833425Y-105264158D01*
X87703494Y-105078597D01*
X87536402Y-104911506D01*
X87536396Y-104911501D01*
X87350842Y-104781575D01*
X87307217Y-104726998D01*
X87300023Y-104657500D01*
X87331546Y-104595145D01*
X87350842Y-104578425D01*
X87491797Y-104479727D01*
X87536401Y-104448495D01*
X87703495Y-104281401D01*
X87830513Y-104100001D01*
X96049500Y-104100001D01*
X96049501Y-104100018D01*
X96060000Y-104202796D01*
X96060001Y-104202799D01*
X96086048Y-104281402D01*
X96115186Y-104369334D01*
X96207288Y-104518656D01*
X96331344Y-104642712D01*
X96480666Y-104734814D01*
X96647203Y-104789999D01*
X96749991Y-104800500D01*
X98050008Y-104800499D01*
X98152797Y-104789999D01*
X98319334Y-104734814D01*
X98468656Y-104642712D01*
X98592712Y-104518656D01*
X98684814Y-104369334D01*
X98684814Y-104369331D01*
X98688448Y-104363441D01*
X98740395Y-104316716D01*
X98809358Y-104305493D01*
X98873440Y-104333336D01*
X98881668Y-104340856D01*
X99020535Y-104479723D01*
X99020540Y-104479727D01*
X99192442Y-104604620D01*
X99381782Y-104701095D01*
X99583871Y-104766757D01*
X99650000Y-104777231D01*
X99650000Y-103733012D01*
X99707007Y-103765925D01*
X99834174Y-103800000D01*
X99965826Y-103800000D01*
X100092993Y-103765925D01*
X100150000Y-103733012D01*
X100150000Y-104777230D01*
X100216126Y-104766757D01*
X100216129Y-104766757D01*
X100418217Y-104701095D01*
X100607557Y-104604620D01*
X100779459Y-104479727D01*
X100779464Y-104479723D01*
X100929723Y-104329464D01*
X100929727Y-104329459D01*
X101054620Y-104157557D01*
X101151095Y-103968217D01*
X101216757Y-103766130D01*
X101216757Y-103766127D01*
X101250000Y-103556246D01*
X101250000Y-103550000D01*
X100333012Y-103550000D01*
X100365925Y-103492993D01*
X100400000Y-103365826D01*
X100400000Y-103234174D01*
X100365925Y-103107007D01*
X100333012Y-103050000D01*
X101250000Y-103050000D01*
X101250000Y-103043753D01*
X101216757Y-102833872D01*
X101216757Y-102833869D01*
X101151095Y-102631782D01*
X101054620Y-102442442D01*
X100929727Y-102270540D01*
X100929723Y-102270535D01*
X100779464Y-102120276D01*
X100779459Y-102120272D01*
X100607557Y-101995379D01*
X100418215Y-101898903D01*
X100216124Y-101833241D01*
X100150000Y-101822768D01*
X100150000Y-102866988D01*
X100092993Y-102834075D01*
X99965826Y-102800000D01*
X99834174Y-102800000D01*
X99707007Y-102834075D01*
X99650000Y-102866988D01*
X99650000Y-101822768D01*
X99649999Y-101822768D01*
X99583875Y-101833241D01*
X99381784Y-101898903D01*
X99192442Y-101995379D01*
X99020541Y-102120271D01*
X98881668Y-102259144D01*
X98820345Y-102292628D01*
X98750653Y-102287644D01*
X98694720Y-102245772D01*
X98688448Y-102236558D01*
X98657879Y-102186998D01*
X98592712Y-102081344D01*
X98468656Y-101957288D01*
X98319334Y-101865186D01*
X98152797Y-101810001D01*
X98152795Y-101810000D01*
X98050010Y-101799500D01*
X96749998Y-101799500D01*
X96749981Y-101799501D01*
X96647203Y-101810000D01*
X96647200Y-101810001D01*
X96480668Y-101865185D01*
X96480663Y-101865187D01*
X96331342Y-101957289D01*
X96207289Y-102081342D01*
X96115187Y-102230663D01*
X96115185Y-102230668D01*
X96111571Y-102241575D01*
X96060001Y-102397203D01*
X96060001Y-102397204D01*
X96060000Y-102397204D01*
X96049500Y-102499983D01*
X96049500Y-104100001D01*
X87830513Y-104100001D01*
X87839035Y-104087830D01*
X87938903Y-103873663D01*
X88000063Y-103645408D01*
X88020659Y-103410000D01*
X88000063Y-103174592D01*
X87938903Y-102946337D01*
X87839035Y-102732171D01*
X87833425Y-102724158D01*
X87703494Y-102538597D01*
X87536402Y-102371506D01*
X87536396Y-102371501D01*
X87350842Y-102241575D01*
X87307217Y-102186998D01*
X87300023Y-102117500D01*
X87331546Y-102055145D01*
X87350842Y-102038425D01*
X87466717Y-101957288D01*
X87536401Y-101908495D01*
X87703495Y-101741401D01*
X87839035Y-101547830D01*
X87938903Y-101333663D01*
X88000063Y-101105408D01*
X88020659Y-100870000D01*
X88000063Y-100634592D01*
X87938903Y-100406337D01*
X87839035Y-100192171D01*
X87833425Y-100184158D01*
X87703494Y-99998597D01*
X87536402Y-99831506D01*
X87536396Y-99831501D01*
X87350842Y-99701575D01*
X87307217Y-99646998D01*
X87300023Y-99577500D01*
X87331546Y-99515145D01*
X87350842Y-99498425D01*
X87373026Y-99482891D01*
X87536401Y-99368495D01*
X87703495Y-99201401D01*
X87839035Y-99007830D01*
X87938903Y-98793663D01*
X88000063Y-98565408D01*
X88020659Y-98330000D01*
X88000063Y-98094592D01*
X87938903Y-97866337D01*
X87839035Y-97652171D01*
X87833425Y-97644158D01*
X87703494Y-97458597D01*
X87536402Y-97291506D01*
X87536396Y-97291501D01*
X87350842Y-97161575D01*
X87307217Y-97106998D01*
X87300023Y-97037500D01*
X87331546Y-96975145D01*
X87350842Y-96958425D01*
X87410408Y-96916716D01*
X87536401Y-96828495D01*
X87664895Y-96700001D01*
X96049500Y-96700001D01*
X96049501Y-96700018D01*
X96060000Y-96802796D01*
X96060001Y-96802799D01*
X96068516Y-96828495D01*
X96115186Y-96969334D01*
X96207288Y-97118656D01*
X96331344Y-97242712D01*
X96480666Y-97334814D01*
X96647203Y-97389999D01*
X96749991Y-97400500D01*
X98050008Y-97400499D01*
X98152797Y-97389999D01*
X98319334Y-97334814D01*
X98468656Y-97242712D01*
X98592712Y-97118656D01*
X98684814Y-96969334D01*
X98684814Y-96969331D01*
X98688448Y-96963441D01*
X98740395Y-96916716D01*
X98809358Y-96905493D01*
X98873440Y-96933336D01*
X98881668Y-96940856D01*
X99020535Y-97079723D01*
X99020540Y-97079727D01*
X99192442Y-97204620D01*
X99381782Y-97301095D01*
X99583871Y-97366757D01*
X99650000Y-97377231D01*
X99650000Y-96333012D01*
X99707007Y-96365925D01*
X99834174Y-96400000D01*
X99965826Y-96400000D01*
X100092993Y-96365925D01*
X100150000Y-96333012D01*
X100150000Y-97377230D01*
X100216126Y-97366757D01*
X100216129Y-97366757D01*
X100418217Y-97301095D01*
X100607557Y-97204620D01*
X100779459Y-97079727D01*
X100779464Y-97079723D01*
X100929723Y-96929464D01*
X100929727Y-96929459D01*
X101054620Y-96757557D01*
X101151095Y-96568217D01*
X101216757Y-96366130D01*
X101216757Y-96366127D01*
X101250000Y-96156246D01*
X101250000Y-96150000D01*
X100333012Y-96150000D01*
X100365925Y-96092993D01*
X100400000Y-95965826D01*
X100400000Y-95834174D01*
X100365925Y-95707007D01*
X100333012Y-95650000D01*
X101250000Y-95650000D01*
X101250000Y-95643753D01*
X101244066Y-95606286D01*
X129099500Y-95606286D01*
X129132753Y-95816239D01*
X129198444Y-96018414D01*
X129294951Y-96207820D01*
X129419890Y-96379786D01*
X129570213Y-96530109D01*
X129742179Y-96655048D01*
X129742181Y-96655049D01*
X129742184Y-96655051D01*
X129931588Y-96751557D01*
X130133757Y-96817246D01*
X130343713Y-96850500D01*
X130343714Y-96850500D01*
X130856286Y-96850500D01*
X130856287Y-96850500D01*
X131066243Y-96817246D01*
X131268412Y-96751557D01*
X131457816Y-96655051D01*
X131577334Y-96568217D01*
X131629786Y-96530109D01*
X131629788Y-96530106D01*
X131629792Y-96530104D01*
X131780104Y-96379792D01*
X131780106Y-96379788D01*
X131780109Y-96379786D01*
X131905048Y-96207820D01*
X131905047Y-96207820D01*
X131905051Y-96207816D01*
X132001557Y-96018412D01*
X132067246Y-95816243D01*
X132100500Y-95606287D01*
X132100500Y-95393713D01*
X132067246Y-95183757D01*
X132001557Y-94981588D01*
X131905051Y-94792184D01*
X131905049Y-94792181D01*
X131905048Y-94792179D01*
X131780109Y-94620213D01*
X131640931Y-94481035D01*
X131607446Y-94419712D01*
X131612430Y-94350020D01*
X131654302Y-94294087D01*
X131663516Y-94287815D01*
X131818343Y-94192317D01*
X131942315Y-94068345D01*
X132034356Y-93919124D01*
X132034358Y-93919119D01*
X132089505Y-93752697D01*
X132089506Y-93752690D01*
X132099999Y-93649986D01*
X132100000Y-93649973D01*
X132100000Y-93250000D01*
X131033012Y-93250000D01*
X131065925Y-93192993D01*
X131100000Y-93065826D01*
X131100000Y-92934174D01*
X131065925Y-92807007D01*
X131033012Y-92750000D01*
X132099999Y-92750000D01*
X132099999Y-92350028D01*
X132099998Y-92350013D01*
X132089505Y-92247302D01*
X132034358Y-92080880D01*
X132034356Y-92080875D01*
X131942315Y-91931654D01*
X131818345Y-91807684D01*
X131669124Y-91715643D01*
X131669119Y-91715641D01*
X131502697Y-91660494D01*
X131502690Y-91660493D01*
X131399986Y-91650000D01*
X130850000Y-91650000D01*
X130850000Y-92566988D01*
X130792993Y-92534075D01*
X130665826Y-92500000D01*
X130534174Y-92500000D01*
X130407007Y-92534075D01*
X130350000Y-92566988D01*
X130350000Y-91650000D01*
X129800028Y-91650000D01*
X129800012Y-91650001D01*
X129697302Y-91660494D01*
X129530880Y-91715641D01*
X129530875Y-91715643D01*
X129381654Y-91807684D01*
X129257684Y-91931654D01*
X129165643Y-92080875D01*
X129165641Y-92080880D01*
X129110494Y-92247302D01*
X129110493Y-92247309D01*
X129100000Y-92350013D01*
X129100000Y-92750000D01*
X130166988Y-92750000D01*
X130134075Y-92807007D01*
X130100000Y-92934174D01*
X130100000Y-93065826D01*
X130134075Y-93192993D01*
X130166988Y-93250000D01*
X129100001Y-93250000D01*
X129100001Y-93649986D01*
X129110494Y-93752697D01*
X129165641Y-93919119D01*
X129165643Y-93919124D01*
X129257684Y-94068345D01*
X129381654Y-94192315D01*
X129536484Y-94287815D01*
X129583208Y-94339763D01*
X129594431Y-94408726D01*
X129566587Y-94472808D01*
X129559069Y-94481035D01*
X129419889Y-94620215D01*
X129294951Y-94792179D01*
X129198444Y-94981585D01*
X129132753Y-95183760D01*
X129099500Y-95393713D01*
X129099500Y-95606286D01*
X101244066Y-95606286D01*
X101216757Y-95433872D01*
X101216757Y-95433869D01*
X101151095Y-95231782D01*
X101054620Y-95042442D01*
X100929727Y-94870540D01*
X100929723Y-94870535D01*
X100779464Y-94720276D01*
X100779459Y-94720272D01*
X100607557Y-94595379D01*
X100418215Y-94498903D01*
X100216124Y-94433241D01*
X100150000Y-94422768D01*
X100150000Y-95466988D01*
X100092993Y-95434075D01*
X99965826Y-95400000D01*
X99834174Y-95400000D01*
X99707007Y-95434075D01*
X99650000Y-95466988D01*
X99650000Y-94422768D01*
X99649999Y-94422768D01*
X99583875Y-94433241D01*
X99381784Y-94498903D01*
X99192442Y-94595379D01*
X99020541Y-94720271D01*
X98881668Y-94859144D01*
X98820345Y-94892628D01*
X98750653Y-94887644D01*
X98694720Y-94845772D01*
X98688448Y-94836558D01*
X98592712Y-94681344D01*
X98468657Y-94557289D01*
X98468656Y-94557288D01*
X98371724Y-94497500D01*
X98319336Y-94465187D01*
X98319331Y-94465185D01*
X98317862Y-94464698D01*
X98152797Y-94410001D01*
X98152795Y-94410000D01*
X98050010Y-94399500D01*
X96749998Y-94399500D01*
X96749981Y-94399501D01*
X96647203Y-94410000D01*
X96647200Y-94410001D01*
X96480668Y-94465185D01*
X96480663Y-94465187D01*
X96331342Y-94557289D01*
X96207289Y-94681342D01*
X96115187Y-94830663D01*
X96115185Y-94830668D01*
X96110180Y-94845772D01*
X96060001Y-94997203D01*
X96060001Y-94997204D01*
X96060000Y-94997204D01*
X96049500Y-95099983D01*
X96049500Y-96700001D01*
X87664895Y-96700001D01*
X87703495Y-96661401D01*
X87839035Y-96467830D01*
X87938903Y-96253663D01*
X88000063Y-96025408D01*
X88020659Y-95790000D01*
X88000063Y-95554592D01*
X87938903Y-95326337D01*
X87839035Y-95112171D01*
X87833425Y-95104158D01*
X87703494Y-94918597D01*
X87536402Y-94751506D01*
X87536396Y-94751501D01*
X87350842Y-94621575D01*
X87307217Y-94566998D01*
X87300023Y-94497500D01*
X87331546Y-94435145D01*
X87350842Y-94418425D01*
X87455776Y-94344949D01*
X87536401Y-94288495D01*
X87703495Y-94121401D01*
X87839035Y-93927830D01*
X87938903Y-93713663D01*
X88000063Y-93485408D01*
X88020659Y-93250000D01*
X88000063Y-93014592D01*
X87953626Y-92841285D01*
X87938905Y-92786344D01*
X87938904Y-92786343D01*
X87938903Y-92786337D01*
X87839035Y-92572171D01*
X87833425Y-92564158D01*
X87703494Y-92378597D01*
X87536402Y-92211506D01*
X87536396Y-92211501D01*
X87350842Y-92081575D01*
X87307217Y-92026998D01*
X87300023Y-91957500D01*
X87331546Y-91895145D01*
X87350842Y-91878425D01*
X87451870Y-91807684D01*
X87536401Y-91748495D01*
X87703495Y-91581401D01*
X87839035Y-91387830D01*
X87938903Y-91173663D01*
X88000063Y-90945408D01*
X88020659Y-90710000D01*
X88000063Y-90474592D01*
X87938903Y-90246337D01*
X87839035Y-90032171D01*
X87837370Y-90029792D01*
X87703494Y-89838597D01*
X87536402Y-89671506D01*
X87536396Y-89671501D01*
X87350842Y-89541575D01*
X87307217Y-89486998D01*
X87300023Y-89417500D01*
X87331546Y-89355145D01*
X87350842Y-89338425D01*
X87468148Y-89256286D01*
X87536401Y-89208495D01*
X87703495Y-89041401D01*
X87839035Y-88847830D01*
X87938903Y-88633663D01*
X88000063Y-88405408D01*
X88020659Y-88170000D01*
X88000063Y-87934592D01*
X87938903Y-87706337D01*
X87839035Y-87492171D01*
X87833425Y-87484158D01*
X87703494Y-87298597D01*
X87536402Y-87131506D01*
X87536396Y-87131501D01*
X87350842Y-87001575D01*
X87307217Y-86946998D01*
X87300023Y-86877500D01*
X87331546Y-86815145D01*
X87350842Y-86798425D01*
X87373026Y-86782891D01*
X87536401Y-86668495D01*
X87703495Y-86501401D01*
X87839035Y-86307830D01*
X87938903Y-86093663D01*
X88000063Y-85865408D01*
X88020659Y-85630000D01*
X88000063Y-85394592D01*
X87938903Y-85166337D01*
X87839035Y-84952171D01*
X87833425Y-84944158D01*
X87703494Y-84758597D01*
X87536402Y-84591506D01*
X87536396Y-84591501D01*
X87350842Y-84461575D01*
X87307217Y-84406998D01*
X87300023Y-84337500D01*
X87331546Y-84275145D01*
X87350842Y-84258425D01*
X87404654Y-84220745D01*
X87536401Y-84128495D01*
X87703495Y-83961401D01*
X87839035Y-83767830D01*
X87938903Y-83553663D01*
X88000063Y-83325408D01*
X88020659Y-83090000D01*
X88000063Y-82854592D01*
X87938903Y-82626337D01*
X87839035Y-82412171D01*
X87833425Y-82404158D01*
X87703494Y-82218597D01*
X87536402Y-82051506D01*
X87536396Y-82051501D01*
X87350842Y-81921575D01*
X87307217Y-81866998D01*
X87300023Y-81797500D01*
X87331546Y-81735145D01*
X87350842Y-81718425D01*
X87434891Y-81659573D01*
X87536401Y-81588495D01*
X87703495Y-81421401D01*
X87839035Y-81227830D01*
X87938903Y-81013663D01*
X88000063Y-80785408D01*
X88003926Y-80741243D01*
X88029377Y-80676176D01*
X88085967Y-80635197D01*
X88155729Y-80631318D01*
X88215135Y-80664370D01*
X96013181Y-88462416D01*
X96046666Y-88523739D01*
X96049500Y-88550097D01*
X96049500Y-89800001D01*
X96049501Y-89800018D01*
X96060000Y-89902796D01*
X96060001Y-89902799D01*
X96115185Y-90069331D01*
X96115187Y-90069336D01*
X96150069Y-90125888D01*
X96207288Y-90218656D01*
X96331344Y-90342712D01*
X96480666Y-90434814D01*
X96647203Y-90489999D01*
X96749991Y-90500500D01*
X98050008Y-90500499D01*
X98152797Y-90489999D01*
X98319334Y-90434814D01*
X98468656Y-90342712D01*
X98592712Y-90218656D01*
X98684814Y-90069334D01*
X98684814Y-90069331D01*
X98688178Y-90063879D01*
X98740126Y-90017154D01*
X98809088Y-90005931D01*
X98873170Y-90033774D01*
X98881398Y-90041294D01*
X99020213Y-90180109D01*
X99192179Y-90305048D01*
X99192181Y-90305049D01*
X99192184Y-90305051D01*
X99381588Y-90401557D01*
X99583757Y-90467246D01*
X99793713Y-90500500D01*
X99793714Y-90500500D01*
X100006286Y-90500500D01*
X100006287Y-90500500D01*
X100216243Y-90467246D01*
X100418412Y-90401557D01*
X100607816Y-90305051D01*
X100688620Y-90246344D01*
X100779786Y-90180109D01*
X100779788Y-90180106D01*
X100779792Y-90180104D01*
X100930104Y-90029792D01*
X100930106Y-90029788D01*
X100930109Y-90029786D01*
X101055048Y-89857820D01*
X101055047Y-89857820D01*
X101055051Y-89857816D01*
X101151557Y-89668412D01*
X101217246Y-89466243D01*
X101250500Y-89256287D01*
X101250500Y-88743713D01*
X101217246Y-88533757D01*
X101151557Y-88331588D01*
X101055051Y-88142184D01*
X101055049Y-88142181D01*
X101055048Y-88142179D01*
X100930109Y-87970213D01*
X100779786Y-87819890D01*
X100607820Y-87694951D01*
X100418414Y-87598444D01*
X100418413Y-87598443D01*
X100418412Y-87598443D01*
X100216243Y-87532754D01*
X100216241Y-87532753D01*
X100216240Y-87532753D01*
X100031251Y-87503454D01*
X100006287Y-87499500D01*
X99793713Y-87499500D01*
X99768749Y-87503454D01*
X99583760Y-87532753D01*
X99381585Y-87598444D01*
X99192179Y-87694951D01*
X99020215Y-87819889D01*
X98881398Y-87958706D01*
X98820075Y-87992190D01*
X98750383Y-87987206D01*
X98694450Y-87945334D01*
X98688178Y-87936120D01*
X98592712Y-87781344D01*
X98468657Y-87657289D01*
X98468656Y-87657288D01*
X98319334Y-87565186D01*
X98152797Y-87510001D01*
X98152795Y-87510000D01*
X98050016Y-87499500D01*
X96800097Y-87499500D01*
X96733058Y-87479815D01*
X96712416Y-87463181D01*
X96331149Y-87081914D01*
X113899500Y-87081914D01*
X113899501Y-87081920D01*
X113905908Y-87141527D01*
X113956202Y-87276372D01*
X113956206Y-87276379D01*
X114042452Y-87391588D01*
X114042455Y-87391591D01*
X114157664Y-87477837D01*
X114157671Y-87477841D01*
X114292517Y-87528135D01*
X114292516Y-87528135D01*
X114299444Y-87528879D01*
X114352127Y-87534544D01*
X116447872Y-87534543D01*
X116507483Y-87528135D01*
X116642331Y-87477840D01*
X116757546Y-87391590D01*
X116843796Y-87276375D01*
X116891725Y-87147870D01*
X119299500Y-87147870D01*
X119299501Y-87147876D01*
X119305908Y-87207483D01*
X119356202Y-87342328D01*
X119356206Y-87342335D01*
X119442452Y-87457544D01*
X119442455Y-87457547D01*
X119557664Y-87543793D01*
X119557671Y-87543797D01*
X119692517Y-87594091D01*
X119692516Y-87594091D01*
X119699444Y-87594835D01*
X119752127Y-87600500D01*
X121847872Y-87600499D01*
X121907483Y-87594091D01*
X122042331Y-87543796D01*
X122157546Y-87457546D01*
X122243796Y-87342331D01*
X122294091Y-87207483D01*
X122300500Y-87147873D01*
X122300499Y-85052128D01*
X122295299Y-85003757D01*
X122294091Y-84992516D01*
X122243797Y-84857671D01*
X122243793Y-84857664D01*
X122157547Y-84742455D01*
X122157544Y-84742452D01*
X122042335Y-84656206D01*
X122042328Y-84656202D01*
X121907482Y-84605908D01*
X121907483Y-84605908D01*
X121847883Y-84599501D01*
X121847881Y-84599500D01*
X121847873Y-84599500D01*
X121847864Y-84599500D01*
X119752129Y-84599500D01*
X119752123Y-84599501D01*
X119692516Y-84605908D01*
X119557671Y-84656202D01*
X119557664Y-84656206D01*
X119442455Y-84742452D01*
X119442452Y-84742455D01*
X119356206Y-84857664D01*
X119356202Y-84857671D01*
X119305908Y-84992517D01*
X119299501Y-85052116D01*
X119299501Y-85052123D01*
X119299500Y-85052135D01*
X119299500Y-87147870D01*
X116891725Y-87147870D01*
X116894091Y-87141527D01*
X116900500Y-87081917D01*
X116900499Y-84986172D01*
X116894091Y-84926561D01*
X116843796Y-84791713D01*
X116843795Y-84791712D01*
X116843793Y-84791708D01*
X116757547Y-84676499D01*
X116757544Y-84676496D01*
X116642335Y-84590250D01*
X116642328Y-84590246D01*
X116507482Y-84539952D01*
X116507483Y-84539952D01*
X116447883Y-84533545D01*
X116447881Y-84533544D01*
X116447873Y-84533544D01*
X116447864Y-84533544D01*
X114352129Y-84533544D01*
X114352123Y-84533545D01*
X114292516Y-84539952D01*
X114157671Y-84590246D01*
X114157664Y-84590250D01*
X114042455Y-84676496D01*
X114042452Y-84676499D01*
X113956206Y-84791708D01*
X113956202Y-84791715D01*
X113905908Y-84926561D01*
X113901942Y-84963454D01*
X113899501Y-84986167D01*
X113899500Y-84986179D01*
X113899500Y-87081914D01*
X96331149Y-87081914D01*
X88047590Y-78798355D01*
X88047588Y-78798352D01*
X87931605Y-78682369D01*
X87898120Y-78621046D01*
X87903104Y-78551354D01*
X87906895Y-78542302D01*
X87938903Y-78473663D01*
X88000063Y-78245408D01*
X88020659Y-78010000D01*
X88000063Y-77774592D01*
X87938903Y-77546337D01*
X87839035Y-77332171D01*
X87814551Y-77297203D01*
X87703494Y-77138597D01*
X87536402Y-76971506D01*
X87536396Y-76971501D01*
X87350842Y-76841575D01*
X87307217Y-76786998D01*
X87300023Y-76717500D01*
X87331546Y-76655145D01*
X87350842Y-76638425D01*
X87454501Y-76565842D01*
X87536401Y-76508495D01*
X87703495Y-76341401D01*
X87839035Y-76147830D01*
X87938903Y-75933663D01*
X88000063Y-75705408D01*
X88020659Y-75470000D01*
X88000063Y-75234592D01*
X87938903Y-75006337D01*
X87839035Y-74792171D01*
X87826460Y-74774211D01*
X87703494Y-74598597D01*
X87536402Y-74431506D01*
X87536401Y-74431505D01*
X87350405Y-74301269D01*
X87306781Y-74246692D01*
X87299588Y-74177193D01*
X87331110Y-74114839D01*
X87350405Y-74098119D01*
X87536082Y-73968105D01*
X87703105Y-73801082D01*
X87838600Y-73607578D01*
X87938429Y-73393492D01*
X87938432Y-73393486D01*
X87995636Y-73180000D01*
X87098012Y-73180000D01*
X87130925Y-73122993D01*
X87165000Y-72995826D01*
X87165000Y-72864174D01*
X87130925Y-72737007D01*
X87098012Y-72680000D01*
X87995636Y-72680000D01*
X87995635Y-72679999D01*
X87957210Y-72536594D01*
X87958873Y-72466744D01*
X87998035Y-72408881D01*
X88062264Y-72381377D01*
X88076985Y-72380500D01*
X89856249Y-72380500D01*
X89923288Y-72400185D01*
X89943930Y-72416819D01*
X94190030Y-76662919D01*
X94223515Y-76724242D01*
X94218531Y-76793934D01*
X94176659Y-76849867D01*
X94158645Y-76861084D01*
X94092182Y-76894949D01*
X93920215Y-77019889D01*
X93781398Y-77158706D01*
X93720075Y-77192190D01*
X93650383Y-77187206D01*
X93594450Y-77145334D01*
X93588178Y-77136120D01*
X93492712Y-76981344D01*
X93368657Y-76857289D01*
X93368656Y-76857288D01*
X93265942Y-76793934D01*
X93219336Y-76765187D01*
X93219331Y-76765185D01*
X93211228Y-76762500D01*
X93052797Y-76710001D01*
X93052795Y-76710000D01*
X92950010Y-76699500D01*
X91649998Y-76699500D01*
X91649981Y-76699501D01*
X91547203Y-76710000D01*
X91547200Y-76710001D01*
X91380668Y-76765185D01*
X91380663Y-76765187D01*
X91231342Y-76857289D01*
X91107289Y-76981342D01*
X91015187Y-77130663D01*
X91015185Y-77130668D01*
X91012558Y-77138597D01*
X90960001Y-77297203D01*
X90960001Y-77297204D01*
X90960000Y-77297204D01*
X90949500Y-77399983D01*
X90949500Y-79000001D01*
X90949501Y-79000018D01*
X90960000Y-79102796D01*
X90960001Y-79102799D01*
X91005894Y-79241294D01*
X91015186Y-79269334D01*
X91107288Y-79418656D01*
X91231344Y-79542712D01*
X91380666Y-79634814D01*
X91547203Y-79689999D01*
X91649991Y-79700500D01*
X92950008Y-79700499D01*
X93052797Y-79689999D01*
X93219334Y-79634814D01*
X93368656Y-79542712D01*
X93492712Y-79418656D01*
X93584814Y-79269334D01*
X93584814Y-79269331D01*
X93588178Y-79263879D01*
X93640126Y-79217154D01*
X93709088Y-79205931D01*
X93773170Y-79233774D01*
X93781398Y-79241294D01*
X93920213Y-79380109D01*
X94092179Y-79505048D01*
X94092181Y-79505049D01*
X94092184Y-79505051D01*
X94281588Y-79601557D01*
X94483757Y-79667246D01*
X94693713Y-79700500D01*
X94693714Y-79700500D01*
X94906286Y-79700500D01*
X94906287Y-79700500D01*
X95116243Y-79667246D01*
X95318412Y-79601557D01*
X95507816Y-79505051D01*
X95548958Y-79475160D01*
X95679786Y-79380109D01*
X95679788Y-79380106D01*
X95679792Y-79380104D01*
X95830104Y-79229792D01*
X95830106Y-79229788D01*
X95830109Y-79229786D01*
X95955048Y-79057820D01*
X95955047Y-79057820D01*
X95955051Y-79057816D01*
X96051557Y-78868412D01*
X96073381Y-78801242D01*
X96112816Y-78743569D01*
X96177175Y-78716370D01*
X96246021Y-78728284D01*
X96278992Y-78751881D01*
X99263181Y-81736070D01*
X99296666Y-81797393D01*
X99299500Y-81823751D01*
X99299500Y-83817587D01*
X99279815Y-83884626D01*
X99272450Y-83894896D01*
X99270186Y-83897734D01*
X99174211Y-84050476D01*
X99114631Y-84220745D01*
X99114630Y-84220750D01*
X99094435Y-84399996D01*
X99094435Y-84400003D01*
X99114630Y-84579249D01*
X99114631Y-84579254D01*
X99174211Y-84749523D01*
X99270184Y-84902262D01*
X99397738Y-85029816D01*
X99550478Y-85125789D01*
X99666352Y-85166335D01*
X99720745Y-85185368D01*
X99720750Y-85185369D01*
X99899996Y-85205565D01*
X99900000Y-85205565D01*
X99900004Y-85205565D01*
X100079249Y-85185369D01*
X100079252Y-85185368D01*
X100079255Y-85185368D01*
X100249522Y-85125789D01*
X100402262Y-85029816D01*
X100529816Y-84902262D01*
X100625789Y-84749522D01*
X100685368Y-84579255D01*
X100695161Y-84492329D01*
X100722226Y-84427918D01*
X100730690Y-84418543D01*
X104487535Y-80661698D01*
X104548856Y-80628215D01*
X104618548Y-80633199D01*
X104674481Y-80675071D01*
X104698434Y-80735498D01*
X104714630Y-80879249D01*
X104714631Y-80879254D01*
X104774211Y-81049523D01*
X104805926Y-81099996D01*
X104870184Y-81202262D01*
X104997738Y-81329816D01*
X105088080Y-81386582D01*
X105143494Y-81421401D01*
X105150478Y-81425789D01*
X105320745Y-81485368D01*
X105407668Y-81495161D01*
X105472079Y-81522226D01*
X105481464Y-81530700D01*
X105531284Y-81580520D01*
X105531286Y-81580521D01*
X105531290Y-81580524D01*
X105587046Y-81612714D01*
X105668216Y-81659577D01*
X105780019Y-81689534D01*
X105820942Y-81700500D01*
X105820943Y-81700500D01*
X107117588Y-81700500D01*
X107184627Y-81720185D01*
X107194903Y-81727555D01*
X107197736Y-81729814D01*
X107197738Y-81729816D01*
X107305286Y-81797393D01*
X107347234Y-81823751D01*
X107350478Y-81825789D01*
X107468247Y-81866998D01*
X107520745Y-81885368D01*
X107520750Y-81885369D01*
X107699996Y-81905565D01*
X107700000Y-81905565D01*
X107700004Y-81905565D01*
X107879249Y-81885369D01*
X107879252Y-81885368D01*
X107879255Y-81885368D01*
X108049522Y-81825789D01*
X108202262Y-81729816D01*
X108329816Y-81602262D01*
X108425789Y-81449522D01*
X108485368Y-81279255D01*
X108485369Y-81279249D01*
X108505565Y-81100003D01*
X108505565Y-81099996D01*
X108485369Y-80920750D01*
X108485368Y-80920745D01*
X108438013Y-80785413D01*
X108425789Y-80750478D01*
X108416376Y-80735498D01*
X108353353Y-80635197D01*
X108329816Y-80597738D01*
X108202262Y-80470184D01*
X108133553Y-80427011D01*
X108049523Y-80374211D01*
X107879253Y-80314631D01*
X107847863Y-80311094D01*
X107783450Y-80284026D01*
X107743896Y-80226431D01*
X107741759Y-80156594D01*
X107777719Y-80096688D01*
X107820792Y-80070833D01*
X107949522Y-80025789D01*
X108102262Y-79929816D01*
X108229816Y-79802262D01*
X108325789Y-79649522D01*
X108385368Y-79479255D01*
X108385369Y-79479249D01*
X108405565Y-79300003D01*
X108405565Y-79299996D01*
X108385369Y-79120750D01*
X108385368Y-79120745D01*
X108379087Y-79102796D01*
X108325789Y-78950478D01*
X108229816Y-78797738D01*
X108102262Y-78670184D01*
X108095990Y-78666243D01*
X107949523Y-78574211D01*
X107779254Y-78514631D01*
X107779249Y-78514630D01*
X107600004Y-78494435D01*
X107599996Y-78494435D01*
X107420750Y-78514630D01*
X107420745Y-78514631D01*
X107250476Y-78574211D01*
X107097736Y-78670185D01*
X107094903Y-78672445D01*
X107092724Y-78673334D01*
X107091842Y-78673889D01*
X107091744Y-78673734D01*
X107030217Y-78698855D01*
X107017588Y-78699500D01*
X105079057Y-78699500D01*
X104920943Y-78699500D01*
X104768215Y-78740423D01*
X104768214Y-78740423D01*
X104768212Y-78740424D01*
X104768209Y-78740425D01*
X104733066Y-78760716D01*
X104733064Y-78760717D01*
X104631290Y-78819475D01*
X104631282Y-78819481D01*
X100712181Y-82738583D01*
X100650858Y-82772068D01*
X100581166Y-82767084D01*
X100525233Y-82725212D01*
X100500816Y-82659748D01*
X100500500Y-82650902D01*
X100500500Y-81612714D01*
X100500501Y-81612701D01*
X100500501Y-81444598D01*
X100495461Y-81425788D01*
X100459577Y-81291870D01*
X100416089Y-81216546D01*
X100380524Y-81154944D01*
X100380518Y-81154936D01*
X95551370Y-76325788D01*
X94825585Y-75600003D01*
X101794435Y-75600003D01*
X101814630Y-75779249D01*
X101814631Y-75779254D01*
X101874211Y-75949523D01*
X101970184Y-76102262D01*
X102097738Y-76229816D01*
X102250478Y-76325789D01*
X102420745Y-76385368D01*
X102420750Y-76385369D01*
X102599996Y-76405565D01*
X102600000Y-76405565D01*
X102600004Y-76405565D01*
X102779249Y-76385369D01*
X102779252Y-76385368D01*
X102779255Y-76385368D01*
X102949522Y-76325789D01*
X103102262Y-76229816D01*
X103102267Y-76229810D01*
X103105097Y-76227555D01*
X103107275Y-76226665D01*
X103108158Y-76226111D01*
X103108255Y-76226265D01*
X103169783Y-76201145D01*
X103182412Y-76200500D01*
X103774506Y-76200500D01*
X103840477Y-76219506D01*
X103850474Y-76225787D01*
X103850475Y-76225787D01*
X103850478Y-76225789D01*
X104020745Y-76285368D01*
X104020750Y-76285369D01*
X104199996Y-76305565D01*
X104200000Y-76305565D01*
X104200004Y-76305565D01*
X104379249Y-76285369D01*
X104379252Y-76285368D01*
X104379255Y-76285368D01*
X104549522Y-76225789D01*
X104702262Y-76129816D01*
X104829816Y-76002262D01*
X104925789Y-75849522D01*
X104985368Y-75679255D01*
X104985369Y-75679249D01*
X105005565Y-75500003D01*
X105005565Y-75499996D01*
X104985369Y-75320750D01*
X104985368Y-75320745D01*
X104925789Y-75150478D01*
X104829816Y-74997738D01*
X104702262Y-74870184D01*
X104613852Y-74814632D01*
X104549523Y-74774211D01*
X104379254Y-74714631D01*
X104379249Y-74714630D01*
X104200004Y-74694435D01*
X104199996Y-74694435D01*
X104020750Y-74714630D01*
X104020745Y-74714631D01*
X103850476Y-74774211D01*
X103697739Y-74870183D01*
X103604740Y-74963182D01*
X103543416Y-74996666D01*
X103517059Y-74999500D01*
X103182412Y-74999500D01*
X103115373Y-74979815D01*
X103105097Y-74972445D01*
X103102263Y-74970185D01*
X103102262Y-74970184D01*
X103007885Y-74910883D01*
X102949523Y-74874211D01*
X102779254Y-74814631D01*
X102779249Y-74814630D01*
X102600004Y-74794435D01*
X102599996Y-74794435D01*
X102420750Y-74814630D01*
X102420745Y-74814631D01*
X102250476Y-74874211D01*
X102097737Y-74970184D01*
X101970184Y-75097737D01*
X101874211Y-75250476D01*
X101814631Y-75420745D01*
X101814630Y-75420750D01*
X101794435Y-75599996D01*
X101794435Y-75600003D01*
X94825585Y-75600003D01*
X92152125Y-72926544D01*
X116290000Y-72926544D01*
X116290000Y-74124388D01*
X116296401Y-74183916D01*
X116296403Y-74183923D01*
X116346645Y-74318630D01*
X116346649Y-74318637D01*
X116432809Y-74433731D01*
X116432812Y-74433734D01*
X116547906Y-74519894D01*
X116547913Y-74519898D01*
X116682620Y-74570140D01*
X116682627Y-74570142D01*
X116742155Y-74576543D01*
X116742172Y-74576544D01*
X117690000Y-74576544D01*
X118190000Y-74576544D01*
X119137828Y-74576544D01*
X119137844Y-74576543D01*
X119197372Y-74570142D01*
X119197379Y-74570140D01*
X119332086Y-74519898D01*
X119332093Y-74519894D01*
X119447187Y-74433734D01*
X119447190Y-74433731D01*
X119533350Y-74318637D01*
X119533354Y-74318630D01*
X119562209Y-74241266D01*
X119604080Y-74185333D01*
X119669544Y-74160915D01*
X119737817Y-74175766D01*
X119787223Y-74225171D01*
X119801794Y-74272445D01*
X119813975Y-74396129D01*
X119831692Y-74454535D01*
X119868703Y-74576543D01*
X119871188Y-74584733D01*
X119964086Y-74758532D01*
X119964090Y-74758539D01*
X120089116Y-74910883D01*
X120241460Y-75035909D01*
X120241467Y-75035913D01*
X120415266Y-75128811D01*
X120415269Y-75128811D01*
X120415273Y-75128814D01*
X120603868Y-75186024D01*
X120800000Y-75205341D01*
X120996132Y-75186024D01*
X121184727Y-75128814D01*
X121358538Y-75035910D01*
X121510883Y-74910883D01*
X121635910Y-74758538D01*
X121728814Y-74584727D01*
X121752628Y-74506219D01*
X121783605Y-74454537D01*
X122680045Y-73558099D01*
X122741737Y-73465767D01*
X122748973Y-73456011D01*
X122835910Y-73350082D01*
X122928814Y-73176271D01*
X122986024Y-72987676D01*
X123005341Y-72791544D01*
X122986024Y-72595412D01*
X122928814Y-72406817D01*
X122928811Y-72406813D01*
X122928811Y-72406810D01*
X122835913Y-72233011D01*
X122835909Y-72233004D01*
X122710883Y-72080660D01*
X122558539Y-71955634D01*
X122558532Y-71955630D01*
X122384733Y-71862732D01*
X122384727Y-71862730D01*
X122196132Y-71805520D01*
X122196129Y-71805519D01*
X122000000Y-71786203D01*
X121803870Y-71805519D01*
X121615266Y-71862732D01*
X121441467Y-71955630D01*
X121441460Y-71955634D01*
X121289116Y-72080660D01*
X121164090Y-72233004D01*
X121164086Y-72233011D01*
X121071188Y-72406810D01*
X121013975Y-72595415D01*
X121001666Y-72720384D01*
X120975504Y-72785171D01*
X120965944Y-72795910D01*
X120545462Y-73216392D01*
X120493777Y-73247371D01*
X120415271Y-73271186D01*
X120241467Y-73364086D01*
X120241460Y-73364090D01*
X120089116Y-73489116D01*
X119964090Y-73641460D01*
X119964086Y-73641467D01*
X119871186Y-73815271D01*
X119832660Y-73942274D01*
X119794363Y-74000712D01*
X119730551Y-74029169D01*
X119661484Y-74018608D01*
X119609090Y-73972383D01*
X119590000Y-73906278D01*
X119590000Y-72926544D01*
X118543554Y-72926544D01*
X118625186Y-73008175D01*
X118658671Y-73069498D01*
X118653687Y-73139190D01*
X118625186Y-73183538D01*
X118587867Y-73220857D01*
X118587867Y-73220858D01*
X118705872Y-73338863D01*
X118739357Y-73400186D01*
X118734373Y-73469878D01*
X118705872Y-73514225D01*
X118190000Y-74030096D01*
X118190000Y-74576544D01*
X117690000Y-74576544D01*
X117690000Y-74030097D01*
X117174127Y-73514224D01*
X117142542Y-73456381D01*
X117290000Y-73456381D01*
X117312836Y-73511512D01*
X117355032Y-73553708D01*
X117410163Y-73576544D01*
X117469837Y-73576544D01*
X117524968Y-73553708D01*
X117567164Y-73511512D01*
X117590000Y-73456381D01*
X118290000Y-73456381D01*
X118312836Y-73511512D01*
X118355032Y-73553708D01*
X118410163Y-73576544D01*
X118469837Y-73576544D01*
X118524968Y-73553708D01*
X118567164Y-73511512D01*
X118590000Y-73456381D01*
X118590000Y-73396707D01*
X118567164Y-73341576D01*
X118524968Y-73299380D01*
X118469837Y-73276544D01*
X118410163Y-73276544D01*
X118355032Y-73299380D01*
X118312836Y-73341576D01*
X118290000Y-73396707D01*
X118290000Y-73456381D01*
X117590000Y-73456381D01*
X117590000Y-73396707D01*
X117567164Y-73341576D01*
X117524968Y-73299380D01*
X117469837Y-73276544D01*
X117410163Y-73276544D01*
X117355032Y-73299380D01*
X117312836Y-73341576D01*
X117290000Y-73396707D01*
X117290000Y-73456381D01*
X117142542Y-73456381D01*
X117140642Y-73452901D01*
X117145626Y-73383209D01*
X117174127Y-73338861D01*
X117292131Y-73220856D01*
X117254813Y-73183538D01*
X117221328Y-73122215D01*
X117226312Y-73052523D01*
X117254813Y-73008175D01*
X117336445Y-72926544D01*
X116290000Y-72926544D01*
X92152125Y-72926544D01*
X91931962Y-72706381D01*
X117790000Y-72706381D01*
X117812836Y-72761512D01*
X117855032Y-72803708D01*
X117910163Y-72826544D01*
X117969837Y-72826544D01*
X118024968Y-72803708D01*
X118067164Y-72761512D01*
X118090000Y-72706381D01*
X118090000Y-72646707D01*
X118067164Y-72591576D01*
X118024968Y-72549380D01*
X117969837Y-72526544D01*
X117910163Y-72526544D01*
X117855032Y-72549380D01*
X117812836Y-72591576D01*
X117790000Y-72646707D01*
X117790000Y-72706381D01*
X91931962Y-72706381D01*
X90687761Y-71462180D01*
X90654277Y-71400858D01*
X90659261Y-71331166D01*
X90701133Y-71275233D01*
X90766597Y-71250816D01*
X90775443Y-71250500D01*
X115101583Y-71250500D01*
X116166000Y-71250500D01*
X116233039Y-71270185D01*
X116278794Y-71322989D01*
X116290000Y-71374500D01*
X116290000Y-72426544D01*
X117336446Y-72426544D01*
X117336446Y-72426543D01*
X117254813Y-72344910D01*
X117221328Y-72283587D01*
X117226312Y-72213895D01*
X117254813Y-72169548D01*
X117292132Y-72132229D01*
X117292132Y-72132228D01*
X117174128Y-72014224D01*
X117142543Y-71956381D01*
X117290000Y-71956381D01*
X117312836Y-72011512D01*
X117355032Y-72053708D01*
X117410163Y-72076544D01*
X117469837Y-72076544D01*
X117524968Y-72053708D01*
X117567164Y-72011512D01*
X117590000Y-71956381D01*
X117590000Y-71926543D01*
X117793553Y-71926543D01*
X117940000Y-72072990D01*
X118056610Y-71956381D01*
X118290000Y-71956381D01*
X118312836Y-72011512D01*
X118355032Y-72053708D01*
X118410163Y-72076544D01*
X118469837Y-72076544D01*
X118524968Y-72053708D01*
X118567164Y-72011512D01*
X118590000Y-71956381D01*
X118590000Y-71896707D01*
X118567164Y-71841576D01*
X118524968Y-71799380D01*
X118469837Y-71776544D01*
X118410163Y-71776544D01*
X118355032Y-71799380D01*
X118312836Y-71841576D01*
X118290000Y-71896707D01*
X118290000Y-71956381D01*
X118056610Y-71956381D01*
X118086446Y-71926545D01*
X118086446Y-71926544D01*
X117940000Y-71780097D01*
X117793553Y-71926543D01*
X117590000Y-71926543D01*
X117590000Y-71896707D01*
X117567164Y-71841576D01*
X117524968Y-71799380D01*
X117469837Y-71776544D01*
X117410163Y-71776544D01*
X117355032Y-71799380D01*
X117312836Y-71841576D01*
X117290000Y-71896707D01*
X117290000Y-71956381D01*
X117142543Y-71956381D01*
X117140643Y-71952901D01*
X117145627Y-71883209D01*
X117174128Y-71838862D01*
X117440000Y-71572991D01*
X117726171Y-71286819D01*
X117787494Y-71253334D01*
X117813852Y-71250500D01*
X118066148Y-71250500D01*
X118133187Y-71270185D01*
X118153829Y-71286819D01*
X118440000Y-71572991D01*
X118705871Y-71838862D01*
X118739356Y-71900185D01*
X118734372Y-71969877D01*
X118705871Y-72014224D01*
X118587867Y-72132228D01*
X118587867Y-72132229D01*
X118625186Y-72169548D01*
X118658671Y-72230871D01*
X118653687Y-72300563D01*
X118625187Y-72344910D01*
X118543554Y-72426543D01*
X118543554Y-72426544D01*
X119590000Y-72426544D01*
X119590000Y-71448647D01*
X119609685Y-71381608D01*
X119662489Y-71335853D01*
X119729378Y-71325605D01*
X120915309Y-71473846D01*
X120920249Y-71474566D01*
X121075665Y-71500500D01*
X121124208Y-71500500D01*
X121135774Y-71501041D01*
X121144645Y-71501871D01*
X121155308Y-71502871D01*
X121156747Y-71502961D01*
X121156756Y-71502960D01*
X121156760Y-71502961D01*
X121247644Y-71500977D01*
X121254683Y-71500500D01*
X121324335Y-71500500D01*
X121569614Y-71459571D01*
X121804810Y-71378828D01*
X122023509Y-71260474D01*
X122219744Y-71107738D01*
X122388164Y-70924785D01*
X122524173Y-70716607D01*
X122624063Y-70488881D01*
X122685108Y-70247821D01*
X122705643Y-70000000D01*
X122699539Y-69926337D01*
X122685109Y-69752187D01*
X122685107Y-69752175D01*
X122624063Y-69511118D01*
X122524173Y-69283393D01*
X122388166Y-69075217D01*
X122366557Y-69051744D01*
X122219744Y-68892262D01*
X122023509Y-68739526D01*
X122023507Y-68739525D01*
X122023506Y-68739524D01*
X121804811Y-68621172D01*
X121804802Y-68621169D01*
X121569616Y-68540429D01*
X121324335Y-68499500D01*
X121075665Y-68499500D01*
X120920321Y-68525420D01*
X120915293Y-68526153D01*
X119147550Y-68747122D01*
X119140501Y-68748165D01*
X119122357Y-68749500D01*
X89384336Y-68749500D01*
X89317297Y-68729815D01*
X89296655Y-68713181D01*
X87927358Y-67343884D01*
X87902657Y-67308608D01*
X87839035Y-67172171D01*
X87839034Y-67172169D01*
X87703494Y-66978597D01*
X87536402Y-66811506D01*
X87536395Y-66811501D01*
X87342834Y-66675967D01*
X87342830Y-66675965D01*
X87270968Y-66642455D01*
X87151790Y-66586881D01*
X87099352Y-66540710D01*
X87080200Y-66473516D01*
X87100416Y-66406635D01*
X87153581Y-66361300D01*
X87204196Y-66350500D01*
X136475500Y-66350500D01*
X136542539Y-66370185D01*
X136588294Y-66422989D01*
X136599500Y-66474500D01*
X136599500Y-122025500D01*
X136579815Y-122092539D01*
X136527011Y-122138294D01*
X136475500Y-122149500D01*
X82024500Y-122149500D01*
X81957461Y-122129815D01*
X81911706Y-122077011D01*
X81900500Y-122025500D01*
X81900500Y-118098920D01*
X111549499Y-118098920D01*
X111578340Y-118243907D01*
X111578343Y-118243917D01*
X111634912Y-118380488D01*
X111634919Y-118380501D01*
X111717048Y-118503415D01*
X111717051Y-118503419D01*
X111821580Y-118607948D01*
X111821584Y-118607951D01*
X111944498Y-118690080D01*
X111944511Y-118690087D01*
X112081082Y-118746656D01*
X112081087Y-118746658D01*
X112081091Y-118746658D01*
X112081092Y-118746659D01*
X112226079Y-118775500D01*
X112226082Y-118775500D01*
X112373920Y-118775500D01*
X112471462Y-118756096D01*
X112518913Y-118746658D01*
X112655495Y-118690084D01*
X112778416Y-118607951D01*
X112882951Y-118503416D01*
X112965084Y-118380495D01*
X113021658Y-118243913D01*
X113050500Y-118098920D01*
X115949499Y-118098920D01*
X115978340Y-118243907D01*
X115978343Y-118243917D01*
X116034912Y-118380488D01*
X116034919Y-118380501D01*
X116117048Y-118503415D01*
X116117051Y-118503419D01*
X116221580Y-118607948D01*
X116221584Y-118607951D01*
X116344498Y-118690080D01*
X116344511Y-118690087D01*
X116481082Y-118746656D01*
X116481087Y-118746658D01*
X116481091Y-118746658D01*
X116481092Y-118746659D01*
X116626079Y-118775500D01*
X116626082Y-118775500D01*
X116773920Y-118775500D01*
X116871462Y-118756096D01*
X116918913Y-118746658D01*
X117055495Y-118690084D01*
X117178416Y-118607951D01*
X117282951Y-118503416D01*
X117365084Y-118380495D01*
X117421658Y-118243913D01*
X117450500Y-118098918D01*
X117450500Y-117951082D01*
X117450500Y-117951079D01*
X117421659Y-117806092D01*
X117421658Y-117806091D01*
X117421658Y-117806087D01*
X117421656Y-117806082D01*
X117365087Y-117669511D01*
X117365080Y-117669498D01*
X117282951Y-117546584D01*
X117282948Y-117546580D01*
X117178419Y-117442051D01*
X117178415Y-117442048D01*
X117055501Y-117359919D01*
X117055488Y-117359912D01*
X116918917Y-117303343D01*
X116918907Y-117303340D01*
X116773920Y-117274500D01*
X116773918Y-117274500D01*
X116626082Y-117274500D01*
X116626080Y-117274500D01*
X116481092Y-117303340D01*
X116481082Y-117303343D01*
X116344511Y-117359912D01*
X116344498Y-117359919D01*
X116221584Y-117442048D01*
X116221580Y-117442051D01*
X116117051Y-117546580D01*
X116117048Y-117546584D01*
X116034919Y-117669498D01*
X116034912Y-117669511D01*
X115978343Y-117806082D01*
X115978340Y-117806092D01*
X115949500Y-117951079D01*
X115949500Y-117951082D01*
X115949500Y-118098918D01*
X115949500Y-118098920D01*
X115949499Y-118098920D01*
X113050500Y-118098920D01*
X113050500Y-118098918D01*
X113050500Y-117951082D01*
X113050500Y-117951079D01*
X113021659Y-117806092D01*
X113021658Y-117806091D01*
X113021658Y-117806087D01*
X113021656Y-117806082D01*
X112965087Y-117669511D01*
X112965080Y-117669498D01*
X112882951Y-117546584D01*
X112882948Y-117546580D01*
X112778419Y-117442051D01*
X112778415Y-117442048D01*
X112655501Y-117359919D01*
X112655488Y-117359912D01*
X112518917Y-117303343D01*
X112518907Y-117303340D01*
X112373920Y-117274500D01*
X112373918Y-117274500D01*
X112226082Y-117274500D01*
X112226080Y-117274500D01*
X112081092Y-117303340D01*
X112081082Y-117303343D01*
X111944511Y-117359912D01*
X111944498Y-117359919D01*
X111821584Y-117442048D01*
X111821580Y-117442051D01*
X111717051Y-117546580D01*
X111717048Y-117546584D01*
X111634919Y-117669498D01*
X111634912Y-117669511D01*
X111578343Y-117806082D01*
X111578340Y-117806092D01*
X111549500Y-117951079D01*
X111549500Y-117951082D01*
X111549500Y-118098918D01*
X111549500Y-118098920D01*
X111549499Y-118098920D01*
X81900500Y-118098920D01*
X81900500Y-66474500D01*
X81920185Y-66407461D01*
X81972989Y-66361706D01*
X82024500Y-66350500D01*
X82934897Y-66350500D01*
X83001936Y-66370185D01*
G37*
%TD.AperFunction*%
%TD*%
%TA.AperFunction,Conductor*%
%TO.N,5V*%
G36*
X121195496Y-69004017D02*
G01*
X121199923Y-69011801D01*
X121200013Y-69013240D01*
X121201000Y-70000000D01*
X121201000Y-70000024D01*
X121200013Y-70986759D01*
X121196578Y-70995028D01*
X121188301Y-70998447D01*
X121186862Y-70998357D01*
X119210249Y-70751281D01*
X119202465Y-70746854D01*
X119200000Y-70739671D01*
X119200000Y-69260328D01*
X119203427Y-69252055D01*
X119210246Y-69248719D01*
X121186862Y-69001642D01*
X121195496Y-69004017D01*
G37*
%TD.AperFunction*%
%TD*%
M02*
