%TF.GenerationSoftware,KiCad,Pcbnew,8.0.1*%
%TF.CreationDate,2024-04-11T19:27:17-06:00*%
%TF.ProjectId,ECE Altitude Project,45434520-416c-4746-9974-756465205072,rev?*%
%TF.SameCoordinates,Original*%
%TF.FileFunction,Legend,Bot*%
%TF.FilePolarity,Positive*%
%FSLAX46Y46*%
G04 Gerber Fmt 4.6, Leading zero omitted, Abs format (unit mm)*
G04 Created by KiCad (PCBNEW 8.0.1) date 2024-04-11 19:27:17*
%MOMM*%
%LPD*%
G01*
G04 APERTURE LIST*
G04 Aperture macros list*
%AMRoundRect*
0 Rectangle with rounded corners*
0 $1 Rounding radius*
0 $2 $3 $4 $5 $6 $7 $8 $9 X,Y pos of 4 corners*
0 Add a 4 corners polygon primitive as box body*
4,1,4,$2,$3,$4,$5,$6,$7,$8,$9,$2,$3,0*
0 Add four circle primitives for the rounded corners*
1,1,$1+$1,$2,$3*
1,1,$1+$1,$4,$5*
1,1,$1+$1,$6,$7*
1,1,$1+$1,$8,$9*
0 Add four rect primitives between the rounded corners*
20,1,$1+$1,$2,$3,$4,$5,0*
20,1,$1+$1,$4,$5,$6,$7,0*
20,1,$1+$1,$6,$7,$8,$9,0*
20,1,$1+$1,$8,$9,$2,$3,0*%
G04 Aperture macros list end*
%ADD10C,0.120000*%
%ADD11C,0.600000*%
%ADD12R,2.000000X2.000000*%
%ADD13RoundRect,0.250000X-0.750000X0.600000X-0.750000X-0.600000X0.750000X-0.600000X0.750000X0.600000X0*%
%ADD14O,2.000000X1.700000*%
%ADD15RoundRect,0.250000X0.600000X0.750000X-0.600000X0.750000X-0.600000X-0.750000X0.600000X-0.750000X0*%
%ADD16O,1.700000X2.000000*%
%ADD17RoundRect,0.250000X-0.600000X-0.750000X0.600000X-0.750000X0.600000X0.750000X-0.600000X0.750000X0*%
%ADD18C,1.000000*%
%ADD19R,1.700000X1.700000*%
%ADD20O,1.700000X1.700000*%
G04 APERTURE END LIST*
D10*
%TO.C,J2*%
X82795000Y-66520000D02*
X84125000Y-66520000D01*
X82795000Y-67850000D02*
X82795000Y-66520000D01*
X82795000Y-69120000D02*
X85395000Y-69120000D01*
X82795000Y-117440000D02*
X82795000Y-69120000D01*
X82795000Y-117440000D02*
X87995000Y-117440000D01*
X85395000Y-66520000D02*
X87995000Y-66520000D01*
X85395000Y-69120000D02*
X85395000Y-66520000D01*
X87995000Y-117440000D02*
X87995000Y-66520000D01*
%TD*%
%LPC*%
D11*
%TO.C,U2*%
X117440000Y-71926544D03*
X117440000Y-73426544D03*
X117940000Y-72676544D03*
X118440000Y-71926544D03*
X118440000Y-73426544D03*
%TD*%
D12*
%TO.C,J9*%
X120800000Y-86100000D03*
%TD*%
D13*
%TO.C,J7*%
X130600000Y-93000000D03*
D14*
X130600000Y-95500000D03*
%TD*%
D15*
%TO.C,J8*%
X99900000Y-109900000D03*
D16*
X97400000Y-109900000D03*
%TD*%
D12*
%TO.C,J10*%
X115400000Y-86034044D03*
%TD*%
D17*
%TO.C,J5*%
X97400000Y-103300000D03*
D16*
X99900000Y-103300000D03*
%TD*%
D17*
%TO.C,J1*%
X97400000Y-95900000D03*
D16*
X99900000Y-95900000D03*
%TD*%
D17*
%TO.C,J3*%
X92300000Y-78200000D03*
D16*
X94800000Y-78200000D03*
%TD*%
D18*
%TO.C,J6*%
X112300000Y-118025000D03*
X116700000Y-118025000D03*
%TD*%
D17*
%TO.C,J4*%
X97400000Y-89000000D03*
D16*
X99900000Y-89000000D03*
%TD*%
D19*
%TO.C,J2*%
X84125000Y-67850000D03*
D20*
X86665000Y-67850000D03*
X84125000Y-70390000D03*
X86665000Y-70390000D03*
X84125000Y-72930000D03*
X86665000Y-72930000D03*
X84125000Y-75470000D03*
X86665000Y-75470000D03*
X84125000Y-78010000D03*
X86665000Y-78010000D03*
X84125000Y-80550000D03*
X86665000Y-80550000D03*
X84125000Y-83090000D03*
X86665000Y-83090000D03*
X84125000Y-85630000D03*
X86665000Y-85630000D03*
X84125000Y-88170000D03*
X86665000Y-88170000D03*
X84125000Y-90710000D03*
X86665000Y-90710000D03*
X84125000Y-93250000D03*
X86665000Y-93250000D03*
X84125000Y-95790000D03*
X86665000Y-95790000D03*
X84125000Y-98330000D03*
X86665000Y-98330000D03*
X84125000Y-100870000D03*
X86665000Y-100870000D03*
X84125000Y-103410000D03*
X86665000Y-103410000D03*
X84125000Y-105950000D03*
X86665000Y-105950000D03*
X84125000Y-108490000D03*
X86665000Y-108490000D03*
X84125000Y-111030000D03*
X86665000Y-111030000D03*
X84125000Y-113570000D03*
X86665000Y-113570000D03*
X84125000Y-116110000D03*
X86665000Y-116110000D03*
%TD*%
%LPD*%
M02*
