%TF.GenerationSoftware,KiCad,Pcbnew,8.0.1*%
%TF.CreationDate,2024-04-11T19:27:17-06:00*%
%TF.ProjectId,ECE Altitude Project,45434520-416c-4746-9974-756465205072,rev?*%
%TF.SameCoordinates,Original*%
%TF.FileFunction,Paste,Top*%
%TF.FilePolarity,Positive*%
%FSLAX46Y46*%
G04 Gerber Fmt 4.6, Leading zero omitted, Abs format (unit mm)*
G04 Created by KiCad (PCBNEW 8.0.1) date 2024-04-11 19:27:17*
%MOMM*%
%LPD*%
G01*
G04 APERTURE LIST*
G04 Aperture macros list*
%AMRoundRect*
0 Rectangle with rounded corners*
0 $1 Rounding radius*
0 $2 $3 $4 $5 $6 $7 $8 $9 X,Y pos of 4 corners*
0 Add a 4 corners polygon primitive as box body*
4,1,4,$2,$3,$4,$5,$6,$7,$8,$9,$2,$3,0*
0 Add four circle primitives for the rounded corners*
1,1,$1+$1,$2,$3*
1,1,$1+$1,$4,$5*
1,1,$1+$1,$6,$7*
1,1,$1+$1,$8,$9*
0 Add four rect primitives between the rounded corners*
20,1,$1+$1,$2,$3,$4,$5,0*
20,1,$1+$1,$4,$5,$6,$7,0*
20,1,$1+$1,$6,$7,$8,$9,0*
20,1,$1+$1,$8,$9,$2,$3,0*%
G04 Aperture macros list end*
%ADD10R,0.230000X0.230000*%
%ADD11O,0.800000X0.230000*%
%ADD12R,0.680000X1.050000*%
%ADD13R,0.260000X0.500000*%
%ADD14RoundRect,0.087500X0.087500X-0.725000X0.087500X0.725000X-0.087500X0.725000X-0.087500X-0.725000X0*%
%ADD15RoundRect,0.140000X-0.140000X-0.170000X0.140000X-0.170000X0.140000X0.170000X-0.140000X0.170000X0*%
%ADD16RoundRect,0.079500X0.100500X-0.079500X0.100500X0.079500X-0.100500X0.079500X-0.100500X-0.079500X0*%
%ADD17R,1.100000X3.700000*%
%ADD18RoundRect,0.079500X-0.079500X-0.100500X0.079500X-0.100500X0.079500X0.100500X-0.079500X0.100500X0*%
%ADD19R,0.350000X0.500000*%
%ADD20RoundRect,0.150000X-0.587500X-0.150000X0.587500X-0.150000X0.587500X0.150000X-0.587500X0.150000X0*%
%ADD21RoundRect,0.250000X-0.312500X-0.625000X0.312500X-0.625000X0.312500X0.625000X-0.312500X0.625000X0*%
%ADD22RoundRect,0.243750X-0.456250X0.243750X-0.456250X-0.243750X0.456250X-0.243750X0.456250X0.243750X0*%
%ADD23RoundRect,0.140000X0.170000X-0.140000X0.170000X0.140000X-0.170000X0.140000X-0.170000X-0.140000X0*%
%ADD24RoundRect,0.243750X0.243750X0.456250X-0.243750X0.456250X-0.243750X-0.456250X0.243750X-0.456250X0*%
%ADD25RoundRect,0.140000X0.140000X0.170000X-0.140000X0.170000X-0.140000X-0.170000X0.140000X-0.170000X0*%
%ADD26RoundRect,0.079500X0.079500X0.100500X-0.079500X0.100500X-0.079500X-0.100500X0.079500X-0.100500X0*%
%ADD27RoundRect,0.079500X-0.100500X0.079500X-0.100500X-0.079500X0.100500X-0.079500X0.100500X0.079500X0*%
%ADD28R,0.500000X2.000000*%
%ADD29R,2.000000X1.700000*%
G04 APERTURE END LIST*
D10*
%TO.C,U2*%
X116180000Y-71676544D03*
D11*
X116465000Y-71676544D03*
D10*
X116180000Y-72176544D03*
D11*
X116465000Y-72176544D03*
D10*
X116180000Y-72676544D03*
D11*
X116465000Y-72676544D03*
D10*
X116180000Y-73176544D03*
D11*
X116465000Y-73176544D03*
D10*
X116180000Y-73676544D03*
D11*
X116465000Y-73676544D03*
X119415000Y-73676544D03*
D10*
X119700000Y-73676544D03*
D11*
X119415000Y-73176544D03*
D10*
X119700000Y-73176544D03*
D11*
X119415000Y-72676544D03*
D10*
X119700000Y-72676544D03*
D11*
X119415000Y-72176544D03*
D10*
X119700000Y-72176544D03*
D11*
X119415000Y-71676544D03*
D10*
X119700000Y-71676544D03*
D12*
X117490000Y-72041544D03*
X117490000Y-73311544D03*
D13*
X117690000Y-71046544D03*
X117690000Y-74306544D03*
X118190000Y-71046544D03*
X118190000Y-74306544D03*
D12*
X118390000Y-72041544D03*
X118390000Y-73311544D03*
%TD*%
D14*
%TO.C,U3*%
X111100000Y-102425000D03*
X111600000Y-102425000D03*
X112100000Y-102425000D03*
X112600000Y-102425000D03*
X113100000Y-102425000D03*
X113100000Y-98200000D03*
X112600000Y-98200000D03*
X112100000Y-98200000D03*
X111600000Y-98200000D03*
X111100000Y-98200000D03*
%TD*%
D15*
%TO.C,C3*%
X116220000Y-69876544D03*
X117180000Y-69876544D03*
%TD*%
D16*
%TO.C,R13*%
X111000000Y-92850000D03*
X111000000Y-92160000D03*
%TD*%
D17*
%TO.C,L1*%
X112800000Y-70200000D03*
X109800000Y-70200000D03*
%TD*%
D16*
%TO.C,R12*%
X113500000Y-92770000D03*
X113500000Y-92080000D03*
%TD*%
D15*
%TO.C,C1*%
X115200000Y-77776544D03*
X116160000Y-77776544D03*
%TD*%
D18*
%TO.C,R5*%
X103310000Y-85200000D03*
X104000000Y-85200000D03*
%TD*%
D19*
%TO.C,U1*%
X100825000Y-73000000D03*
X101475000Y-73000000D03*
X102125000Y-73000000D03*
X102775000Y-73000000D03*
X102775000Y-74600000D03*
X102125000Y-74600000D03*
X101475000Y-74600000D03*
X100825000Y-74600000D03*
%TD*%
D20*
%TO.C,Q1*%
X105762500Y-76250000D03*
X105762500Y-78150000D03*
X107637500Y-77200000D03*
%TD*%
D16*
%TO.C,R4*%
X110600000Y-106590000D03*
X110600000Y-105900000D03*
%TD*%
%TO.C,R8*%
X105500000Y-73590000D03*
X105500000Y-72900000D03*
%TD*%
D21*
%TO.C,R2*%
X114037500Y-80600000D03*
X116962500Y-80600000D03*
%TD*%
D20*
%TO.C,Q2*%
X106762500Y-84250000D03*
X106762500Y-86150000D03*
X108637500Y-85200000D03*
%TD*%
D22*
%TO.C,D3*%
X115100000Y-108425000D03*
X115100000Y-110300000D03*
%TD*%
D15*
%TO.C,C4*%
X121120000Y-71676544D03*
X122080000Y-71676544D03*
%TD*%
D22*
%TO.C,D2*%
X110600000Y-108425000D03*
X110600000Y-110300000D03*
%TD*%
D23*
%TO.C,C6*%
X126200000Y-94780000D03*
X126200000Y-93820000D03*
%TD*%
D16*
%TO.C,R11*%
X119600000Y-106590000D03*
X119600000Y-105900000D03*
%TD*%
D18*
%TO.C,R7*%
X106335000Y-82000000D03*
X107025000Y-82000000D03*
%TD*%
D22*
%TO.C,D4*%
X119600000Y-108425000D03*
X119600000Y-110300000D03*
%TD*%
D16*
%TO.C,R10*%
X116300000Y-92770000D03*
X116300000Y-92080000D03*
%TD*%
D24*
%TO.C,D1*%
X100000000Y-68500000D03*
X98125000Y-68500000D03*
%TD*%
D18*
%TO.C,R3*%
X94600000Y-68500000D03*
X95290000Y-68500000D03*
%TD*%
D25*
%TO.C,C5*%
X107800000Y-111300000D03*
X106840000Y-111300000D03*
%TD*%
D26*
%TO.C,R6*%
X101625000Y-85100000D03*
X100935000Y-85100000D03*
%TD*%
D27*
%TO.C,RT1*%
X112755000Y-94580000D03*
X112755000Y-95270000D03*
%TD*%
D16*
%TO.C,R9*%
X115100000Y-106615000D03*
X115100000Y-105925000D03*
%TD*%
D15*
%TO.C,C2*%
X115740000Y-82900000D03*
X116700000Y-82900000D03*
%TD*%
D18*
%TO.C,R1*%
X118555000Y-80600000D03*
X119245000Y-80600000D03*
%TD*%
D28*
%TO.C,J6*%
X112900000Y-115325000D03*
X113700000Y-115325000D03*
X114500000Y-115325000D03*
X115300000Y-115325000D03*
X116100000Y-115325000D03*
D29*
X110050000Y-115425000D03*
X110050000Y-120875000D03*
X118950000Y-115425000D03*
X118950000Y-120875000D03*
%TD*%
M02*
