G04 #@! TF.GenerationSoftware,KiCad,Pcbnew,8.0.1*
G04 #@! TF.CreationDate,2024-04-25T21:13:49-06:00*
G04 #@! TF.ProjectId,Small_PCB,536d616c-6c5f-4504-9342-2e6b69636164,rev?*
G04 #@! TF.SameCoordinates,Original*
G04 #@! TF.FileFunction,Copper,L2,Bot*
G04 #@! TF.FilePolarity,Positive*
%FSLAX46Y46*%
G04 Gerber Fmt 4.6, Leading zero omitted, Abs format (unit mm)*
G04 Created by KiCad (PCBNEW 8.0.1) date 2024-04-25 21:13:49*
%MOMM*%
%LPD*%
G01*
G04 APERTURE LIST*
G04 Aperture macros list*
%AMRoundRect*
0 Rectangle with rounded corners*
0 $1 Rounding radius*
0 $2 $3 $4 $5 $6 $7 $8 $9 X,Y pos of 4 corners*
0 Add a 4 corners polygon primitive as box body*
4,1,4,$2,$3,$4,$5,$6,$7,$8,$9,$2,$3,0*
0 Add four circle primitives for the rounded corners*
1,1,$1+$1,$2,$3*
1,1,$1+$1,$4,$5*
1,1,$1+$1,$6,$7*
1,1,$1+$1,$8,$9*
0 Add four rect primitives between the rounded corners*
20,1,$1+$1,$2,$3,$4,$5,0*
20,1,$1+$1,$4,$5,$6,$7,0*
20,1,$1+$1,$6,$7,$8,$9,0*
20,1,$1+$1,$8,$9,$2,$3,0*%
G04 Aperture macros list end*
G04 #@! TA.AperFunction,ComponentPad*
%ADD10RoundRect,0.250000X-0.600000X-0.750000X0.600000X-0.750000X0.600000X0.750000X-0.600000X0.750000X0*%
G04 #@! TD*
G04 #@! TA.AperFunction,ComponentPad*
%ADD11O,1.700000X2.000000*%
G04 #@! TD*
G04 #@! TA.AperFunction,ComponentPad*
%ADD12R,1.700000X1.700000*%
G04 #@! TD*
G04 #@! TA.AperFunction,ComponentPad*
%ADD13O,1.700000X1.700000*%
G04 #@! TD*
G04 #@! TA.AperFunction,ViaPad*
%ADD14C,0.600000*%
G04 #@! TD*
G04 #@! TA.AperFunction,Conductor*
%ADD15C,0.200000*%
G04 #@! TD*
G04 APERTURE END LIST*
D10*
X103500000Y-86335000D03*
D11*
X106000000Y-86335000D03*
D10*
X103500000Y-100835000D03*
D11*
X106000000Y-100835000D03*
D10*
X103500000Y-93335000D03*
D11*
X106000000Y-93335000D03*
D10*
X103500000Y-77335000D03*
D11*
X106000000Y-77335000D03*
D10*
X103500000Y-70335000D03*
D11*
X106000000Y-70335000D03*
D12*
X92500000Y-68960000D03*
D13*
X95040000Y-68960000D03*
X92500000Y-71500000D03*
X95040000Y-71500000D03*
X92500000Y-74040000D03*
X95040000Y-74040000D03*
X92500000Y-76580000D03*
X95040000Y-76580000D03*
X92500000Y-79120000D03*
X95040000Y-79120000D03*
X92500000Y-81660000D03*
X95040000Y-81660000D03*
X92500000Y-84200000D03*
X95040000Y-84200000D03*
X92500000Y-86740000D03*
X95040000Y-86740000D03*
X92500000Y-89280000D03*
X95040000Y-89280000D03*
X92500000Y-91820000D03*
X95040000Y-91820000D03*
X92500000Y-94360000D03*
X95040000Y-94360000D03*
X92500000Y-96900000D03*
X95040000Y-96900000D03*
X92500000Y-99440000D03*
X95040000Y-99440000D03*
X92500000Y-101980000D03*
X95040000Y-101980000D03*
X92500000Y-104520000D03*
X95040000Y-104520000D03*
X92500000Y-107060000D03*
X95040000Y-107060000D03*
X92500000Y-109600000D03*
X95040000Y-109600000D03*
X92500000Y-112140000D03*
X95040000Y-112140000D03*
X92500000Y-114680000D03*
X95040000Y-114680000D03*
X92500000Y-117220000D03*
X95040000Y-117220000D03*
D14*
X114000000Y-72835000D03*
X112500000Y-91835000D03*
D15*
X114000000Y-90335000D02*
X114000000Y-72835000D01*
X112500000Y-91835000D02*
X114000000Y-90335000D01*
G04 #@! TA.AperFunction,Conductor*
G36*
X116442539Y-67020185D02*
G01*
X116488294Y-67072989D01*
X116499500Y-67124500D01*
X116499500Y-124375500D01*
X116479815Y-124442539D01*
X116427011Y-124488294D01*
X116375500Y-124499500D01*
X90624500Y-124499500D01*
X90557461Y-124479815D01*
X90511706Y-124427011D01*
X90500500Y-124375500D01*
X90500500Y-117220000D01*
X91144341Y-117220000D01*
X91164936Y-117455403D01*
X91164938Y-117455413D01*
X91226094Y-117683655D01*
X91226096Y-117683659D01*
X91226097Y-117683663D01*
X91230000Y-117692032D01*
X91325965Y-117897830D01*
X91325967Y-117897834D01*
X91434281Y-118052521D01*
X91461505Y-118091401D01*
X91628599Y-118258495D01*
X91725384Y-118326265D01*
X91822165Y-118394032D01*
X91822167Y-118394033D01*
X91822170Y-118394035D01*
X92036337Y-118493903D01*
X92264592Y-118555063D01*
X92452918Y-118571539D01*
X92499999Y-118575659D01*
X92500000Y-118575659D01*
X92500001Y-118575659D01*
X92539234Y-118572226D01*
X92735408Y-118555063D01*
X92963663Y-118493903D01*
X93177830Y-118394035D01*
X93371401Y-118258495D01*
X93538495Y-118091401D01*
X93668425Y-117905842D01*
X93723002Y-117862217D01*
X93792500Y-117855023D01*
X93854855Y-117886546D01*
X93871575Y-117905842D01*
X94001500Y-118091395D01*
X94001505Y-118091401D01*
X94168599Y-118258495D01*
X94265384Y-118326265D01*
X94362165Y-118394032D01*
X94362167Y-118394033D01*
X94362170Y-118394035D01*
X94576337Y-118493903D01*
X94804592Y-118555063D01*
X94992918Y-118571539D01*
X95039999Y-118575659D01*
X95040000Y-118575659D01*
X95040001Y-118575659D01*
X95079234Y-118572226D01*
X95275408Y-118555063D01*
X95503663Y-118493903D01*
X95717830Y-118394035D01*
X95911401Y-118258495D01*
X96078495Y-118091401D01*
X96214035Y-117897830D01*
X96313903Y-117683663D01*
X96375063Y-117455408D01*
X96395659Y-117220000D01*
X96375063Y-116984592D01*
X96313903Y-116756337D01*
X96214035Y-116542171D01*
X96208425Y-116534158D01*
X96078494Y-116348597D01*
X95911402Y-116181506D01*
X95911396Y-116181501D01*
X95725842Y-116051575D01*
X95682217Y-115996998D01*
X95675023Y-115927500D01*
X95706546Y-115865145D01*
X95725842Y-115848425D01*
X95748026Y-115832891D01*
X95911401Y-115718495D01*
X96078495Y-115551401D01*
X96214035Y-115357830D01*
X96313903Y-115143663D01*
X96375063Y-114915408D01*
X96395659Y-114680000D01*
X96375063Y-114444592D01*
X96313903Y-114216337D01*
X96214035Y-114002171D01*
X96208425Y-113994158D01*
X96078494Y-113808597D01*
X95911402Y-113641506D01*
X95911396Y-113641501D01*
X95725842Y-113511575D01*
X95682217Y-113456998D01*
X95675023Y-113387500D01*
X95706546Y-113325145D01*
X95725842Y-113308425D01*
X95748026Y-113292891D01*
X95911401Y-113178495D01*
X96078495Y-113011401D01*
X96214035Y-112817830D01*
X96313903Y-112603663D01*
X96375063Y-112375408D01*
X96395659Y-112140000D01*
X96375063Y-111904592D01*
X96313903Y-111676337D01*
X96214035Y-111462171D01*
X96208425Y-111454158D01*
X96078494Y-111268597D01*
X95911402Y-111101506D01*
X95911396Y-111101501D01*
X95725842Y-110971575D01*
X95682217Y-110916998D01*
X95675023Y-110847500D01*
X95706546Y-110785145D01*
X95725842Y-110768425D01*
X95748026Y-110752891D01*
X95911401Y-110638495D01*
X96078495Y-110471401D01*
X96214035Y-110277830D01*
X96313903Y-110063663D01*
X96375063Y-109835408D01*
X96395659Y-109600000D01*
X96375063Y-109364592D01*
X96313903Y-109136337D01*
X96214035Y-108922171D01*
X96208425Y-108914158D01*
X96078494Y-108728597D01*
X95911402Y-108561506D01*
X95911396Y-108561501D01*
X95725842Y-108431575D01*
X95682217Y-108376998D01*
X95675023Y-108307500D01*
X95706546Y-108245145D01*
X95725842Y-108228425D01*
X95748026Y-108212891D01*
X95911401Y-108098495D01*
X96078495Y-107931401D01*
X96214035Y-107737830D01*
X96313903Y-107523663D01*
X96375063Y-107295408D01*
X96395659Y-107060000D01*
X96375063Y-106824592D01*
X96313903Y-106596337D01*
X96214035Y-106382171D01*
X96208425Y-106374158D01*
X96078494Y-106188597D01*
X95911402Y-106021506D01*
X95911396Y-106021501D01*
X95725842Y-105891575D01*
X95682217Y-105836998D01*
X95675023Y-105767500D01*
X95706546Y-105705145D01*
X95725842Y-105688425D01*
X95748026Y-105672891D01*
X95911401Y-105558495D01*
X96078495Y-105391401D01*
X96214035Y-105197830D01*
X96313903Y-104983663D01*
X96375063Y-104755408D01*
X96395659Y-104520000D01*
X96375063Y-104284592D01*
X96313903Y-104056337D01*
X96214035Y-103842171D01*
X96208425Y-103834158D01*
X96078494Y-103648597D01*
X95911402Y-103481506D01*
X95911396Y-103481501D01*
X95725842Y-103351575D01*
X95682217Y-103296998D01*
X95675023Y-103227500D01*
X95706546Y-103165145D01*
X95725842Y-103148425D01*
X95748026Y-103132891D01*
X95911401Y-103018495D01*
X96078495Y-102851401D01*
X96214035Y-102657830D01*
X96313903Y-102443663D01*
X96313905Y-102443651D01*
X96313908Y-102443647D01*
X96360485Y-102269814D01*
X96375063Y-102215408D01*
X96395659Y-101980000D01*
X96375063Y-101744592D01*
X96345699Y-101635001D01*
X102149500Y-101635001D01*
X102149501Y-101635018D01*
X102160000Y-101737796D01*
X102160001Y-101737799D01*
X102194031Y-101840493D01*
X102215186Y-101904334D01*
X102307288Y-102053656D01*
X102431344Y-102177712D01*
X102580666Y-102269814D01*
X102747203Y-102324999D01*
X102849991Y-102335500D01*
X104150008Y-102335499D01*
X104252797Y-102324999D01*
X104419334Y-102269814D01*
X104568656Y-102177712D01*
X104692712Y-102053656D01*
X104784814Y-101904334D01*
X104784814Y-101904331D01*
X104788448Y-101898441D01*
X104840395Y-101851716D01*
X104909358Y-101840493D01*
X104973440Y-101868336D01*
X104981668Y-101875856D01*
X105120535Y-102014723D01*
X105120540Y-102014727D01*
X105292442Y-102139620D01*
X105481782Y-102236095D01*
X105683871Y-102301757D01*
X105750000Y-102312231D01*
X105750000Y-101268012D01*
X105807007Y-101300925D01*
X105934174Y-101335000D01*
X106065826Y-101335000D01*
X106192993Y-101300925D01*
X106250000Y-101268012D01*
X106250000Y-102312230D01*
X106316126Y-102301757D01*
X106316129Y-102301757D01*
X106518217Y-102236095D01*
X106707557Y-102139620D01*
X106879459Y-102014727D01*
X106879464Y-102014723D01*
X107029723Y-101864464D01*
X107029727Y-101864459D01*
X107154620Y-101692557D01*
X107251095Y-101503217D01*
X107316757Y-101301130D01*
X107316757Y-101301127D01*
X107350000Y-101091246D01*
X107350000Y-101085000D01*
X106433012Y-101085000D01*
X106465925Y-101027993D01*
X106500000Y-100900826D01*
X106500000Y-100769174D01*
X106465925Y-100642007D01*
X106433012Y-100585000D01*
X107350000Y-100585000D01*
X107350000Y-100578753D01*
X107316757Y-100368872D01*
X107316757Y-100368869D01*
X107251095Y-100166782D01*
X107154620Y-99977442D01*
X107029727Y-99805540D01*
X107029723Y-99805535D01*
X106879464Y-99655276D01*
X106879459Y-99655272D01*
X106707557Y-99530379D01*
X106518215Y-99433903D01*
X106316124Y-99368241D01*
X106250000Y-99357768D01*
X106250000Y-100401988D01*
X106192993Y-100369075D01*
X106065826Y-100335000D01*
X105934174Y-100335000D01*
X105807007Y-100369075D01*
X105750000Y-100401988D01*
X105750000Y-99357768D01*
X105749999Y-99357768D01*
X105683875Y-99368241D01*
X105481784Y-99433903D01*
X105292442Y-99530379D01*
X105120541Y-99655271D01*
X104981668Y-99794144D01*
X104920345Y-99827628D01*
X104850653Y-99822644D01*
X104794720Y-99780772D01*
X104788448Y-99771558D01*
X104692712Y-99616344D01*
X104568657Y-99492289D01*
X104568656Y-99492288D01*
X104419334Y-99400186D01*
X104252797Y-99345001D01*
X104252795Y-99345000D01*
X104150010Y-99334500D01*
X102849998Y-99334500D01*
X102849981Y-99334501D01*
X102747203Y-99345000D01*
X102747200Y-99345001D01*
X102580668Y-99400185D01*
X102580663Y-99400187D01*
X102431342Y-99492289D01*
X102307289Y-99616342D01*
X102215187Y-99765663D01*
X102215185Y-99765668D01*
X102210180Y-99780772D01*
X102160001Y-99932203D01*
X102160001Y-99932204D01*
X102160000Y-99932204D01*
X102149500Y-100034983D01*
X102149500Y-101635001D01*
X96345699Y-101635001D01*
X96313903Y-101516337D01*
X96214035Y-101302171D01*
X96208425Y-101294158D01*
X96078494Y-101108597D01*
X95911402Y-100941506D01*
X95911396Y-100941501D01*
X95725842Y-100811575D01*
X95682217Y-100756998D01*
X95675023Y-100687500D01*
X95706546Y-100625145D01*
X95725842Y-100608425D01*
X95768218Y-100578753D01*
X95911401Y-100478495D01*
X96078495Y-100311401D01*
X96214035Y-100117830D01*
X96313903Y-99903663D01*
X96375063Y-99675408D01*
X96395659Y-99440000D01*
X96375063Y-99204592D01*
X96313903Y-98976337D01*
X96214035Y-98762171D01*
X96208425Y-98754158D01*
X96078494Y-98568597D01*
X95911402Y-98401506D01*
X95911396Y-98401501D01*
X95725842Y-98271575D01*
X95682217Y-98216998D01*
X95675023Y-98147500D01*
X95706546Y-98085145D01*
X95725842Y-98068425D01*
X95748026Y-98052891D01*
X95911401Y-97938495D01*
X96078495Y-97771401D01*
X96214035Y-97577830D01*
X96313903Y-97363663D01*
X96375063Y-97135408D01*
X96395659Y-96900000D01*
X96375063Y-96664592D01*
X96313903Y-96436337D01*
X96214035Y-96222171D01*
X96208425Y-96214158D01*
X96078494Y-96028597D01*
X95911402Y-95861506D01*
X95911396Y-95861501D01*
X95725842Y-95731575D01*
X95682217Y-95676998D01*
X95675023Y-95607500D01*
X95706546Y-95545145D01*
X95725842Y-95528425D01*
X95748026Y-95512891D01*
X95911401Y-95398495D01*
X96078495Y-95231401D01*
X96214035Y-95037830D01*
X96313903Y-94823663D01*
X96375063Y-94595408D01*
X96395659Y-94360000D01*
X96375974Y-94135001D01*
X102149500Y-94135001D01*
X102149501Y-94135018D01*
X102160000Y-94237796D01*
X102160001Y-94237799D01*
X102194031Y-94340493D01*
X102215186Y-94404334D01*
X102307288Y-94553656D01*
X102431344Y-94677712D01*
X102580666Y-94769814D01*
X102747203Y-94824999D01*
X102849991Y-94835500D01*
X104150008Y-94835499D01*
X104252797Y-94824999D01*
X104419334Y-94769814D01*
X104568656Y-94677712D01*
X104692712Y-94553656D01*
X104784814Y-94404334D01*
X104784814Y-94404331D01*
X104788448Y-94398441D01*
X104840395Y-94351716D01*
X104909358Y-94340493D01*
X104973440Y-94368336D01*
X104981668Y-94375856D01*
X105120535Y-94514723D01*
X105120540Y-94514727D01*
X105292442Y-94639620D01*
X105481782Y-94736095D01*
X105683871Y-94801757D01*
X105750000Y-94812231D01*
X105750000Y-93768012D01*
X105807007Y-93800925D01*
X105934174Y-93835000D01*
X106065826Y-93835000D01*
X106192993Y-93800925D01*
X106250000Y-93768012D01*
X106250000Y-94812230D01*
X106316126Y-94801757D01*
X106316129Y-94801757D01*
X106518217Y-94736095D01*
X106707557Y-94639620D01*
X106879459Y-94514727D01*
X106879464Y-94514723D01*
X107029723Y-94364464D01*
X107029727Y-94364459D01*
X107154620Y-94192557D01*
X107251095Y-94003217D01*
X107316757Y-93801130D01*
X107316757Y-93801127D01*
X107350000Y-93591246D01*
X107350000Y-93585000D01*
X106433012Y-93585000D01*
X106465925Y-93527993D01*
X106500000Y-93400826D01*
X106500000Y-93269174D01*
X106465925Y-93142007D01*
X106433012Y-93085000D01*
X107350000Y-93085000D01*
X107350000Y-93078753D01*
X107316757Y-92868872D01*
X107316757Y-92868869D01*
X107251095Y-92666782D01*
X107154620Y-92477442D01*
X107029727Y-92305540D01*
X107029723Y-92305535D01*
X106879464Y-92155276D01*
X106879459Y-92155272D01*
X106707557Y-92030379D01*
X106518215Y-91933903D01*
X106316124Y-91868241D01*
X106250000Y-91857768D01*
X106250000Y-92901988D01*
X106192993Y-92869075D01*
X106065826Y-92835000D01*
X105934174Y-92835000D01*
X105807007Y-92869075D01*
X105750000Y-92901988D01*
X105750000Y-91857768D01*
X105749999Y-91857768D01*
X105683875Y-91868241D01*
X105481784Y-91933903D01*
X105292442Y-92030379D01*
X105120541Y-92155271D01*
X104981668Y-92294144D01*
X104920345Y-92327628D01*
X104850653Y-92322644D01*
X104794720Y-92280772D01*
X104788448Y-92271558D01*
X104692712Y-92116344D01*
X104568657Y-91992289D01*
X104568656Y-91992288D01*
X104419334Y-91900186D01*
X104252797Y-91845001D01*
X104252795Y-91845000D01*
X104154934Y-91835003D01*
X111694435Y-91835003D01*
X111714630Y-92014249D01*
X111714631Y-92014254D01*
X111774211Y-92184523D01*
X111850252Y-92305540D01*
X111870184Y-92337262D01*
X111997738Y-92464816D01*
X112150478Y-92560789D01*
X112320745Y-92620368D01*
X112320750Y-92620369D01*
X112499996Y-92640565D01*
X112500000Y-92640565D01*
X112500004Y-92640565D01*
X112679249Y-92620369D01*
X112679252Y-92620368D01*
X112679255Y-92620368D01*
X112849522Y-92560789D01*
X113002262Y-92464816D01*
X113129816Y-92337262D01*
X113225789Y-92184522D01*
X113285368Y-92014255D01*
X113295161Y-91927329D01*
X113322226Y-91862918D01*
X113330690Y-91853543D01*
X114358506Y-90825728D01*
X114358511Y-90825724D01*
X114368714Y-90815520D01*
X114368716Y-90815520D01*
X114480520Y-90703716D01*
X114559577Y-90566784D01*
X114600500Y-90414057D01*
X114600500Y-73417412D01*
X114620185Y-73350373D01*
X114627555Y-73340097D01*
X114629810Y-73337267D01*
X114629816Y-73337262D01*
X114725789Y-73184522D01*
X114785368Y-73014255D01*
X114786761Y-73001891D01*
X114805565Y-72835003D01*
X114805565Y-72834996D01*
X114785369Y-72655750D01*
X114785368Y-72655745D01*
X114725789Y-72485478D01*
X114629816Y-72332738D01*
X114502262Y-72205184D01*
X114349523Y-72109211D01*
X114179254Y-72049631D01*
X114179249Y-72049630D01*
X114000004Y-72029435D01*
X113999996Y-72029435D01*
X113820750Y-72049630D01*
X113820745Y-72049631D01*
X113650476Y-72109211D01*
X113497737Y-72205184D01*
X113370184Y-72332737D01*
X113274211Y-72485476D01*
X113214631Y-72655745D01*
X113214630Y-72655750D01*
X113194435Y-72834996D01*
X113194435Y-72835003D01*
X113214630Y-73014249D01*
X113214631Y-73014254D01*
X113274211Y-73184523D01*
X113370185Y-73337263D01*
X113372445Y-73340097D01*
X113373334Y-73342275D01*
X113373889Y-73343158D01*
X113373734Y-73343255D01*
X113398855Y-73404783D01*
X113399500Y-73417412D01*
X113399500Y-90034902D01*
X113379815Y-90101941D01*
X113363181Y-90122583D01*
X112481465Y-91004298D01*
X112420142Y-91037783D01*
X112407668Y-91039837D01*
X112320750Y-91049630D01*
X112150478Y-91109210D01*
X111997737Y-91205184D01*
X111870184Y-91332737D01*
X111774211Y-91485476D01*
X111714631Y-91655745D01*
X111714630Y-91655750D01*
X111694435Y-91834996D01*
X111694435Y-91835003D01*
X104154934Y-91835003D01*
X104150010Y-91834500D01*
X102849998Y-91834500D01*
X102849981Y-91834501D01*
X102747203Y-91845000D01*
X102747200Y-91845001D01*
X102580668Y-91900185D01*
X102580663Y-91900187D01*
X102431342Y-91992289D01*
X102307289Y-92116342D01*
X102215187Y-92265663D01*
X102215185Y-92265668D01*
X102210180Y-92280772D01*
X102160001Y-92432203D01*
X102160001Y-92432204D01*
X102160000Y-92432204D01*
X102149500Y-92534983D01*
X102149500Y-94135001D01*
X96375974Y-94135001D01*
X96375063Y-94124592D01*
X96313903Y-93896337D01*
X96214035Y-93682171D01*
X96208425Y-93674158D01*
X96078494Y-93488597D01*
X95911402Y-93321506D01*
X95911396Y-93321501D01*
X95725842Y-93191575D01*
X95682217Y-93136998D01*
X95675023Y-93067500D01*
X95706546Y-93005145D01*
X95725842Y-92988425D01*
X95896291Y-92869075D01*
X95911401Y-92858495D01*
X96078495Y-92691401D01*
X96214035Y-92497830D01*
X96313903Y-92283663D01*
X96375063Y-92055408D01*
X96395659Y-91820000D01*
X96375063Y-91584592D01*
X96313903Y-91356337D01*
X96214035Y-91142171D01*
X96208425Y-91134158D01*
X96078494Y-90948597D01*
X95911402Y-90781506D01*
X95911396Y-90781501D01*
X95725842Y-90651575D01*
X95682217Y-90596998D01*
X95675023Y-90527500D01*
X95706546Y-90465145D01*
X95725842Y-90448425D01*
X95774927Y-90414055D01*
X95911401Y-90318495D01*
X96078495Y-90151401D01*
X96214035Y-89957830D01*
X96313903Y-89743663D01*
X96375063Y-89515408D01*
X96395659Y-89280000D01*
X96375063Y-89044592D01*
X96313903Y-88816337D01*
X96214035Y-88602171D01*
X96208425Y-88594158D01*
X96078494Y-88408597D01*
X95911402Y-88241506D01*
X95911396Y-88241501D01*
X95725842Y-88111575D01*
X95682217Y-88056998D01*
X95675023Y-87987500D01*
X95706546Y-87925145D01*
X95725842Y-87908425D01*
X95844986Y-87824999D01*
X95911401Y-87778495D01*
X96078495Y-87611401D01*
X96214035Y-87417830D01*
X96313903Y-87203663D01*
X96332301Y-87135001D01*
X102149500Y-87135001D01*
X102149501Y-87135018D01*
X102160000Y-87237796D01*
X102160001Y-87237799D01*
X102205473Y-87375023D01*
X102215186Y-87404334D01*
X102307288Y-87553656D01*
X102431344Y-87677712D01*
X102580666Y-87769814D01*
X102747203Y-87824999D01*
X102849991Y-87835500D01*
X104150008Y-87835499D01*
X104252797Y-87824999D01*
X104419334Y-87769814D01*
X104568656Y-87677712D01*
X104692712Y-87553656D01*
X104784814Y-87404334D01*
X104784814Y-87404331D01*
X104788178Y-87398879D01*
X104840126Y-87352154D01*
X104909088Y-87340931D01*
X104973170Y-87368774D01*
X104981398Y-87376294D01*
X105120213Y-87515109D01*
X105292179Y-87640048D01*
X105292181Y-87640049D01*
X105292184Y-87640051D01*
X105481588Y-87736557D01*
X105683757Y-87802246D01*
X105893713Y-87835500D01*
X105893714Y-87835500D01*
X106106286Y-87835500D01*
X106106287Y-87835500D01*
X106316243Y-87802246D01*
X106518412Y-87736557D01*
X106707816Y-87640051D01*
X106747258Y-87611395D01*
X106879786Y-87515109D01*
X106879788Y-87515106D01*
X106879792Y-87515104D01*
X107030104Y-87364792D01*
X107030106Y-87364788D01*
X107030109Y-87364786D01*
X107141090Y-87212032D01*
X107155051Y-87192816D01*
X107251557Y-87003412D01*
X107317246Y-86801243D01*
X107350500Y-86591287D01*
X107350500Y-86078713D01*
X107317246Y-85868757D01*
X107251557Y-85666588D01*
X107155051Y-85477184D01*
X107155049Y-85477181D01*
X107155048Y-85477179D01*
X107030109Y-85305213D01*
X106879786Y-85154890D01*
X106707820Y-85029951D01*
X106518414Y-84933444D01*
X106518413Y-84933443D01*
X106518412Y-84933443D01*
X106316243Y-84867754D01*
X106316241Y-84867753D01*
X106316240Y-84867753D01*
X106154957Y-84842208D01*
X106106287Y-84834500D01*
X105893713Y-84834500D01*
X105845042Y-84842208D01*
X105683760Y-84867753D01*
X105481585Y-84933444D01*
X105292179Y-85029951D01*
X105120215Y-85154889D01*
X104981398Y-85293706D01*
X104920075Y-85327190D01*
X104850383Y-85322206D01*
X104794450Y-85280334D01*
X104788178Y-85271120D01*
X104692712Y-85116344D01*
X104568657Y-84992289D01*
X104568656Y-84992288D01*
X104419334Y-84900186D01*
X104252797Y-84845001D01*
X104252795Y-84845000D01*
X104150010Y-84834500D01*
X102849998Y-84834500D01*
X102849981Y-84834501D01*
X102747203Y-84845000D01*
X102747200Y-84845001D01*
X102580668Y-84900185D01*
X102580663Y-84900187D01*
X102431342Y-84992289D01*
X102307289Y-85116342D01*
X102215187Y-85265663D01*
X102215185Y-85265668D01*
X102210325Y-85280334D01*
X102160001Y-85432203D01*
X102160001Y-85432204D01*
X102160000Y-85432204D01*
X102149500Y-85534983D01*
X102149500Y-87135001D01*
X96332301Y-87135001D01*
X96375063Y-86975408D01*
X96395659Y-86740000D01*
X96375063Y-86504592D01*
X96313903Y-86276337D01*
X96214035Y-86062171D01*
X96208425Y-86054158D01*
X96078494Y-85868597D01*
X95911402Y-85701506D01*
X95911396Y-85701501D01*
X95725842Y-85571575D01*
X95682217Y-85516998D01*
X95675023Y-85447500D01*
X95706546Y-85385145D01*
X95725842Y-85368425D01*
X95748026Y-85352891D01*
X95911401Y-85238495D01*
X96078495Y-85071401D01*
X96214035Y-84877830D01*
X96313903Y-84663663D01*
X96375063Y-84435408D01*
X96395659Y-84200000D01*
X96375063Y-83964592D01*
X96313903Y-83736337D01*
X96214035Y-83522171D01*
X96208425Y-83514158D01*
X96078494Y-83328597D01*
X95911402Y-83161506D01*
X95911396Y-83161501D01*
X95725842Y-83031575D01*
X95682217Y-82976998D01*
X95675023Y-82907500D01*
X95706546Y-82845145D01*
X95725842Y-82828425D01*
X95748026Y-82812891D01*
X95911401Y-82698495D01*
X96078495Y-82531401D01*
X96214035Y-82337830D01*
X96313903Y-82123663D01*
X96375063Y-81895408D01*
X96395659Y-81660000D01*
X96375063Y-81424592D01*
X96313903Y-81196337D01*
X96214035Y-80982171D01*
X96208425Y-80974158D01*
X96078494Y-80788597D01*
X95911402Y-80621506D01*
X95911396Y-80621501D01*
X95725842Y-80491575D01*
X95682217Y-80436998D01*
X95675023Y-80367500D01*
X95706546Y-80305145D01*
X95725842Y-80288425D01*
X95748026Y-80272891D01*
X95911401Y-80158495D01*
X96078495Y-79991401D01*
X96214035Y-79797830D01*
X96313903Y-79583663D01*
X96375063Y-79355408D01*
X96395659Y-79120000D01*
X96375063Y-78884592D01*
X96313903Y-78656337D01*
X96214035Y-78442171D01*
X96208425Y-78434158D01*
X96078494Y-78248597D01*
X95964897Y-78135001D01*
X102149500Y-78135001D01*
X102149501Y-78135018D01*
X102160000Y-78237796D01*
X102160001Y-78237799D01*
X102205894Y-78376294D01*
X102215186Y-78404334D01*
X102307288Y-78553656D01*
X102431344Y-78677712D01*
X102580666Y-78769814D01*
X102747203Y-78824999D01*
X102849991Y-78835500D01*
X104150008Y-78835499D01*
X104252797Y-78824999D01*
X104419334Y-78769814D01*
X104568656Y-78677712D01*
X104692712Y-78553656D01*
X104784814Y-78404334D01*
X104784814Y-78404331D01*
X104788178Y-78398879D01*
X104840126Y-78352154D01*
X104909088Y-78340931D01*
X104973170Y-78368774D01*
X104981398Y-78376294D01*
X105120213Y-78515109D01*
X105292179Y-78640048D01*
X105292181Y-78640049D01*
X105292184Y-78640051D01*
X105481588Y-78736557D01*
X105683757Y-78802246D01*
X105893713Y-78835500D01*
X105893714Y-78835500D01*
X106106286Y-78835500D01*
X106106287Y-78835500D01*
X106316243Y-78802246D01*
X106518412Y-78736557D01*
X106707816Y-78640051D01*
X106729789Y-78624086D01*
X106879786Y-78515109D01*
X106879788Y-78515106D01*
X106879792Y-78515104D01*
X107030104Y-78364792D01*
X107030106Y-78364788D01*
X107030109Y-78364786D01*
X107155048Y-78192820D01*
X107155047Y-78192820D01*
X107155051Y-78192816D01*
X107251557Y-78003412D01*
X107317246Y-77801243D01*
X107350500Y-77591287D01*
X107350500Y-77078713D01*
X107317246Y-76868757D01*
X107251557Y-76666588D01*
X107155051Y-76477184D01*
X107155049Y-76477181D01*
X107155048Y-76477179D01*
X107030109Y-76305213D01*
X106879786Y-76154890D01*
X106707820Y-76029951D01*
X106518414Y-75933444D01*
X106518413Y-75933443D01*
X106518412Y-75933443D01*
X106316243Y-75867754D01*
X106316241Y-75867753D01*
X106316240Y-75867753D01*
X106154957Y-75842208D01*
X106106287Y-75834500D01*
X105893713Y-75834500D01*
X105845042Y-75842208D01*
X105683760Y-75867753D01*
X105481585Y-75933444D01*
X105292179Y-76029951D01*
X105120215Y-76154889D01*
X104981398Y-76293706D01*
X104920075Y-76327190D01*
X104850383Y-76322206D01*
X104794450Y-76280334D01*
X104788178Y-76271120D01*
X104692712Y-76116344D01*
X104568657Y-75992289D01*
X104568656Y-75992288D01*
X104440845Y-75913454D01*
X104419336Y-75900187D01*
X104419331Y-75900185D01*
X104401143Y-75894158D01*
X104252797Y-75845001D01*
X104252795Y-75845000D01*
X104150010Y-75834500D01*
X102849998Y-75834500D01*
X102849981Y-75834501D01*
X102747203Y-75845000D01*
X102747200Y-75845001D01*
X102580668Y-75900185D01*
X102580663Y-75900187D01*
X102431342Y-75992289D01*
X102307289Y-76116342D01*
X102215187Y-76265663D01*
X102215185Y-76265668D01*
X102210325Y-76280334D01*
X102160001Y-76432203D01*
X102160001Y-76432204D01*
X102160000Y-76432204D01*
X102149500Y-76534983D01*
X102149500Y-78135001D01*
X95964897Y-78135001D01*
X95911402Y-78081506D01*
X95911396Y-78081501D01*
X95725842Y-77951575D01*
X95682217Y-77896998D01*
X95675023Y-77827500D01*
X95706546Y-77765145D01*
X95725842Y-77748425D01*
X95748026Y-77732891D01*
X95911401Y-77618495D01*
X96078495Y-77451401D01*
X96214035Y-77257830D01*
X96313903Y-77043663D01*
X96375063Y-76815408D01*
X96395659Y-76580000D01*
X96375063Y-76344592D01*
X96313903Y-76116337D01*
X96214035Y-75902171D01*
X96212645Y-75900185D01*
X96078494Y-75708597D01*
X95911402Y-75541506D01*
X95911401Y-75541505D01*
X95725405Y-75411269D01*
X95681781Y-75356692D01*
X95674588Y-75287193D01*
X95706110Y-75224839D01*
X95725405Y-75208119D01*
X95911082Y-75078105D01*
X96078105Y-74911082D01*
X96213600Y-74717578D01*
X96313429Y-74503492D01*
X96313432Y-74503486D01*
X96370636Y-74290000D01*
X95473012Y-74290000D01*
X95505925Y-74232993D01*
X95540000Y-74105826D01*
X95540000Y-73974174D01*
X95505925Y-73847007D01*
X95473012Y-73790000D01*
X96370636Y-73790000D01*
X96370635Y-73789999D01*
X96313432Y-73576513D01*
X96313429Y-73576507D01*
X96213600Y-73362422D01*
X96213599Y-73362420D01*
X96078113Y-73168926D01*
X96078108Y-73168920D01*
X95911078Y-73001890D01*
X95725405Y-72871879D01*
X95681780Y-72817302D01*
X95674588Y-72747804D01*
X95706110Y-72685449D01*
X95725406Y-72668730D01*
X95725842Y-72668425D01*
X95911401Y-72538495D01*
X96078495Y-72371401D01*
X96214035Y-72177830D01*
X96313903Y-71963663D01*
X96375063Y-71735408D01*
X96395659Y-71500000D01*
X96375063Y-71264592D01*
X96340340Y-71135001D01*
X102149500Y-71135001D01*
X102149501Y-71135018D01*
X102160000Y-71237796D01*
X102160001Y-71237799D01*
X102205894Y-71376294D01*
X102215186Y-71404334D01*
X102307288Y-71553656D01*
X102431344Y-71677712D01*
X102580666Y-71769814D01*
X102747203Y-71824999D01*
X102849991Y-71835500D01*
X104150008Y-71835499D01*
X104252797Y-71824999D01*
X104419334Y-71769814D01*
X104568656Y-71677712D01*
X104692712Y-71553656D01*
X104784814Y-71404334D01*
X104784814Y-71404331D01*
X104788178Y-71398879D01*
X104840126Y-71352154D01*
X104909088Y-71340931D01*
X104973170Y-71368774D01*
X104981398Y-71376294D01*
X105120213Y-71515109D01*
X105292179Y-71640048D01*
X105292181Y-71640049D01*
X105292184Y-71640051D01*
X105481588Y-71736557D01*
X105683757Y-71802246D01*
X105893713Y-71835500D01*
X105893714Y-71835500D01*
X106106286Y-71835500D01*
X106106287Y-71835500D01*
X106316243Y-71802246D01*
X106518412Y-71736557D01*
X106707816Y-71640051D01*
X106729789Y-71624086D01*
X106879786Y-71515109D01*
X106879788Y-71515106D01*
X106879792Y-71515104D01*
X107030104Y-71364792D01*
X107030106Y-71364788D01*
X107030109Y-71364786D01*
X107155048Y-71192820D01*
X107155047Y-71192820D01*
X107155051Y-71192816D01*
X107251557Y-71003412D01*
X107317246Y-70801243D01*
X107350500Y-70591287D01*
X107350500Y-70078713D01*
X107317246Y-69868757D01*
X107251557Y-69666588D01*
X107155051Y-69477184D01*
X107155049Y-69477181D01*
X107155048Y-69477179D01*
X107030109Y-69305213D01*
X106879786Y-69154890D01*
X106707820Y-69029951D01*
X106518414Y-68933444D01*
X106518413Y-68933443D01*
X106518412Y-68933443D01*
X106316243Y-68867754D01*
X106316241Y-68867753D01*
X106316240Y-68867753D01*
X106154957Y-68842208D01*
X106106287Y-68834500D01*
X105893713Y-68834500D01*
X105845042Y-68842208D01*
X105683760Y-68867753D01*
X105481585Y-68933444D01*
X105292179Y-69029951D01*
X105120215Y-69154889D01*
X104981398Y-69293706D01*
X104920075Y-69327190D01*
X104850383Y-69322206D01*
X104794450Y-69280334D01*
X104788178Y-69271120D01*
X104692712Y-69116344D01*
X104568657Y-68992289D01*
X104568656Y-68992288D01*
X104419334Y-68900186D01*
X104252797Y-68845001D01*
X104252795Y-68845000D01*
X104150010Y-68834500D01*
X102849998Y-68834500D01*
X102849981Y-68834501D01*
X102747203Y-68845000D01*
X102747200Y-68845001D01*
X102580668Y-68900185D01*
X102580663Y-68900187D01*
X102431342Y-68992289D01*
X102307289Y-69116342D01*
X102215187Y-69265663D01*
X102215185Y-69265668D01*
X102210325Y-69280334D01*
X102160001Y-69432203D01*
X102160001Y-69432204D01*
X102160000Y-69432204D01*
X102149500Y-69534983D01*
X102149500Y-71135001D01*
X96340340Y-71135001D01*
X96313903Y-71036337D01*
X96214035Y-70822171D01*
X96208425Y-70814158D01*
X96078494Y-70628597D01*
X95911402Y-70461506D01*
X95911396Y-70461501D01*
X95725842Y-70331575D01*
X95682217Y-70276998D01*
X95675023Y-70207500D01*
X95706546Y-70145145D01*
X95725842Y-70128425D01*
X95796838Y-70078713D01*
X95911401Y-69998495D01*
X96078495Y-69831401D01*
X96214035Y-69637830D01*
X96313903Y-69423663D01*
X96375063Y-69195408D01*
X96395659Y-68960000D01*
X96375063Y-68724592D01*
X96313903Y-68496337D01*
X96214035Y-68282171D01*
X96078495Y-68088599D01*
X96078494Y-68088597D01*
X95911402Y-67921506D01*
X95911395Y-67921501D01*
X95717834Y-67785967D01*
X95717830Y-67785965D01*
X95717828Y-67785964D01*
X95503663Y-67686097D01*
X95503659Y-67686096D01*
X95503655Y-67686094D01*
X95275413Y-67624938D01*
X95275403Y-67624936D01*
X95040001Y-67604341D01*
X95039999Y-67604341D01*
X94804596Y-67624936D01*
X94804586Y-67624938D01*
X94576344Y-67686094D01*
X94576335Y-67686098D01*
X94362171Y-67785964D01*
X94362169Y-67785965D01*
X94168600Y-67921503D01*
X94046673Y-68043430D01*
X93985350Y-68076914D01*
X93915658Y-68071930D01*
X93859725Y-68030058D01*
X93842810Y-67999081D01*
X93793797Y-67867671D01*
X93793793Y-67867664D01*
X93707547Y-67752455D01*
X93707544Y-67752452D01*
X93592335Y-67666206D01*
X93592328Y-67666202D01*
X93457482Y-67615908D01*
X93457483Y-67615908D01*
X93397883Y-67609501D01*
X93397881Y-67609500D01*
X93397873Y-67609500D01*
X93397864Y-67609500D01*
X91602129Y-67609500D01*
X91602123Y-67609501D01*
X91542516Y-67615908D01*
X91407671Y-67666202D01*
X91407664Y-67666206D01*
X91292455Y-67752452D01*
X91292452Y-67752455D01*
X91206206Y-67867664D01*
X91206202Y-67867671D01*
X91155908Y-68002517D01*
X91149501Y-68062116D01*
X91149500Y-68062135D01*
X91149500Y-69857870D01*
X91149501Y-69857876D01*
X91155908Y-69917483D01*
X91206202Y-70052328D01*
X91206206Y-70052335D01*
X91292452Y-70167544D01*
X91292455Y-70167547D01*
X91407664Y-70253793D01*
X91407671Y-70253797D01*
X91539081Y-70302810D01*
X91595015Y-70344681D01*
X91619432Y-70410145D01*
X91604580Y-70478418D01*
X91583430Y-70506673D01*
X91461503Y-70628600D01*
X91325965Y-70822169D01*
X91325964Y-70822171D01*
X91226098Y-71036335D01*
X91226094Y-71036344D01*
X91164938Y-71264586D01*
X91164936Y-71264596D01*
X91144341Y-71499999D01*
X91144341Y-71500000D01*
X91164936Y-71735403D01*
X91164938Y-71735413D01*
X91226094Y-71963655D01*
X91226096Y-71963659D01*
X91226097Y-71963663D01*
X91306004Y-72135023D01*
X91325965Y-72177830D01*
X91325967Y-72177834D01*
X91345118Y-72205184D01*
X91461501Y-72371396D01*
X91461506Y-72371402D01*
X91628597Y-72538493D01*
X91628603Y-72538498D01*
X91814158Y-72668425D01*
X91857783Y-72723002D01*
X91864977Y-72792500D01*
X91833454Y-72854855D01*
X91814158Y-72871575D01*
X91628597Y-73001505D01*
X91461505Y-73168597D01*
X91325965Y-73362169D01*
X91325964Y-73362171D01*
X91226098Y-73576335D01*
X91226094Y-73576344D01*
X91164938Y-73804586D01*
X91164936Y-73804596D01*
X91144341Y-74039999D01*
X91144341Y-74040000D01*
X91164936Y-74275403D01*
X91164938Y-74275413D01*
X91226094Y-74503655D01*
X91226096Y-74503659D01*
X91226097Y-74503663D01*
X91309155Y-74681781D01*
X91325965Y-74717830D01*
X91325967Y-74717834D01*
X91434281Y-74872521D01*
X91461501Y-74911396D01*
X91461506Y-74911402D01*
X91628597Y-75078493D01*
X91628603Y-75078498D01*
X91814158Y-75208425D01*
X91857783Y-75263002D01*
X91864977Y-75332500D01*
X91833454Y-75394855D01*
X91814158Y-75411575D01*
X91628597Y-75541505D01*
X91461505Y-75708597D01*
X91325965Y-75902169D01*
X91325964Y-75902171D01*
X91226098Y-76116335D01*
X91226094Y-76116344D01*
X91164938Y-76344586D01*
X91164936Y-76344596D01*
X91144341Y-76579999D01*
X91144341Y-76580000D01*
X91164936Y-76815403D01*
X91164938Y-76815413D01*
X91226094Y-77043655D01*
X91226096Y-77043659D01*
X91226097Y-77043663D01*
X91306004Y-77215023D01*
X91325965Y-77257830D01*
X91325967Y-77257834D01*
X91434281Y-77412521D01*
X91461501Y-77451396D01*
X91461506Y-77451402D01*
X91628597Y-77618493D01*
X91628603Y-77618498D01*
X91814158Y-77748425D01*
X91857783Y-77803002D01*
X91864977Y-77872500D01*
X91833454Y-77934855D01*
X91814158Y-77951575D01*
X91628597Y-78081505D01*
X91461505Y-78248597D01*
X91325965Y-78442169D01*
X91325964Y-78442171D01*
X91226098Y-78656335D01*
X91226094Y-78656344D01*
X91164938Y-78884586D01*
X91164936Y-78884596D01*
X91144341Y-79119999D01*
X91144341Y-79120000D01*
X91164936Y-79355403D01*
X91164938Y-79355413D01*
X91226094Y-79583655D01*
X91226096Y-79583659D01*
X91226097Y-79583663D01*
X91230000Y-79592032D01*
X91325965Y-79797830D01*
X91325967Y-79797834D01*
X91434281Y-79952521D01*
X91461501Y-79991396D01*
X91461506Y-79991402D01*
X91628597Y-80158493D01*
X91628603Y-80158498D01*
X91814158Y-80288425D01*
X91857783Y-80343002D01*
X91864977Y-80412500D01*
X91833454Y-80474855D01*
X91814158Y-80491575D01*
X91628597Y-80621505D01*
X91461505Y-80788597D01*
X91325965Y-80982169D01*
X91325964Y-80982171D01*
X91226098Y-81196335D01*
X91226094Y-81196344D01*
X91164938Y-81424586D01*
X91164936Y-81424596D01*
X91144341Y-81659999D01*
X91144341Y-81660000D01*
X91164936Y-81895403D01*
X91164938Y-81895413D01*
X91226094Y-82123655D01*
X91226096Y-82123659D01*
X91226097Y-82123663D01*
X91230000Y-82132032D01*
X91325965Y-82337830D01*
X91325967Y-82337834D01*
X91434281Y-82492521D01*
X91461501Y-82531396D01*
X91461506Y-82531402D01*
X91628597Y-82698493D01*
X91628603Y-82698498D01*
X91814158Y-82828425D01*
X91857783Y-82883002D01*
X91864977Y-82952500D01*
X91833454Y-83014855D01*
X91814158Y-83031575D01*
X91628597Y-83161505D01*
X91461505Y-83328597D01*
X91325965Y-83522169D01*
X91325964Y-83522171D01*
X91226098Y-83736335D01*
X91226094Y-83736344D01*
X91164938Y-83964586D01*
X91164936Y-83964596D01*
X91144341Y-84199999D01*
X91144341Y-84200000D01*
X91164936Y-84435403D01*
X91164938Y-84435413D01*
X91226094Y-84663655D01*
X91226096Y-84663659D01*
X91226097Y-84663663D01*
X91230000Y-84672032D01*
X91325965Y-84877830D01*
X91325967Y-84877834D01*
X91364906Y-84933444D01*
X91461501Y-85071396D01*
X91461506Y-85071402D01*
X91628597Y-85238493D01*
X91628603Y-85238498D01*
X91814158Y-85368425D01*
X91857783Y-85423002D01*
X91864977Y-85492500D01*
X91833454Y-85554855D01*
X91814158Y-85571575D01*
X91628597Y-85701505D01*
X91461505Y-85868597D01*
X91325965Y-86062169D01*
X91325964Y-86062171D01*
X91226098Y-86276335D01*
X91226094Y-86276344D01*
X91164938Y-86504586D01*
X91164936Y-86504596D01*
X91144341Y-86739999D01*
X91144341Y-86740000D01*
X91164936Y-86975403D01*
X91164938Y-86975413D01*
X91226094Y-87203655D01*
X91226096Y-87203659D01*
X91226097Y-87203663D01*
X91230000Y-87212032D01*
X91325965Y-87417830D01*
X91325967Y-87417834D01*
X91421071Y-87553655D01*
X91461501Y-87611396D01*
X91461506Y-87611402D01*
X91628597Y-87778493D01*
X91628603Y-87778498D01*
X91814158Y-87908425D01*
X91857783Y-87963002D01*
X91864977Y-88032500D01*
X91833454Y-88094855D01*
X91814158Y-88111575D01*
X91628597Y-88241505D01*
X91461505Y-88408597D01*
X91325965Y-88602169D01*
X91325964Y-88602171D01*
X91226098Y-88816335D01*
X91226094Y-88816344D01*
X91164938Y-89044586D01*
X91164936Y-89044596D01*
X91144341Y-89279999D01*
X91144341Y-89280000D01*
X91164936Y-89515403D01*
X91164938Y-89515413D01*
X91226094Y-89743655D01*
X91226096Y-89743659D01*
X91226097Y-89743663D01*
X91230000Y-89752032D01*
X91325965Y-89957830D01*
X91325967Y-89957834D01*
X91379931Y-90034902D01*
X91461501Y-90151396D01*
X91461506Y-90151402D01*
X91628597Y-90318493D01*
X91628603Y-90318498D01*
X91814158Y-90448425D01*
X91857783Y-90503002D01*
X91864977Y-90572500D01*
X91833454Y-90634855D01*
X91814158Y-90651575D01*
X91628597Y-90781505D01*
X91461505Y-90948597D01*
X91325965Y-91142169D01*
X91325964Y-91142171D01*
X91226098Y-91356335D01*
X91226094Y-91356344D01*
X91164938Y-91584586D01*
X91164936Y-91584596D01*
X91144341Y-91819999D01*
X91144341Y-91820000D01*
X91164936Y-92055403D01*
X91164938Y-92055413D01*
X91226094Y-92283655D01*
X91226096Y-92283659D01*
X91226097Y-92283663D01*
X91251091Y-92337262D01*
X91325965Y-92497830D01*
X91325967Y-92497834D01*
X91370049Y-92560789D01*
X91461501Y-92691396D01*
X91461506Y-92691402D01*
X91628597Y-92858493D01*
X91628603Y-92858498D01*
X91814158Y-92988425D01*
X91857783Y-93043002D01*
X91864977Y-93112500D01*
X91833454Y-93174855D01*
X91814158Y-93191575D01*
X91628597Y-93321505D01*
X91461505Y-93488597D01*
X91325965Y-93682169D01*
X91325964Y-93682171D01*
X91226098Y-93896335D01*
X91226094Y-93896344D01*
X91164938Y-94124586D01*
X91164936Y-94124596D01*
X91144341Y-94359999D01*
X91144341Y-94360000D01*
X91164936Y-94595403D01*
X91164938Y-94595413D01*
X91226094Y-94823655D01*
X91226096Y-94823659D01*
X91226097Y-94823663D01*
X91231617Y-94835500D01*
X91325965Y-95037830D01*
X91325967Y-95037834D01*
X91434281Y-95192521D01*
X91461501Y-95231396D01*
X91461506Y-95231402D01*
X91628597Y-95398493D01*
X91628603Y-95398498D01*
X91814158Y-95528425D01*
X91857783Y-95583002D01*
X91864977Y-95652500D01*
X91833454Y-95714855D01*
X91814158Y-95731575D01*
X91628597Y-95861505D01*
X91461505Y-96028597D01*
X91325965Y-96222169D01*
X91325964Y-96222171D01*
X91226098Y-96436335D01*
X91226094Y-96436344D01*
X91164938Y-96664586D01*
X91164936Y-96664596D01*
X91144341Y-96899999D01*
X91144341Y-96900000D01*
X91164936Y-97135403D01*
X91164938Y-97135413D01*
X91226094Y-97363655D01*
X91226096Y-97363659D01*
X91226097Y-97363663D01*
X91230000Y-97372032D01*
X91325965Y-97577830D01*
X91325967Y-97577834D01*
X91434281Y-97732521D01*
X91461501Y-97771396D01*
X91461506Y-97771402D01*
X91628597Y-97938493D01*
X91628603Y-97938498D01*
X91814158Y-98068425D01*
X91857783Y-98123002D01*
X91864977Y-98192500D01*
X91833454Y-98254855D01*
X91814158Y-98271575D01*
X91628597Y-98401505D01*
X91461505Y-98568597D01*
X91325965Y-98762169D01*
X91325964Y-98762171D01*
X91226098Y-98976335D01*
X91226094Y-98976344D01*
X91164938Y-99204586D01*
X91164936Y-99204596D01*
X91144341Y-99439999D01*
X91144341Y-99440000D01*
X91164936Y-99675403D01*
X91164938Y-99675413D01*
X91226094Y-99903655D01*
X91226096Y-99903659D01*
X91226097Y-99903663D01*
X91287337Y-100034992D01*
X91325965Y-100117830D01*
X91325967Y-100117834D01*
X91434281Y-100272521D01*
X91461501Y-100311396D01*
X91461506Y-100311402D01*
X91628597Y-100478493D01*
X91628603Y-100478498D01*
X91814158Y-100608425D01*
X91857783Y-100663002D01*
X91864977Y-100732500D01*
X91833454Y-100794855D01*
X91814158Y-100811575D01*
X91628597Y-100941505D01*
X91461505Y-101108597D01*
X91325965Y-101302169D01*
X91325964Y-101302171D01*
X91226098Y-101516335D01*
X91226094Y-101516344D01*
X91164938Y-101744586D01*
X91164936Y-101744596D01*
X91144341Y-101979999D01*
X91144341Y-101980000D01*
X91164936Y-102215403D01*
X91164938Y-102215413D01*
X91226092Y-102443647D01*
X91226094Y-102443655D01*
X91226097Y-102443663D01*
X91230000Y-102452032D01*
X91325965Y-102657830D01*
X91325967Y-102657834D01*
X91434281Y-102812521D01*
X91461501Y-102851396D01*
X91461506Y-102851402D01*
X91628597Y-103018493D01*
X91628603Y-103018498D01*
X91814158Y-103148425D01*
X91857783Y-103203002D01*
X91864977Y-103272500D01*
X91833454Y-103334855D01*
X91814158Y-103351575D01*
X91628597Y-103481505D01*
X91461505Y-103648597D01*
X91325965Y-103842169D01*
X91325964Y-103842171D01*
X91226098Y-104056335D01*
X91226094Y-104056344D01*
X91164938Y-104284586D01*
X91164936Y-104284596D01*
X91144341Y-104519999D01*
X91144341Y-104520000D01*
X91164936Y-104755403D01*
X91164938Y-104755413D01*
X91226094Y-104983655D01*
X91226096Y-104983659D01*
X91226097Y-104983663D01*
X91230000Y-104992032D01*
X91325965Y-105197830D01*
X91325967Y-105197834D01*
X91434281Y-105352521D01*
X91461501Y-105391396D01*
X91461506Y-105391402D01*
X91628597Y-105558493D01*
X91628603Y-105558498D01*
X91814158Y-105688425D01*
X91857783Y-105743002D01*
X91864977Y-105812500D01*
X91833454Y-105874855D01*
X91814158Y-105891575D01*
X91628597Y-106021505D01*
X91461505Y-106188597D01*
X91325965Y-106382169D01*
X91325964Y-106382171D01*
X91226098Y-106596335D01*
X91226094Y-106596344D01*
X91164938Y-106824586D01*
X91164936Y-106824596D01*
X91144341Y-107059999D01*
X91144341Y-107060000D01*
X91164936Y-107295403D01*
X91164938Y-107295413D01*
X91226094Y-107523655D01*
X91226096Y-107523659D01*
X91226097Y-107523663D01*
X91230000Y-107532032D01*
X91325965Y-107737830D01*
X91325967Y-107737834D01*
X91434281Y-107892521D01*
X91461501Y-107931396D01*
X91461506Y-107931402D01*
X91628597Y-108098493D01*
X91628603Y-108098498D01*
X91814158Y-108228425D01*
X91857783Y-108283002D01*
X91864977Y-108352500D01*
X91833454Y-108414855D01*
X91814158Y-108431575D01*
X91628597Y-108561505D01*
X91461505Y-108728597D01*
X91325965Y-108922169D01*
X91325964Y-108922171D01*
X91226098Y-109136335D01*
X91226094Y-109136344D01*
X91164938Y-109364586D01*
X91164936Y-109364596D01*
X91144341Y-109599999D01*
X91144341Y-109600000D01*
X91164936Y-109835403D01*
X91164938Y-109835413D01*
X91226094Y-110063655D01*
X91226096Y-110063659D01*
X91226097Y-110063663D01*
X91230000Y-110072032D01*
X91325965Y-110277830D01*
X91325967Y-110277834D01*
X91434281Y-110432521D01*
X91461501Y-110471396D01*
X91461506Y-110471402D01*
X91628597Y-110638493D01*
X91628603Y-110638498D01*
X91814158Y-110768425D01*
X91857783Y-110823002D01*
X91864977Y-110892500D01*
X91833454Y-110954855D01*
X91814158Y-110971575D01*
X91628597Y-111101505D01*
X91461505Y-111268597D01*
X91325965Y-111462169D01*
X91325964Y-111462171D01*
X91226098Y-111676335D01*
X91226094Y-111676344D01*
X91164938Y-111904586D01*
X91164936Y-111904596D01*
X91144341Y-112139999D01*
X91144341Y-112140000D01*
X91164936Y-112375403D01*
X91164938Y-112375413D01*
X91226094Y-112603655D01*
X91226096Y-112603659D01*
X91226097Y-112603663D01*
X91230000Y-112612032D01*
X91325965Y-112817830D01*
X91325967Y-112817834D01*
X91434281Y-112972521D01*
X91461501Y-113011396D01*
X91461506Y-113011402D01*
X91628597Y-113178493D01*
X91628603Y-113178498D01*
X91814158Y-113308425D01*
X91857783Y-113363002D01*
X91864977Y-113432500D01*
X91833454Y-113494855D01*
X91814158Y-113511575D01*
X91628597Y-113641505D01*
X91461505Y-113808597D01*
X91325965Y-114002169D01*
X91325964Y-114002171D01*
X91226098Y-114216335D01*
X91226094Y-114216344D01*
X91164938Y-114444586D01*
X91164936Y-114444596D01*
X91144341Y-114679999D01*
X91144341Y-114680000D01*
X91164936Y-114915403D01*
X91164938Y-114915413D01*
X91226094Y-115143655D01*
X91226096Y-115143659D01*
X91226097Y-115143663D01*
X91230000Y-115152032D01*
X91325965Y-115357830D01*
X91325967Y-115357834D01*
X91434281Y-115512521D01*
X91461501Y-115551396D01*
X91461506Y-115551402D01*
X91628597Y-115718493D01*
X91628603Y-115718498D01*
X91814158Y-115848425D01*
X91857783Y-115903002D01*
X91864977Y-115972500D01*
X91833454Y-116034855D01*
X91814158Y-116051575D01*
X91628597Y-116181505D01*
X91461505Y-116348597D01*
X91325965Y-116542169D01*
X91325964Y-116542171D01*
X91226098Y-116756335D01*
X91226094Y-116756344D01*
X91164938Y-116984586D01*
X91164936Y-116984596D01*
X91144341Y-117219999D01*
X91144341Y-117220000D01*
X90500500Y-117220000D01*
X90500500Y-67124500D01*
X90520185Y-67057461D01*
X90572989Y-67011706D01*
X90624500Y-67000500D01*
X116375500Y-67000500D01*
X116442539Y-67020185D01*
G37*
G04 #@! TD.AperFunction*
M02*
