G04 #@! TF.GenerationSoftware,KiCad,Pcbnew,8.0.1*
G04 #@! TF.CreationDate,2024-04-25T21:13:49-06:00*
G04 #@! TF.ProjectId,Small_PCB,536d616c-6c5f-4504-9342-2e6b69636164,rev?*
G04 #@! TF.SameCoordinates,Original*
G04 #@! TF.FileFunction,Soldermask,Bot*
G04 #@! TF.FilePolarity,Negative*
%FSLAX46Y46*%
G04 Gerber Fmt 4.6, Leading zero omitted, Abs format (unit mm)*
G04 Created by KiCad (PCBNEW 8.0.1) date 2024-04-25 21:13:49*
%MOMM*%
%LPD*%
G01*
G04 APERTURE LIST*
G04 Aperture macros list*
%AMRoundRect*
0 Rectangle with rounded corners*
0 $1 Rounding radius*
0 $2 $3 $4 $5 $6 $7 $8 $9 X,Y pos of 4 corners*
0 Add a 4 corners polygon primitive as box body*
4,1,4,$2,$3,$4,$5,$6,$7,$8,$9,$2,$3,0*
0 Add four circle primitives for the rounded corners*
1,1,$1+$1,$2,$3*
1,1,$1+$1,$4,$5*
1,1,$1+$1,$6,$7*
1,1,$1+$1,$8,$9*
0 Add four rect primitives between the rounded corners*
20,1,$1+$1,$2,$3,$4,$5,0*
20,1,$1+$1,$4,$5,$6,$7,0*
20,1,$1+$1,$6,$7,$8,$9,0*
20,1,$1+$1,$8,$9,$2,$3,0*%
G04 Aperture macros list end*
%ADD10RoundRect,0.250000X-0.600000X-0.750000X0.600000X-0.750000X0.600000X0.750000X-0.600000X0.750000X0*%
%ADD11O,1.700000X2.000000*%
%ADD12R,1.700000X1.700000*%
%ADD13O,1.700000X1.700000*%
G04 APERTURE END LIST*
D10*
X103500000Y-86335000D03*
D11*
X106000000Y-86335000D03*
D10*
X103500000Y-100835000D03*
D11*
X106000000Y-100835000D03*
D10*
X103500000Y-93335000D03*
D11*
X106000000Y-93335000D03*
D10*
X103500000Y-77335000D03*
D11*
X106000000Y-77335000D03*
D10*
X103500000Y-70335000D03*
D11*
X106000000Y-70335000D03*
D12*
X92500000Y-68960000D03*
D13*
X95040000Y-68960000D03*
X92500000Y-71500000D03*
X95040000Y-71500000D03*
X92500000Y-74040000D03*
X95040000Y-74040000D03*
X92500000Y-76580000D03*
X95040000Y-76580000D03*
X92500000Y-79120000D03*
X95040000Y-79120000D03*
X92500000Y-81660000D03*
X95040000Y-81660000D03*
X92500000Y-84200000D03*
X95040000Y-84200000D03*
X92500000Y-86740000D03*
X95040000Y-86740000D03*
X92500000Y-89280000D03*
X95040000Y-89280000D03*
X92500000Y-91820000D03*
X95040000Y-91820000D03*
X92500000Y-94360000D03*
X95040000Y-94360000D03*
X92500000Y-96900000D03*
X95040000Y-96900000D03*
X92500000Y-99440000D03*
X95040000Y-99440000D03*
X92500000Y-101980000D03*
X95040000Y-101980000D03*
X92500000Y-104520000D03*
X95040000Y-104520000D03*
X92500000Y-107060000D03*
X95040000Y-107060000D03*
X92500000Y-109600000D03*
X95040000Y-109600000D03*
X92500000Y-112140000D03*
X95040000Y-112140000D03*
X92500000Y-114680000D03*
X95040000Y-114680000D03*
X92500000Y-117220000D03*
X95040000Y-117220000D03*
M02*
